%TF.GenerationSoftware,KiCad,Pcbnew,7.0.2*%
%TF.CreationDate,2023-06-11T23:23:12-04:00*%
%TF.ProjectId,SoftProject,536f6674-5072-46f6-9a65-63742e6b6963,rev?*%
%TF.SameCoordinates,Original*%
%TF.FileFunction,Soldermask,Top*%
%TF.FilePolarity,Negative*%
%FSLAX46Y46*%
G04 Gerber Fmt 4.6, Leading zero omitted, Abs format (unit mm)*
G04 Created by KiCad (PCBNEW 7.0.2) date 2023-06-11 23:23:12*
%MOMM*%
%LPD*%
G01*
G04 APERTURE LIST*
G04 Aperture macros list*
%AMRoundRect*
0 Rectangle with rounded corners*
0 $1 Rounding radius*
0 $2 $3 $4 $5 $6 $7 $8 $9 X,Y pos of 4 corners*
0 Add a 4 corners polygon primitive as box body*
4,1,4,$2,$3,$4,$5,$6,$7,$8,$9,$2,$3,0*
0 Add four circle primitives for the rounded corners*
1,1,$1+$1,$2,$3*
1,1,$1+$1,$4,$5*
1,1,$1+$1,$6,$7*
1,1,$1+$1,$8,$9*
0 Add four rect primitives between the rounded corners*
20,1,$1+$1,$2,$3,$4,$5,0*
20,1,$1+$1,$4,$5,$6,$7,0*
20,1,$1+$1,$6,$7,$8,$9,0*
20,1,$1+$1,$8,$9,$2,$3,0*%
G04 Aperture macros list end*
%ADD10R,0.400000X1.350000*%
%ADD11R,1.500000X1.900000*%
%ADD12R,1.200000X1.900000*%
%ADD13O,1.200000X1.900000*%
%ADD14C,1.450000*%
%ADD15RoundRect,0.112500X-0.112500X0.187500X-0.112500X-0.187500X0.112500X-0.187500X0.112500X0.187500X0*%
%ADD16R,1.500000X2.000000*%
%ADD17R,3.800000X2.000000*%
%ADD18RoundRect,0.140000X0.170000X-0.140000X0.170000X0.140000X-0.170000X0.140000X-0.170000X-0.140000X0*%
%ADD19RoundRect,0.135000X0.185000X-0.135000X0.185000X0.135000X-0.185000X0.135000X-0.185000X-0.135000X0*%
%ADD20RoundRect,0.250000X0.250000X0.475000X-0.250000X0.475000X-0.250000X-0.475000X0.250000X-0.475000X0*%
%ADD21RoundRect,0.062500X-0.337500X-0.062500X0.337500X-0.062500X0.337500X0.062500X-0.337500X0.062500X0*%
%ADD22RoundRect,0.062500X-0.062500X-0.337500X0.062500X-0.337500X0.062500X0.337500X-0.062500X0.337500X0*%
%ADD23R,3.350000X3.350000*%
%ADD24C,2.200000*%
%ADD25RoundRect,0.250000X-0.475000X0.250000X-0.475000X-0.250000X0.475000X-0.250000X0.475000X0.250000X0*%
%ADD26RoundRect,0.218750X0.256250X-0.218750X0.256250X0.218750X-0.256250X0.218750X-0.256250X-0.218750X0*%
%ADD27RoundRect,0.135000X-0.135000X-0.185000X0.135000X-0.185000X0.135000X0.185000X-0.135000X0.185000X0*%
%ADD28RoundRect,0.135000X-0.185000X0.135000X-0.185000X-0.135000X0.185000X-0.135000X0.185000X0.135000X0*%
%ADD29R,1.700000X0.800000*%
%ADD30R,0.700000X1.000000*%
%ADD31R,0.700000X0.600000*%
%ADD32RoundRect,0.150000X-0.587500X-0.150000X0.587500X-0.150000X0.587500X0.150000X-0.587500X0.150000X0*%
%ADD33RoundRect,0.140000X-0.140000X-0.170000X0.140000X-0.170000X0.140000X0.170000X-0.140000X0.170000X0*%
%ADD34RoundRect,0.135000X0.135000X0.185000X-0.135000X0.185000X-0.135000X-0.185000X0.135000X-0.185000X0*%
%ADD35R,1.500000X0.900000*%
%ADD36R,0.900000X1.500000*%
%ADD37R,4.100000X4.100000*%
%ADD38RoundRect,0.250000X0.475000X-0.250000X0.475000X0.250000X-0.475000X0.250000X-0.475000X-0.250000X0*%
%ADD39RoundRect,0.150000X0.587500X0.150000X-0.587500X0.150000X-0.587500X-0.150000X0.587500X-0.150000X0*%
%ADD40RoundRect,0.225000X0.250000X-0.225000X0.250000X0.225000X-0.250000X0.225000X-0.250000X-0.225000X0*%
%ADD41R,1.700000X1.700000*%
%ADD42O,1.700000X1.700000*%
%ADD43RoundRect,0.140000X-0.170000X0.140000X-0.170000X-0.140000X0.170000X-0.140000X0.170000X0.140000X0*%
%ADD44RoundRect,0.140000X0.140000X0.170000X-0.140000X0.170000X-0.140000X-0.170000X0.140000X-0.170000X0*%
G04 APERTURE END LIST*
D10*
%TO.C,J1*%
X93310000Y-113919000D03*
X93960000Y-113919000D03*
X94610000Y-113919000D03*
X95260000Y-113919000D03*
X95910000Y-113919000D03*
D11*
X93610000Y-116619000D03*
D12*
X97510000Y-116619000D03*
D13*
X98110000Y-116619000D03*
D14*
X92110000Y-113919000D03*
D13*
X91110000Y-116619000D03*
D12*
X91710000Y-116619000D03*
D14*
X97110000Y-113919000D03*
D11*
X95610000Y-116619000D03*
%TD*%
D15*
%TO.C,D3*%
X94615000Y-103505000D03*
X94615000Y-105605000D03*
%TD*%
D16*
%TO.C,U2*%
X84187000Y-100280000D03*
X86487000Y-100280000D03*
D17*
X86487000Y-93980000D03*
D16*
X88787000Y-100280000D03*
%TD*%
D18*
%TO.C,C11*%
X98552000Y-87701000D03*
X98552000Y-86741000D03*
%TD*%
D19*
%TO.C,R6*%
X97409000Y-89920000D03*
X97409000Y-88900000D03*
%TD*%
D18*
%TO.C,C1*%
X84074000Y-59634000D03*
X84074000Y-58674000D03*
%TD*%
D20*
%TO.C,C6*%
X86487000Y-102743000D03*
X84587000Y-102743000D03*
%TD*%
D21*
%TO.C,U3*%
X102810000Y-96521000D03*
X102810000Y-97021000D03*
X102810000Y-97521000D03*
X102810000Y-98021000D03*
X102810000Y-98521000D03*
X102810000Y-99021000D03*
X102810000Y-99521000D03*
D22*
X103760000Y-100471000D03*
X104260000Y-100471000D03*
X104760000Y-100471000D03*
X105260000Y-100471000D03*
X105760000Y-100471000D03*
X106260000Y-100471000D03*
X106760000Y-100471000D03*
D21*
X107710000Y-99521000D03*
X107710000Y-99021000D03*
X107710000Y-98521000D03*
X107710000Y-98021000D03*
X107710000Y-97521000D03*
X107710000Y-97021000D03*
X107710000Y-96521000D03*
D22*
X106760000Y-95571000D03*
X106260000Y-95571000D03*
X105760000Y-95571000D03*
X105260000Y-95571000D03*
X104760000Y-95571000D03*
X104260000Y-95571000D03*
X103760000Y-95571000D03*
D23*
X105260000Y-98021000D03*
%TD*%
D24*
%TO.C,H4*%
X110744000Y-115570000D03*
%TD*%
D25*
%TO.C,C10*%
X91567000Y-102489000D03*
X91567000Y-104389000D03*
%TD*%
D26*
%TO.C,D1*%
X95077000Y-96571000D03*
X95077000Y-94996000D03*
%TD*%
D27*
%TO.C,R3*%
X92279000Y-94869000D03*
X93299000Y-94869000D03*
%TD*%
D28*
%TO.C,R15*%
X105664000Y-92456000D03*
X105664000Y-93476000D03*
%TD*%
D24*
%TO.C,H2*%
X110744000Y-53340000D03*
%TD*%
D29*
%TO.C,SW2*%
X103632000Y-113890000D03*
X103632000Y-110490000D03*
%TD*%
D24*
%TO.C,H3*%
X78232000Y-115570000D03*
%TD*%
D30*
%TO.C,D2*%
X94982000Y-99056000D03*
D31*
X94982000Y-100756000D03*
X96982000Y-100756000D03*
X96982000Y-98856000D03*
%TD*%
D18*
%TO.C,C4*%
X89789000Y-104267000D03*
X89789000Y-103307000D03*
%TD*%
D32*
%TO.C,Q1*%
X85344000Y-88773000D03*
X85344000Y-90673000D03*
X87219000Y-89723000D03*
%TD*%
D19*
%TO.C,R9*%
X102616000Y-104093000D03*
X102616000Y-103073000D03*
%TD*%
D33*
%TO.C,C7*%
X92283000Y-96520000D03*
X93243000Y-96520000D03*
%TD*%
D34*
%TO.C,R1*%
X106172000Y-59817000D03*
X105152000Y-59817000D03*
%TD*%
D24*
%TO.C,H1*%
X78232000Y-53340000D03*
%TD*%
D28*
%TO.C,R14*%
X104394000Y-92456000D03*
X104394000Y-93476000D03*
%TD*%
D19*
%TO.C,R8*%
X106507000Y-104095000D03*
X106507000Y-103075000D03*
%TD*%
D27*
%TO.C,R17*%
X96897000Y-96774000D03*
X97917000Y-96774000D03*
%TD*%
D28*
%TO.C,R10*%
X103967000Y-103073000D03*
X103967000Y-104093000D03*
%TD*%
D35*
%TO.C,U1*%
X86067000Y-58317000D03*
X86067000Y-59817000D03*
X86067000Y-61317000D03*
X86067000Y-62817000D03*
X86067000Y-64317000D03*
X86067000Y-65817000D03*
X86067000Y-67317000D03*
X86067000Y-68817000D03*
X86067000Y-70317000D03*
X86067000Y-71817000D03*
X86067000Y-73317000D03*
X86067000Y-74817000D03*
X86067000Y-76317000D03*
X86067000Y-77817000D03*
X86067000Y-79317000D03*
X86067000Y-80817000D03*
D36*
X87942000Y-81567000D03*
X89442000Y-81567000D03*
X90942000Y-81567000D03*
X92442000Y-81567000D03*
X93942000Y-81567000D03*
X95442000Y-81567000D03*
X96942000Y-81567000D03*
X98442000Y-81567000D03*
X99942000Y-81567000D03*
X101442000Y-81567000D03*
D35*
X103317000Y-80917000D03*
X103317000Y-79417000D03*
X103317000Y-77917000D03*
X103317000Y-76417000D03*
X103317000Y-74917000D03*
X103317000Y-73417000D03*
X103317000Y-71917000D03*
X103317000Y-70417000D03*
X103317000Y-68917000D03*
X103317000Y-67417000D03*
X103317000Y-65917000D03*
X103317000Y-64417000D03*
X103317000Y-62917000D03*
X103317000Y-61317000D03*
X103317000Y-59817000D03*
X103317000Y-58417000D03*
D37*
X93502000Y-66357000D03*
%TD*%
D29*
%TO.C,SW1*%
X85471000Y-114017000D03*
X85471000Y-110617000D03*
%TD*%
D33*
%TO.C,C9*%
X103053000Y-105742000D03*
X104013000Y-105742000D03*
%TD*%
D38*
%TO.C,C5*%
X91567000Y-100761800D03*
X91567000Y-98861800D03*
%TD*%
D39*
%TO.C,Q2*%
X94712000Y-90739000D03*
X94712000Y-88839000D03*
X92837000Y-89789000D03*
%TD*%
D40*
%TO.C,C13*%
X99314000Y-96546000D03*
X99314000Y-94996000D03*
%TD*%
D28*
%TO.C,R13*%
X107777000Y-103075000D03*
X107777000Y-104095000D03*
%TD*%
D19*
%TO.C,R12*%
X90805000Y-90297000D03*
X90805000Y-89277000D03*
%TD*%
D41*
%TO.C,J3*%
X110998000Y-62992000D03*
D42*
X110998000Y-65532000D03*
X110998000Y-68072000D03*
X110998000Y-70612000D03*
X110998000Y-73152000D03*
X110998000Y-75692000D03*
X110998000Y-78232000D03*
X110998000Y-80772000D03*
X110998000Y-83312000D03*
X110998000Y-85852000D03*
X110998000Y-88392000D03*
X110998000Y-90932000D03*
X110998000Y-93472000D03*
X110998000Y-96012000D03*
X110998000Y-98552000D03*
X110998000Y-101092000D03*
X110998000Y-103632000D03*
X110998000Y-106172000D03*
X110998000Y-108712000D03*
X110998000Y-111252000D03*
%TD*%
D19*
%TO.C,R11*%
X89281000Y-90295000D03*
X89281000Y-89275000D03*
%TD*%
D18*
%TO.C,C12*%
X97409000Y-87680200D03*
X97409000Y-86720200D03*
%TD*%
D38*
%TO.C,C2*%
X81915000Y-60447000D03*
X81915000Y-58547000D03*
%TD*%
D27*
%TO.C,R16*%
X96895000Y-94869000D03*
X97915000Y-94869000D03*
%TD*%
D43*
%TO.C,C15*%
X105283000Y-103124000D03*
X105283000Y-104084000D03*
%TD*%
D41*
%TO.C,J4*%
X77978000Y-62992000D03*
D42*
X77978000Y-65532000D03*
X77978000Y-68072000D03*
X77978000Y-70612000D03*
X77978000Y-73152000D03*
X77978000Y-75692000D03*
X77978000Y-78232000D03*
X77978000Y-80772000D03*
X77978000Y-83312000D03*
X77978000Y-85852000D03*
X77978000Y-88392000D03*
X77978000Y-90932000D03*
X77978000Y-93472000D03*
X77978000Y-96012000D03*
X77978000Y-98552000D03*
X77978000Y-101092000D03*
X77978000Y-103632000D03*
X77978000Y-106172000D03*
X77978000Y-108712000D03*
X77978000Y-111252000D03*
%TD*%
D19*
%TO.C,R5*%
X98552000Y-89920000D03*
X98552000Y-88900000D03*
%TD*%
D18*
%TO.C,C14*%
X101219000Y-95702000D03*
X101219000Y-94742000D03*
%TD*%
D27*
%TO.C,R2*%
X92452000Y-83820000D03*
X93472000Y-83820000D03*
%TD*%
D43*
%TO.C,C8*%
X88519000Y-103307000D03*
X88519000Y-104267000D03*
%TD*%
D44*
%TO.C,C3*%
X106172000Y-58420000D03*
X105212000Y-58420000D03*
%TD*%
M02*
