M48
; DRILL file {KiCad 7.0.2} date Sun Jun 11 23:23:04 2023
; FORMAT={-:-/ absolute / inch / decimal}
; #@! TF.CreationDate,2023-06-11T23:23:04-04:00
; #@! TF.GenerationSoftware,Kicad,Pcbnew,7.0.2
; #@! TF.FileFunction,Plated,1,4,PTH
FMAT,2
INCH
; #@! TA.AperFunction,Plated,PTH,ViaDrill
T1C0.0157
; #@! TA.AperFunction,Plated,PTH,ComponentDrill
T2C0.0236
; #@! TA.AperFunction,Plated,PTH,ComponentDrill
T3C0.0335
; #@! TA.AperFunction,Plated,PTH,ComponentDrill
T4C0.0394
%
G90
G05
T1
X3.16Y-2.3
X3.16Y-2.38
X3.255Y-3.925
X3.255Y-3.97
X3.325Y-4.1
X3.365Y-4.535
X3.37Y-3.63
X3.39Y-4.1
X3.405Y-3.88
X3.425Y-4.1
X3.4345Y-3.629
X3.486Y-4.034
X3.536Y-4.034
X3.54Y-4.145
X3.57Y-2.57
X3.57Y-2.65
X3.585Y-3.845
X3.6Y-3.735
X3.6Y-3.8
X3.605Y-3.3
X3.605Y-4.16
X3.625Y-3.845
X3.64Y-2.5
X3.64Y-2.73
X3.695Y-3.9
X3.7Y-3.845
X3.72Y-2.5
X3.72Y-2.73
X3.73Y-3.63
X3.74Y-3.845
X3.7424Y-4.22
X3.79Y-2.57
X3.79Y-2.65
X3.79Y-3.845
X3.81Y-3.7712
X3.82Y-4.21
X3.8225Y-4.3625
X3.8225Y-4.3975
X3.835Y-3.38
X3.84Y-3.63
X3.8575Y-4.3625
X3.8575Y-4.3975
X3.8655Y-3.8905
X3.8706Y-3.7062
X3.88Y-3.38
X3.8873Y-3.8363
X3.908Y-3.8698
X3.91Y-3.615
X3.91Y-3.7062
X3.93Y-2.65
X3.935Y-3.9606
X3.95Y-3.8591
X3.9562Y-3.9013
X3.97Y-2.65
X3.97Y-3.32
X3.98Y-4.1316
X3.985Y-3.8316
X3.9938Y-3.16
X4.0Y-2.3
X4.0Y-2.355
X4.0135Y-3.7315
X4.02Y-3.32
X4.025Y-4.165
X4.0744Y-3.6688
X4.08Y-4.53
X4.115Y-3.83
X4.115Y-3.885
X4.145Y-4.145
X4.1726Y-3.72
X4.175Y-3.83
X4.175Y-3.885
X4.194Y-4.146
X4.2145Y-3.68
X4.22Y-2.35
X4.2356Y-4.01
X4.246Y-4.146
X4.2538Y-3.6828
X4.275Y-4.01
T3
X3.6264Y-4.485
X3.8232Y-4.485
T4
X3.07Y-2.48
X3.07Y-2.58
X3.07Y-2.68
X3.07Y-2.78
X3.07Y-2.88
X3.07Y-2.98
X3.07Y-3.08
X3.07Y-3.18
X3.07Y-3.28
X3.07Y-3.38
X3.07Y-3.48
X3.07Y-3.58
X3.07Y-3.68
X3.07Y-3.78
X3.07Y-3.88
X3.07Y-3.98
X3.07Y-4.08
X3.07Y-4.18
X3.07Y-4.28
X3.07Y-4.38
X4.37Y-2.48
X4.37Y-2.58
X4.37Y-2.68
X4.37Y-2.78
X4.37Y-2.88
X4.37Y-2.98
X4.37Y-3.08
X4.37Y-3.18
X4.37Y-3.28
X4.37Y-3.38
X4.37Y-3.48
X4.37Y-3.58
X4.37Y-3.68
X4.37Y-3.78
X4.37Y-3.88
X4.37Y-3.98
X4.37Y-4.08
X4.37Y-4.18
X4.37Y-4.28
X4.37Y-4.38
T2
G00X3.587Y-4.6051
M15
G01X3.587Y-4.5775
M16
G05
G00X3.8626Y-4.5775
M15
G01X3.8626Y-4.6051
M16
G05
T0
M30
