%TF.GenerationSoftware,KiCad,Pcbnew,7.0.2*%
%TF.CreationDate,2023-06-11T17:42:07-04:00*%
%TF.ProjectId,SoftProject,536f6674-5072-46f6-9a65-63742e6b6963,rev?*%
%TF.SameCoordinates,Original*%
%TF.FileFunction,Legend,Bot*%
%TF.FilePolarity,Positive*%
%FSLAX46Y46*%
G04 Gerber Fmt 4.6, Leading zero omitted, Abs format (unit mm)*
G04 Created by KiCad (PCBNEW 7.0.2) date 2023-06-11 17:42:07*
%MOMM*%
%LPD*%
G01*
G04 APERTURE LIST*
%ADD10C,0.300000*%
G04 APERTURE END LIST*
D10*
X87995142Y-116172428D02*
X87495142Y-117672428D01*
X87495142Y-117672428D02*
X86995142Y-116172428D01*
X84566571Y-117672428D02*
X85423714Y-117672428D01*
X84995143Y-117672428D02*
X84995143Y-116172428D01*
X84995143Y-116172428D02*
X85138000Y-116386714D01*
X85138000Y-116386714D02*
X85280857Y-116529571D01*
X85280857Y-116529571D02*
X85423714Y-116601000D01*
X83923715Y-117529571D02*
X83852286Y-117601000D01*
X83852286Y-117601000D02*
X83923715Y-117672428D01*
X83923715Y-117672428D02*
X83995143Y-117601000D01*
X83995143Y-117601000D02*
X83923715Y-117529571D01*
X83923715Y-117529571D02*
X83923715Y-117672428D01*
X82923714Y-116172428D02*
X82780857Y-116172428D01*
X82780857Y-116172428D02*
X82638000Y-116243857D01*
X82638000Y-116243857D02*
X82566572Y-116315285D01*
X82566572Y-116315285D02*
X82495143Y-116458142D01*
X82495143Y-116458142D02*
X82423714Y-116743857D01*
X82423714Y-116743857D02*
X82423714Y-117101000D01*
X82423714Y-117101000D02*
X82495143Y-117386714D01*
X82495143Y-117386714D02*
X82566572Y-117529571D01*
X82566572Y-117529571D02*
X82638000Y-117601000D01*
X82638000Y-117601000D02*
X82780857Y-117672428D01*
X82780857Y-117672428D02*
X82923714Y-117672428D01*
X82923714Y-117672428D02*
X83066572Y-117601000D01*
X83066572Y-117601000D02*
X83138000Y-117529571D01*
X83138000Y-117529571D02*
X83209429Y-117386714D01*
X83209429Y-117386714D02*
X83280857Y-117101000D01*
X83280857Y-117101000D02*
X83280857Y-116743857D01*
X83280857Y-116743857D02*
X83209429Y-116458142D01*
X83209429Y-116458142D02*
X83138000Y-116315285D01*
X83138000Y-116315285D02*
X83066572Y-116243857D01*
X83066572Y-116243857D02*
X82923714Y-116172428D01*
X107180142Y-116172428D02*
X107037285Y-116172428D01*
X107037285Y-116172428D02*
X106894428Y-116243857D01*
X106894428Y-116243857D02*
X106823000Y-116315285D01*
X106823000Y-116315285D02*
X106751571Y-116458142D01*
X106751571Y-116458142D02*
X106680142Y-116743857D01*
X106680142Y-116743857D02*
X106680142Y-117101000D01*
X106680142Y-117101000D02*
X106751571Y-117386714D01*
X106751571Y-117386714D02*
X106823000Y-117529571D01*
X106823000Y-117529571D02*
X106894428Y-117601000D01*
X106894428Y-117601000D02*
X107037285Y-117672428D01*
X107037285Y-117672428D02*
X107180142Y-117672428D01*
X107180142Y-117672428D02*
X107323000Y-117601000D01*
X107323000Y-117601000D02*
X107394428Y-117529571D01*
X107394428Y-117529571D02*
X107465857Y-117386714D01*
X107465857Y-117386714D02*
X107537285Y-117101000D01*
X107537285Y-117101000D02*
X107537285Y-116743857D01*
X107537285Y-116743857D02*
X107465857Y-116458142D01*
X107465857Y-116458142D02*
X107394428Y-116315285D01*
X107394428Y-116315285D02*
X107323000Y-116243857D01*
X107323000Y-116243857D02*
X107180142Y-116172428D01*
X105394429Y-116172428D02*
X105680143Y-116172428D01*
X105680143Y-116172428D02*
X105823000Y-116243857D01*
X105823000Y-116243857D02*
X105894429Y-116315285D01*
X105894429Y-116315285D02*
X106037286Y-116529571D01*
X106037286Y-116529571D02*
X106108714Y-116815285D01*
X106108714Y-116815285D02*
X106108714Y-117386714D01*
X106108714Y-117386714D02*
X106037286Y-117529571D01*
X106037286Y-117529571D02*
X105965857Y-117601000D01*
X105965857Y-117601000D02*
X105823000Y-117672428D01*
X105823000Y-117672428D02*
X105537286Y-117672428D01*
X105537286Y-117672428D02*
X105394429Y-117601000D01*
X105394429Y-117601000D02*
X105323000Y-117529571D01*
X105323000Y-117529571D02*
X105251571Y-117386714D01*
X105251571Y-117386714D02*
X105251571Y-117029571D01*
X105251571Y-117029571D02*
X105323000Y-116886714D01*
X105323000Y-116886714D02*
X105394429Y-116815285D01*
X105394429Y-116815285D02*
X105537286Y-116743857D01*
X105537286Y-116743857D02*
X105823000Y-116743857D01*
X105823000Y-116743857D02*
X105965857Y-116815285D01*
X105965857Y-116815285D02*
X106037286Y-116886714D01*
X106037286Y-116886714D02*
X106108714Y-117029571D01*
X103537286Y-116101000D02*
X104823000Y-118029571D01*
X103108714Y-116315285D02*
X103037286Y-116243857D01*
X103037286Y-116243857D02*
X102894429Y-116172428D01*
X102894429Y-116172428D02*
X102537286Y-116172428D01*
X102537286Y-116172428D02*
X102394429Y-116243857D01*
X102394429Y-116243857D02*
X102323000Y-116315285D01*
X102323000Y-116315285D02*
X102251571Y-116458142D01*
X102251571Y-116458142D02*
X102251571Y-116601000D01*
X102251571Y-116601000D02*
X102323000Y-116815285D01*
X102323000Y-116815285D02*
X103180143Y-117672428D01*
X103180143Y-117672428D02*
X102251571Y-117672428D01*
X101751572Y-116172428D02*
X100823000Y-116172428D01*
X100823000Y-116172428D02*
X101323000Y-116743857D01*
X101323000Y-116743857D02*
X101108715Y-116743857D01*
X101108715Y-116743857D02*
X100965858Y-116815285D01*
X100965858Y-116815285D02*
X100894429Y-116886714D01*
X100894429Y-116886714D02*
X100823000Y-117029571D01*
X100823000Y-117029571D02*
X100823000Y-117386714D01*
X100823000Y-117386714D02*
X100894429Y-117529571D01*
X100894429Y-117529571D02*
X100965858Y-117601000D01*
X100965858Y-117601000D02*
X101108715Y-117672428D01*
X101108715Y-117672428D02*
X101537286Y-117672428D01*
X101537286Y-117672428D02*
X101680143Y-117601000D01*
X101680143Y-117601000D02*
X101751572Y-117529571D01*
M02*
