%TF.GenerationSoftware,KiCad,Pcbnew,7.0.2*%
%TF.CreationDate,2023-06-11T17:42:07-04:00*%
%TF.ProjectId,SoftProject,536f6674-5072-46f6-9a65-63742e6b6963,rev?*%
%TF.SameCoordinates,Original*%
%TF.FileFunction,Soldermask,Bot*%
%TF.FilePolarity,Negative*%
%FSLAX46Y46*%
G04 Gerber Fmt 4.6, Leading zero omitted, Abs format (unit mm)*
G04 Created by KiCad (PCBNEW 7.0.2) date 2023-06-11 17:42:07*
%MOMM*%
%LPD*%
G01*
G04 APERTURE LIST*
%ADD10C,2.200000*%
%ADD11O,0.800000X0.800000*%
%ADD12O,1.150000X1.800000*%
%ADD13O,1.450000X2.000000*%
%ADD14R,1.700000X1.700000*%
%ADD15O,1.700000X1.700000*%
G04 APERTURE END LIST*
D10*
%TO.C,H4*%
X110998000Y-115824000D03*
%TD*%
D11*
%TO.C,J1*%
X92110000Y-113481600D03*
X97110000Y-113481600D03*
D12*
X90735000Y-116231600D03*
D13*
X90885000Y-112431600D03*
X98335000Y-112431600D03*
D12*
X98485000Y-116231600D03*
%TD*%
D10*
%TO.C,H2*%
X110871000Y-53213000D03*
%TD*%
%TO.C,H3*%
X77978000Y-115824000D03*
%TD*%
%TO.C,H1*%
X78105000Y-53213000D03*
%TD*%
D14*
%TO.C,J3*%
X110998000Y-62992000D03*
D15*
X110998000Y-65532000D03*
X110998000Y-68072000D03*
X110998000Y-70612000D03*
X110998000Y-73152000D03*
X110998000Y-75692000D03*
X110998000Y-78232000D03*
X110998000Y-80772000D03*
X110998000Y-83312000D03*
X110998000Y-85852000D03*
X110998000Y-88392000D03*
X110998000Y-90932000D03*
X110998000Y-93472000D03*
X110998000Y-96012000D03*
X110998000Y-98552000D03*
X110998000Y-101092000D03*
X110998000Y-103632000D03*
X110998000Y-106172000D03*
X110998000Y-108712000D03*
X110998000Y-111252000D03*
%TD*%
D14*
%TO.C,J4*%
X77978000Y-62992000D03*
D15*
X77978000Y-65532000D03*
X77978000Y-68072000D03*
X77978000Y-70612000D03*
X77978000Y-73152000D03*
X77978000Y-75692000D03*
X77978000Y-78232000D03*
X77978000Y-80772000D03*
X77978000Y-83312000D03*
X77978000Y-85852000D03*
X77978000Y-88392000D03*
X77978000Y-90932000D03*
X77978000Y-93472000D03*
X77978000Y-96012000D03*
X77978000Y-98552000D03*
X77978000Y-101092000D03*
X77978000Y-103632000D03*
X77978000Y-106172000D03*
X77978000Y-108712000D03*
X77978000Y-111252000D03*
%TD*%
M02*
