%TF.GenerationSoftware,KiCad,Pcbnew,7.0.2*%
%TF.CreationDate,2023-06-11T17:42:06-04:00*%
%TF.ProjectId,SoftProject,536f6674-5072-46f6-9a65-63742e6b6963,rev?*%
%TF.SameCoordinates,Original*%
%TF.FileFunction,Copper,L3,Inr*%
%TF.FilePolarity,Positive*%
%FSLAX46Y46*%
G04 Gerber Fmt 4.6, Leading zero omitted, Abs format (unit mm)*
G04 Created by KiCad (PCBNEW 7.0.2) date 2023-06-11 17:42:06*
%MOMM*%
%LPD*%
G01*
G04 APERTURE LIST*
%TA.AperFunction,ComponentPad*%
%ADD10O,1.150000X1.800000*%
%TD*%
%TA.AperFunction,ComponentPad*%
%ADD11O,1.450000X2.000000*%
%TD*%
%TA.AperFunction,ComponentPad*%
%ADD12R,1.700000X1.700000*%
%TD*%
%TA.AperFunction,ComponentPad*%
%ADD13O,1.700000X1.700000*%
%TD*%
%TA.AperFunction,ViaPad*%
%ADD14C,0.800000*%
%TD*%
G04 APERTURE END LIST*
D10*
%TO.N,unconnected-(J1-Shield-Pad6)*%
%TO.C,J1*%
X90735000Y-116231600D03*
D11*
X90885000Y-112431600D03*
X98335000Y-112431600D03*
D10*
X98485000Y-116231600D03*
%TD*%
D12*
%TO.N,GND*%
%TO.C,J3*%
X110998000Y-62992000D03*
D13*
%TO.N,/CHIP_PU*%
X110998000Y-65532000D03*
%TO.N,/GPIO46*%
X110998000Y-68072000D03*
%TO.N,/GPIO45*%
X110998000Y-70612000D03*
%TO.N,/RXD*%
X110998000Y-73152000D03*
%TO.N,/TXD*%
X110998000Y-75692000D03*
%TO.N,/GPIO42*%
X110998000Y-78232000D03*
%TO.N,/GPIO41*%
X110998000Y-80772000D03*
%TO.N,/GPIO40*%
X110998000Y-83312000D03*
%TO.N,/GPIO39*%
X110998000Y-85852000D03*
%TO.N,/GPIO38*%
X110998000Y-88392000D03*
%TO.N,/GPIO37*%
X110998000Y-90932000D03*
%TO.N,/GPIO36*%
X110998000Y-93472000D03*
%TO.N,/GPIO35*%
X110998000Y-96012000D03*
%TO.N,/GPIO34*%
X110998000Y-98552000D03*
%TO.N,/GPIO33*%
X110998000Y-101092000D03*
%TO.N,/GPIO26*%
X110998000Y-103632000D03*
%TO.N,/GPIO21*%
X110998000Y-106172000D03*
%TO.N,GND*%
X110998000Y-108712000D03*
X110998000Y-111252000D03*
%TD*%
D12*
%TO.N,+3.3V*%
%TO.C,J4*%
X77978000Y-62992000D03*
D13*
%TO.N,/GPIO0*%
X77978000Y-65532000D03*
%TO.N,/GPIO1*%
X77978000Y-68072000D03*
%TO.N,/GPIO2*%
X77978000Y-70612000D03*
%TO.N,/GPIO3*%
X77978000Y-73152000D03*
%TO.N,/GPIO4*%
X77978000Y-75692000D03*
%TO.N,/GPIO5*%
X77978000Y-78232000D03*
%TO.N,/GPIO6*%
X77978000Y-80772000D03*
%TO.N,/GPIO7*%
X77978000Y-83312000D03*
%TO.N,/GPIO8*%
X77978000Y-85852000D03*
%TO.N,/GPIO9*%
X77978000Y-88392000D03*
%TO.N,/GPIO10*%
X77978000Y-90932000D03*
%TO.N,/GPIO11*%
X77978000Y-93472000D03*
%TO.N,/GPIO12*%
X77978000Y-96012000D03*
%TO.N,/GPIO13*%
X77978000Y-98552000D03*
%TO.N,/GPIO14*%
X77978000Y-101092000D03*
%TO.N,/GPIO15*%
X77978000Y-103632000D03*
%TO.N,/GPIO16*%
X77978000Y-106172000D03*
%TO.N,/GPIO17*%
X77978000Y-108712000D03*
%TO.N,+5V*%
X77978000Y-111252000D03*
%TD*%
D14*
%TO.N,GND*%
X101600000Y-58420000D03*
X96266000Y-65278000D03*
X98044000Y-110617000D03*
X104521000Y-98679000D03*
X94488000Y-63500000D03*
X92456000Y-69342000D03*
X88544400Y-102463600D03*
X91059000Y-97663000D03*
X85471000Y-115189000D03*
X92075000Y-97663000D03*
X97155000Y-109728000D03*
X97155000Y-110617000D03*
X105283000Y-105283000D03*
X101943701Y-94779299D03*
X90678000Y-67310000D03*
X104521000Y-97282000D03*
X93980000Y-97663000D03*
X90678000Y-65278000D03*
X89814400Y-102463600D03*
X102235000Y-105791000D03*
X80264000Y-58420000D03*
X98044000Y-109728000D03*
X106045000Y-97282000D03*
X82677000Y-100838000D03*
X106045000Y-98679000D03*
X99314000Y-94138500D03*
X96266000Y-67310000D03*
X92456000Y-63500000D03*
X91567000Y-105664000D03*
X97409000Y-85852000D03*
X94488000Y-69342000D03*
X84455000Y-104140000D03*
X98552000Y-85852000D03*
X94996000Y-97663000D03*
X101442000Y-80264000D03*
X103632000Y-115062000D03*
X107848400Y-105308400D03*
X93853000Y-99060000D03*
X82677000Y-99695000D03*
%TO.N,/D-*%
X100488750Y-99091750D03*
X97536000Y-92202000D03*
X99262232Y-98292550D03*
%TO.N,/D+*%
X100330000Y-98021000D03*
X99314000Y-91821000D03*
%TO.N,VBUS*%
X97028000Y-106934000D03*
X95057500Y-107188000D03*
X99949000Y-100599464D03*
X98184378Y-98819378D03*
%TO.N,/RTS*%
X103490640Y-93187866D03*
X105984500Y-94488000D03*
%TO.N,/IO0_Auto*%
X94742000Y-92202000D03*
X96774000Y-95788500D03*
%TO.N,/DTR*%
X91440000Y-88114500D03*
X91680497Y-89911589D03*
%TO.N,+3.3V*%
X86106000Y-104140000D03*
X91440000Y-96520000D03*
X106527600Y-105308400D03*
X98736206Y-97442667D03*
X86995000Y-104140000D03*
X87236970Y-92177196D03*
X85598000Y-92202000D03*
X101219000Y-97321500D03*
X91440000Y-94869000D03*
X86487000Y-98552000D03*
X91567000Y-83820000D03*
X107188000Y-59690000D03*
X80264000Y-60452000D03*
%TO.N,/GPIO0*%
X96266000Y-97663000D03*
X89916000Y-105283000D03*
%TO.N,/GPIO21*%
X107048506Y-93471113D03*
X107585497Y-101854000D03*
%TO.N,/GPIO26*%
X108045500Y-93541893D03*
X108585000Y-101854000D03*
%TO.N,/TXD*%
X102108000Y-84328000D03*
X100838000Y-67310000D03*
%TO.N,/RXD*%
X99822000Y-67310000D03*
X100838000Y-84328000D03*
%TO.N,/CHIP_PU*%
X98314497Y-94138500D03*
X101092000Y-104942500D03*
X101600000Y-59817000D03*
%TD*%
%TA.AperFunction,Conductor*%
%TO.N,+3.3V*%
G36*
X113480539Y-57088685D02*
G01*
X113526294Y-57141489D01*
X113537500Y-57193000D01*
X113537500Y-115820519D01*
X113537305Y-115827472D01*
X113531012Y-115939524D01*
X113520801Y-116108330D01*
X113519275Y-116121613D01*
X113496723Y-116254343D01*
X113469995Y-116400195D01*
X113467182Y-116412163D01*
X113428983Y-116544752D01*
X113428214Y-116547314D01*
X113385580Y-116684132D01*
X113381756Y-116694695D01*
X113328317Y-116823707D01*
X113326832Y-116827145D01*
X113268712Y-116956282D01*
X113264164Y-116965372D01*
X113196207Y-117088331D01*
X113193796Y-117092500D01*
X113120958Y-117212988D01*
X113115971Y-117220592D01*
X113034423Y-117335525D01*
X113030904Y-117340244D01*
X112944326Y-117450752D01*
X112939175Y-117456906D01*
X112845139Y-117562133D01*
X112840360Y-117567187D01*
X112741187Y-117666360D01*
X112736133Y-117671139D01*
X112630906Y-117765175D01*
X112624752Y-117770326D01*
X112514244Y-117856904D01*
X112509525Y-117860423D01*
X112394592Y-117941971D01*
X112386988Y-117946958D01*
X112266500Y-118019796D01*
X112262331Y-118022207D01*
X112139372Y-118090164D01*
X112130282Y-118094712D01*
X112001145Y-118152832D01*
X111997707Y-118154317D01*
X111868695Y-118207756D01*
X111858132Y-118211580D01*
X111721314Y-118254214D01*
X111718752Y-118254983D01*
X111586167Y-118293180D01*
X111574191Y-118295995D01*
X111428344Y-118322723D01*
X111295608Y-118345276D01*
X111282335Y-118346800D01*
X111113525Y-118357012D01*
X111001472Y-118363305D01*
X110994520Y-118363500D01*
X77981481Y-118363500D01*
X77974528Y-118363305D01*
X77862475Y-118357012D01*
X77693668Y-118346801D01*
X77680385Y-118345275D01*
X77547656Y-118322723D01*
X77420694Y-118299456D01*
X77401800Y-118295994D01*
X77389837Y-118293182D01*
X77372400Y-118288159D01*
X77257246Y-118254983D01*
X77254684Y-118254214D01*
X77117866Y-118211580D01*
X77107303Y-118207756D01*
X76978291Y-118154317D01*
X76974873Y-118152841D01*
X76845713Y-118094710D01*
X76836626Y-118090164D01*
X76713667Y-118022207D01*
X76709498Y-118019796D01*
X76589010Y-117946958D01*
X76581406Y-117941971D01*
X76466473Y-117860423D01*
X76461754Y-117856904D01*
X76351246Y-117770326D01*
X76345092Y-117765175D01*
X76239865Y-117671139D01*
X76234811Y-117666360D01*
X76135638Y-117567187D01*
X76130859Y-117562133D01*
X76036823Y-117456906D01*
X76031672Y-117450752D01*
X75970841Y-117373107D01*
X75945078Y-117340223D01*
X75941575Y-117335525D01*
X75860027Y-117220592D01*
X75855040Y-117212988D01*
X75782202Y-117092500D01*
X75779791Y-117088331D01*
X75761272Y-117054824D01*
X75711832Y-116965369D01*
X75707298Y-116956306D01*
X75649130Y-116827063D01*
X75647693Y-116823736D01*
X75594237Y-116694682D01*
X75590423Y-116684146D01*
X75547773Y-116547279D01*
X75547015Y-116544752D01*
X75542307Y-116528409D01*
X75508814Y-116412153D01*
X75506006Y-116400205D01*
X75479288Y-116254416D01*
X75456721Y-116121599D01*
X75455199Y-116108345D01*
X75444992Y-115939603D01*
X75438695Y-115827472D01*
X75438598Y-115824000D01*
X76622340Y-115824000D01*
X76642936Y-116059407D01*
X76694064Y-116250220D01*
X76704097Y-116287663D01*
X76803965Y-116501829D01*
X76939505Y-116695401D01*
X77106599Y-116862495D01*
X77300171Y-116998035D01*
X77514337Y-117097903D01*
X77742592Y-117159063D01*
X77919034Y-117174500D01*
X77921742Y-117174500D01*
X78034258Y-117174500D01*
X78036966Y-117174500D01*
X78213408Y-117159063D01*
X78441663Y-117097903D01*
X78655829Y-116998035D01*
X78849401Y-116862495D01*
X79016495Y-116695401D01*
X79077812Y-116607832D01*
X89659500Y-116607832D01*
X89659779Y-116610762D01*
X89659781Y-116610787D01*
X89674131Y-116761063D01*
X89731998Y-116958139D01*
X89826117Y-117140706D01*
X89953082Y-117302154D01*
X90108312Y-117436662D01*
X90286187Y-117539358D01*
X90286189Y-117539359D01*
X90366593Y-117567187D01*
X90480287Y-117606537D01*
X90514426Y-117611445D01*
X90683593Y-117635768D01*
X90888756Y-117625995D01*
X91088362Y-117577571D01*
X91275196Y-117492247D01*
X91442506Y-117373106D01*
X91584245Y-117224454D01*
X91695291Y-117051664D01*
X91771629Y-116860982D01*
X91810500Y-116659298D01*
X91810500Y-116607832D01*
X97409500Y-116607832D01*
X97409779Y-116610762D01*
X97409781Y-116610787D01*
X97424131Y-116761063D01*
X97481998Y-116958139D01*
X97576117Y-117140706D01*
X97703082Y-117302154D01*
X97858312Y-117436662D01*
X98036187Y-117539358D01*
X98036189Y-117539359D01*
X98116593Y-117567187D01*
X98230287Y-117606537D01*
X98264426Y-117611445D01*
X98433593Y-117635768D01*
X98638756Y-117625995D01*
X98838362Y-117577571D01*
X99025196Y-117492247D01*
X99192506Y-117373106D01*
X99334245Y-117224454D01*
X99445291Y-117051664D01*
X99521629Y-116860982D01*
X99560500Y-116659298D01*
X99560500Y-115855368D01*
X99557172Y-115820519D01*
X99545868Y-115702136D01*
X99545868Y-115702134D01*
X99488001Y-115505059D01*
X99393884Y-115322496D01*
X99337074Y-115250257D01*
X99266917Y-115161045D01*
X99152613Y-115062000D01*
X102726540Y-115062000D01*
X102746326Y-115250257D01*
X102804820Y-115430284D01*
X102899466Y-115594216D01*
X103026129Y-115734889D01*
X103179269Y-115846151D01*
X103352197Y-115923144D01*
X103537352Y-115962500D01*
X103537354Y-115962500D01*
X103726648Y-115962500D01*
X103850083Y-115936262D01*
X103911803Y-115923144D01*
X104084730Y-115846151D01*
X104115218Y-115824000D01*
X109642340Y-115824000D01*
X109662936Y-116059407D01*
X109714064Y-116250220D01*
X109724097Y-116287663D01*
X109823965Y-116501829D01*
X109959505Y-116695401D01*
X110126599Y-116862495D01*
X110320171Y-116998035D01*
X110534337Y-117097903D01*
X110762592Y-117159063D01*
X110939034Y-117174500D01*
X110941742Y-117174500D01*
X111054258Y-117174500D01*
X111056966Y-117174500D01*
X111233408Y-117159063D01*
X111461663Y-117097903D01*
X111675829Y-116998035D01*
X111869401Y-116862495D01*
X112036495Y-116695401D01*
X112172035Y-116501830D01*
X112271903Y-116287663D01*
X112333063Y-116059408D01*
X112353659Y-115824000D01*
X112333063Y-115588592D01*
X112271903Y-115360337D01*
X112172035Y-115146171D01*
X112036495Y-114952599D01*
X111869401Y-114785505D01*
X111675829Y-114649965D01*
X111461663Y-114550097D01*
X111233407Y-114488936D01*
X111059667Y-114473736D01*
X111059659Y-114473735D01*
X111056966Y-114473500D01*
X110939034Y-114473500D01*
X110936341Y-114473735D01*
X110936332Y-114473736D01*
X110762592Y-114488936D01*
X110534336Y-114550097D01*
X110320170Y-114649965D01*
X110126598Y-114785505D01*
X109959508Y-114952595D01*
X109959505Y-114952598D01*
X109959505Y-114952599D01*
X109863232Y-115090092D01*
X109823964Y-115146172D01*
X109724097Y-115360337D01*
X109662936Y-115588592D01*
X109642340Y-115824000D01*
X104115218Y-115824000D01*
X104142881Y-115803902D01*
X104237870Y-115734889D01*
X104364533Y-115594216D01*
X104459179Y-115430284D01*
X104465271Y-115411534D01*
X104517674Y-115250256D01*
X104537460Y-115062000D01*
X104517674Y-114873744D01*
X104459179Y-114693716D01*
X104459179Y-114693715D01*
X104364533Y-114529783D01*
X104237870Y-114389110D01*
X104084730Y-114277848D01*
X103911802Y-114200855D01*
X103726648Y-114161500D01*
X103726646Y-114161500D01*
X103537354Y-114161500D01*
X103537352Y-114161500D01*
X103352197Y-114200855D01*
X103179269Y-114277848D01*
X103026129Y-114389110D01*
X102899466Y-114529783D01*
X102804820Y-114693715D01*
X102746326Y-114873742D01*
X102726540Y-115062000D01*
X99152613Y-115062000D01*
X99111687Y-115026537D01*
X98933812Y-114923841D01*
X98739712Y-114856662D01*
X98536408Y-114827432D01*
X98536407Y-114827432D01*
X98433825Y-114832318D01*
X98331243Y-114837205D01*
X98131638Y-114885629D01*
X97944800Y-114970954D01*
X97777496Y-115090092D01*
X97635754Y-115238747D01*
X97524709Y-115411534D01*
X97448370Y-115602220D01*
X97425436Y-115721216D01*
X97409500Y-115803902D01*
X97409500Y-116607832D01*
X91810500Y-116607832D01*
X91810500Y-115855368D01*
X91807172Y-115820519D01*
X91795868Y-115702136D01*
X91795868Y-115702134D01*
X91738001Y-115505059D01*
X91643884Y-115322496D01*
X91587074Y-115250257D01*
X91516917Y-115161045D01*
X91361687Y-115026537D01*
X91183812Y-114923841D01*
X90989712Y-114856662D01*
X90786408Y-114827432D01*
X90786407Y-114827432D01*
X90683825Y-114832318D01*
X90581243Y-114837205D01*
X90381638Y-114885629D01*
X90194800Y-114970954D01*
X90027496Y-115090092D01*
X89885754Y-115238747D01*
X89774709Y-115411534D01*
X89698370Y-115602220D01*
X89675436Y-115721216D01*
X89659500Y-115803902D01*
X89659500Y-116607832D01*
X79077812Y-116607832D01*
X79152035Y-116501830D01*
X79251903Y-116287663D01*
X79313063Y-116059408D01*
X79333659Y-115824000D01*
X79313063Y-115588592D01*
X79251903Y-115360337D01*
X79172007Y-115189000D01*
X84565540Y-115189000D01*
X84571978Y-115250256D01*
X84585326Y-115377257D01*
X84643820Y-115557284D01*
X84738466Y-115721216D01*
X84865129Y-115861889D01*
X85018269Y-115973151D01*
X85191197Y-116050144D01*
X85376352Y-116089500D01*
X85376354Y-116089500D01*
X85565648Y-116089500D01*
X85707219Y-116059408D01*
X85750803Y-116050144D01*
X85923730Y-115973151D01*
X86076871Y-115861888D01*
X86203533Y-115721216D01*
X86298179Y-115557284D01*
X86356674Y-115377256D01*
X86376460Y-115189000D01*
X86356674Y-115000744D01*
X86298179Y-114820716D01*
X86298179Y-114820715D01*
X86203533Y-114656783D01*
X86076870Y-114516110D01*
X85923730Y-114404848D01*
X85750802Y-114327855D01*
X85565648Y-114288500D01*
X85565646Y-114288500D01*
X85376354Y-114288500D01*
X85376352Y-114288500D01*
X85191197Y-114327855D01*
X85018269Y-114404848D01*
X84865129Y-114516110D01*
X84738466Y-114656783D01*
X84643820Y-114820715D01*
X84585326Y-115000742D01*
X84585325Y-115000744D01*
X84585326Y-115000744D01*
X84565540Y-115189000D01*
X79172007Y-115189000D01*
X79152035Y-115146171D01*
X79016495Y-114952599D01*
X78849401Y-114785505D01*
X78655829Y-114649965D01*
X78441663Y-114550097D01*
X78441662Y-114550097D01*
X78213407Y-114488936D01*
X78039667Y-114473736D01*
X78039659Y-114473735D01*
X78036966Y-114473500D01*
X77919034Y-114473500D01*
X77916341Y-114473735D01*
X77916332Y-114473736D01*
X77742592Y-114488936D01*
X77514336Y-114550097D01*
X77300170Y-114649965D01*
X77106598Y-114785505D01*
X76939508Y-114952595D01*
X76939505Y-114952598D01*
X76939505Y-114952599D01*
X76843232Y-115090092D01*
X76803964Y-115146172D01*
X76704097Y-115360337D01*
X76642936Y-115588592D01*
X76622340Y-115824000D01*
X75438598Y-115824000D01*
X75438500Y-115820521D01*
X75438500Y-112761632D01*
X89659500Y-112761632D01*
X89659747Y-112764382D01*
X89659748Y-112764393D01*
X89674321Y-112926309D01*
X89733006Y-113138948D01*
X89828719Y-113337699D01*
X89958378Y-113516159D01*
X89958381Y-113516163D01*
X90117825Y-113668607D01*
X90301927Y-113790131D01*
X90369540Y-113819030D01*
X90504767Y-113876830D01*
X90577835Y-113893507D01*
X90719832Y-113925917D01*
X90921258Y-113934963D01*
X90940202Y-113935814D01*
X90940202Y-113935813D01*
X90940204Y-113935814D01*
X91158802Y-113906203D01*
X91191729Y-113895503D01*
X91261569Y-113893507D01*
X91321403Y-113929586D01*
X91330364Y-113940545D01*
X91345846Y-113961854D01*
X91349919Y-113967461D01*
X91356984Y-113978340D01*
X91377467Y-114013816D01*
X91404867Y-114044247D01*
X91404877Y-114044257D01*
X91413041Y-114054339D01*
X91437112Y-114087471D01*
X91467544Y-114114872D01*
X91476720Y-114124047D01*
X91504130Y-114154489D01*
X91537258Y-114178557D01*
X91547347Y-114186727D01*
X91577781Y-114214131D01*
X91577783Y-114214132D01*
X91577784Y-114214133D01*
X91613266Y-114234619D01*
X91624136Y-114241678D01*
X91657270Y-114265751D01*
X91694683Y-114282408D01*
X91706239Y-114288296D01*
X91741716Y-114308779D01*
X91780666Y-114321434D01*
X91792778Y-114326083D01*
X91830197Y-114342744D01*
X91870267Y-114351260D01*
X91882782Y-114354614D01*
X91921744Y-114367274D01*
X91962485Y-114371555D01*
X91975294Y-114373585D01*
X92015354Y-114382100D01*
X92204643Y-114382100D01*
X92204646Y-114382100D01*
X92244726Y-114373580D01*
X92257503Y-114371556D01*
X92298256Y-114367274D01*
X92337220Y-114354612D01*
X92349741Y-114351258D01*
X92375860Y-114345707D01*
X92389799Y-114342745D01*
X92389799Y-114342744D01*
X92389803Y-114342744D01*
X92427234Y-114326077D01*
X92439324Y-114321436D01*
X92478284Y-114308779D01*
X92513757Y-114288298D01*
X92525307Y-114282411D01*
X92562730Y-114265751D01*
X92595872Y-114241671D01*
X92606734Y-114234618D01*
X92642216Y-114214133D01*
X92672654Y-114186725D01*
X92682740Y-114178558D01*
X92682741Y-114178557D01*
X92715871Y-114154488D01*
X92743284Y-114124041D01*
X92752441Y-114114884D01*
X92782888Y-114087471D01*
X92806958Y-114054339D01*
X92815125Y-114044254D01*
X92842533Y-114013816D01*
X92863018Y-113978334D01*
X92870071Y-113967472D01*
X92894151Y-113934330D01*
X92910811Y-113896907D01*
X92916700Y-113885353D01*
X92937179Y-113849884D01*
X92949834Y-113810932D01*
X92949835Y-113810931D01*
X92949836Y-113810924D01*
X92954477Y-113798834D01*
X92971144Y-113761403D01*
X92979658Y-113721341D01*
X92983016Y-113708809D01*
X92995674Y-113669856D01*
X92999956Y-113629103D01*
X93001980Y-113616326D01*
X93010500Y-113576246D01*
X93010500Y-113535288D01*
X93011179Y-113522331D01*
X93011828Y-113516159D01*
X93015460Y-113481600D01*
X93015460Y-113481599D01*
X96204539Y-113481599D01*
X96208820Y-113522331D01*
X96209499Y-113535288D01*
X96209499Y-113576244D01*
X96218014Y-113616305D01*
X96220043Y-113629119D01*
X96224325Y-113669855D01*
X96236982Y-113708809D01*
X96240342Y-113721346D01*
X96248856Y-113761405D01*
X96265512Y-113798813D01*
X96270164Y-113810931D01*
X96282821Y-113849884D01*
X96303300Y-113885355D01*
X96309187Y-113896908D01*
X96313326Y-113906203D01*
X96325850Y-113934332D01*
X96349918Y-113967460D01*
X96356984Y-113978340D01*
X96377467Y-114013816D01*
X96404867Y-114044247D01*
X96404877Y-114044257D01*
X96413041Y-114054339D01*
X96437112Y-114087471D01*
X96467544Y-114114872D01*
X96476720Y-114124047D01*
X96504130Y-114154489D01*
X96537258Y-114178557D01*
X96547347Y-114186727D01*
X96577781Y-114214131D01*
X96577783Y-114214132D01*
X96577784Y-114214133D01*
X96613266Y-114234619D01*
X96624136Y-114241678D01*
X96657270Y-114265751D01*
X96694683Y-114282408D01*
X96706239Y-114288296D01*
X96741716Y-114308779D01*
X96780666Y-114321434D01*
X96792778Y-114326083D01*
X96830197Y-114342744D01*
X96870267Y-114351260D01*
X96882782Y-114354614D01*
X96921744Y-114367274D01*
X96962485Y-114371555D01*
X96975294Y-114373585D01*
X97015354Y-114382100D01*
X97204643Y-114382100D01*
X97204646Y-114382100D01*
X97244726Y-114373580D01*
X97257503Y-114371556D01*
X97298256Y-114367274D01*
X97337220Y-114354612D01*
X97349741Y-114351258D01*
X97375860Y-114345707D01*
X97389799Y-114342745D01*
X97389799Y-114342744D01*
X97389803Y-114342744D01*
X97427234Y-114326077D01*
X97439324Y-114321436D01*
X97478284Y-114308779D01*
X97513757Y-114288298D01*
X97525307Y-114282411D01*
X97562730Y-114265751D01*
X97595872Y-114241671D01*
X97606734Y-114234618D01*
X97642216Y-114214133D01*
X97672654Y-114186725D01*
X97682740Y-114178558D01*
X97682741Y-114178557D01*
X97715871Y-114154488D01*
X97743284Y-114124041D01*
X97752441Y-114114884D01*
X97782888Y-114087471D01*
X97806958Y-114054339D01*
X97815125Y-114044254D01*
X97842533Y-114013816D01*
X97863018Y-113978334D01*
X97870068Y-113967476D01*
X97890498Y-113939357D01*
X97945825Y-113896695D01*
X98015438Y-113890716D01*
X98018405Y-113891355D01*
X98071547Y-113903483D01*
X98169832Y-113925917D01*
X98371258Y-113934963D01*
X98390202Y-113935814D01*
X98390202Y-113935813D01*
X98390204Y-113935814D01*
X98608802Y-113906203D01*
X98818599Y-113838036D01*
X99012853Y-113733503D01*
X99185320Y-113595965D01*
X99330457Y-113429842D01*
X99443600Y-113240474D01*
X99521111Y-113033946D01*
X99536457Y-112949382D01*
X99560500Y-112816898D01*
X99560500Y-112104344D01*
X99560500Y-112101568D01*
X99545679Y-111936894D01*
X99543729Y-111929830D01*
X99486993Y-111724251D01*
X99482857Y-111715663D01*
X99391281Y-111525502D01*
X99385467Y-111517500D01*
X99261621Y-111347040D01*
X99261619Y-111347037D01*
X99162217Y-111251999D01*
X109642340Y-111251999D01*
X109662936Y-111487407D01*
X109690423Y-111589989D01*
X109724097Y-111715663D01*
X109823965Y-111929830D01*
X109959505Y-112123401D01*
X110126599Y-112290495D01*
X110320170Y-112426035D01*
X110534337Y-112525903D01*
X110740338Y-112581100D01*
X110762592Y-112587063D01*
X110997999Y-112607659D01*
X110997999Y-112607658D01*
X110998000Y-112607659D01*
X111233408Y-112587063D01*
X111461663Y-112525903D01*
X111675830Y-112426035D01*
X111869401Y-112290495D01*
X112036495Y-112123401D01*
X112172035Y-111929830D01*
X112271903Y-111715663D01*
X112333063Y-111487408D01*
X112353659Y-111252000D01*
X112333063Y-111016592D01*
X112271903Y-110788337D01*
X112172035Y-110574171D01*
X112036495Y-110380599D01*
X111869401Y-110213505D01*
X111683839Y-110083573D01*
X111640217Y-110028998D01*
X111633024Y-109959499D01*
X111664546Y-109897145D01*
X111683837Y-109880428D01*
X111869401Y-109750495D01*
X112036495Y-109583401D01*
X112172035Y-109389830D01*
X112271903Y-109175663D01*
X112333063Y-108947408D01*
X112353659Y-108712000D01*
X112333063Y-108476592D01*
X112271903Y-108248337D01*
X112172035Y-108034171D01*
X112036495Y-107840599D01*
X111869401Y-107673505D01*
X111683839Y-107543573D01*
X111640216Y-107488998D01*
X111633022Y-107419500D01*
X111664545Y-107357145D01*
X111683837Y-107340428D01*
X111869401Y-107210495D01*
X112036495Y-107043401D01*
X112172035Y-106849830D01*
X112271903Y-106635663D01*
X112333063Y-106407408D01*
X112353659Y-106172000D01*
X112333063Y-105936592D01*
X112271903Y-105708337D01*
X112172035Y-105494171D01*
X112036495Y-105300599D01*
X111869401Y-105133505D01*
X111683839Y-105003573D01*
X111640215Y-104948997D01*
X111633023Y-104879498D01*
X111664545Y-104817144D01*
X111683831Y-104800432D01*
X111869401Y-104670495D01*
X112036495Y-104503401D01*
X112172035Y-104309830D01*
X112271903Y-104095663D01*
X112333063Y-103867408D01*
X112353659Y-103632000D01*
X112333063Y-103396592D01*
X112271903Y-103168337D01*
X112172035Y-102954171D01*
X112036495Y-102760599D01*
X111869401Y-102593505D01*
X111683839Y-102463573D01*
X111640216Y-102408998D01*
X111633022Y-102339500D01*
X111664545Y-102277145D01*
X111683837Y-102260428D01*
X111869401Y-102130495D01*
X112036495Y-101963401D01*
X112172035Y-101769830D01*
X112271903Y-101555663D01*
X112333063Y-101327408D01*
X112353659Y-101092000D01*
X112333063Y-100856592D01*
X112271903Y-100628337D01*
X112172035Y-100414171D01*
X112036495Y-100220599D01*
X111869401Y-100053505D01*
X111683839Y-99923573D01*
X111640215Y-99868997D01*
X111633023Y-99799498D01*
X111664545Y-99737144D01*
X111683831Y-99720432D01*
X111869401Y-99590495D01*
X112036495Y-99423401D01*
X112172035Y-99229830D01*
X112271903Y-99015663D01*
X112333063Y-98787408D01*
X112353659Y-98552000D01*
X112353321Y-98548142D01*
X112333063Y-98316592D01*
X112325177Y-98287161D01*
X112271903Y-98088337D01*
X112172035Y-97874171D01*
X112036495Y-97680599D01*
X111869401Y-97513505D01*
X111683839Y-97383573D01*
X111640216Y-97328998D01*
X111633022Y-97259500D01*
X111664545Y-97197145D01*
X111683837Y-97180428D01*
X111869401Y-97050495D01*
X112036495Y-96883401D01*
X112172035Y-96689830D01*
X112271903Y-96475663D01*
X112333063Y-96247408D01*
X112353659Y-96012000D01*
X112333063Y-95776592D01*
X112271903Y-95548337D01*
X112172035Y-95334171D01*
X112036495Y-95140599D01*
X111869401Y-94973505D01*
X111683839Y-94843573D01*
X111640215Y-94788997D01*
X111633023Y-94719498D01*
X111664545Y-94657144D01*
X111683831Y-94640432D01*
X111869401Y-94510495D01*
X112036495Y-94343401D01*
X112172035Y-94149830D01*
X112271903Y-93935663D01*
X112333063Y-93707408D01*
X112353659Y-93472000D01*
X112333063Y-93236592D01*
X112271903Y-93008337D01*
X112172035Y-92794171D01*
X112036495Y-92600599D01*
X111869401Y-92433505D01*
X111683839Y-92303573D01*
X111640216Y-92248998D01*
X111633022Y-92179500D01*
X111664545Y-92117145D01*
X111683837Y-92100428D01*
X111869401Y-91970495D01*
X112036495Y-91803401D01*
X112172035Y-91609830D01*
X112271903Y-91395663D01*
X112333063Y-91167408D01*
X112353659Y-90932000D01*
X112333063Y-90696592D01*
X112271903Y-90468337D01*
X112172035Y-90254171D01*
X112036495Y-90060599D01*
X111869401Y-89893505D01*
X111683839Y-89763573D01*
X111640215Y-89708997D01*
X111633023Y-89639498D01*
X111664545Y-89577144D01*
X111683831Y-89560432D01*
X111869401Y-89430495D01*
X112036495Y-89263401D01*
X112172035Y-89069830D01*
X112271903Y-88855663D01*
X112333063Y-88627408D01*
X112353659Y-88392000D01*
X112333063Y-88156592D01*
X112271903Y-87928337D01*
X112172035Y-87714171D01*
X112036495Y-87520599D01*
X111869401Y-87353505D01*
X111683839Y-87223573D01*
X111640216Y-87168998D01*
X111633022Y-87099500D01*
X111664545Y-87037145D01*
X111683837Y-87020428D01*
X111869401Y-86890495D01*
X112036495Y-86723401D01*
X112172035Y-86529830D01*
X112271903Y-86315663D01*
X112333063Y-86087408D01*
X112353659Y-85852000D01*
X112333063Y-85616592D01*
X112271903Y-85388337D01*
X112172035Y-85174171D01*
X112036495Y-84980599D01*
X111869401Y-84813505D01*
X111683839Y-84683573D01*
X111640215Y-84628997D01*
X111633023Y-84559498D01*
X111664545Y-84497144D01*
X111683831Y-84480432D01*
X111869401Y-84350495D01*
X112036495Y-84183401D01*
X112172035Y-83989830D01*
X112271903Y-83775663D01*
X112333063Y-83547408D01*
X112353659Y-83312000D01*
X112333063Y-83076592D01*
X112271903Y-82848337D01*
X112172035Y-82634171D01*
X112036495Y-82440599D01*
X111869401Y-82273505D01*
X111683839Y-82143573D01*
X111640216Y-82088998D01*
X111633022Y-82019500D01*
X111664545Y-81957145D01*
X111683837Y-81940428D01*
X111869401Y-81810495D01*
X112036495Y-81643401D01*
X112172035Y-81449830D01*
X112271903Y-81235663D01*
X112333063Y-81007408D01*
X112353659Y-80772000D01*
X112333063Y-80536592D01*
X112271903Y-80308337D01*
X112172035Y-80094171D01*
X112036495Y-79900599D01*
X111869401Y-79733505D01*
X111683839Y-79603573D01*
X111640215Y-79548997D01*
X111633023Y-79479498D01*
X111664545Y-79417144D01*
X111683831Y-79400432D01*
X111869401Y-79270495D01*
X112036495Y-79103401D01*
X112172035Y-78909830D01*
X112271903Y-78695663D01*
X112333063Y-78467408D01*
X112353659Y-78232000D01*
X112333063Y-77996592D01*
X112271903Y-77768337D01*
X112172035Y-77554171D01*
X112036495Y-77360599D01*
X111869401Y-77193505D01*
X111683839Y-77063573D01*
X111640216Y-77008998D01*
X111633022Y-76939500D01*
X111664545Y-76877145D01*
X111683837Y-76860428D01*
X111869401Y-76730495D01*
X112036495Y-76563401D01*
X112172035Y-76369830D01*
X112271903Y-76155663D01*
X112333063Y-75927408D01*
X112353659Y-75692000D01*
X112333063Y-75456592D01*
X112271903Y-75228337D01*
X112172035Y-75014171D01*
X112036495Y-74820599D01*
X111869401Y-74653505D01*
X111683839Y-74523573D01*
X111640215Y-74468997D01*
X111633023Y-74399498D01*
X111664545Y-74337144D01*
X111683831Y-74320432D01*
X111869401Y-74190495D01*
X112036495Y-74023401D01*
X112172035Y-73829830D01*
X112271903Y-73615663D01*
X112333063Y-73387408D01*
X112353659Y-73152000D01*
X112333063Y-72916592D01*
X112271903Y-72688337D01*
X112172035Y-72474171D01*
X112036495Y-72280599D01*
X111869401Y-72113505D01*
X111683839Y-71983573D01*
X111640216Y-71928998D01*
X111633022Y-71859500D01*
X111664545Y-71797145D01*
X111683837Y-71780428D01*
X111869401Y-71650495D01*
X112036495Y-71483401D01*
X112172035Y-71289830D01*
X112271903Y-71075663D01*
X112333063Y-70847408D01*
X112353659Y-70612000D01*
X112333063Y-70376592D01*
X112271903Y-70148337D01*
X112172035Y-69934171D01*
X112036495Y-69740599D01*
X111869401Y-69573505D01*
X111683839Y-69443573D01*
X111640216Y-69388998D01*
X111633022Y-69319500D01*
X111664545Y-69257145D01*
X111683837Y-69240428D01*
X111869401Y-69110495D01*
X112036495Y-68943401D01*
X112172035Y-68749830D01*
X112271903Y-68535663D01*
X112333063Y-68307408D01*
X112353659Y-68072000D01*
X112333063Y-67836592D01*
X112271903Y-67608337D01*
X112172035Y-67394171D01*
X112036495Y-67200599D01*
X111869401Y-67033505D01*
X111683839Y-66903573D01*
X111640216Y-66848998D01*
X111633022Y-66779500D01*
X111664545Y-66717145D01*
X111683837Y-66700428D01*
X111869401Y-66570495D01*
X112036495Y-66403401D01*
X112172035Y-66209830D01*
X112271903Y-65995663D01*
X112333063Y-65767408D01*
X112353659Y-65532000D01*
X112333063Y-65296592D01*
X112271903Y-65068337D01*
X112172035Y-64854171D01*
X112036495Y-64660599D01*
X111914569Y-64538672D01*
X111881084Y-64477350D01*
X111886068Y-64407658D01*
X111927940Y-64351725D01*
X111958915Y-64334810D01*
X112090331Y-64285796D01*
X112205546Y-64199546D01*
X112291796Y-64084331D01*
X112342091Y-63949483D01*
X112348500Y-63889873D01*
X112348499Y-62094128D01*
X112342091Y-62034517D01*
X112291796Y-61899669D01*
X112205546Y-61784454D01*
X112090331Y-61698204D01*
X111955483Y-61647909D01*
X111903816Y-61642354D01*
X111899166Y-61641854D01*
X111899165Y-61641853D01*
X111895873Y-61641500D01*
X111892550Y-61641500D01*
X110103439Y-61641500D01*
X110103420Y-61641500D01*
X110100128Y-61641501D01*
X110096848Y-61641853D01*
X110096840Y-61641854D01*
X110040515Y-61647909D01*
X109905669Y-61698204D01*
X109790454Y-61784454D01*
X109704204Y-61899668D01*
X109653910Y-62034515D01*
X109653909Y-62034517D01*
X109647500Y-62094127D01*
X109647500Y-62097448D01*
X109647500Y-62097449D01*
X109647500Y-63886560D01*
X109647500Y-63886578D01*
X109647501Y-63889872D01*
X109653909Y-63949483D01*
X109704204Y-64084331D01*
X109790454Y-64199546D01*
X109905669Y-64285796D01*
X110017907Y-64327658D01*
X110037082Y-64334810D01*
X110093016Y-64376681D01*
X110117433Y-64442146D01*
X110102581Y-64510419D01*
X110081431Y-64538673D01*
X109959503Y-64660601D01*
X109823965Y-64854170D01*
X109724097Y-65068336D01*
X109662936Y-65296592D01*
X109642340Y-65531999D01*
X109662936Y-65767407D01*
X109674407Y-65810216D01*
X109724097Y-65995663D01*
X109823965Y-66209830D01*
X109959505Y-66403401D01*
X110126599Y-66570495D01*
X110312160Y-66700426D01*
X110355783Y-66755002D01*
X110362976Y-66824501D01*
X110331454Y-66886855D01*
X110312159Y-66903575D01*
X110126595Y-67033508D01*
X109959505Y-67200598D01*
X109823965Y-67394170D01*
X109724097Y-67608336D01*
X109662936Y-67836592D01*
X109642340Y-68071999D01*
X109662936Y-68307407D01*
X109698866Y-68441500D01*
X109724097Y-68535663D01*
X109823965Y-68749830D01*
X109959505Y-68943401D01*
X110126599Y-69110495D01*
X110312160Y-69240426D01*
X110355783Y-69295002D01*
X110362976Y-69364501D01*
X110331454Y-69426855D01*
X110312159Y-69443575D01*
X110126595Y-69573508D01*
X109959505Y-69740598D01*
X109823965Y-69934170D01*
X109724097Y-70148336D01*
X109662936Y-70376592D01*
X109642340Y-70612000D01*
X109662936Y-70847407D01*
X109707709Y-71014501D01*
X109724097Y-71075663D01*
X109823965Y-71289830D01*
X109959505Y-71483401D01*
X110126599Y-71650495D01*
X110312160Y-71780426D01*
X110355783Y-71835002D01*
X110362976Y-71904501D01*
X110331454Y-71966855D01*
X110312159Y-71983575D01*
X110126595Y-72113508D01*
X109959505Y-72280598D01*
X109823965Y-72474170D01*
X109724097Y-72688336D01*
X109662936Y-72916592D01*
X109642340Y-73152000D01*
X109662936Y-73387407D01*
X109707709Y-73554502D01*
X109724097Y-73615663D01*
X109823965Y-73829830D01*
X109959505Y-74023401D01*
X110126599Y-74190495D01*
X110312160Y-74320426D01*
X110355783Y-74375002D01*
X110362976Y-74444501D01*
X110331454Y-74506855D01*
X110312159Y-74523575D01*
X110126595Y-74653508D01*
X109959505Y-74820598D01*
X109823965Y-75014170D01*
X109724097Y-75228336D01*
X109662936Y-75456592D01*
X109642340Y-75691999D01*
X109662936Y-75927407D01*
X109707709Y-76094502D01*
X109724097Y-76155663D01*
X109823965Y-76369830D01*
X109959505Y-76563401D01*
X110126599Y-76730495D01*
X110312160Y-76860426D01*
X110355783Y-76915002D01*
X110362976Y-76984501D01*
X110331454Y-77046855D01*
X110312159Y-77063575D01*
X110126595Y-77193508D01*
X109959505Y-77360598D01*
X109823965Y-77554170D01*
X109724097Y-77768336D01*
X109662936Y-77996592D01*
X109642340Y-78232000D01*
X109662936Y-78467407D01*
X109707709Y-78634502D01*
X109724097Y-78695663D01*
X109823965Y-78909830D01*
X109959505Y-79103401D01*
X110126599Y-79270495D01*
X110312160Y-79400426D01*
X110355783Y-79455002D01*
X110362976Y-79524501D01*
X110331454Y-79586855D01*
X110312160Y-79603574D01*
X110129059Y-79731783D01*
X110126595Y-79733508D01*
X109959505Y-79900598D01*
X109823965Y-80094170D01*
X109724097Y-80308336D01*
X109662936Y-80536592D01*
X109642340Y-80772000D01*
X109662936Y-81007407D01*
X109694484Y-81125144D01*
X109724097Y-81235663D01*
X109823965Y-81449830D01*
X109959505Y-81643401D01*
X110126599Y-81810495D01*
X110312160Y-81940426D01*
X110355783Y-81995002D01*
X110362976Y-82064501D01*
X110331454Y-82126855D01*
X110312159Y-82143575D01*
X110126595Y-82273508D01*
X109959505Y-82440598D01*
X109823965Y-82634170D01*
X109724097Y-82848336D01*
X109662936Y-83076592D01*
X109642340Y-83312000D01*
X109662936Y-83547407D01*
X109689569Y-83646801D01*
X109724097Y-83775663D01*
X109823965Y-83989830D01*
X109959505Y-84183401D01*
X110126599Y-84350495D01*
X110312160Y-84480426D01*
X110355783Y-84535002D01*
X110362976Y-84604501D01*
X110331454Y-84666855D01*
X110312159Y-84683575D01*
X110126595Y-84813508D01*
X109959505Y-84980598D01*
X109823965Y-85174170D01*
X109724097Y-85388336D01*
X109662936Y-85616592D01*
X109642340Y-85851999D01*
X109662936Y-86087407D01*
X109707709Y-86254502D01*
X109724097Y-86315663D01*
X109823965Y-86529830D01*
X109959505Y-86723401D01*
X110126599Y-86890495D01*
X110312160Y-87020426D01*
X110355783Y-87075002D01*
X110362976Y-87144501D01*
X110331454Y-87206855D01*
X110312160Y-87223574D01*
X110159670Y-87330349D01*
X110126595Y-87353508D01*
X109959505Y-87520598D01*
X109823965Y-87714170D01*
X109724097Y-87928336D01*
X109662936Y-88156592D01*
X109642340Y-88391999D01*
X109662936Y-88627407D01*
X109705803Y-88787387D01*
X109724097Y-88855663D01*
X109823965Y-89069830D01*
X109959505Y-89263401D01*
X110126599Y-89430495D01*
X110312160Y-89560426D01*
X110355783Y-89615002D01*
X110362976Y-89684501D01*
X110331454Y-89746855D01*
X110312159Y-89763575D01*
X110126595Y-89893508D01*
X109959505Y-90060598D01*
X109823965Y-90254170D01*
X109724097Y-90468336D01*
X109662936Y-90696592D01*
X109642340Y-90932000D01*
X109662936Y-91167407D01*
X109695459Y-91288783D01*
X109724097Y-91395663D01*
X109823965Y-91609830D01*
X109959505Y-91803401D01*
X110126599Y-91970495D01*
X110312160Y-92100426D01*
X110355783Y-92155002D01*
X110362976Y-92224501D01*
X110331454Y-92286855D01*
X110312160Y-92303574D01*
X110185538Y-92392236D01*
X110126595Y-92433508D01*
X109959505Y-92600598D01*
X109823965Y-92794170D01*
X109724097Y-93008336D01*
X109662936Y-93236592D01*
X109642340Y-93472000D01*
X109662936Y-93707407D01*
X109679766Y-93770216D01*
X109724097Y-93935663D01*
X109823965Y-94149830D01*
X109959505Y-94343401D01*
X110126599Y-94510495D01*
X110312160Y-94640426D01*
X110355783Y-94695002D01*
X110362976Y-94764501D01*
X110331454Y-94826855D01*
X110312160Y-94843574D01*
X110210318Y-94914885D01*
X110126595Y-94973508D01*
X109959505Y-95140598D01*
X109823965Y-95334170D01*
X109724097Y-95548336D01*
X109662936Y-95776592D01*
X109642340Y-96012000D01*
X109662936Y-96247407D01*
X109698866Y-96381500D01*
X109724097Y-96475663D01*
X109823965Y-96689830D01*
X109959505Y-96883401D01*
X110126599Y-97050495D01*
X110312160Y-97180426D01*
X110355783Y-97235002D01*
X110362976Y-97304501D01*
X110331454Y-97366855D01*
X110312158Y-97383575D01*
X110161905Y-97488784D01*
X110126595Y-97513508D01*
X109959505Y-97680598D01*
X109823965Y-97874170D01*
X109724097Y-98088336D01*
X109662936Y-98316592D01*
X109642340Y-98551999D01*
X109662936Y-98787407D01*
X109707709Y-98954501D01*
X109724097Y-99015663D01*
X109823965Y-99229830D01*
X109959505Y-99423401D01*
X110126599Y-99590495D01*
X110312160Y-99720426D01*
X110355783Y-99775002D01*
X110362976Y-99844501D01*
X110331454Y-99906855D01*
X110312160Y-99923574D01*
X110259425Y-99960500D01*
X110126595Y-100053508D01*
X109959505Y-100220598D01*
X109823965Y-100414170D01*
X109724097Y-100628336D01*
X109662936Y-100856592D01*
X109642340Y-101091999D01*
X109662936Y-101327407D01*
X109674407Y-101370216D01*
X109724097Y-101555663D01*
X109823965Y-101769830D01*
X109959505Y-101963401D01*
X110126599Y-102130495D01*
X110312160Y-102260426D01*
X110355783Y-102315002D01*
X110362976Y-102384501D01*
X110331454Y-102446855D01*
X110312159Y-102463575D01*
X110126595Y-102593508D01*
X109959505Y-102760598D01*
X109823965Y-102954170D01*
X109724097Y-103168336D01*
X109662936Y-103396592D01*
X109642340Y-103632000D01*
X109662936Y-103867407D01*
X109685534Y-103951742D01*
X109724097Y-104095663D01*
X109823965Y-104309830D01*
X109959505Y-104503401D01*
X110126599Y-104670495D01*
X110312160Y-104800426D01*
X110355783Y-104855002D01*
X110362976Y-104924501D01*
X110331454Y-104986855D01*
X110312160Y-105003574D01*
X110129059Y-105131783D01*
X110126595Y-105133508D01*
X109959505Y-105300598D01*
X109823965Y-105494170D01*
X109724097Y-105708336D01*
X109662936Y-105936592D01*
X109642340Y-106172000D01*
X109662936Y-106407407D01*
X109691795Y-106515110D01*
X109724097Y-106635663D01*
X109823965Y-106849830D01*
X109959505Y-107043401D01*
X110126599Y-107210495D01*
X110312160Y-107340426D01*
X110355783Y-107395002D01*
X110362976Y-107464501D01*
X110331454Y-107526855D01*
X110312159Y-107543575D01*
X110126595Y-107673508D01*
X109959505Y-107840598D01*
X109823965Y-108034170D01*
X109724097Y-108248336D01*
X109662936Y-108476592D01*
X109642340Y-108711999D01*
X109662936Y-108947407D01*
X109691795Y-109055110D01*
X109724097Y-109175663D01*
X109823965Y-109389830D01*
X109959505Y-109583401D01*
X110126599Y-109750495D01*
X110312160Y-109880426D01*
X110355783Y-109935002D01*
X110362976Y-110004501D01*
X110331454Y-110066855D01*
X110312158Y-110083575D01*
X110185161Y-110172500D01*
X110126595Y-110213508D01*
X109959505Y-110380598D01*
X109823965Y-110574170D01*
X109724097Y-110788336D01*
X109662936Y-111016592D01*
X109642340Y-111251999D01*
X99162217Y-111251999D01*
X99102175Y-111194593D01*
X99102172Y-111194591D01*
X99102171Y-111194590D01*
X98934769Y-111084090D01*
X98889664Y-111030730D01*
X98880567Y-110961455D01*
X98885144Y-110942302D01*
X98929674Y-110805256D01*
X98949460Y-110617000D01*
X98929674Y-110428744D01*
X98871179Y-110248716D01*
X98871178Y-110248715D01*
X98871178Y-110248713D01*
X98862972Y-110234501D01*
X98846498Y-110166601D01*
X98862972Y-110110499D01*
X98871178Y-110096286D01*
X98880741Y-110066855D01*
X98929674Y-109916256D01*
X98949460Y-109728000D01*
X98929674Y-109539744D01*
X98871179Y-109359716D01*
X98871179Y-109359715D01*
X98776533Y-109195783D01*
X98649870Y-109055110D01*
X98496730Y-108943848D01*
X98323802Y-108866855D01*
X98138648Y-108827500D01*
X98138646Y-108827500D01*
X97949354Y-108827500D01*
X97949352Y-108827500D01*
X97764198Y-108866854D01*
X97649934Y-108917728D01*
X97580683Y-108927012D01*
X97549064Y-108917728D01*
X97434800Y-108866854D01*
X97249648Y-108827500D01*
X97249646Y-108827500D01*
X97060354Y-108827500D01*
X97060352Y-108827500D01*
X96875197Y-108866855D01*
X96702269Y-108943848D01*
X96549129Y-109055110D01*
X96422466Y-109195783D01*
X96327820Y-109359715D01*
X96269326Y-109539742D01*
X96249540Y-109728000D01*
X96269326Y-109916257D01*
X96327821Y-110096286D01*
X96336028Y-110110501D01*
X96352501Y-110178401D01*
X96336028Y-110234499D01*
X96327821Y-110248713D01*
X96269326Y-110428742D01*
X96249540Y-110617000D01*
X96269326Y-110805257D01*
X96327820Y-110985284D01*
X96422466Y-111149216D01*
X96549129Y-111289889D01*
X96702269Y-111401151D01*
X96875197Y-111478144D01*
X97060352Y-111517500D01*
X97086908Y-111517500D01*
X97153947Y-111537185D01*
X97199702Y-111589989D01*
X97209646Y-111659147D01*
X97203001Y-111685070D01*
X97148888Y-111829253D01*
X97109500Y-112046301D01*
X97109500Y-112460675D01*
X97089815Y-112527714D01*
X97037011Y-112573469D01*
X97011276Y-112581966D01*
X96975292Y-112589613D01*
X96962483Y-112591642D01*
X96921744Y-112595925D01*
X96882794Y-112608581D01*
X96870258Y-112611940D01*
X96830198Y-112620454D01*
X96792780Y-112637114D01*
X96780668Y-112641763D01*
X96741715Y-112654420D01*
X96706241Y-112674901D01*
X96694681Y-112680791D01*
X96657270Y-112697448D01*
X96624137Y-112721519D01*
X96613260Y-112728583D01*
X96577782Y-112749067D01*
X96547347Y-112776471D01*
X96537264Y-112784636D01*
X96504128Y-112808711D01*
X96476722Y-112839148D01*
X96467548Y-112848322D01*
X96437111Y-112875728D01*
X96413036Y-112908864D01*
X96404871Y-112918947D01*
X96377467Y-112949382D01*
X96356983Y-112984860D01*
X96349919Y-112995737D01*
X96325848Y-113028870D01*
X96309191Y-113066281D01*
X96303301Y-113077841D01*
X96282820Y-113113315D01*
X96270163Y-113152268D01*
X96265514Y-113164380D01*
X96248854Y-113201798D01*
X96240340Y-113241858D01*
X96236981Y-113254394D01*
X96224325Y-113293344D01*
X96220042Y-113334083D01*
X96218013Y-113346893D01*
X96209499Y-113386951D01*
X96209499Y-113427911D01*
X96208820Y-113440868D01*
X96204539Y-113481599D01*
X93015460Y-113481599D01*
X93011179Y-113440866D01*
X93010500Y-113427906D01*
X93010500Y-113386953D01*
X93001986Y-113346900D01*
X92999955Y-113334085D01*
X92995674Y-113293344D01*
X92983014Y-113254382D01*
X92979660Y-113241867D01*
X92971144Y-113201797D01*
X92954483Y-113164378D01*
X92949831Y-113152258D01*
X92945507Y-113138950D01*
X92937179Y-113113316D01*
X92916696Y-113077839D01*
X92910805Y-113066277D01*
X92894151Y-113028870D01*
X92870078Y-112995736D01*
X92863015Y-112984860D01*
X92842531Y-112949381D01*
X92815127Y-112918947D01*
X92806957Y-112908858D01*
X92782889Y-112875730D01*
X92782887Y-112875728D01*
X92752442Y-112848315D01*
X92743274Y-112839146D01*
X92715871Y-112808712D01*
X92682739Y-112784641D01*
X92672662Y-112776481D01*
X92642216Y-112749067D01*
X92642215Y-112749066D01*
X92606740Y-112728584D01*
X92595860Y-112721518D01*
X92562732Y-112697450D01*
X92562728Y-112697448D01*
X92525308Y-112680787D01*
X92513755Y-112674900D01*
X92478284Y-112654421D01*
X92439331Y-112641764D01*
X92427213Y-112637112D01*
X92389805Y-112620456D01*
X92368011Y-112615824D01*
X92349739Y-112611940D01*
X92337209Y-112608582D01*
X92298255Y-112595925D01*
X92257519Y-112591643D01*
X92244708Y-112589614D01*
X92208719Y-112581965D01*
X92147238Y-112548774D01*
X92113461Y-112487611D01*
X92110500Y-112460675D01*
X92110500Y-112104344D01*
X92110500Y-112101568D01*
X92095679Y-111936894D01*
X92093729Y-111929830D01*
X92036993Y-111724251D01*
X92032857Y-111715663D01*
X91941281Y-111525502D01*
X91935467Y-111517500D01*
X91811621Y-111347040D01*
X91811619Y-111347037D01*
X91652175Y-111194593D01*
X91652172Y-111194591D01*
X91652171Y-111194590D01*
X91468071Y-111073068D01*
X91265232Y-110986369D01*
X91050168Y-110937283D01*
X90829797Y-110927385D01*
X90611196Y-110956997D01*
X90401402Y-111025163D01*
X90312381Y-111073068D01*
X90207147Y-111129697D01*
X90207145Y-111129698D01*
X90207146Y-111129698D01*
X90034679Y-111267235D01*
X89889542Y-111433358D01*
X89776399Y-111622726D01*
X89698888Y-111829253D01*
X89659500Y-112046301D01*
X89659500Y-112046303D01*
X89659500Y-112761632D01*
X75438500Y-112761632D01*
X75438500Y-111252000D01*
X76622340Y-111252000D01*
X76642936Y-111487407D01*
X76670423Y-111589989D01*
X76704097Y-111715663D01*
X76803965Y-111929830D01*
X76939505Y-112123401D01*
X77106599Y-112290495D01*
X77300170Y-112426035D01*
X77514337Y-112525903D01*
X77742592Y-112587063D01*
X77978000Y-112607659D01*
X78213408Y-112587063D01*
X78441663Y-112525903D01*
X78655830Y-112426035D01*
X78849401Y-112290495D01*
X79016495Y-112123401D01*
X79152035Y-111929830D01*
X79251903Y-111715663D01*
X79313063Y-111487408D01*
X79333659Y-111252000D01*
X79313063Y-111016592D01*
X79251903Y-110788337D01*
X79152035Y-110574171D01*
X79016495Y-110380599D01*
X78849401Y-110213505D01*
X78663839Y-110083573D01*
X78620217Y-110028998D01*
X78613024Y-109959499D01*
X78644546Y-109897145D01*
X78663837Y-109880428D01*
X78849401Y-109750495D01*
X79016495Y-109583401D01*
X79152035Y-109389830D01*
X79251903Y-109175663D01*
X79313063Y-108947408D01*
X79333659Y-108712000D01*
X79313063Y-108476592D01*
X79251903Y-108248337D01*
X79152035Y-108034171D01*
X79016495Y-107840599D01*
X78849401Y-107673505D01*
X78663839Y-107543573D01*
X78620216Y-107488998D01*
X78613022Y-107419500D01*
X78644545Y-107357145D01*
X78663837Y-107340428D01*
X78849401Y-107210495D01*
X78871896Y-107188000D01*
X94152040Y-107188000D01*
X94171826Y-107376257D01*
X94230320Y-107556284D01*
X94324966Y-107720216D01*
X94451629Y-107860889D01*
X94604769Y-107972151D01*
X94777697Y-108049144D01*
X94962852Y-108088500D01*
X94962854Y-108088500D01*
X95152148Y-108088500D01*
X95275584Y-108062262D01*
X95337303Y-108049144D01*
X95510230Y-107972151D01*
X95663371Y-107860888D01*
X95790033Y-107720216D01*
X95884679Y-107556284D01*
X95943174Y-107376256D01*
X95951042Y-107301393D01*
X95977625Y-107236781D01*
X96034922Y-107196796D01*
X96104741Y-107194136D01*
X96164915Y-107229645D01*
X96192293Y-107276039D01*
X96200820Y-107302284D01*
X96295466Y-107466216D01*
X96422129Y-107606889D01*
X96575269Y-107718151D01*
X96748197Y-107795144D01*
X96933352Y-107834500D01*
X96933354Y-107834500D01*
X97122648Y-107834500D01*
X97246084Y-107808262D01*
X97307803Y-107795144D01*
X97480730Y-107718151D01*
X97633871Y-107606888D01*
X97760533Y-107466216D01*
X97855179Y-107302284D01*
X97913674Y-107122256D01*
X97933460Y-106934000D01*
X97913674Y-106745744D01*
X97855179Y-106565716D01*
X97855179Y-106565715D01*
X97760533Y-106401783D01*
X97633870Y-106261110D01*
X97480730Y-106149848D01*
X97307802Y-106072855D01*
X97122648Y-106033500D01*
X97122646Y-106033500D01*
X96933354Y-106033500D01*
X96933352Y-106033500D01*
X96748197Y-106072855D01*
X96575269Y-106149848D01*
X96422129Y-106261110D01*
X96295466Y-106401783D01*
X96200820Y-106565715D01*
X96142326Y-106745742D01*
X96134458Y-106820604D01*
X96107873Y-106885219D01*
X96050575Y-106925203D01*
X95980756Y-106927863D01*
X95920583Y-106892353D01*
X95893207Y-106845962D01*
X95884679Y-106819716D01*
X95884677Y-106819712D01*
X95790033Y-106655783D01*
X95663370Y-106515110D01*
X95510230Y-106403848D01*
X95337302Y-106326855D01*
X95152148Y-106287500D01*
X95152146Y-106287500D01*
X94962854Y-106287500D01*
X94962852Y-106287500D01*
X94777697Y-106326855D01*
X94604769Y-106403848D01*
X94451629Y-106515110D01*
X94324966Y-106655783D01*
X94230320Y-106819715D01*
X94171826Y-106999742D01*
X94152040Y-107188000D01*
X78871896Y-107188000D01*
X79016495Y-107043401D01*
X79152035Y-106849830D01*
X79251903Y-106635663D01*
X79313063Y-106407408D01*
X79333659Y-106172000D01*
X79313063Y-105936592D01*
X79251903Y-105708337D01*
X79152035Y-105494171D01*
X79016495Y-105300599D01*
X78998896Y-105283000D01*
X89010540Y-105283000D01*
X89030326Y-105471257D01*
X89088820Y-105651284D01*
X89183466Y-105815216D01*
X89310129Y-105955889D01*
X89463269Y-106067151D01*
X89636197Y-106144144D01*
X89821352Y-106183500D01*
X89821354Y-106183500D01*
X90010648Y-106183500D01*
X90134084Y-106157262D01*
X90195803Y-106144144D01*
X90368730Y-106067151D01*
X90416721Y-106032284D01*
X90532415Y-105948228D01*
X90533445Y-105949646D01*
X90579552Y-105921237D01*
X90649409Y-105922562D01*
X90707460Y-105961444D01*
X90730155Y-106002536D01*
X90739821Y-106032285D01*
X90834466Y-106196216D01*
X90961129Y-106336889D01*
X91114269Y-106448151D01*
X91287197Y-106525144D01*
X91472352Y-106564500D01*
X91472354Y-106564500D01*
X91661648Y-106564500D01*
X91785083Y-106538262D01*
X91846803Y-106525144D01*
X92019730Y-106448151D01*
X92172871Y-106336888D01*
X92299533Y-106196216D01*
X92394179Y-106032284D01*
X92452674Y-105852256D01*
X92472460Y-105664000D01*
X92452674Y-105475744D01*
X92399075Y-105310784D01*
X92394179Y-105295715D01*
X92299533Y-105131783D01*
X92172870Y-104991110D01*
X92105964Y-104942500D01*
X100186540Y-104942500D01*
X100206326Y-105130757D01*
X100264820Y-105310784D01*
X100359466Y-105474716D01*
X100486129Y-105615389D01*
X100639269Y-105726651D01*
X100812197Y-105803644D01*
X100997352Y-105843000D01*
X100997354Y-105843000D01*
X101186643Y-105843000D01*
X101186646Y-105843000D01*
X101197056Y-105840787D01*
X101266720Y-105846102D01*
X101322455Y-105888237D01*
X101346157Y-105949113D01*
X101349325Y-105979253D01*
X101407820Y-106159284D01*
X101502466Y-106323216D01*
X101629129Y-106463889D01*
X101782269Y-106575151D01*
X101955197Y-106652144D01*
X102140352Y-106691500D01*
X102140354Y-106691500D01*
X102329648Y-106691500D01*
X102453083Y-106665262D01*
X102514803Y-106652144D01*
X102687730Y-106575151D01*
X102840871Y-106463888D01*
X102967533Y-106323216D01*
X103062179Y-106159284D01*
X103120674Y-105979256D01*
X103140460Y-105791000D01*
X103120674Y-105602744D01*
X103062179Y-105422716D01*
X103062179Y-105422715D01*
X102981515Y-105283000D01*
X104377540Y-105283000D01*
X104397326Y-105471257D01*
X104455820Y-105651284D01*
X104550466Y-105815216D01*
X104677129Y-105955889D01*
X104830269Y-106067151D01*
X105003197Y-106144144D01*
X105188352Y-106183500D01*
X105188354Y-106183500D01*
X105377648Y-106183500D01*
X105501084Y-106157262D01*
X105562803Y-106144144D01*
X105735730Y-106067151D01*
X105824665Y-106002536D01*
X105888870Y-105955889D01*
X106015533Y-105815216D01*
X106110179Y-105651284D01*
X106125951Y-105602742D01*
X106168674Y-105471256D01*
X106185791Y-105308399D01*
X106942940Y-105308399D01*
X106962726Y-105496657D01*
X107021220Y-105676684D01*
X107115866Y-105840616D01*
X107242529Y-105981289D01*
X107395669Y-106092551D01*
X107568597Y-106169544D01*
X107753752Y-106208900D01*
X107753754Y-106208900D01*
X107943048Y-106208900D01*
X108116648Y-106172000D01*
X108128203Y-106169544D01*
X108301130Y-106092551D01*
X108382407Y-106033500D01*
X108454270Y-105981289D01*
X108580933Y-105840616D01*
X108675579Y-105676684D01*
X108695495Y-105615388D01*
X108734074Y-105496656D01*
X108753860Y-105308400D01*
X108734074Y-105120144D01*
X108694638Y-104998772D01*
X108675579Y-104940115D01*
X108580933Y-104776183D01*
X108454270Y-104635510D01*
X108301130Y-104524248D01*
X108128202Y-104447255D01*
X107943048Y-104407900D01*
X107943046Y-104407900D01*
X107753754Y-104407900D01*
X107753752Y-104407900D01*
X107568597Y-104447255D01*
X107395669Y-104524248D01*
X107242529Y-104635510D01*
X107115866Y-104776183D01*
X107021220Y-104940115D01*
X106962726Y-105120142D01*
X106942940Y-105308399D01*
X106185791Y-105308399D01*
X106188460Y-105283000D01*
X106168674Y-105094744D01*
X106118432Y-104940115D01*
X106110179Y-104914715D01*
X106015533Y-104750783D01*
X105888870Y-104610110D01*
X105735730Y-104498848D01*
X105562802Y-104421855D01*
X105377648Y-104382500D01*
X105377646Y-104382500D01*
X105188354Y-104382500D01*
X105188352Y-104382500D01*
X105003197Y-104421855D01*
X104830269Y-104498848D01*
X104677129Y-104610110D01*
X104550466Y-104750783D01*
X104455820Y-104914715D01*
X104397326Y-105094742D01*
X104377540Y-105283000D01*
X102981515Y-105283000D01*
X102967533Y-105258783D01*
X102840870Y-105118110D01*
X102687730Y-105006848D01*
X102514802Y-104929855D01*
X102329648Y-104890500D01*
X102329646Y-104890500D01*
X102140354Y-104890500D01*
X102140353Y-104890500D01*
X102129940Y-104892713D01*
X102060273Y-104887395D01*
X102004540Y-104845257D01*
X101980841Y-104784380D01*
X101977674Y-104754242D01*
X101919179Y-104574215D01*
X101824533Y-104410283D01*
X101697870Y-104269610D01*
X101544730Y-104158348D01*
X101371802Y-104081355D01*
X101186648Y-104042000D01*
X101186646Y-104042000D01*
X100997354Y-104042000D01*
X100997352Y-104042000D01*
X100812197Y-104081355D01*
X100639269Y-104158348D01*
X100486129Y-104269610D01*
X100359466Y-104410283D01*
X100264820Y-104574215D01*
X100206326Y-104754242D01*
X100186540Y-104942500D01*
X92105964Y-104942500D01*
X92019730Y-104879848D01*
X91846802Y-104802855D01*
X91661648Y-104763500D01*
X91661646Y-104763500D01*
X91472354Y-104763500D01*
X91472352Y-104763500D01*
X91287197Y-104802855D01*
X91114269Y-104879848D01*
X90950585Y-104998772D01*
X90949555Y-104997354D01*
X90903431Y-105025767D01*
X90833574Y-105024432D01*
X90775528Y-104985542D01*
X90752844Y-104944461D01*
X90743179Y-104914716D01*
X90648533Y-104750783D01*
X90521870Y-104610110D01*
X90368730Y-104498848D01*
X90195802Y-104421855D01*
X90010648Y-104382500D01*
X90010646Y-104382500D01*
X89821354Y-104382500D01*
X89821352Y-104382500D01*
X89636197Y-104421855D01*
X89463269Y-104498848D01*
X89310129Y-104610110D01*
X89183466Y-104750783D01*
X89088820Y-104914715D01*
X89030326Y-105094742D01*
X89010540Y-105283000D01*
X78998896Y-105283000D01*
X78849401Y-105133505D01*
X78663839Y-105003573D01*
X78620216Y-104948998D01*
X78613022Y-104879500D01*
X78644545Y-104817145D01*
X78663837Y-104800428D01*
X78849401Y-104670495D01*
X79016495Y-104503401D01*
X79152035Y-104309830D01*
X79231229Y-104139999D01*
X83549540Y-104139999D01*
X83569326Y-104328257D01*
X83627820Y-104508284D01*
X83722466Y-104672216D01*
X83849129Y-104812889D01*
X84002269Y-104924151D01*
X84175197Y-105001144D01*
X84360352Y-105040500D01*
X84360354Y-105040500D01*
X84549648Y-105040500D01*
X84673083Y-105014262D01*
X84734803Y-105001144D01*
X84907730Y-104924151D01*
X84954047Y-104890500D01*
X85060870Y-104812889D01*
X85093920Y-104776184D01*
X85187533Y-104672216D01*
X85282179Y-104508284D01*
X85340674Y-104328256D01*
X85360460Y-104140000D01*
X85340674Y-103951744D01*
X85282179Y-103771716D01*
X85282179Y-103771715D01*
X85187533Y-103607783D01*
X85060870Y-103467110D01*
X84907730Y-103355848D01*
X84734802Y-103278855D01*
X84549648Y-103239500D01*
X84549646Y-103239500D01*
X84360354Y-103239500D01*
X84360352Y-103239500D01*
X84175197Y-103278855D01*
X84002269Y-103355848D01*
X83849129Y-103467110D01*
X83722466Y-103607783D01*
X83627820Y-103771715D01*
X83569326Y-103951742D01*
X83549540Y-104139999D01*
X79231229Y-104139999D01*
X79251903Y-104095663D01*
X79313063Y-103867408D01*
X79333659Y-103632000D01*
X79313063Y-103396592D01*
X79251903Y-103168337D01*
X79152035Y-102954171D01*
X79016495Y-102760599D01*
X78849401Y-102593505D01*
X78663878Y-102463600D01*
X87638940Y-102463600D01*
X87658726Y-102651857D01*
X87717220Y-102831884D01*
X87811866Y-102995816D01*
X87938529Y-103136489D01*
X88091669Y-103247751D01*
X88264597Y-103324744D01*
X88449752Y-103364100D01*
X88449754Y-103364100D01*
X88639048Y-103364100D01*
X88762484Y-103337862D01*
X88824203Y-103324744D01*
X88997130Y-103247751D01*
X89008487Y-103239500D01*
X89106515Y-103168279D01*
X89172321Y-103144799D01*
X89240375Y-103160624D01*
X89252285Y-103168279D01*
X89361669Y-103247751D01*
X89534597Y-103324744D01*
X89719752Y-103364100D01*
X89719754Y-103364100D01*
X89909048Y-103364100D01*
X90032483Y-103337862D01*
X90094203Y-103324744D01*
X90267130Y-103247751D01*
X90278487Y-103239500D01*
X90420270Y-103136489D01*
X90546933Y-102995816D01*
X90641579Y-102831884D01*
X90664741Y-102760598D01*
X90700074Y-102651856D01*
X90719860Y-102463600D01*
X90700074Y-102275344D01*
X90669732Y-102181963D01*
X90641579Y-102095315D01*
X90546933Y-101931383D01*
X90477256Y-101853999D01*
X106680037Y-101853999D01*
X106699823Y-102042257D01*
X106758317Y-102222284D01*
X106852963Y-102386216D01*
X106979626Y-102526889D01*
X107132766Y-102638151D01*
X107305694Y-102715144D01*
X107490849Y-102754500D01*
X107490851Y-102754500D01*
X107680145Y-102754500D01*
X107865297Y-102715145D01*
X107865298Y-102715144D01*
X107865300Y-102715144D01*
X108034814Y-102639670D01*
X108104060Y-102630385D01*
X108135683Y-102639671D01*
X108305197Y-102715144D01*
X108490352Y-102754500D01*
X108490354Y-102754500D01*
X108679648Y-102754500D01*
X108803084Y-102728262D01*
X108864803Y-102715144D01*
X109037730Y-102638151D01*
X109190871Y-102526888D01*
X109317533Y-102386216D01*
X109412179Y-102222284D01*
X109470674Y-102042256D01*
X109490460Y-101854000D01*
X109470674Y-101665744D01*
X109420358Y-101510888D01*
X109412179Y-101485715D01*
X109317533Y-101321783D01*
X109190870Y-101181110D01*
X109037730Y-101069848D01*
X108864802Y-100992855D01*
X108679648Y-100953500D01*
X108679646Y-100953500D01*
X108490354Y-100953500D01*
X108490352Y-100953500D01*
X108305197Y-100992855D01*
X108135684Y-101068328D01*
X108066434Y-101077613D01*
X108034812Y-101068328D01*
X107865299Y-100992855D01*
X107680145Y-100953500D01*
X107680143Y-100953500D01*
X107490851Y-100953500D01*
X107490849Y-100953500D01*
X107305694Y-100992855D01*
X107132766Y-101069848D01*
X106979626Y-101181110D01*
X106852963Y-101321783D01*
X106758317Y-101485715D01*
X106699823Y-101665742D01*
X106680037Y-101853999D01*
X90477256Y-101853999D01*
X90420270Y-101790710D01*
X90267130Y-101679448D01*
X90094202Y-101602455D01*
X89909048Y-101563100D01*
X89909046Y-101563100D01*
X89719754Y-101563100D01*
X89719752Y-101563100D01*
X89534597Y-101602455D01*
X89361669Y-101679448D01*
X89252285Y-101758921D01*
X89186479Y-101782401D01*
X89118425Y-101766576D01*
X89106515Y-101758921D01*
X88997130Y-101679448D01*
X88824202Y-101602455D01*
X88639048Y-101563100D01*
X88639046Y-101563100D01*
X88449754Y-101563100D01*
X88449752Y-101563100D01*
X88264597Y-101602455D01*
X88091669Y-101679448D01*
X87938529Y-101790710D01*
X87811866Y-101931383D01*
X87717220Y-102095315D01*
X87658726Y-102275342D01*
X87638940Y-102463600D01*
X78663878Y-102463600D01*
X78663839Y-102463573D01*
X78620216Y-102408998D01*
X78613022Y-102339500D01*
X78644545Y-102277145D01*
X78663837Y-102260428D01*
X78849401Y-102130495D01*
X79016495Y-101963401D01*
X79152035Y-101769830D01*
X79251903Y-101555663D01*
X79313063Y-101327408D01*
X79333659Y-101092000D01*
X79313063Y-100856592D01*
X79308081Y-100838000D01*
X81771540Y-100838000D01*
X81791326Y-101026257D01*
X81849820Y-101206284D01*
X81944466Y-101370216D01*
X82071129Y-101510889D01*
X82224269Y-101622151D01*
X82397197Y-101699144D01*
X82582352Y-101738500D01*
X82582354Y-101738500D01*
X82771648Y-101738500D01*
X82895084Y-101712262D01*
X82956803Y-101699144D01*
X83129730Y-101622151D01*
X83282871Y-101510888D01*
X83409533Y-101370216D01*
X83504179Y-101206284D01*
X83562674Y-101026256D01*
X83582460Y-100838000D01*
X83562674Y-100649744D01*
X83504179Y-100469716D01*
X83504179Y-100469715D01*
X83422647Y-100328499D01*
X83406174Y-100260599D01*
X83422644Y-100204505D01*
X83504179Y-100063284D01*
X83562674Y-99883256D01*
X83582460Y-99695000D01*
X83562674Y-99506744D01*
X83512263Y-99351595D01*
X83504179Y-99326715D01*
X83409533Y-99162783D01*
X83282870Y-99022110D01*
X83129730Y-98910848D01*
X82956802Y-98833855D01*
X82771648Y-98794500D01*
X82771646Y-98794500D01*
X82582354Y-98794500D01*
X82582352Y-98794500D01*
X82397197Y-98833855D01*
X82224269Y-98910848D01*
X82071129Y-99022110D01*
X81944466Y-99162783D01*
X81849820Y-99326715D01*
X81791326Y-99506742D01*
X81771540Y-99695000D01*
X81791326Y-99883257D01*
X81849820Y-100063284D01*
X81931351Y-100204500D01*
X81947824Y-100272401D01*
X81931351Y-100328500D01*
X81849820Y-100469715D01*
X81791326Y-100649742D01*
X81771540Y-100838000D01*
X79308081Y-100838000D01*
X79251903Y-100628337D01*
X79152035Y-100414171D01*
X79016495Y-100220599D01*
X78849401Y-100053505D01*
X78663839Y-99923573D01*
X78620217Y-99868998D01*
X78613024Y-99799499D01*
X78644546Y-99737145D01*
X78663837Y-99720428D01*
X78849401Y-99590495D01*
X79016495Y-99423401D01*
X79152035Y-99229830D01*
X79251903Y-99015663D01*
X79313063Y-98787408D01*
X79333659Y-98552000D01*
X79333321Y-98548142D01*
X79313063Y-98316592D01*
X79305177Y-98287161D01*
X79251903Y-98088337D01*
X79152035Y-97874171D01*
X79016495Y-97680599D01*
X78998895Y-97662999D01*
X90153540Y-97662999D01*
X90173326Y-97851257D01*
X90231820Y-98031284D01*
X90326466Y-98195216D01*
X90453129Y-98335889D01*
X90606269Y-98447151D01*
X90779197Y-98524144D01*
X90964352Y-98563500D01*
X90964354Y-98563500D01*
X91153648Y-98563500D01*
X91277083Y-98537262D01*
X91338803Y-98524144D01*
X91450755Y-98474298D01*
X91516564Y-98444999D01*
X91585814Y-98435714D01*
X91617436Y-98444999D01*
X91795197Y-98524144D01*
X91980352Y-98563500D01*
X91980354Y-98563500D01*
X92169648Y-98563500D01*
X92293083Y-98537262D01*
X92354803Y-98524144D01*
X92527730Y-98447151D01*
X92600907Y-98393985D01*
X92680870Y-98335889D01*
X92807533Y-98195216D01*
X92869240Y-98088336D01*
X92902179Y-98031284D01*
X92909568Y-98008541D01*
X92949006Y-97950865D01*
X93013364Y-97923666D01*
X93082210Y-97935580D01*
X93133687Y-97982824D01*
X93145431Y-98008541D01*
X93152820Y-98031283D01*
X93247466Y-98195216D01*
X93259636Y-98208732D01*
X93289865Y-98271723D01*
X93281239Y-98341059D01*
X93253660Y-98375454D01*
X93255850Y-98377426D01*
X93120466Y-98527783D01*
X93025820Y-98691715D01*
X92967326Y-98871742D01*
X92947540Y-99059999D01*
X92967326Y-99248257D01*
X93025820Y-99428284D01*
X93120466Y-99592216D01*
X93247129Y-99732889D01*
X93400269Y-99844151D01*
X93573197Y-99921144D01*
X93758352Y-99960500D01*
X93758354Y-99960500D01*
X93947648Y-99960500D01*
X94107247Y-99926576D01*
X94132803Y-99921144D01*
X94305730Y-99844151D01*
X94345424Y-99815312D01*
X94458870Y-99732889D01*
X94492987Y-99694999D01*
X94585533Y-99592216D01*
X94680179Y-99428284D01*
X94738674Y-99248256D01*
X94758460Y-99060000D01*
X94738674Y-98871744D01*
X94721659Y-98819378D01*
X97278918Y-98819378D01*
X97298704Y-99007635D01*
X97357198Y-99187662D01*
X97451844Y-99351594D01*
X97578507Y-99492267D01*
X97731647Y-99603529D01*
X97904575Y-99680522D01*
X98089730Y-99719878D01*
X98089732Y-99719878D01*
X98279026Y-99719878D01*
X98402461Y-99693640D01*
X98464181Y-99680522D01*
X98637108Y-99603529D01*
X98690347Y-99564849D01*
X98790248Y-99492267D01*
X98819271Y-99460034D01*
X98916911Y-99351594D01*
X98980796Y-99240940D01*
X99031361Y-99192727D01*
X99099968Y-99179503D01*
X99113961Y-99181651D01*
X99167586Y-99193050D01*
X99356878Y-99193050D01*
X99454051Y-99172395D01*
X99523716Y-99177711D01*
X99579450Y-99219847D01*
X99598159Y-99267899D01*
X99599049Y-99267611D01*
X99603075Y-99280004D01*
X99603076Y-99280006D01*
X99617046Y-99323001D01*
X99661570Y-99460034D01*
X99722085Y-99564849D01*
X99738558Y-99632750D01*
X99715705Y-99698776D01*
X99665134Y-99740128D01*
X99496269Y-99815312D01*
X99343129Y-99926574D01*
X99216466Y-100067247D01*
X99121820Y-100231179D01*
X99063326Y-100411206D01*
X99057177Y-100469715D01*
X99043540Y-100599464D01*
X99046575Y-100628337D01*
X99063326Y-100787721D01*
X99121820Y-100967748D01*
X99216466Y-101131680D01*
X99343129Y-101272353D01*
X99496269Y-101383615D01*
X99669197Y-101460608D01*
X99854352Y-101499964D01*
X99854354Y-101499964D01*
X100043648Y-101499964D01*
X100167084Y-101473726D01*
X100228803Y-101460608D01*
X100401730Y-101383615D01*
X100479094Y-101327407D01*
X100554870Y-101272353D01*
X100681533Y-101131680D01*
X100776179Y-100967748D01*
X100812296Y-100856592D01*
X100834674Y-100787720D01*
X100854460Y-100599464D01*
X100834674Y-100411208D01*
X100804332Y-100317827D01*
X100776179Y-100231179D01*
X100715664Y-100126364D01*
X100699191Y-100058464D01*
X100722044Y-99992437D01*
X100772613Y-99951086D01*
X100941480Y-99875901D01*
X100941480Y-99875900D01*
X100941482Y-99875900D01*
X101094620Y-99764639D01*
X101157324Y-99695000D01*
X101221283Y-99623966D01*
X101315929Y-99460034D01*
X101374424Y-99280006D01*
X101394210Y-99091750D01*
X101374424Y-98903494D01*
X101344082Y-98810113D01*
X101315929Y-98723465D01*
X101290257Y-98679000D01*
X103615540Y-98679000D01*
X103635326Y-98867257D01*
X103693820Y-99047284D01*
X103788466Y-99211216D01*
X103915129Y-99351889D01*
X104068269Y-99463151D01*
X104241197Y-99540144D01*
X104426352Y-99579500D01*
X104426354Y-99579500D01*
X104615648Y-99579500D01*
X104739083Y-99553262D01*
X104800803Y-99540144D01*
X104973730Y-99463151D01*
X105028437Y-99423404D01*
X105126870Y-99351889D01*
X105190850Y-99280832D01*
X105250336Y-99244183D01*
X105320193Y-99245513D01*
X105375150Y-99280832D01*
X105439129Y-99351889D01*
X105592269Y-99463151D01*
X105765197Y-99540144D01*
X105950352Y-99579500D01*
X105950354Y-99579500D01*
X106139648Y-99579500D01*
X106263084Y-99553262D01*
X106324803Y-99540144D01*
X106497730Y-99463151D01*
X106552437Y-99423404D01*
X106650870Y-99351889D01*
X106777533Y-99211216D01*
X106872179Y-99047284D01*
X106880358Y-99022112D01*
X106930674Y-98867256D01*
X106950460Y-98679000D01*
X106930674Y-98490744D01*
X106888200Y-98360024D01*
X106872179Y-98310715D01*
X106777533Y-98146783D01*
X106702519Y-98063473D01*
X106672289Y-98000481D01*
X106680913Y-97931146D01*
X106702519Y-97897527D01*
X106777533Y-97814216D01*
X106872179Y-97650284D01*
X106916621Y-97513505D01*
X106930674Y-97470256D01*
X106950460Y-97282000D01*
X106930674Y-97093744D01*
X106894301Y-96981801D01*
X106872179Y-96913715D01*
X106777533Y-96749783D01*
X106650870Y-96609110D01*
X106497730Y-96497848D01*
X106324802Y-96420855D01*
X106139648Y-96381500D01*
X106139646Y-96381500D01*
X105950354Y-96381500D01*
X105950352Y-96381500D01*
X105765197Y-96420855D01*
X105592269Y-96497848D01*
X105439129Y-96609110D01*
X105375150Y-96680167D01*
X105315663Y-96716816D01*
X105245806Y-96715485D01*
X105190850Y-96680167D01*
X105126870Y-96609110D01*
X104973730Y-96497848D01*
X104800802Y-96420855D01*
X104615648Y-96381500D01*
X104615646Y-96381500D01*
X104426354Y-96381500D01*
X104426352Y-96381500D01*
X104241197Y-96420855D01*
X104068269Y-96497848D01*
X103915129Y-96609110D01*
X103788466Y-96749783D01*
X103693820Y-96913715D01*
X103635326Y-97093742D01*
X103620285Y-97236849D01*
X103615540Y-97282000D01*
X103624458Y-97366855D01*
X103635326Y-97470257D01*
X103693820Y-97650284D01*
X103788466Y-97814216D01*
X103863481Y-97897528D01*
X103893711Y-97960519D01*
X103885086Y-98029855D01*
X103863481Y-98063472D01*
X103788466Y-98146783D01*
X103693820Y-98310715D01*
X103635326Y-98490742D01*
X103615540Y-98679000D01*
X101290257Y-98679000D01*
X101221283Y-98559533D01*
X101181433Y-98515276D01*
X101151202Y-98452284D01*
X101155651Y-98393985D01*
X101157177Y-98389286D01*
X101157179Y-98389284D01*
X101215674Y-98209256D01*
X101235460Y-98021000D01*
X101215674Y-97832744D01*
X101166239Y-97680599D01*
X101157179Y-97652715D01*
X101062533Y-97488783D01*
X100935870Y-97348110D01*
X100782730Y-97236848D01*
X100609802Y-97159855D01*
X100424648Y-97120500D01*
X100424646Y-97120500D01*
X100235354Y-97120500D01*
X100235352Y-97120500D01*
X100050197Y-97159855D01*
X99877269Y-97236848D01*
X99724128Y-97348111D01*
X99678765Y-97398492D01*
X99619278Y-97435140D01*
X99554826Y-97433911D01*
X99554783Y-97434115D01*
X99553729Y-97433891D01*
X99549421Y-97433809D01*
X99544394Y-97431906D01*
X99356880Y-97392050D01*
X99356878Y-97392050D01*
X99167586Y-97392050D01*
X99167584Y-97392050D01*
X98982429Y-97431405D01*
X98809501Y-97508398D01*
X98656361Y-97619660D01*
X98529699Y-97760332D01*
X98465813Y-97870986D01*
X98415245Y-97919201D01*
X98346638Y-97932423D01*
X98332645Y-97930275D01*
X98279026Y-97918878D01*
X98279024Y-97918878D01*
X98089732Y-97918878D01*
X98089730Y-97918878D01*
X97904575Y-97958233D01*
X97731647Y-98035226D01*
X97578507Y-98146488D01*
X97451844Y-98287161D01*
X97357198Y-98451093D01*
X97298704Y-98631120D01*
X97278918Y-98819378D01*
X94721659Y-98819378D01*
X94685389Y-98707750D01*
X94683394Y-98637909D01*
X94719474Y-98578076D01*
X94782175Y-98547248D01*
X94829099Y-98548141D01*
X94901354Y-98563500D01*
X95090648Y-98563500D01*
X95214083Y-98537262D01*
X95275803Y-98524144D01*
X95448730Y-98447151D01*
X95497215Y-98411925D01*
X95558115Y-98367679D01*
X95623921Y-98344199D01*
X95691975Y-98360024D01*
X95703885Y-98367679D01*
X95813269Y-98447151D01*
X95986197Y-98524144D01*
X96171352Y-98563500D01*
X96171354Y-98563500D01*
X96360648Y-98563500D01*
X96484084Y-98537262D01*
X96545803Y-98524144D01*
X96718730Y-98447151D01*
X96791907Y-98393985D01*
X96871870Y-98335889D01*
X96998533Y-98195216D01*
X97093179Y-98031284D01*
X97101358Y-98006112D01*
X97151674Y-97851256D01*
X97171460Y-97663000D01*
X97151674Y-97474744D01*
X97100569Y-97317459D01*
X97093179Y-97294715D01*
X96998533Y-97130783D01*
X96871870Y-96990110D01*
X96766174Y-96913318D01*
X96723508Y-96857988D01*
X96717529Y-96788375D01*
X96750135Y-96726580D01*
X96810973Y-96692223D01*
X96839059Y-96689000D01*
X96868648Y-96689000D01*
X96992083Y-96662762D01*
X97053803Y-96649644D01*
X97226730Y-96572651D01*
X97360223Y-96475663D01*
X97379870Y-96461389D01*
X97506533Y-96320716D01*
X97601179Y-96156784D01*
X97648222Y-96012000D01*
X97659674Y-95976756D01*
X97679460Y-95788500D01*
X97659674Y-95600244D01*
X97629332Y-95506863D01*
X97601179Y-95420215D01*
X97506533Y-95256283D01*
X97379870Y-95115610D01*
X97226730Y-95004348D01*
X97053802Y-94927355D01*
X96868648Y-94888000D01*
X96868646Y-94888000D01*
X96679354Y-94888000D01*
X96679352Y-94888000D01*
X96494197Y-94927355D01*
X96321269Y-95004348D01*
X96168129Y-95115610D01*
X96041466Y-95256283D01*
X95946820Y-95420215D01*
X95888326Y-95600242D01*
X95868540Y-95788499D01*
X95888326Y-95976757D01*
X95946820Y-96156784D01*
X96041466Y-96320716D01*
X96168129Y-96461389D01*
X96273826Y-96538182D01*
X96316492Y-96593512D01*
X96322471Y-96663125D01*
X96289865Y-96724920D01*
X96229027Y-96759277D01*
X96200941Y-96762500D01*
X96171352Y-96762500D01*
X95986197Y-96801855D01*
X95813269Y-96878848D01*
X95703885Y-96958321D01*
X95638079Y-96981801D01*
X95570025Y-96965976D01*
X95558115Y-96958321D01*
X95448730Y-96878848D01*
X95275802Y-96801855D01*
X95090648Y-96762500D01*
X95090646Y-96762500D01*
X94901354Y-96762500D01*
X94901352Y-96762500D01*
X94716199Y-96801854D01*
X94538434Y-96881001D01*
X94469184Y-96890285D01*
X94437563Y-96881000D01*
X94259802Y-96801855D01*
X94074648Y-96762500D01*
X94074646Y-96762500D01*
X93885354Y-96762500D01*
X93885352Y-96762500D01*
X93700197Y-96801855D01*
X93527269Y-96878848D01*
X93374129Y-96990110D01*
X93247466Y-97130783D01*
X93152820Y-97294715D01*
X93145431Y-97317459D01*
X93105994Y-97375135D01*
X93041635Y-97402333D01*
X92972789Y-97390418D01*
X92921313Y-97343174D01*
X92909569Y-97317459D01*
X92902179Y-97294715D01*
X92807533Y-97130783D01*
X92680870Y-96990110D01*
X92527730Y-96878848D01*
X92354802Y-96801855D01*
X92169648Y-96762500D01*
X92169646Y-96762500D01*
X91980354Y-96762500D01*
X91980352Y-96762500D01*
X91795201Y-96801854D01*
X91617436Y-96881001D01*
X91548186Y-96890285D01*
X91516564Y-96881001D01*
X91421205Y-96838544D01*
X91338803Y-96801856D01*
X91338802Y-96801855D01*
X91338798Y-96801854D01*
X91153648Y-96762500D01*
X91153646Y-96762500D01*
X90964354Y-96762500D01*
X90964352Y-96762500D01*
X90779197Y-96801855D01*
X90606269Y-96878848D01*
X90453129Y-96990110D01*
X90326466Y-97130783D01*
X90231820Y-97294715D01*
X90173326Y-97474742D01*
X90153540Y-97662999D01*
X78998895Y-97662999D01*
X78849401Y-97513505D01*
X78663839Y-97383573D01*
X78620216Y-97328998D01*
X78613022Y-97259500D01*
X78644545Y-97197145D01*
X78663837Y-97180428D01*
X78849401Y-97050495D01*
X79016495Y-96883401D01*
X79152035Y-96689830D01*
X79251903Y-96475663D01*
X79313063Y-96247408D01*
X79333659Y-96012000D01*
X79313063Y-95776592D01*
X79251903Y-95548337D01*
X79152035Y-95334171D01*
X79016495Y-95140599D01*
X78849401Y-94973505D01*
X78663839Y-94843573D01*
X78620216Y-94788998D01*
X78613022Y-94719500D01*
X78644545Y-94657145D01*
X78663837Y-94640428D01*
X78849401Y-94510495D01*
X79016495Y-94343401D01*
X79152035Y-94149830D01*
X79157318Y-94138500D01*
X97409037Y-94138500D01*
X97410228Y-94149830D01*
X97428823Y-94326757D01*
X97487317Y-94506784D01*
X97581963Y-94670716D01*
X97708626Y-94811389D01*
X97861766Y-94922651D01*
X98034694Y-94999644D01*
X98219849Y-95039000D01*
X98219851Y-95039000D01*
X98409145Y-95039000D01*
X98594297Y-94999645D01*
X98594298Y-94999644D01*
X98594300Y-94999644D01*
X98763814Y-94924170D01*
X98833060Y-94914885D01*
X98864683Y-94924171D01*
X99034197Y-94999644D01*
X99219352Y-95039000D01*
X99219354Y-95039000D01*
X99408648Y-95039000D01*
X99532083Y-95012762D01*
X99593803Y-94999644D01*
X99766730Y-94922651D01*
X99883291Y-94837965D01*
X99919870Y-94811389D01*
X99948764Y-94779299D01*
X101038241Y-94779299D01*
X101058027Y-94967556D01*
X101116521Y-95147583D01*
X101211167Y-95311515D01*
X101337830Y-95452188D01*
X101490970Y-95563450D01*
X101663898Y-95640443D01*
X101849053Y-95679799D01*
X101849055Y-95679799D01*
X102038349Y-95679799D01*
X102161785Y-95653561D01*
X102223504Y-95640443D01*
X102396431Y-95563450D01*
X102549572Y-95452187D01*
X102676234Y-95311515D01*
X102770880Y-95147583D01*
X102829375Y-94967555D01*
X102849161Y-94779299D01*
X102829375Y-94591043D01*
X102795894Y-94488000D01*
X105079040Y-94488000D01*
X105098826Y-94676257D01*
X105157320Y-94856284D01*
X105251966Y-95020216D01*
X105378629Y-95160889D01*
X105531769Y-95272151D01*
X105704697Y-95349144D01*
X105889852Y-95388500D01*
X105889854Y-95388500D01*
X106079148Y-95388500D01*
X106202584Y-95362262D01*
X106264303Y-95349144D01*
X106437230Y-95272151D01*
X106590371Y-95160888D01*
X106717033Y-95020216D01*
X106811679Y-94856284D01*
X106870174Y-94676256D01*
X106889960Y-94488000D01*
X106889959Y-94487999D01*
X106890522Y-94482651D01*
X106917107Y-94418037D01*
X106974404Y-94378052D01*
X107013843Y-94371613D01*
X107143154Y-94371613D01*
X107328306Y-94332258D01*
X107328307Y-94332257D01*
X107328309Y-94332257D01*
X107432185Y-94286007D01*
X107501432Y-94276722D01*
X107555505Y-94298970D01*
X107592769Y-94326044D01*
X107765697Y-94403037D01*
X107950852Y-94442393D01*
X107950854Y-94442393D01*
X108140148Y-94442393D01*
X108287769Y-94411015D01*
X108325303Y-94403037D01*
X108498230Y-94326044D01*
X108606911Y-94247083D01*
X108651370Y-94214782D01*
X108778033Y-94074109D01*
X108872679Y-93910177D01*
X108888737Y-93860755D01*
X108931174Y-93730149D01*
X108950960Y-93541893D01*
X108931174Y-93353637D01*
X108893144Y-93236592D01*
X108872679Y-93173608D01*
X108778033Y-93009676D01*
X108651370Y-92869003D01*
X108498230Y-92757741D01*
X108325302Y-92680748D01*
X108140148Y-92641393D01*
X108140146Y-92641393D01*
X107950854Y-92641393D01*
X107950852Y-92641393D01*
X107765698Y-92680747D01*
X107661820Y-92726997D01*
X107592570Y-92736281D01*
X107538499Y-92714035D01*
X107501233Y-92686960D01*
X107328308Y-92609968D01*
X107143154Y-92570613D01*
X107143152Y-92570613D01*
X106953860Y-92570613D01*
X106953858Y-92570613D01*
X106768703Y-92609968D01*
X106595775Y-92686961D01*
X106442635Y-92798223D01*
X106315972Y-92938896D01*
X106221326Y-93102828D01*
X106162832Y-93282855D01*
X106162831Y-93282857D01*
X106162832Y-93282857D01*
X106143625Y-93465610D01*
X106142484Y-93476462D01*
X106115899Y-93541076D01*
X106058602Y-93581061D01*
X106019163Y-93587500D01*
X105889852Y-93587500D01*
X105704697Y-93626855D01*
X105531769Y-93703848D01*
X105378629Y-93815110D01*
X105251966Y-93955783D01*
X105157320Y-94119715D01*
X105098826Y-94299742D01*
X105079040Y-94488000D01*
X102795894Y-94488000D01*
X102794156Y-94482651D01*
X102770880Y-94411014D01*
X102676234Y-94247082D01*
X102549571Y-94106409D01*
X102396431Y-93995147D01*
X102223503Y-93918154D01*
X102038349Y-93878799D01*
X102038347Y-93878799D01*
X101849055Y-93878799D01*
X101849053Y-93878799D01*
X101663898Y-93918154D01*
X101490970Y-93995147D01*
X101337830Y-94106409D01*
X101211167Y-94247082D01*
X101116521Y-94411014D01*
X101058027Y-94591041D01*
X101038241Y-94779299D01*
X99948764Y-94779299D01*
X100046533Y-94670716D01*
X100141179Y-94506784D01*
X100162101Y-94442393D01*
X100199674Y-94326756D01*
X100219460Y-94138500D01*
X100199674Y-93950244D01*
X100141179Y-93770216D01*
X100141179Y-93770215D01*
X100046533Y-93606283D01*
X99919870Y-93465610D01*
X99766730Y-93354348D01*
X99593802Y-93277355D01*
X99408648Y-93238000D01*
X99408646Y-93238000D01*
X99219354Y-93238000D01*
X99219352Y-93238000D01*
X99034197Y-93277355D01*
X98864684Y-93352828D01*
X98795434Y-93362113D01*
X98763812Y-93352828D01*
X98594299Y-93277355D01*
X98409145Y-93238000D01*
X98409143Y-93238000D01*
X98219851Y-93238000D01*
X98219849Y-93238000D01*
X98034694Y-93277355D01*
X97861766Y-93354348D01*
X97708626Y-93465610D01*
X97581963Y-93606283D01*
X97487317Y-93770215D01*
X97428823Y-93950242D01*
X97411011Y-94119715D01*
X97409037Y-94138500D01*
X79157318Y-94138500D01*
X79251903Y-93935663D01*
X79313063Y-93707408D01*
X79333659Y-93472000D01*
X79313063Y-93236592D01*
X79300007Y-93187865D01*
X102585180Y-93187865D01*
X102604966Y-93376123D01*
X102663460Y-93556150D01*
X102758106Y-93720082D01*
X102884769Y-93860755D01*
X103037909Y-93972017D01*
X103210837Y-94049010D01*
X103395992Y-94088366D01*
X103395994Y-94088366D01*
X103585288Y-94088366D01*
X103708723Y-94062128D01*
X103770443Y-94049010D01*
X103943370Y-93972017D01*
X104017505Y-93918155D01*
X104096510Y-93860755D01*
X104223173Y-93720082D01*
X104317819Y-93556150D01*
X104345449Y-93471113D01*
X104376314Y-93376122D01*
X104396100Y-93187866D01*
X104376314Y-92999610D01*
X104345972Y-92906229D01*
X104317819Y-92819581D01*
X104223173Y-92655649D01*
X104096510Y-92514976D01*
X103943370Y-92403714D01*
X103770442Y-92326721D01*
X103585288Y-92287366D01*
X103585286Y-92287366D01*
X103395994Y-92287366D01*
X103395992Y-92287366D01*
X103210837Y-92326721D01*
X103037909Y-92403714D01*
X102884769Y-92514976D01*
X102758106Y-92655649D01*
X102663460Y-92819581D01*
X102604966Y-92999608D01*
X102585180Y-93187865D01*
X79300007Y-93187865D01*
X79251903Y-93008337D01*
X79152035Y-92794171D01*
X79016495Y-92600599D01*
X78849401Y-92433505D01*
X78663839Y-92303573D01*
X78620215Y-92248997D01*
X78615352Y-92202000D01*
X93836540Y-92202000D01*
X93856326Y-92390257D01*
X93914820Y-92570284D01*
X94009466Y-92734216D01*
X94136129Y-92874889D01*
X94289269Y-92986151D01*
X94462197Y-93063144D01*
X94647352Y-93102500D01*
X94647354Y-93102500D01*
X94836648Y-93102500D01*
X94960083Y-93076262D01*
X95021803Y-93063144D01*
X95194730Y-92986151D01*
X95347871Y-92874888D01*
X95474533Y-92734216D01*
X95569179Y-92570284D01*
X95627674Y-92390256D01*
X95647460Y-92202000D01*
X96630540Y-92202000D01*
X96650326Y-92390257D01*
X96708820Y-92570284D01*
X96803466Y-92734216D01*
X96930129Y-92874889D01*
X97083269Y-92986151D01*
X97256197Y-93063144D01*
X97441352Y-93102500D01*
X97441354Y-93102500D01*
X97630648Y-93102500D01*
X97754084Y-93076262D01*
X97815803Y-93063144D01*
X97988730Y-92986151D01*
X98141871Y-92874888D01*
X98268533Y-92734216D01*
X98363179Y-92570284D01*
X98406521Y-92436889D01*
X98445957Y-92379216D01*
X98510315Y-92352017D01*
X98579161Y-92363931D01*
X98616600Y-92392235D01*
X98656809Y-92436892D01*
X98708132Y-92493891D01*
X98861269Y-92605151D01*
X99034197Y-92682144D01*
X99219352Y-92721500D01*
X99219354Y-92721500D01*
X99408648Y-92721500D01*
X99532083Y-92695262D01*
X99593803Y-92682144D01*
X99766730Y-92605151D01*
X99919871Y-92493888D01*
X100046533Y-92353216D01*
X100141179Y-92189284D01*
X100199674Y-92009256D01*
X100219460Y-91821000D01*
X100199674Y-91632744D01*
X100141179Y-91452716D01*
X100141179Y-91452715D01*
X100046533Y-91288783D01*
X99919870Y-91148110D01*
X99766730Y-91036848D01*
X99593802Y-90959855D01*
X99408648Y-90920500D01*
X99408646Y-90920500D01*
X99219354Y-90920500D01*
X99219352Y-90920500D01*
X99034197Y-90959855D01*
X98861269Y-91036848D01*
X98708129Y-91148110D01*
X98581466Y-91288783D01*
X98486820Y-91452715D01*
X98443479Y-91586108D01*
X98404042Y-91643784D01*
X98339683Y-91670982D01*
X98270837Y-91659067D01*
X98233398Y-91630762D01*
X98141870Y-91529110D01*
X97988730Y-91417848D01*
X97815802Y-91340855D01*
X97630648Y-91301500D01*
X97630646Y-91301500D01*
X97441354Y-91301500D01*
X97441352Y-91301500D01*
X97256197Y-91340855D01*
X97083269Y-91417848D01*
X96930129Y-91529110D01*
X96803466Y-91669783D01*
X96708820Y-91833715D01*
X96650326Y-92013742D01*
X96630540Y-92202000D01*
X95647460Y-92202000D01*
X95627674Y-92013744D01*
X95569179Y-91833716D01*
X95569179Y-91833715D01*
X95474533Y-91669783D01*
X95347870Y-91529110D01*
X95194730Y-91417848D01*
X95021802Y-91340855D01*
X94836648Y-91301500D01*
X94836646Y-91301500D01*
X94647354Y-91301500D01*
X94647352Y-91301500D01*
X94462197Y-91340855D01*
X94289269Y-91417848D01*
X94136129Y-91529110D01*
X94009466Y-91669783D01*
X93914820Y-91833715D01*
X93856326Y-92013742D01*
X93836540Y-92202000D01*
X78615352Y-92202000D01*
X78613023Y-92179498D01*
X78644545Y-92117144D01*
X78663831Y-92100432D01*
X78849401Y-91970495D01*
X79016495Y-91803401D01*
X79152035Y-91609830D01*
X79251903Y-91395663D01*
X79313063Y-91167408D01*
X79333659Y-90932000D01*
X79313063Y-90696592D01*
X79251903Y-90468337D01*
X79152035Y-90254171D01*
X79016495Y-90060599D01*
X78849401Y-89893505D01*
X78663839Y-89763573D01*
X78620215Y-89708997D01*
X78613023Y-89639498D01*
X78644545Y-89577144D01*
X78663831Y-89560432D01*
X78849401Y-89430495D01*
X79016495Y-89263401D01*
X79152035Y-89069830D01*
X79251903Y-88855663D01*
X79313063Y-88627408D01*
X79333659Y-88392000D01*
X79313063Y-88156592D01*
X79301785Y-88114500D01*
X90534540Y-88114500D01*
X90554326Y-88302757D01*
X90612820Y-88482784D01*
X90707466Y-88646716D01*
X90834129Y-88787389D01*
X90987265Y-88898649D01*
X91037461Y-88920997D01*
X91135430Y-88964616D01*
X91188666Y-89009867D01*
X91208987Y-89076716D01*
X91189942Y-89143940D01*
X91157879Y-89178214D01*
X91074624Y-89238701D01*
X90947963Y-89379372D01*
X90853317Y-89543304D01*
X90794823Y-89723331D01*
X90775037Y-89911589D01*
X90794823Y-90099846D01*
X90853317Y-90279873D01*
X90947963Y-90443805D01*
X91074626Y-90584478D01*
X91227766Y-90695740D01*
X91400694Y-90772733D01*
X91585849Y-90812089D01*
X91585851Y-90812089D01*
X91775145Y-90812089D01*
X91898580Y-90785851D01*
X91960300Y-90772733D01*
X92133227Y-90695740D01*
X92286368Y-90584477D01*
X92413030Y-90443805D01*
X92507676Y-90279873D01*
X92566171Y-90099845D01*
X92585957Y-89911589D01*
X92566171Y-89723333D01*
X92518671Y-89577144D01*
X92507676Y-89543304D01*
X92413030Y-89379372D01*
X92286367Y-89238699D01*
X92133227Y-89127437D01*
X91985067Y-89061471D01*
X91931830Y-89016221D01*
X91911509Y-88949372D01*
X91930554Y-88882148D01*
X91962616Y-88847875D01*
X92045871Y-88787388D01*
X92172533Y-88646716D01*
X92267179Y-88482784D01*
X92325674Y-88302756D01*
X92345460Y-88114500D01*
X92325674Y-87926244D01*
X92267179Y-87746216D01*
X92267179Y-87746215D01*
X92172533Y-87582283D01*
X92045870Y-87441610D01*
X91892730Y-87330348D01*
X91719802Y-87253355D01*
X91534648Y-87214000D01*
X91534646Y-87214000D01*
X91345354Y-87214000D01*
X91345352Y-87214000D01*
X91160197Y-87253355D01*
X90987269Y-87330348D01*
X90834129Y-87441610D01*
X90707466Y-87582283D01*
X90612820Y-87746215D01*
X90554326Y-87926242D01*
X90534540Y-88114500D01*
X79301785Y-88114500D01*
X79251903Y-87928337D01*
X79152035Y-87714171D01*
X79016495Y-87520599D01*
X78849401Y-87353505D01*
X78663839Y-87223573D01*
X78620215Y-87168997D01*
X78613023Y-87099498D01*
X78644545Y-87037144D01*
X78663831Y-87020432D01*
X78849401Y-86890495D01*
X79016495Y-86723401D01*
X79152035Y-86529830D01*
X79251903Y-86315663D01*
X79313063Y-86087408D01*
X79333659Y-85852000D01*
X79333659Y-85851999D01*
X96503540Y-85851999D01*
X96523326Y-86040257D01*
X96581820Y-86220284D01*
X96676466Y-86384216D01*
X96803129Y-86524889D01*
X96956269Y-86636151D01*
X97129197Y-86713144D01*
X97314352Y-86752500D01*
X97314354Y-86752500D01*
X97503648Y-86752500D01*
X97640547Y-86723401D01*
X97688803Y-86713144D01*
X97861730Y-86636151D01*
X97907617Y-86602811D01*
X97973420Y-86579333D01*
X98041474Y-86595158D01*
X98053372Y-86602804D01*
X98099270Y-86636151D01*
X98099271Y-86636151D01*
X98099272Y-86636152D01*
X98272197Y-86713144D01*
X98457352Y-86752500D01*
X98457354Y-86752500D01*
X98646648Y-86752500D01*
X98783547Y-86723401D01*
X98831803Y-86713144D01*
X99004730Y-86636151D01*
X99082934Y-86579333D01*
X99157870Y-86524889D01*
X99284533Y-86384216D01*
X99379179Y-86220284D01*
X99422353Y-86087408D01*
X99437674Y-86040256D01*
X99457460Y-85852000D01*
X99437674Y-85663744D01*
X99379179Y-85483716D01*
X99379179Y-85483715D01*
X99284533Y-85319783D01*
X99157870Y-85179110D01*
X99004730Y-85067848D01*
X98831802Y-84990855D01*
X98646648Y-84951500D01*
X98646646Y-84951500D01*
X98457354Y-84951500D01*
X98457352Y-84951500D01*
X98272197Y-84990855D01*
X98099269Y-85067848D01*
X98053385Y-85101185D01*
X97987579Y-85124665D01*
X97919525Y-85108839D01*
X97907615Y-85101185D01*
X97861730Y-85067848D01*
X97688802Y-84990855D01*
X97503648Y-84951500D01*
X97503646Y-84951500D01*
X97314354Y-84951500D01*
X97314352Y-84951500D01*
X97129197Y-84990855D01*
X96956269Y-85067848D01*
X96803129Y-85179110D01*
X96676466Y-85319783D01*
X96581820Y-85483715D01*
X96523326Y-85663742D01*
X96503540Y-85851999D01*
X79333659Y-85851999D01*
X79313063Y-85616592D01*
X79251903Y-85388337D01*
X79152035Y-85174171D01*
X79016495Y-84980599D01*
X78849401Y-84813505D01*
X78663839Y-84683573D01*
X78620215Y-84628997D01*
X78613023Y-84559498D01*
X78644545Y-84497144D01*
X78663831Y-84480432D01*
X78849401Y-84350495D01*
X78871897Y-84327999D01*
X99932540Y-84327999D01*
X99952326Y-84516257D01*
X100010820Y-84696284D01*
X100105466Y-84860216D01*
X100232129Y-85000889D01*
X100385269Y-85112151D01*
X100558197Y-85189144D01*
X100743352Y-85228500D01*
X100743354Y-85228500D01*
X100932648Y-85228500D01*
X101056083Y-85202262D01*
X101117803Y-85189144D01*
X101290730Y-85112151D01*
X101295289Y-85108839D01*
X101400115Y-85032679D01*
X101465921Y-85009199D01*
X101533975Y-85025024D01*
X101545885Y-85032679D01*
X101655269Y-85112151D01*
X101828197Y-85189144D01*
X102013352Y-85228500D01*
X102013354Y-85228500D01*
X102202648Y-85228500D01*
X102326084Y-85202262D01*
X102387803Y-85189144D01*
X102560730Y-85112151D01*
X102565289Y-85108839D01*
X102713870Y-85000889D01*
X102840533Y-84860216D01*
X102935179Y-84696284D01*
X102972312Y-84582000D01*
X102993674Y-84516256D01*
X103013460Y-84328000D01*
X102993674Y-84139744D01*
X102935179Y-83959716D01*
X102935179Y-83959715D01*
X102840533Y-83795783D01*
X102713870Y-83655110D01*
X102560730Y-83543848D01*
X102387802Y-83466855D01*
X102202648Y-83427500D01*
X102202646Y-83427500D01*
X102013354Y-83427500D01*
X102013352Y-83427500D01*
X101828197Y-83466855D01*
X101655269Y-83543848D01*
X101545885Y-83623321D01*
X101480079Y-83646801D01*
X101412025Y-83630976D01*
X101400115Y-83623321D01*
X101290730Y-83543848D01*
X101117802Y-83466855D01*
X100932648Y-83427500D01*
X100932646Y-83427500D01*
X100743354Y-83427500D01*
X100743352Y-83427500D01*
X100558197Y-83466855D01*
X100385269Y-83543848D01*
X100232129Y-83655110D01*
X100105466Y-83795783D01*
X100010820Y-83959715D01*
X99952326Y-84139742D01*
X99932540Y-84327999D01*
X78871897Y-84327999D01*
X79016495Y-84183401D01*
X79152035Y-83989830D01*
X79251903Y-83775663D01*
X79313063Y-83547408D01*
X79333659Y-83312000D01*
X79313063Y-83076592D01*
X79251903Y-82848337D01*
X79152035Y-82634171D01*
X79016495Y-82440599D01*
X78849401Y-82273505D01*
X78663839Y-82143573D01*
X78620215Y-82088997D01*
X78613023Y-82019498D01*
X78644545Y-81957144D01*
X78663831Y-81940432D01*
X78849401Y-81810495D01*
X79016495Y-81643401D01*
X79152035Y-81449830D01*
X79251903Y-81235663D01*
X79313063Y-81007408D01*
X79333659Y-80772000D01*
X79313063Y-80536592D01*
X79251903Y-80308337D01*
X79231228Y-80264000D01*
X100536540Y-80264000D01*
X100556326Y-80452257D01*
X100614820Y-80632284D01*
X100709466Y-80796216D01*
X100836129Y-80936889D01*
X100989269Y-81048151D01*
X101162197Y-81125144D01*
X101347352Y-81164500D01*
X101347354Y-81164500D01*
X101536648Y-81164500D01*
X101660083Y-81138262D01*
X101721803Y-81125144D01*
X101894730Y-81048151D01*
X102047871Y-80936888D01*
X102174533Y-80796216D01*
X102269179Y-80632284D01*
X102327674Y-80452256D01*
X102347460Y-80264000D01*
X102327674Y-80075744D01*
X102270766Y-79900599D01*
X102269179Y-79895715D01*
X102174533Y-79731783D01*
X102047870Y-79591110D01*
X101894730Y-79479848D01*
X101721802Y-79402855D01*
X101536648Y-79363500D01*
X101536646Y-79363500D01*
X101347354Y-79363500D01*
X101347352Y-79363500D01*
X101162197Y-79402855D01*
X100989269Y-79479848D01*
X100836129Y-79591110D01*
X100709466Y-79731783D01*
X100614820Y-79895715D01*
X100556326Y-80075742D01*
X100536540Y-80264000D01*
X79231228Y-80264000D01*
X79152035Y-80094171D01*
X79016495Y-79900599D01*
X78849401Y-79733505D01*
X78663839Y-79603573D01*
X78620215Y-79548997D01*
X78613023Y-79479498D01*
X78644545Y-79417144D01*
X78663831Y-79400432D01*
X78849401Y-79270495D01*
X79016495Y-79103401D01*
X79152035Y-78909830D01*
X79251903Y-78695663D01*
X79313063Y-78467408D01*
X79333659Y-78232000D01*
X79313063Y-77996592D01*
X79251903Y-77768337D01*
X79152035Y-77554171D01*
X79016495Y-77360599D01*
X78849401Y-77193505D01*
X78663839Y-77063573D01*
X78620215Y-77008997D01*
X78613023Y-76939498D01*
X78644545Y-76877144D01*
X78663831Y-76860432D01*
X78849401Y-76730495D01*
X79016495Y-76563401D01*
X79152035Y-76369830D01*
X79251903Y-76155663D01*
X79313063Y-75927408D01*
X79333659Y-75692000D01*
X79313063Y-75456592D01*
X79251903Y-75228337D01*
X79152035Y-75014171D01*
X79016495Y-74820599D01*
X78849401Y-74653505D01*
X78663839Y-74523573D01*
X78620215Y-74468997D01*
X78613023Y-74399498D01*
X78644545Y-74337144D01*
X78663831Y-74320432D01*
X78849401Y-74190495D01*
X79016495Y-74023401D01*
X79152035Y-73829830D01*
X79251903Y-73615663D01*
X79313063Y-73387408D01*
X79333659Y-73152000D01*
X79313063Y-72916592D01*
X79251903Y-72688337D01*
X79152035Y-72474171D01*
X79016495Y-72280599D01*
X78849401Y-72113505D01*
X78663839Y-71983573D01*
X78620216Y-71928998D01*
X78613022Y-71859500D01*
X78644545Y-71797145D01*
X78663837Y-71780428D01*
X78849401Y-71650495D01*
X79016495Y-71483401D01*
X79152035Y-71289830D01*
X79251903Y-71075663D01*
X79313063Y-70847408D01*
X79333659Y-70612000D01*
X79313063Y-70376592D01*
X79251903Y-70148337D01*
X79152035Y-69934171D01*
X79016495Y-69740599D01*
X78849401Y-69573505D01*
X78663839Y-69443573D01*
X78620216Y-69388998D01*
X78615351Y-69341999D01*
X91550540Y-69341999D01*
X91570326Y-69530257D01*
X91628820Y-69710284D01*
X91723466Y-69874216D01*
X91850129Y-70014889D01*
X92003269Y-70126151D01*
X92176197Y-70203144D01*
X92361352Y-70242500D01*
X92361354Y-70242500D01*
X92550648Y-70242500D01*
X92674084Y-70216262D01*
X92735803Y-70203144D01*
X92908730Y-70126151D01*
X93061871Y-70014888D01*
X93188533Y-69874216D01*
X93283179Y-69710284D01*
X93341674Y-69530256D01*
X93348679Y-69463599D01*
X93375263Y-69398986D01*
X93432561Y-69359001D01*
X93502380Y-69356341D01*
X93562553Y-69391850D01*
X93593977Y-69454255D01*
X93595318Y-69463586D01*
X93601193Y-69519476D01*
X93602326Y-69530257D01*
X93660820Y-69710284D01*
X93755466Y-69874216D01*
X93882129Y-70014889D01*
X94035269Y-70126151D01*
X94208197Y-70203144D01*
X94393352Y-70242500D01*
X94393354Y-70242500D01*
X94582648Y-70242500D01*
X94706084Y-70216262D01*
X94767803Y-70203144D01*
X94940730Y-70126151D01*
X95093871Y-70014888D01*
X95220533Y-69874216D01*
X95315179Y-69710284D01*
X95373674Y-69530256D01*
X95393460Y-69342000D01*
X95373674Y-69153744D01*
X95315179Y-68973716D01*
X95315179Y-68973715D01*
X95220533Y-68809783D01*
X95093870Y-68669110D01*
X94940730Y-68557848D01*
X94767802Y-68480855D01*
X94582648Y-68441500D01*
X94582646Y-68441500D01*
X94393354Y-68441500D01*
X94393352Y-68441500D01*
X94208197Y-68480855D01*
X94035269Y-68557848D01*
X93882129Y-68669110D01*
X93755466Y-68809783D01*
X93660820Y-68973715D01*
X93602326Y-69153742D01*
X93602325Y-69153744D01*
X93602326Y-69153744D01*
X93595320Y-69220400D01*
X93568736Y-69285013D01*
X93511439Y-69324998D01*
X93441620Y-69327658D01*
X93381446Y-69292149D01*
X93350023Y-69229744D01*
X93348681Y-69220413D01*
X93341674Y-69153744D01*
X93283179Y-68973716D01*
X93283179Y-68973715D01*
X93188533Y-68809783D01*
X93061870Y-68669110D01*
X92908730Y-68557848D01*
X92735802Y-68480855D01*
X92550648Y-68441500D01*
X92550646Y-68441500D01*
X92361354Y-68441500D01*
X92361352Y-68441500D01*
X92176197Y-68480855D01*
X92003269Y-68557848D01*
X91850129Y-68669110D01*
X91723466Y-68809783D01*
X91628820Y-68973715D01*
X91570326Y-69153742D01*
X91550540Y-69341999D01*
X78615351Y-69341999D01*
X78613022Y-69319500D01*
X78644545Y-69257145D01*
X78663837Y-69240428D01*
X78849401Y-69110495D01*
X79016495Y-68943401D01*
X79152035Y-68749830D01*
X79251903Y-68535663D01*
X79313063Y-68307408D01*
X79333659Y-68072000D01*
X79313063Y-67836592D01*
X79251903Y-67608337D01*
X79152035Y-67394171D01*
X79093098Y-67310000D01*
X89772540Y-67310000D01*
X89792326Y-67498257D01*
X89850820Y-67678284D01*
X89945466Y-67842216D01*
X90072129Y-67982889D01*
X90225269Y-68094151D01*
X90398197Y-68171144D01*
X90583352Y-68210500D01*
X90583354Y-68210500D01*
X90772648Y-68210500D01*
X90896083Y-68184262D01*
X90957803Y-68171144D01*
X91130730Y-68094151D01*
X91283871Y-67982888D01*
X91410533Y-67842216D01*
X91505179Y-67678284D01*
X91563674Y-67498256D01*
X91583460Y-67310000D01*
X95360540Y-67310000D01*
X95380326Y-67498257D01*
X95438820Y-67678284D01*
X95533466Y-67842216D01*
X95660129Y-67982889D01*
X95813269Y-68094151D01*
X95986197Y-68171144D01*
X96171352Y-68210500D01*
X96171354Y-68210500D01*
X96360648Y-68210500D01*
X96484084Y-68184262D01*
X96545803Y-68171144D01*
X96718730Y-68094151D01*
X96871871Y-67982888D01*
X96998533Y-67842216D01*
X97093179Y-67678284D01*
X97151674Y-67498256D01*
X97171460Y-67310000D01*
X98916540Y-67310000D01*
X98936326Y-67498257D01*
X98994820Y-67678284D01*
X99089466Y-67842216D01*
X99216129Y-67982889D01*
X99369269Y-68094151D01*
X99542197Y-68171144D01*
X99727352Y-68210500D01*
X99727354Y-68210500D01*
X99916648Y-68210500D01*
X100040083Y-68184262D01*
X100101803Y-68171144D01*
X100213755Y-68121298D01*
X100279564Y-68091999D01*
X100348814Y-68082714D01*
X100380436Y-68091999D01*
X100558197Y-68171144D01*
X100743352Y-68210500D01*
X100743354Y-68210500D01*
X100932648Y-68210500D01*
X101056083Y-68184262D01*
X101117803Y-68171144D01*
X101290730Y-68094151D01*
X101443871Y-67982888D01*
X101570533Y-67842216D01*
X101665179Y-67678284D01*
X101723674Y-67498256D01*
X101743460Y-67310000D01*
X101723674Y-67121744D01*
X101665179Y-66941716D01*
X101665179Y-66941715D01*
X101570533Y-66777783D01*
X101443870Y-66637110D01*
X101290730Y-66525848D01*
X101117802Y-66448855D01*
X100932648Y-66409500D01*
X100932646Y-66409500D01*
X100743354Y-66409500D01*
X100743352Y-66409500D01*
X100558201Y-66448854D01*
X100380436Y-66528001D01*
X100311186Y-66537285D01*
X100279564Y-66528001D01*
X100184205Y-66485544D01*
X100101803Y-66448856D01*
X100101802Y-66448855D01*
X100101798Y-66448854D01*
X99916648Y-66409500D01*
X99916646Y-66409500D01*
X99727354Y-66409500D01*
X99727352Y-66409500D01*
X99542197Y-66448855D01*
X99369269Y-66525848D01*
X99216129Y-66637110D01*
X99089466Y-66777783D01*
X98994820Y-66941715D01*
X98936326Y-67121742D01*
X98916540Y-67310000D01*
X97171460Y-67310000D01*
X97151674Y-67121744D01*
X97093179Y-66941716D01*
X97093179Y-66941715D01*
X96998533Y-66777783D01*
X96871870Y-66637110D01*
X96718730Y-66525848D01*
X96545803Y-66448855D01*
X96387887Y-66415290D01*
X96326405Y-66382098D01*
X96292629Y-66320935D01*
X96297281Y-66251220D01*
X96338885Y-66195088D01*
X96387887Y-66172710D01*
X96545803Y-66139144D01*
X96718730Y-66062151D01*
X96871870Y-65950889D01*
X96998533Y-65810216D01*
X97093179Y-65646284D01*
X97130312Y-65532000D01*
X97151674Y-65466256D01*
X97171460Y-65278000D01*
X97151674Y-65089744D01*
X97093179Y-64909716D01*
X97093179Y-64909715D01*
X96998533Y-64745783D01*
X96871870Y-64605110D01*
X96718730Y-64493848D01*
X96545802Y-64416855D01*
X96360648Y-64377500D01*
X96360646Y-64377500D01*
X96171354Y-64377500D01*
X96171352Y-64377500D01*
X95986197Y-64416855D01*
X95813269Y-64493848D01*
X95660129Y-64605110D01*
X95533466Y-64745783D01*
X95438820Y-64909715D01*
X95380326Y-65089742D01*
X95360540Y-65277999D01*
X95380326Y-65466257D01*
X95438820Y-65646284D01*
X95533466Y-65810216D01*
X95660129Y-65950889D01*
X95813269Y-66062151D01*
X95986197Y-66139144D01*
X96144112Y-66172710D01*
X96205594Y-66205902D01*
X96239370Y-66267065D01*
X96234718Y-66336780D01*
X96193113Y-66392912D01*
X96144112Y-66415290D01*
X95986197Y-66448855D01*
X95813269Y-66525848D01*
X95660129Y-66637110D01*
X95533466Y-66777783D01*
X95438820Y-66941715D01*
X95380326Y-67121742D01*
X95360540Y-67310000D01*
X91583460Y-67310000D01*
X91563674Y-67121744D01*
X91505179Y-66941716D01*
X91505179Y-66941715D01*
X91410533Y-66777783D01*
X91283870Y-66637110D01*
X91130730Y-66525848D01*
X90957802Y-66448855D01*
X90799887Y-66415289D01*
X90738405Y-66382096D01*
X90704629Y-66320933D01*
X90709281Y-66251219D01*
X90750886Y-66195087D01*
X90799881Y-66172710D01*
X90957803Y-66139144D01*
X91130730Y-66062151D01*
X91283871Y-65950888D01*
X91410533Y-65810216D01*
X91505179Y-65646284D01*
X91563674Y-65466256D01*
X91583460Y-65278000D01*
X91563674Y-65089744D01*
X91505179Y-64909716D01*
X91505179Y-64909715D01*
X91410533Y-64745783D01*
X91283870Y-64605110D01*
X91130730Y-64493848D01*
X90957802Y-64416855D01*
X90772648Y-64377500D01*
X90772646Y-64377500D01*
X90583354Y-64377500D01*
X90583352Y-64377500D01*
X90398197Y-64416855D01*
X90225269Y-64493848D01*
X90072129Y-64605110D01*
X89945466Y-64745783D01*
X89850820Y-64909715D01*
X89792326Y-65089742D01*
X89772540Y-65278000D01*
X89792326Y-65466257D01*
X89850820Y-65646284D01*
X89945466Y-65810216D01*
X90072129Y-65950889D01*
X90225269Y-66062151D01*
X90398197Y-66139144D01*
X90556112Y-66172710D01*
X90617594Y-66205902D01*
X90651370Y-66267065D01*
X90646718Y-66336780D01*
X90605113Y-66392912D01*
X90556112Y-66415290D01*
X90398197Y-66448855D01*
X90225269Y-66525848D01*
X90072129Y-66637110D01*
X89945466Y-66777783D01*
X89850820Y-66941715D01*
X89792326Y-67121742D01*
X89772540Y-67310000D01*
X79093098Y-67310000D01*
X79016495Y-67200599D01*
X78849401Y-67033505D01*
X78663839Y-66903573D01*
X78620216Y-66848998D01*
X78613022Y-66779500D01*
X78644545Y-66717145D01*
X78663837Y-66700428D01*
X78849401Y-66570495D01*
X79016495Y-66403401D01*
X79152035Y-66209830D01*
X79251903Y-65995663D01*
X79313063Y-65767408D01*
X79333659Y-65532000D01*
X79313063Y-65296592D01*
X79251903Y-65068337D01*
X79152035Y-64854171D01*
X79016495Y-64660599D01*
X78894181Y-64538285D01*
X78860696Y-64476962D01*
X78865680Y-64407270D01*
X78907552Y-64351337D01*
X78938528Y-64334422D01*
X79070089Y-64285352D01*
X79185188Y-64199188D01*
X79271352Y-64084089D01*
X79321599Y-63949371D01*
X79327645Y-63893132D01*
X79328000Y-63886518D01*
X79328000Y-63499999D01*
X91550540Y-63499999D01*
X91570326Y-63688257D01*
X91628820Y-63868284D01*
X91723466Y-64032216D01*
X91850129Y-64172889D01*
X92003269Y-64284151D01*
X92176197Y-64361144D01*
X92361352Y-64400500D01*
X92361354Y-64400500D01*
X92550648Y-64400500D01*
X92674084Y-64374262D01*
X92735803Y-64361144D01*
X92908730Y-64284151D01*
X92944590Y-64258097D01*
X93061870Y-64172889D01*
X93188533Y-64032216D01*
X93283179Y-63868284D01*
X93341674Y-63688256D01*
X93348679Y-63621599D01*
X93375263Y-63556986D01*
X93432561Y-63517001D01*
X93502380Y-63514341D01*
X93562553Y-63549850D01*
X93593977Y-63612255D01*
X93595318Y-63621586D01*
X93601193Y-63677476D01*
X93602326Y-63688257D01*
X93660820Y-63868284D01*
X93755466Y-64032216D01*
X93882129Y-64172889D01*
X94035269Y-64284151D01*
X94208197Y-64361144D01*
X94393352Y-64400500D01*
X94393354Y-64400500D01*
X94582648Y-64400500D01*
X94706084Y-64374262D01*
X94767803Y-64361144D01*
X94940730Y-64284151D01*
X94976590Y-64258097D01*
X95093870Y-64172889D01*
X95220533Y-64032216D01*
X95315179Y-63868284D01*
X95315178Y-63868284D01*
X95373674Y-63688256D01*
X95393460Y-63500000D01*
X95373674Y-63311744D01*
X95315179Y-63131716D01*
X95315179Y-63131715D01*
X95220533Y-62967783D01*
X95093870Y-62827110D01*
X94940730Y-62715848D01*
X94767802Y-62638855D01*
X94582648Y-62599500D01*
X94582646Y-62599500D01*
X94393354Y-62599500D01*
X94393352Y-62599500D01*
X94208197Y-62638855D01*
X94035269Y-62715848D01*
X93882129Y-62827110D01*
X93755466Y-62967783D01*
X93660820Y-63131715D01*
X93602326Y-63311742D01*
X93602325Y-63311744D01*
X93602326Y-63311744D01*
X93595320Y-63378400D01*
X93568736Y-63443013D01*
X93511439Y-63482998D01*
X93441620Y-63485658D01*
X93381446Y-63450149D01*
X93350023Y-63387744D01*
X93348681Y-63378413D01*
X93341674Y-63311744D01*
X93283179Y-63131716D01*
X93283179Y-63131715D01*
X93188533Y-62967783D01*
X93061870Y-62827110D01*
X92908730Y-62715848D01*
X92735802Y-62638855D01*
X92550648Y-62599500D01*
X92550646Y-62599500D01*
X92361354Y-62599500D01*
X92361352Y-62599500D01*
X92176197Y-62638855D01*
X92003269Y-62715848D01*
X91850129Y-62827110D01*
X91723466Y-62967783D01*
X91628820Y-63131715D01*
X91570326Y-63311742D01*
X91550540Y-63499999D01*
X79328000Y-63499999D01*
X79328000Y-63242000D01*
X78411686Y-63242000D01*
X78437493Y-63201844D01*
X78478000Y-63063889D01*
X78478000Y-62920111D01*
X78437493Y-62782156D01*
X78411686Y-62742000D01*
X79328000Y-62742000D01*
X79328000Y-62097481D01*
X79327645Y-62090867D01*
X79321599Y-62034628D01*
X79271352Y-61899910D01*
X79185188Y-61784811D01*
X79070089Y-61698647D01*
X78935371Y-61648400D01*
X78879132Y-61642354D01*
X78872518Y-61642000D01*
X78228000Y-61642000D01*
X78228000Y-62556498D01*
X78120315Y-62507320D01*
X78013763Y-62492000D01*
X77942237Y-62492000D01*
X77835685Y-62507320D01*
X77728000Y-62556498D01*
X77728000Y-61642000D01*
X77083482Y-61642000D01*
X77076867Y-61642354D01*
X77020628Y-61648400D01*
X76885910Y-61698647D01*
X76770811Y-61784811D01*
X76684647Y-61899910D01*
X76634400Y-62034628D01*
X76628354Y-62090867D01*
X76628000Y-62097481D01*
X76628000Y-62742000D01*
X77544314Y-62742000D01*
X77518507Y-62782156D01*
X77478000Y-62920111D01*
X77478000Y-63063889D01*
X77518507Y-63201844D01*
X77544314Y-63242000D01*
X76628000Y-63242000D01*
X76628000Y-63886518D01*
X76628354Y-63893132D01*
X76634400Y-63949371D01*
X76684647Y-64084089D01*
X76770811Y-64199188D01*
X76885911Y-64285352D01*
X77017471Y-64334422D01*
X77073404Y-64376294D01*
X77097821Y-64441758D01*
X77082969Y-64510031D01*
X77061819Y-64538285D01*
X76939503Y-64660601D01*
X76803965Y-64854170D01*
X76704097Y-65068336D01*
X76642936Y-65296592D01*
X76622340Y-65532000D01*
X76642936Y-65767407D01*
X76654407Y-65810216D01*
X76704097Y-65995663D01*
X76803965Y-66209830D01*
X76939505Y-66403401D01*
X77106599Y-66570495D01*
X77292160Y-66700426D01*
X77335783Y-66755002D01*
X77342976Y-66824501D01*
X77311454Y-66886855D01*
X77292159Y-66903575D01*
X77106595Y-67033508D01*
X76939505Y-67200598D01*
X76803965Y-67394170D01*
X76704097Y-67608336D01*
X76642936Y-67836592D01*
X76622340Y-68071999D01*
X76642936Y-68307407D01*
X76678866Y-68441500D01*
X76704097Y-68535663D01*
X76803965Y-68749830D01*
X76939505Y-68943401D01*
X77106599Y-69110495D01*
X77292160Y-69240426D01*
X77335783Y-69295002D01*
X77342976Y-69364501D01*
X77311454Y-69426855D01*
X77292159Y-69443575D01*
X77106595Y-69573508D01*
X76939505Y-69740598D01*
X76803965Y-69934170D01*
X76704097Y-70148336D01*
X76642936Y-70376592D01*
X76622340Y-70612000D01*
X76642936Y-70847407D01*
X76687709Y-71014501D01*
X76704097Y-71075663D01*
X76803965Y-71289830D01*
X76939505Y-71483401D01*
X77106599Y-71650495D01*
X77292160Y-71780426D01*
X77335783Y-71835002D01*
X77342976Y-71904501D01*
X77311454Y-71966855D01*
X77292159Y-71983575D01*
X77106595Y-72113508D01*
X76939505Y-72280598D01*
X76803965Y-72474170D01*
X76704097Y-72688336D01*
X76642936Y-72916592D01*
X76622340Y-73152000D01*
X76642936Y-73387407D01*
X76687709Y-73554502D01*
X76704097Y-73615663D01*
X76803965Y-73829830D01*
X76939505Y-74023401D01*
X77106599Y-74190495D01*
X77292160Y-74320426D01*
X77335783Y-74375002D01*
X77342976Y-74444501D01*
X77311454Y-74506855D01*
X77292159Y-74523575D01*
X77106595Y-74653508D01*
X76939505Y-74820598D01*
X76803965Y-75014170D01*
X76704097Y-75228336D01*
X76642936Y-75456592D01*
X76622340Y-75691999D01*
X76642936Y-75927407D01*
X76687709Y-76094501D01*
X76704097Y-76155663D01*
X76803965Y-76369830D01*
X76939505Y-76563401D01*
X77106599Y-76730495D01*
X77292160Y-76860426D01*
X77335783Y-76915002D01*
X77342976Y-76984501D01*
X77311454Y-77046855D01*
X77292159Y-77063575D01*
X77106595Y-77193508D01*
X76939505Y-77360598D01*
X76803965Y-77554170D01*
X76704097Y-77768336D01*
X76642936Y-77996592D01*
X76622340Y-78231999D01*
X76642936Y-78467407D01*
X76687709Y-78634502D01*
X76704097Y-78695663D01*
X76803965Y-78909830D01*
X76939505Y-79103401D01*
X77106599Y-79270495D01*
X77292160Y-79400426D01*
X77335783Y-79455002D01*
X77342976Y-79524501D01*
X77311454Y-79586855D01*
X77292160Y-79603574D01*
X77109059Y-79731783D01*
X77106595Y-79733508D01*
X76939505Y-79900598D01*
X76803965Y-80094170D01*
X76704097Y-80308336D01*
X76642936Y-80536592D01*
X76622340Y-80771999D01*
X76642936Y-81007407D01*
X76674484Y-81125144D01*
X76704097Y-81235663D01*
X76803965Y-81449830D01*
X76939505Y-81643401D01*
X77106599Y-81810495D01*
X77292160Y-81940426D01*
X77335783Y-81995002D01*
X77342976Y-82064501D01*
X77311454Y-82126855D01*
X77292159Y-82143575D01*
X77106595Y-82273508D01*
X76939505Y-82440598D01*
X76803965Y-82634170D01*
X76704097Y-82848336D01*
X76642936Y-83076592D01*
X76622340Y-83312000D01*
X76642936Y-83547407D01*
X76669569Y-83646801D01*
X76704097Y-83775663D01*
X76803965Y-83989830D01*
X76939505Y-84183401D01*
X77106599Y-84350495D01*
X77292160Y-84480426D01*
X77335783Y-84535002D01*
X77342976Y-84604501D01*
X77311454Y-84666855D01*
X77292159Y-84683575D01*
X77106595Y-84813508D01*
X76939505Y-84980598D01*
X76803965Y-85174170D01*
X76704097Y-85388336D01*
X76642936Y-85616592D01*
X76622340Y-85852000D01*
X76642936Y-86087407D01*
X76687709Y-86254501D01*
X76704097Y-86315663D01*
X76803965Y-86529830D01*
X76939505Y-86723401D01*
X77106599Y-86890495D01*
X77292160Y-87020426D01*
X77335783Y-87075002D01*
X77342976Y-87144501D01*
X77311454Y-87206855D01*
X77292160Y-87223574D01*
X77139670Y-87330349D01*
X77106595Y-87353508D01*
X76939505Y-87520598D01*
X76803965Y-87714170D01*
X76704097Y-87928336D01*
X76642936Y-88156592D01*
X76622340Y-88391999D01*
X76642936Y-88627407D01*
X76685803Y-88787387D01*
X76704097Y-88855663D01*
X76803965Y-89069830D01*
X76939505Y-89263401D01*
X77106599Y-89430495D01*
X77292160Y-89560426D01*
X77335783Y-89615002D01*
X77342976Y-89684501D01*
X77311454Y-89746855D01*
X77292159Y-89763575D01*
X77106595Y-89893508D01*
X76939505Y-90060598D01*
X76803965Y-90254170D01*
X76704097Y-90468336D01*
X76642936Y-90696592D01*
X76622340Y-90931999D01*
X76642936Y-91167407D01*
X76675459Y-91288783D01*
X76704097Y-91395663D01*
X76803965Y-91609830D01*
X76939505Y-91803401D01*
X77106599Y-91970495D01*
X77292160Y-92100426D01*
X77335783Y-92155002D01*
X77342976Y-92224501D01*
X77311454Y-92286855D01*
X77292160Y-92303574D01*
X77165538Y-92392236D01*
X77106595Y-92433508D01*
X76939505Y-92600598D01*
X76803965Y-92794170D01*
X76704097Y-93008336D01*
X76642936Y-93236592D01*
X76622340Y-93472000D01*
X76642936Y-93707407D01*
X76659766Y-93770216D01*
X76704097Y-93935663D01*
X76803965Y-94149830D01*
X76939505Y-94343401D01*
X77106599Y-94510495D01*
X77292160Y-94640426D01*
X77335783Y-94695002D01*
X77342976Y-94764501D01*
X77311454Y-94826855D01*
X77292160Y-94843574D01*
X77190318Y-94914885D01*
X77106595Y-94973508D01*
X76939505Y-95140598D01*
X76803965Y-95334170D01*
X76704097Y-95548336D01*
X76642936Y-95776592D01*
X76622340Y-96012000D01*
X76642936Y-96247407D01*
X76678866Y-96381500D01*
X76704097Y-96475663D01*
X76803965Y-96689830D01*
X76939505Y-96883401D01*
X77106599Y-97050495D01*
X77292160Y-97180426D01*
X77335783Y-97235002D01*
X77342976Y-97304501D01*
X77311454Y-97366855D01*
X77292158Y-97383575D01*
X77141905Y-97488784D01*
X77106595Y-97513508D01*
X76939505Y-97680598D01*
X76803965Y-97874170D01*
X76704097Y-98088336D01*
X76642936Y-98316592D01*
X76622340Y-98552000D01*
X76642936Y-98787407D01*
X76687709Y-98954502D01*
X76704097Y-99015663D01*
X76803965Y-99229830D01*
X76939505Y-99423401D01*
X77106599Y-99590495D01*
X77292160Y-99720426D01*
X77335783Y-99775002D01*
X77342976Y-99844501D01*
X77311454Y-99906855D01*
X77292160Y-99923574D01*
X77239425Y-99960500D01*
X77106595Y-100053508D01*
X76939505Y-100220598D01*
X76803965Y-100414170D01*
X76704097Y-100628336D01*
X76642936Y-100856592D01*
X76622340Y-101091999D01*
X76642936Y-101327407D01*
X76654407Y-101370216D01*
X76704097Y-101555663D01*
X76803965Y-101769830D01*
X76939505Y-101963401D01*
X77106599Y-102130495D01*
X77292160Y-102260426D01*
X77335783Y-102315002D01*
X77342976Y-102384501D01*
X77311454Y-102446855D01*
X77292159Y-102463575D01*
X77106595Y-102593508D01*
X76939505Y-102760598D01*
X76803965Y-102954170D01*
X76704097Y-103168336D01*
X76642936Y-103396592D01*
X76622340Y-103631999D01*
X76642936Y-103867407D01*
X76665534Y-103951742D01*
X76704097Y-104095663D01*
X76803965Y-104309830D01*
X76939505Y-104503401D01*
X77106599Y-104670495D01*
X77292160Y-104800426D01*
X77335783Y-104855002D01*
X77342976Y-104924501D01*
X77311454Y-104986855D01*
X77292160Y-105003574D01*
X77109059Y-105131783D01*
X77106595Y-105133508D01*
X76939505Y-105300598D01*
X76803965Y-105494170D01*
X76704097Y-105708336D01*
X76642936Y-105936592D01*
X76622340Y-106172000D01*
X76642936Y-106407407D01*
X76671795Y-106515110D01*
X76704097Y-106635663D01*
X76803965Y-106849830D01*
X76939505Y-107043401D01*
X77106599Y-107210495D01*
X77292160Y-107340426D01*
X77335783Y-107395002D01*
X77342976Y-107464501D01*
X77311454Y-107526855D01*
X77292159Y-107543575D01*
X77106595Y-107673508D01*
X76939505Y-107840598D01*
X76803965Y-108034170D01*
X76704097Y-108248336D01*
X76642936Y-108476592D01*
X76622340Y-108711999D01*
X76642936Y-108947407D01*
X76671795Y-109055110D01*
X76704097Y-109175663D01*
X76803965Y-109389830D01*
X76939505Y-109583401D01*
X77106599Y-109750495D01*
X77292160Y-109880426D01*
X77335783Y-109935002D01*
X77342976Y-110004501D01*
X77311454Y-110066855D01*
X77292158Y-110083575D01*
X77165161Y-110172500D01*
X77106595Y-110213508D01*
X76939505Y-110380598D01*
X76803965Y-110574170D01*
X76704097Y-110788336D01*
X76642936Y-111016592D01*
X76622340Y-111252000D01*
X75438500Y-111252000D01*
X75438500Y-59817000D01*
X100694540Y-59817000D01*
X100714326Y-60005257D01*
X100772820Y-60185284D01*
X100867466Y-60349216D01*
X100994129Y-60489889D01*
X101147269Y-60601151D01*
X101320197Y-60678144D01*
X101505352Y-60717500D01*
X101505354Y-60717500D01*
X101694648Y-60717500D01*
X101818083Y-60691262D01*
X101879803Y-60678144D01*
X102052730Y-60601151D01*
X102205871Y-60489888D01*
X102332533Y-60349216D01*
X102427179Y-60185284D01*
X102485674Y-60005256D01*
X102505460Y-59817000D01*
X102485674Y-59628744D01*
X102427179Y-59448716D01*
X102427179Y-59448715D01*
X102332533Y-59284783D01*
X102272468Y-59218076D01*
X102257518Y-59201472D01*
X102227289Y-59138481D01*
X102235913Y-59069146D01*
X102257519Y-59035527D01*
X102332533Y-58952216D01*
X102427179Y-58788284D01*
X102485674Y-58608256D01*
X102505460Y-58420000D01*
X102485674Y-58231744D01*
X102427179Y-58051716D01*
X102427179Y-58051715D01*
X102332533Y-57887783D01*
X102205870Y-57747110D01*
X102052730Y-57635848D01*
X101879802Y-57558855D01*
X101694648Y-57519500D01*
X101694646Y-57519500D01*
X101505354Y-57519500D01*
X101505352Y-57519500D01*
X101320197Y-57558855D01*
X101147269Y-57635848D01*
X100994129Y-57747110D01*
X100867466Y-57887783D01*
X100772820Y-58051715D01*
X100714326Y-58231742D01*
X100694540Y-58420000D01*
X100714326Y-58608257D01*
X100772820Y-58788284D01*
X100867466Y-58952216D01*
X100942481Y-59035528D01*
X100972711Y-59098519D01*
X100964086Y-59167855D01*
X100942481Y-59201472D01*
X100867466Y-59284783D01*
X100772820Y-59448715D01*
X100714326Y-59628742D01*
X100694540Y-59817000D01*
X75438500Y-59817000D01*
X75438500Y-58420000D01*
X79358540Y-58420000D01*
X79378326Y-58608257D01*
X79436820Y-58788284D01*
X79531466Y-58952216D01*
X79658129Y-59092889D01*
X79811269Y-59204151D01*
X79984197Y-59281144D01*
X80169352Y-59320500D01*
X80169354Y-59320500D01*
X80358648Y-59320500D01*
X80482083Y-59294262D01*
X80543803Y-59281144D01*
X80716730Y-59204151D01*
X80799367Y-59144112D01*
X80869870Y-59092889D01*
X80996533Y-58952216D01*
X81091179Y-58788284D01*
X81149674Y-58608256D01*
X81169460Y-58420000D01*
X81149674Y-58231744D01*
X81091179Y-58051716D01*
X81091179Y-58051715D01*
X80996533Y-57887783D01*
X80869870Y-57747110D01*
X80716730Y-57635848D01*
X80543802Y-57558855D01*
X80358648Y-57519500D01*
X80358646Y-57519500D01*
X80169354Y-57519500D01*
X80169352Y-57519500D01*
X79984197Y-57558855D01*
X79811269Y-57635848D01*
X79658129Y-57747110D01*
X79531466Y-57887783D01*
X79436820Y-58051715D01*
X79378326Y-58231742D01*
X79358540Y-58420000D01*
X75438500Y-58420000D01*
X75438500Y-57193000D01*
X75458185Y-57125961D01*
X75510989Y-57080206D01*
X75562500Y-57069000D01*
X113413500Y-57069000D01*
X113480539Y-57088685D01*
G37*
%TD.AperFunction*%
%TD*%
M02*
