%TF.GenerationSoftware,KiCad,Pcbnew,7.0.2*%
%TF.CreationDate,2023-06-11T17:42:07-04:00*%
%TF.ProjectId,SoftProject,536f6674-5072-46f6-9a65-63742e6b6963,rev?*%
%TF.SameCoordinates,Original*%
%TF.FileFunction,Legend,Top*%
%TF.FilePolarity,Positive*%
%FSLAX46Y46*%
G04 Gerber Fmt 4.6, Leading zero omitted, Abs format (unit mm)*
G04 Created by KiCad (PCBNEW 7.0.2) date 2023-06-11 17:42:07*
%MOMM*%
%LPD*%
G01*
G04 APERTURE LIST*
%ADD10C,0.125000*%
%ADD11C,0.200000*%
%ADD12C,0.120000*%
%ADD13C,0.150000*%
G04 APERTURE END LIST*
D10*
X76253190Y-111228142D02*
X76253190Y-110990047D01*
X76253190Y-110990047D02*
X76015095Y-110966238D01*
X76015095Y-110966238D02*
X76038904Y-110990047D01*
X76038904Y-110990047D02*
X76062714Y-111037666D01*
X76062714Y-111037666D02*
X76062714Y-111156714D01*
X76062714Y-111156714D02*
X76038904Y-111204333D01*
X76038904Y-111204333D02*
X76015095Y-111228142D01*
X76015095Y-111228142D02*
X75967476Y-111251952D01*
X75967476Y-111251952D02*
X75848428Y-111251952D01*
X75848428Y-111251952D02*
X75800809Y-111228142D01*
X75800809Y-111228142D02*
X75777000Y-111204333D01*
X75777000Y-111204333D02*
X75753190Y-111156714D01*
X75753190Y-111156714D02*
X75753190Y-111037666D01*
X75753190Y-111037666D02*
X75777000Y-110990047D01*
X75777000Y-110990047D02*
X75800809Y-110966238D01*
X76253190Y-111394809D02*
X75753190Y-111561475D01*
X75753190Y-111561475D02*
X76253190Y-111728142D01*
X76253190Y-72969428D02*
X76253190Y-73278952D01*
X76253190Y-73278952D02*
X76062714Y-73112285D01*
X76062714Y-73112285D02*
X76062714Y-73183714D01*
X76062714Y-73183714D02*
X76038904Y-73231333D01*
X76038904Y-73231333D02*
X76015095Y-73255142D01*
X76015095Y-73255142D02*
X75967476Y-73278952D01*
X75967476Y-73278952D02*
X75848428Y-73278952D01*
X75848428Y-73278952D02*
X75800809Y-73255142D01*
X75800809Y-73255142D02*
X75777000Y-73231333D01*
X75777000Y-73231333D02*
X75753190Y-73183714D01*
X75753190Y-73183714D02*
X75753190Y-73040857D01*
X75753190Y-73040857D02*
X75777000Y-72993238D01*
X75777000Y-72993238D02*
X75800809Y-72969428D01*
X75753190Y-88280857D02*
X75753190Y-88376095D01*
X75753190Y-88376095D02*
X75777000Y-88423714D01*
X75777000Y-88423714D02*
X75800809Y-88447523D01*
X75800809Y-88447523D02*
X75872238Y-88495142D01*
X75872238Y-88495142D02*
X75967476Y-88518952D01*
X75967476Y-88518952D02*
X76157952Y-88518952D01*
X76157952Y-88518952D02*
X76205571Y-88495142D01*
X76205571Y-88495142D02*
X76229380Y-88471333D01*
X76229380Y-88471333D02*
X76253190Y-88423714D01*
X76253190Y-88423714D02*
X76253190Y-88328476D01*
X76253190Y-88328476D02*
X76229380Y-88280857D01*
X76229380Y-88280857D02*
X76205571Y-88257047D01*
X76205571Y-88257047D02*
X76157952Y-88233238D01*
X76157952Y-88233238D02*
X76038904Y-88233238D01*
X76038904Y-88233238D02*
X75991285Y-88257047D01*
X75991285Y-88257047D02*
X75967476Y-88280857D01*
X75967476Y-88280857D02*
X75943666Y-88328476D01*
X75943666Y-88328476D02*
X75943666Y-88423714D01*
X75943666Y-88423714D02*
X75967476Y-88471333D01*
X75967476Y-88471333D02*
X75991285Y-88495142D01*
X75991285Y-88495142D02*
X76038904Y-88518952D01*
X76205571Y-70453238D02*
X76229380Y-70477047D01*
X76229380Y-70477047D02*
X76253190Y-70524666D01*
X76253190Y-70524666D02*
X76253190Y-70643714D01*
X76253190Y-70643714D02*
X76229380Y-70691333D01*
X76229380Y-70691333D02*
X76205571Y-70715142D01*
X76205571Y-70715142D02*
X76157952Y-70738952D01*
X76157952Y-70738952D02*
X76110333Y-70738952D01*
X76110333Y-70738952D02*
X76038904Y-70715142D01*
X76038904Y-70715142D02*
X75753190Y-70429428D01*
X75753190Y-70429428D02*
X75753190Y-70738952D01*
X76253190Y-78335142D02*
X76253190Y-78097047D01*
X76253190Y-78097047D02*
X76015095Y-78073238D01*
X76015095Y-78073238D02*
X76038904Y-78097047D01*
X76038904Y-78097047D02*
X76062714Y-78144666D01*
X76062714Y-78144666D02*
X76062714Y-78263714D01*
X76062714Y-78263714D02*
X76038904Y-78311333D01*
X76038904Y-78311333D02*
X76015095Y-78335142D01*
X76015095Y-78335142D02*
X75967476Y-78358952D01*
X75967476Y-78358952D02*
X75848428Y-78358952D01*
X75848428Y-78358952D02*
X75800809Y-78335142D01*
X75800809Y-78335142D02*
X75777000Y-78311333D01*
X75777000Y-78311333D02*
X75753190Y-78263714D01*
X75753190Y-78263714D02*
X75753190Y-78144666D01*
X75753190Y-78144666D02*
X75777000Y-78097047D01*
X75777000Y-78097047D02*
X75800809Y-78073238D01*
X75753190Y-90804952D02*
X75753190Y-90519238D01*
X75753190Y-90662095D02*
X76253190Y-90662095D01*
X76253190Y-90662095D02*
X76181761Y-90614476D01*
X76181761Y-90614476D02*
X76134142Y-90566857D01*
X76134142Y-90566857D02*
X76110333Y-90519238D01*
X76253190Y-91114475D02*
X76253190Y-91162094D01*
X76253190Y-91162094D02*
X76229380Y-91209713D01*
X76229380Y-91209713D02*
X76205571Y-91233523D01*
X76205571Y-91233523D02*
X76157952Y-91257332D01*
X76157952Y-91257332D02*
X76062714Y-91281142D01*
X76062714Y-91281142D02*
X75943666Y-91281142D01*
X75943666Y-91281142D02*
X75848428Y-91257332D01*
X75848428Y-91257332D02*
X75800809Y-91233523D01*
X75800809Y-91233523D02*
X75777000Y-91209713D01*
X75777000Y-91209713D02*
X75753190Y-91162094D01*
X75753190Y-91162094D02*
X75753190Y-91114475D01*
X75753190Y-91114475D02*
X75777000Y-91066856D01*
X75777000Y-91066856D02*
X75800809Y-91043047D01*
X75800809Y-91043047D02*
X75848428Y-91019237D01*
X75848428Y-91019237D02*
X75943666Y-90995428D01*
X75943666Y-90995428D02*
X76062714Y-90995428D01*
X76062714Y-90995428D02*
X76157952Y-91019237D01*
X76157952Y-91019237D02*
X76205571Y-91043047D01*
X76205571Y-91043047D02*
X76229380Y-91066856D01*
X76229380Y-91066856D02*
X76253190Y-91114475D01*
X76253190Y-83129428D02*
X76253190Y-83462761D01*
X76253190Y-83462761D02*
X75753190Y-83248476D01*
X76253190Y-65492285D02*
X76253190Y-65539904D01*
X76253190Y-65539904D02*
X76229380Y-65587523D01*
X76229380Y-65587523D02*
X76205571Y-65611333D01*
X76205571Y-65611333D02*
X76157952Y-65635142D01*
X76157952Y-65635142D02*
X76062714Y-65658952D01*
X76062714Y-65658952D02*
X75943666Y-65658952D01*
X75943666Y-65658952D02*
X75848428Y-65635142D01*
X75848428Y-65635142D02*
X75800809Y-65611333D01*
X75800809Y-65611333D02*
X75777000Y-65587523D01*
X75777000Y-65587523D02*
X75753190Y-65539904D01*
X75753190Y-65539904D02*
X75753190Y-65492285D01*
X75753190Y-65492285D02*
X75777000Y-65444666D01*
X75777000Y-65444666D02*
X75800809Y-65420857D01*
X75800809Y-65420857D02*
X75848428Y-65397047D01*
X75848428Y-65397047D02*
X75943666Y-65373238D01*
X75943666Y-65373238D02*
X76062714Y-65373238D01*
X76062714Y-65373238D02*
X76157952Y-65397047D01*
X76157952Y-65397047D02*
X76205571Y-65420857D01*
X76205571Y-65420857D02*
X76229380Y-65444666D01*
X76229380Y-65444666D02*
X76253190Y-65492285D01*
X75753190Y-68198952D02*
X75753190Y-67913238D01*
X75753190Y-68056095D02*
X76253190Y-68056095D01*
X76253190Y-68056095D02*
X76181761Y-68008476D01*
X76181761Y-68008476D02*
X76134142Y-67960857D01*
X76134142Y-67960857D02*
X76110333Y-67913238D01*
X76086523Y-75771333D02*
X75753190Y-75771333D01*
X76277000Y-75652285D02*
X75919857Y-75533238D01*
X75919857Y-75533238D02*
X75919857Y-75842761D01*
X76038904Y-85788476D02*
X76062714Y-85740857D01*
X76062714Y-85740857D02*
X76086523Y-85717047D01*
X76086523Y-85717047D02*
X76134142Y-85693238D01*
X76134142Y-85693238D02*
X76157952Y-85693238D01*
X76157952Y-85693238D02*
X76205571Y-85717047D01*
X76205571Y-85717047D02*
X76229380Y-85740857D01*
X76229380Y-85740857D02*
X76253190Y-85788476D01*
X76253190Y-85788476D02*
X76253190Y-85883714D01*
X76253190Y-85883714D02*
X76229380Y-85931333D01*
X76229380Y-85931333D02*
X76205571Y-85955142D01*
X76205571Y-85955142D02*
X76157952Y-85978952D01*
X76157952Y-85978952D02*
X76134142Y-85978952D01*
X76134142Y-85978952D02*
X76086523Y-85955142D01*
X76086523Y-85955142D02*
X76062714Y-85931333D01*
X76062714Y-85931333D02*
X76038904Y-85883714D01*
X76038904Y-85883714D02*
X76038904Y-85788476D01*
X76038904Y-85788476D02*
X76015095Y-85740857D01*
X76015095Y-85740857D02*
X75991285Y-85717047D01*
X75991285Y-85717047D02*
X75943666Y-85693238D01*
X75943666Y-85693238D02*
X75848428Y-85693238D01*
X75848428Y-85693238D02*
X75800809Y-85717047D01*
X75800809Y-85717047D02*
X75777000Y-85740857D01*
X75777000Y-85740857D02*
X75753190Y-85788476D01*
X75753190Y-85788476D02*
X75753190Y-85883714D01*
X75753190Y-85883714D02*
X75777000Y-85931333D01*
X75777000Y-85931333D02*
X75800809Y-85955142D01*
X75800809Y-85955142D02*
X75848428Y-85978952D01*
X75848428Y-85978952D02*
X75943666Y-85978952D01*
X75943666Y-85978952D02*
X75991285Y-85955142D01*
X75991285Y-85955142D02*
X76015095Y-85931333D01*
X76015095Y-85931333D02*
X76038904Y-85883714D01*
X75753190Y-95884952D02*
X75753190Y-95599238D01*
X75753190Y-95742095D02*
X76253190Y-95742095D01*
X76253190Y-95742095D02*
X76181761Y-95694476D01*
X76181761Y-95694476D02*
X76134142Y-95646857D01*
X76134142Y-95646857D02*
X76110333Y-95599238D01*
X76205571Y-96075428D02*
X76229380Y-96099237D01*
X76229380Y-96099237D02*
X76253190Y-96146856D01*
X76253190Y-96146856D02*
X76253190Y-96265904D01*
X76253190Y-96265904D02*
X76229380Y-96313523D01*
X76229380Y-96313523D02*
X76205571Y-96337332D01*
X76205571Y-96337332D02*
X76157952Y-96361142D01*
X76157952Y-96361142D02*
X76110333Y-96361142D01*
X76110333Y-96361142D02*
X76038904Y-96337332D01*
X76038904Y-96337332D02*
X75753190Y-96051618D01*
X75753190Y-96051618D02*
X75753190Y-96361142D01*
X76253190Y-80851333D02*
X76253190Y-80756095D01*
X76253190Y-80756095D02*
X76229380Y-80708476D01*
X76229380Y-80708476D02*
X76205571Y-80684666D01*
X76205571Y-80684666D02*
X76134142Y-80637047D01*
X76134142Y-80637047D02*
X76038904Y-80613238D01*
X76038904Y-80613238D02*
X75848428Y-80613238D01*
X75848428Y-80613238D02*
X75800809Y-80637047D01*
X75800809Y-80637047D02*
X75777000Y-80660857D01*
X75777000Y-80660857D02*
X75753190Y-80708476D01*
X75753190Y-80708476D02*
X75753190Y-80803714D01*
X75753190Y-80803714D02*
X75777000Y-80851333D01*
X75777000Y-80851333D02*
X75800809Y-80875142D01*
X75800809Y-80875142D02*
X75848428Y-80898952D01*
X75848428Y-80898952D02*
X75967476Y-80898952D01*
X75967476Y-80898952D02*
X76015095Y-80875142D01*
X76015095Y-80875142D02*
X76038904Y-80851333D01*
X76038904Y-80851333D02*
X76062714Y-80803714D01*
X76062714Y-80803714D02*
X76062714Y-80708476D01*
X76062714Y-80708476D02*
X76038904Y-80660857D01*
X76038904Y-80660857D02*
X76015095Y-80637047D01*
X76015095Y-80637047D02*
X75967476Y-80613238D01*
X76253190Y-62174428D02*
X76253190Y-62483952D01*
X76253190Y-62483952D02*
X76062714Y-62317285D01*
X76062714Y-62317285D02*
X76062714Y-62388714D01*
X76062714Y-62388714D02*
X76038904Y-62436333D01*
X76038904Y-62436333D02*
X76015095Y-62460142D01*
X76015095Y-62460142D02*
X75967476Y-62483952D01*
X75967476Y-62483952D02*
X75848428Y-62483952D01*
X75848428Y-62483952D02*
X75800809Y-62460142D01*
X75800809Y-62460142D02*
X75777000Y-62436333D01*
X75777000Y-62436333D02*
X75753190Y-62388714D01*
X75753190Y-62388714D02*
X75753190Y-62245857D01*
X75753190Y-62245857D02*
X75777000Y-62198238D01*
X75777000Y-62198238D02*
X75800809Y-62174428D01*
X75800809Y-62698237D02*
X75777000Y-62722047D01*
X75777000Y-62722047D02*
X75753190Y-62698237D01*
X75753190Y-62698237D02*
X75777000Y-62674428D01*
X75777000Y-62674428D02*
X75800809Y-62698237D01*
X75800809Y-62698237D02*
X75753190Y-62698237D01*
X76253190Y-62888713D02*
X76253190Y-63198237D01*
X76253190Y-63198237D02*
X76062714Y-63031570D01*
X76062714Y-63031570D02*
X76062714Y-63102999D01*
X76062714Y-63102999D02*
X76038904Y-63150618D01*
X76038904Y-63150618D02*
X76015095Y-63174427D01*
X76015095Y-63174427D02*
X75967476Y-63198237D01*
X75967476Y-63198237D02*
X75848428Y-63198237D01*
X75848428Y-63198237D02*
X75800809Y-63174427D01*
X75800809Y-63174427D02*
X75777000Y-63150618D01*
X75777000Y-63150618D02*
X75753190Y-63102999D01*
X75753190Y-63102999D02*
X75753190Y-62960142D01*
X75753190Y-62960142D02*
X75777000Y-62912523D01*
X75777000Y-62912523D02*
X75800809Y-62888713D01*
X76253190Y-63341094D02*
X75753190Y-63507760D01*
X75753190Y-63507760D02*
X76253190Y-63674427D01*
X75753190Y-98424952D02*
X75753190Y-98139238D01*
X75753190Y-98282095D02*
X76253190Y-98282095D01*
X76253190Y-98282095D02*
X76181761Y-98234476D01*
X76181761Y-98234476D02*
X76134142Y-98186857D01*
X76134142Y-98186857D02*
X76110333Y-98139238D01*
X76253190Y-98591618D02*
X76253190Y-98901142D01*
X76253190Y-98901142D02*
X76062714Y-98734475D01*
X76062714Y-98734475D02*
X76062714Y-98805904D01*
X76062714Y-98805904D02*
X76038904Y-98853523D01*
X76038904Y-98853523D02*
X76015095Y-98877332D01*
X76015095Y-98877332D02*
X75967476Y-98901142D01*
X75967476Y-98901142D02*
X75848428Y-98901142D01*
X75848428Y-98901142D02*
X75800809Y-98877332D01*
X75800809Y-98877332D02*
X75777000Y-98853523D01*
X75777000Y-98853523D02*
X75753190Y-98805904D01*
X75753190Y-98805904D02*
X75753190Y-98663047D01*
X75753190Y-98663047D02*
X75777000Y-98615428D01*
X75777000Y-98615428D02*
X75800809Y-98591618D01*
X75753190Y-106044952D02*
X75753190Y-105759238D01*
X75753190Y-105902095D02*
X76253190Y-105902095D01*
X76253190Y-105902095D02*
X76181761Y-105854476D01*
X76181761Y-105854476D02*
X76134142Y-105806857D01*
X76134142Y-105806857D02*
X76110333Y-105759238D01*
X76253190Y-106473523D02*
X76253190Y-106378285D01*
X76253190Y-106378285D02*
X76229380Y-106330666D01*
X76229380Y-106330666D02*
X76205571Y-106306856D01*
X76205571Y-106306856D02*
X76134142Y-106259237D01*
X76134142Y-106259237D02*
X76038904Y-106235428D01*
X76038904Y-106235428D02*
X75848428Y-106235428D01*
X75848428Y-106235428D02*
X75800809Y-106259237D01*
X75800809Y-106259237D02*
X75777000Y-106283047D01*
X75777000Y-106283047D02*
X75753190Y-106330666D01*
X75753190Y-106330666D02*
X75753190Y-106425904D01*
X75753190Y-106425904D02*
X75777000Y-106473523D01*
X75777000Y-106473523D02*
X75800809Y-106497332D01*
X75800809Y-106497332D02*
X75848428Y-106521142D01*
X75848428Y-106521142D02*
X75967476Y-106521142D01*
X75967476Y-106521142D02*
X76015095Y-106497332D01*
X76015095Y-106497332D02*
X76038904Y-106473523D01*
X76038904Y-106473523D02*
X76062714Y-106425904D01*
X76062714Y-106425904D02*
X76062714Y-106330666D01*
X76062714Y-106330666D02*
X76038904Y-106283047D01*
X76038904Y-106283047D02*
X76015095Y-106259237D01*
X76015095Y-106259237D02*
X75967476Y-106235428D01*
X75753190Y-100964952D02*
X75753190Y-100679238D01*
X75753190Y-100822095D02*
X76253190Y-100822095D01*
X76253190Y-100822095D02*
X76181761Y-100774476D01*
X76181761Y-100774476D02*
X76134142Y-100726857D01*
X76134142Y-100726857D02*
X76110333Y-100679238D01*
X76086523Y-101393523D02*
X75753190Y-101393523D01*
X76277000Y-101274475D02*
X75919857Y-101155428D01*
X75919857Y-101155428D02*
X75919857Y-101464951D01*
X75753190Y-93344952D02*
X75753190Y-93059238D01*
X75753190Y-93202095D02*
X76253190Y-93202095D01*
X76253190Y-93202095D02*
X76181761Y-93154476D01*
X76181761Y-93154476D02*
X76134142Y-93106857D01*
X76134142Y-93106857D02*
X76110333Y-93059238D01*
X75753190Y-93821142D02*
X75753190Y-93535428D01*
X75753190Y-93678285D02*
X76253190Y-93678285D01*
X76253190Y-93678285D02*
X76181761Y-93630666D01*
X76181761Y-93630666D02*
X76134142Y-93583047D01*
X76134142Y-93583047D02*
X76110333Y-93535428D01*
X75753190Y-108584952D02*
X75753190Y-108299238D01*
X75753190Y-108442095D02*
X76253190Y-108442095D01*
X76253190Y-108442095D02*
X76181761Y-108394476D01*
X76181761Y-108394476D02*
X76134142Y-108346857D01*
X76134142Y-108346857D02*
X76110333Y-108299238D01*
X76253190Y-108751618D02*
X76253190Y-109084951D01*
X76253190Y-109084951D02*
X75753190Y-108870666D01*
X75753190Y-103504952D02*
X75753190Y-103219238D01*
X75753190Y-103362095D02*
X76253190Y-103362095D01*
X76253190Y-103362095D02*
X76181761Y-103314476D01*
X76181761Y-103314476D02*
X76134142Y-103266857D01*
X76134142Y-103266857D02*
X76110333Y-103219238D01*
X76253190Y-103957332D02*
X76253190Y-103719237D01*
X76253190Y-103719237D02*
X76015095Y-103695428D01*
X76015095Y-103695428D02*
X76038904Y-103719237D01*
X76038904Y-103719237D02*
X76062714Y-103766856D01*
X76062714Y-103766856D02*
X76062714Y-103885904D01*
X76062714Y-103885904D02*
X76038904Y-103933523D01*
X76038904Y-103933523D02*
X76015095Y-103957332D01*
X76015095Y-103957332D02*
X75967476Y-103981142D01*
X75967476Y-103981142D02*
X75848428Y-103981142D01*
X75848428Y-103981142D02*
X75800809Y-103957332D01*
X75800809Y-103957332D02*
X75777000Y-103933523D01*
X75777000Y-103933523D02*
X75753190Y-103885904D01*
X75753190Y-103885904D02*
X75753190Y-103766856D01*
X75753190Y-103766856D02*
X75777000Y-103719237D01*
X75777000Y-103719237D02*
X75800809Y-103695428D01*
X112746619Y-109093047D02*
X112722809Y-109140666D01*
X112722809Y-109140666D02*
X112722809Y-109212095D01*
X112722809Y-109212095D02*
X112746619Y-109283523D01*
X112746619Y-109283523D02*
X112794238Y-109331142D01*
X112794238Y-109331142D02*
X112841857Y-109354952D01*
X112841857Y-109354952D02*
X112937095Y-109378761D01*
X112937095Y-109378761D02*
X113008523Y-109378761D01*
X113008523Y-109378761D02*
X113103761Y-109354952D01*
X113103761Y-109354952D02*
X113151380Y-109331142D01*
X113151380Y-109331142D02*
X113199000Y-109283523D01*
X113199000Y-109283523D02*
X113222809Y-109212095D01*
X113222809Y-109212095D02*
X113222809Y-109164476D01*
X113222809Y-109164476D02*
X113199000Y-109093047D01*
X113199000Y-109093047D02*
X113175190Y-109069238D01*
X113175190Y-109069238D02*
X113008523Y-109069238D01*
X113008523Y-109069238D02*
X113008523Y-109164476D01*
X113222809Y-108854952D02*
X112722809Y-108854952D01*
X112722809Y-108854952D02*
X113222809Y-108569238D01*
X113222809Y-108569238D02*
X112722809Y-108569238D01*
X113222809Y-108331142D02*
X112722809Y-108331142D01*
X112722809Y-108331142D02*
X112722809Y-108212094D01*
X112722809Y-108212094D02*
X112746619Y-108140666D01*
X112746619Y-108140666D02*
X112794238Y-108093047D01*
X112794238Y-108093047D02*
X112841857Y-108069237D01*
X112841857Y-108069237D02*
X112937095Y-108045428D01*
X112937095Y-108045428D02*
X113008523Y-108045428D01*
X113008523Y-108045428D02*
X113103761Y-108069237D01*
X113103761Y-108069237D02*
X113151380Y-108093047D01*
X113151380Y-108093047D02*
X113199000Y-108140666D01*
X113199000Y-108140666D02*
X113222809Y-108212094D01*
X113222809Y-108212094D02*
X113222809Y-108331142D01*
X112770428Y-106584761D02*
X112746619Y-106560952D01*
X112746619Y-106560952D02*
X112722809Y-106513333D01*
X112722809Y-106513333D02*
X112722809Y-106394285D01*
X112722809Y-106394285D02*
X112746619Y-106346666D01*
X112746619Y-106346666D02*
X112770428Y-106322857D01*
X112770428Y-106322857D02*
X112818047Y-106299047D01*
X112818047Y-106299047D02*
X112865666Y-106299047D01*
X112865666Y-106299047D02*
X112937095Y-106322857D01*
X112937095Y-106322857D02*
X113222809Y-106608571D01*
X113222809Y-106608571D02*
X113222809Y-106299047D01*
X113222809Y-105822857D02*
X113222809Y-106108571D01*
X113222809Y-105965714D02*
X112722809Y-105965714D01*
X112722809Y-105965714D02*
X112794238Y-106013333D01*
X112794238Y-106013333D02*
X112841857Y-106060952D01*
X112841857Y-106060952D02*
X112865666Y-106108571D01*
X112746619Y-111633047D02*
X112722809Y-111680666D01*
X112722809Y-111680666D02*
X112722809Y-111752095D01*
X112722809Y-111752095D02*
X112746619Y-111823523D01*
X112746619Y-111823523D02*
X112794238Y-111871142D01*
X112794238Y-111871142D02*
X112841857Y-111894952D01*
X112841857Y-111894952D02*
X112937095Y-111918761D01*
X112937095Y-111918761D02*
X113008523Y-111918761D01*
X113008523Y-111918761D02*
X113103761Y-111894952D01*
X113103761Y-111894952D02*
X113151380Y-111871142D01*
X113151380Y-111871142D02*
X113199000Y-111823523D01*
X113199000Y-111823523D02*
X113222809Y-111752095D01*
X113222809Y-111752095D02*
X113222809Y-111704476D01*
X113222809Y-111704476D02*
X113199000Y-111633047D01*
X113199000Y-111633047D02*
X113175190Y-111609238D01*
X113175190Y-111609238D02*
X113008523Y-111609238D01*
X113008523Y-111609238D02*
X113008523Y-111704476D01*
X113222809Y-111394952D02*
X112722809Y-111394952D01*
X112722809Y-111394952D02*
X113222809Y-111109238D01*
X113222809Y-111109238D02*
X112722809Y-111109238D01*
X113222809Y-110871142D02*
X112722809Y-110871142D01*
X112722809Y-110871142D02*
X112722809Y-110752094D01*
X112722809Y-110752094D02*
X112746619Y-110680666D01*
X112746619Y-110680666D02*
X112794238Y-110633047D01*
X112794238Y-110633047D02*
X112841857Y-110609237D01*
X112841857Y-110609237D02*
X112937095Y-110585428D01*
X112937095Y-110585428D02*
X113008523Y-110585428D01*
X113008523Y-110585428D02*
X113103761Y-110609237D01*
X113103761Y-110609237D02*
X113151380Y-110633047D01*
X113151380Y-110633047D02*
X113199000Y-110680666D01*
X113199000Y-110680666D02*
X113222809Y-110752094D01*
X113222809Y-110752094D02*
X113222809Y-110871142D01*
X112722809Y-98988571D02*
X112722809Y-98679047D01*
X112722809Y-98679047D02*
X112913285Y-98845714D01*
X112913285Y-98845714D02*
X112913285Y-98774285D01*
X112913285Y-98774285D02*
X112937095Y-98726666D01*
X112937095Y-98726666D02*
X112960904Y-98702857D01*
X112960904Y-98702857D02*
X113008523Y-98679047D01*
X113008523Y-98679047D02*
X113127571Y-98679047D01*
X113127571Y-98679047D02*
X113175190Y-98702857D01*
X113175190Y-98702857D02*
X113199000Y-98726666D01*
X113199000Y-98726666D02*
X113222809Y-98774285D01*
X113222809Y-98774285D02*
X113222809Y-98917142D01*
X113222809Y-98917142D02*
X113199000Y-98964761D01*
X113199000Y-98964761D02*
X113175190Y-98988571D01*
X112889476Y-98250476D02*
X113222809Y-98250476D01*
X112699000Y-98369524D02*
X113056142Y-98488571D01*
X113056142Y-98488571D02*
X113056142Y-98179048D01*
X112770428Y-104044761D02*
X112746619Y-104020952D01*
X112746619Y-104020952D02*
X112722809Y-103973333D01*
X112722809Y-103973333D02*
X112722809Y-103854285D01*
X112722809Y-103854285D02*
X112746619Y-103806666D01*
X112746619Y-103806666D02*
X112770428Y-103782857D01*
X112770428Y-103782857D02*
X112818047Y-103759047D01*
X112818047Y-103759047D02*
X112865666Y-103759047D01*
X112865666Y-103759047D02*
X112937095Y-103782857D01*
X112937095Y-103782857D02*
X113222809Y-104068571D01*
X113222809Y-104068571D02*
X113222809Y-103759047D01*
X112722809Y-103330476D02*
X112722809Y-103425714D01*
X112722809Y-103425714D02*
X112746619Y-103473333D01*
X112746619Y-103473333D02*
X112770428Y-103497143D01*
X112770428Y-103497143D02*
X112841857Y-103544762D01*
X112841857Y-103544762D02*
X112937095Y-103568571D01*
X112937095Y-103568571D02*
X113127571Y-103568571D01*
X113127571Y-103568571D02*
X113175190Y-103544762D01*
X113175190Y-103544762D02*
X113199000Y-103520952D01*
X113199000Y-103520952D02*
X113222809Y-103473333D01*
X113222809Y-103473333D02*
X113222809Y-103378095D01*
X113222809Y-103378095D02*
X113199000Y-103330476D01*
X113199000Y-103330476D02*
X113175190Y-103306667D01*
X113175190Y-103306667D02*
X113127571Y-103282857D01*
X113127571Y-103282857D02*
X113008523Y-103282857D01*
X113008523Y-103282857D02*
X112960904Y-103306667D01*
X112960904Y-103306667D02*
X112937095Y-103330476D01*
X112937095Y-103330476D02*
X112913285Y-103378095D01*
X112913285Y-103378095D02*
X112913285Y-103473333D01*
X112913285Y-103473333D02*
X112937095Y-103520952D01*
X112937095Y-103520952D02*
X112960904Y-103544762D01*
X112960904Y-103544762D02*
X113008523Y-103568571D01*
X112722809Y-96448571D02*
X112722809Y-96139047D01*
X112722809Y-96139047D02*
X112913285Y-96305714D01*
X112913285Y-96305714D02*
X112913285Y-96234285D01*
X112913285Y-96234285D02*
X112937095Y-96186666D01*
X112937095Y-96186666D02*
X112960904Y-96162857D01*
X112960904Y-96162857D02*
X113008523Y-96139047D01*
X113008523Y-96139047D02*
X113127571Y-96139047D01*
X113127571Y-96139047D02*
X113175190Y-96162857D01*
X113175190Y-96162857D02*
X113199000Y-96186666D01*
X113199000Y-96186666D02*
X113222809Y-96234285D01*
X113222809Y-96234285D02*
X113222809Y-96377142D01*
X113222809Y-96377142D02*
X113199000Y-96424761D01*
X113199000Y-96424761D02*
X113175190Y-96448571D01*
X112722809Y-95686667D02*
X112722809Y-95924762D01*
X112722809Y-95924762D02*
X112960904Y-95948571D01*
X112960904Y-95948571D02*
X112937095Y-95924762D01*
X112937095Y-95924762D02*
X112913285Y-95877143D01*
X112913285Y-95877143D02*
X112913285Y-95758095D01*
X112913285Y-95758095D02*
X112937095Y-95710476D01*
X112937095Y-95710476D02*
X112960904Y-95686667D01*
X112960904Y-95686667D02*
X113008523Y-95662857D01*
X113008523Y-95662857D02*
X113127571Y-95662857D01*
X113127571Y-95662857D02*
X113175190Y-95686667D01*
X113175190Y-95686667D02*
X113199000Y-95710476D01*
X113199000Y-95710476D02*
X113222809Y-95758095D01*
X113222809Y-95758095D02*
X113222809Y-95877143D01*
X113222809Y-95877143D02*
X113199000Y-95924762D01*
X113199000Y-95924762D02*
X113175190Y-95948571D01*
X112722809Y-101528571D02*
X112722809Y-101219047D01*
X112722809Y-101219047D02*
X112913285Y-101385714D01*
X112913285Y-101385714D02*
X112913285Y-101314285D01*
X112913285Y-101314285D02*
X112937095Y-101266666D01*
X112937095Y-101266666D02*
X112960904Y-101242857D01*
X112960904Y-101242857D02*
X113008523Y-101219047D01*
X113008523Y-101219047D02*
X113127571Y-101219047D01*
X113127571Y-101219047D02*
X113175190Y-101242857D01*
X113175190Y-101242857D02*
X113199000Y-101266666D01*
X113199000Y-101266666D02*
X113222809Y-101314285D01*
X113222809Y-101314285D02*
X113222809Y-101457142D01*
X113222809Y-101457142D02*
X113199000Y-101504761D01*
X113199000Y-101504761D02*
X113175190Y-101528571D01*
X112722809Y-101052381D02*
X112722809Y-100742857D01*
X112722809Y-100742857D02*
X112913285Y-100909524D01*
X112913285Y-100909524D02*
X112913285Y-100838095D01*
X112913285Y-100838095D02*
X112937095Y-100790476D01*
X112937095Y-100790476D02*
X112960904Y-100766667D01*
X112960904Y-100766667D02*
X113008523Y-100742857D01*
X113008523Y-100742857D02*
X113127571Y-100742857D01*
X113127571Y-100742857D02*
X113175190Y-100766667D01*
X113175190Y-100766667D02*
X113199000Y-100790476D01*
X113199000Y-100790476D02*
X113222809Y-100838095D01*
X113222809Y-100838095D02*
X113222809Y-100980952D01*
X113222809Y-100980952D02*
X113199000Y-101028571D01*
X113199000Y-101028571D02*
X113175190Y-101052381D01*
X112722809Y-88828571D02*
X112722809Y-88519047D01*
X112722809Y-88519047D02*
X112913285Y-88685714D01*
X112913285Y-88685714D02*
X112913285Y-88614285D01*
X112913285Y-88614285D02*
X112937095Y-88566666D01*
X112937095Y-88566666D02*
X112960904Y-88542857D01*
X112960904Y-88542857D02*
X113008523Y-88519047D01*
X113008523Y-88519047D02*
X113127571Y-88519047D01*
X113127571Y-88519047D02*
X113175190Y-88542857D01*
X113175190Y-88542857D02*
X113199000Y-88566666D01*
X113199000Y-88566666D02*
X113222809Y-88614285D01*
X113222809Y-88614285D02*
X113222809Y-88757142D01*
X113222809Y-88757142D02*
X113199000Y-88804761D01*
X113199000Y-88804761D02*
X113175190Y-88828571D01*
X112937095Y-88233333D02*
X112913285Y-88280952D01*
X112913285Y-88280952D02*
X112889476Y-88304762D01*
X112889476Y-88304762D02*
X112841857Y-88328571D01*
X112841857Y-88328571D02*
X112818047Y-88328571D01*
X112818047Y-88328571D02*
X112770428Y-88304762D01*
X112770428Y-88304762D02*
X112746619Y-88280952D01*
X112746619Y-88280952D02*
X112722809Y-88233333D01*
X112722809Y-88233333D02*
X112722809Y-88138095D01*
X112722809Y-88138095D02*
X112746619Y-88090476D01*
X112746619Y-88090476D02*
X112770428Y-88066667D01*
X112770428Y-88066667D02*
X112818047Y-88042857D01*
X112818047Y-88042857D02*
X112841857Y-88042857D01*
X112841857Y-88042857D02*
X112889476Y-88066667D01*
X112889476Y-88066667D02*
X112913285Y-88090476D01*
X112913285Y-88090476D02*
X112937095Y-88138095D01*
X112937095Y-88138095D02*
X112937095Y-88233333D01*
X112937095Y-88233333D02*
X112960904Y-88280952D01*
X112960904Y-88280952D02*
X112984714Y-88304762D01*
X112984714Y-88304762D02*
X113032333Y-88328571D01*
X113032333Y-88328571D02*
X113127571Y-88328571D01*
X113127571Y-88328571D02*
X113175190Y-88304762D01*
X113175190Y-88304762D02*
X113199000Y-88280952D01*
X113199000Y-88280952D02*
X113222809Y-88233333D01*
X113222809Y-88233333D02*
X113222809Y-88138095D01*
X113222809Y-88138095D02*
X113199000Y-88090476D01*
X113199000Y-88090476D02*
X113175190Y-88066667D01*
X113175190Y-88066667D02*
X113127571Y-88042857D01*
X113127571Y-88042857D02*
X113032333Y-88042857D01*
X113032333Y-88042857D02*
X112984714Y-88066667D01*
X112984714Y-88066667D02*
X112960904Y-88090476D01*
X112960904Y-88090476D02*
X112937095Y-88138095D01*
X112722809Y-93908571D02*
X112722809Y-93599047D01*
X112722809Y-93599047D02*
X112913285Y-93765714D01*
X112913285Y-93765714D02*
X112913285Y-93694285D01*
X112913285Y-93694285D02*
X112937095Y-93646666D01*
X112937095Y-93646666D02*
X112960904Y-93622857D01*
X112960904Y-93622857D02*
X113008523Y-93599047D01*
X113008523Y-93599047D02*
X113127571Y-93599047D01*
X113127571Y-93599047D02*
X113175190Y-93622857D01*
X113175190Y-93622857D02*
X113199000Y-93646666D01*
X113199000Y-93646666D02*
X113222809Y-93694285D01*
X113222809Y-93694285D02*
X113222809Y-93837142D01*
X113222809Y-93837142D02*
X113199000Y-93884761D01*
X113199000Y-93884761D02*
X113175190Y-93908571D01*
X112722809Y-93170476D02*
X112722809Y-93265714D01*
X112722809Y-93265714D02*
X112746619Y-93313333D01*
X112746619Y-93313333D02*
X112770428Y-93337143D01*
X112770428Y-93337143D02*
X112841857Y-93384762D01*
X112841857Y-93384762D02*
X112937095Y-93408571D01*
X112937095Y-93408571D02*
X113127571Y-93408571D01*
X113127571Y-93408571D02*
X113175190Y-93384762D01*
X113175190Y-93384762D02*
X113199000Y-93360952D01*
X113199000Y-93360952D02*
X113222809Y-93313333D01*
X113222809Y-93313333D02*
X113222809Y-93218095D01*
X113222809Y-93218095D02*
X113199000Y-93170476D01*
X113199000Y-93170476D02*
X113175190Y-93146667D01*
X113175190Y-93146667D02*
X113127571Y-93122857D01*
X113127571Y-93122857D02*
X113008523Y-93122857D01*
X113008523Y-93122857D02*
X112960904Y-93146667D01*
X112960904Y-93146667D02*
X112937095Y-93170476D01*
X112937095Y-93170476D02*
X112913285Y-93218095D01*
X112913285Y-93218095D02*
X112913285Y-93313333D01*
X112913285Y-93313333D02*
X112937095Y-93360952D01*
X112937095Y-93360952D02*
X112960904Y-93384762D01*
X112960904Y-93384762D02*
X113008523Y-93408571D01*
X112722809Y-86288571D02*
X112722809Y-85979047D01*
X112722809Y-85979047D02*
X112913285Y-86145714D01*
X112913285Y-86145714D02*
X112913285Y-86074285D01*
X112913285Y-86074285D02*
X112937095Y-86026666D01*
X112937095Y-86026666D02*
X112960904Y-86002857D01*
X112960904Y-86002857D02*
X113008523Y-85979047D01*
X113008523Y-85979047D02*
X113127571Y-85979047D01*
X113127571Y-85979047D02*
X113175190Y-86002857D01*
X113175190Y-86002857D02*
X113199000Y-86026666D01*
X113199000Y-86026666D02*
X113222809Y-86074285D01*
X113222809Y-86074285D02*
X113222809Y-86217142D01*
X113222809Y-86217142D02*
X113199000Y-86264761D01*
X113199000Y-86264761D02*
X113175190Y-86288571D01*
X113222809Y-85740952D02*
X113222809Y-85645714D01*
X113222809Y-85645714D02*
X113199000Y-85598095D01*
X113199000Y-85598095D02*
X113175190Y-85574286D01*
X113175190Y-85574286D02*
X113103761Y-85526667D01*
X113103761Y-85526667D02*
X113008523Y-85502857D01*
X113008523Y-85502857D02*
X112818047Y-85502857D01*
X112818047Y-85502857D02*
X112770428Y-85526667D01*
X112770428Y-85526667D02*
X112746619Y-85550476D01*
X112746619Y-85550476D02*
X112722809Y-85598095D01*
X112722809Y-85598095D02*
X112722809Y-85693333D01*
X112722809Y-85693333D02*
X112746619Y-85740952D01*
X112746619Y-85740952D02*
X112770428Y-85764762D01*
X112770428Y-85764762D02*
X112818047Y-85788571D01*
X112818047Y-85788571D02*
X112937095Y-85788571D01*
X112937095Y-85788571D02*
X112984714Y-85764762D01*
X112984714Y-85764762D02*
X113008523Y-85740952D01*
X113008523Y-85740952D02*
X113032333Y-85693333D01*
X113032333Y-85693333D02*
X113032333Y-85598095D01*
X113032333Y-85598095D02*
X113008523Y-85550476D01*
X113008523Y-85550476D02*
X112984714Y-85526667D01*
X112984714Y-85526667D02*
X112937095Y-85502857D01*
X112722809Y-91368571D02*
X112722809Y-91059047D01*
X112722809Y-91059047D02*
X112913285Y-91225714D01*
X112913285Y-91225714D02*
X112913285Y-91154285D01*
X112913285Y-91154285D02*
X112937095Y-91106666D01*
X112937095Y-91106666D02*
X112960904Y-91082857D01*
X112960904Y-91082857D02*
X113008523Y-91059047D01*
X113008523Y-91059047D02*
X113127571Y-91059047D01*
X113127571Y-91059047D02*
X113175190Y-91082857D01*
X113175190Y-91082857D02*
X113199000Y-91106666D01*
X113199000Y-91106666D02*
X113222809Y-91154285D01*
X113222809Y-91154285D02*
X113222809Y-91297142D01*
X113222809Y-91297142D02*
X113199000Y-91344761D01*
X113199000Y-91344761D02*
X113175190Y-91368571D01*
X112722809Y-90892381D02*
X112722809Y-90559048D01*
X112722809Y-90559048D02*
X113222809Y-90773333D01*
X112889476Y-78406666D02*
X113222809Y-78406666D01*
X112699000Y-78525714D02*
X113056142Y-78644761D01*
X113056142Y-78644761D02*
X113056142Y-78335238D01*
X112770428Y-78168571D02*
X112746619Y-78144762D01*
X112746619Y-78144762D02*
X112722809Y-78097143D01*
X112722809Y-78097143D02*
X112722809Y-77978095D01*
X112722809Y-77978095D02*
X112746619Y-77930476D01*
X112746619Y-77930476D02*
X112770428Y-77906667D01*
X112770428Y-77906667D02*
X112818047Y-77882857D01*
X112818047Y-77882857D02*
X112865666Y-77882857D01*
X112865666Y-77882857D02*
X112937095Y-77906667D01*
X112937095Y-77906667D02*
X113222809Y-78192381D01*
X113222809Y-78192381D02*
X113222809Y-77882857D01*
X112889476Y-83486666D02*
X113222809Y-83486666D01*
X112699000Y-83605714D02*
X113056142Y-83724761D01*
X113056142Y-83724761D02*
X113056142Y-83415238D01*
X112722809Y-83129524D02*
X112722809Y-83081905D01*
X112722809Y-83081905D02*
X112746619Y-83034286D01*
X112746619Y-83034286D02*
X112770428Y-83010476D01*
X112770428Y-83010476D02*
X112818047Y-82986667D01*
X112818047Y-82986667D02*
X112913285Y-82962857D01*
X112913285Y-82962857D02*
X113032333Y-82962857D01*
X113032333Y-82962857D02*
X113127571Y-82986667D01*
X113127571Y-82986667D02*
X113175190Y-83010476D01*
X113175190Y-83010476D02*
X113199000Y-83034286D01*
X113199000Y-83034286D02*
X113222809Y-83081905D01*
X113222809Y-83081905D02*
X113222809Y-83129524D01*
X113222809Y-83129524D02*
X113199000Y-83177143D01*
X113199000Y-83177143D02*
X113175190Y-83200952D01*
X113175190Y-83200952D02*
X113127571Y-83224762D01*
X113127571Y-83224762D02*
X113032333Y-83248571D01*
X113032333Y-83248571D02*
X112913285Y-83248571D01*
X112913285Y-83248571D02*
X112818047Y-83224762D01*
X112818047Y-83224762D02*
X112770428Y-83200952D01*
X112770428Y-83200952D02*
X112746619Y-83177143D01*
X112746619Y-83177143D02*
X112722809Y-83129524D01*
X112722809Y-76279380D02*
X112722809Y-75993666D01*
X113222809Y-76136523D02*
X112722809Y-76136523D01*
X112722809Y-75874619D02*
X113222809Y-75541286D01*
X112722809Y-75541286D02*
X113222809Y-75874619D01*
X113222809Y-75350810D02*
X112722809Y-75350810D01*
X112722809Y-75350810D02*
X112722809Y-75231762D01*
X112722809Y-75231762D02*
X112746619Y-75160334D01*
X112746619Y-75160334D02*
X112794238Y-75112715D01*
X112794238Y-75112715D02*
X112841857Y-75088905D01*
X112841857Y-75088905D02*
X112937095Y-75065096D01*
X112937095Y-75065096D02*
X113008523Y-75065096D01*
X113008523Y-75065096D02*
X113103761Y-75088905D01*
X113103761Y-75088905D02*
X113151380Y-75112715D01*
X113151380Y-75112715D02*
X113199000Y-75160334D01*
X113199000Y-75160334D02*
X113222809Y-75231762D01*
X113222809Y-75231762D02*
X113222809Y-75350810D01*
X112889476Y-80946666D02*
X113222809Y-80946666D01*
X112699000Y-81065714D02*
X113056142Y-81184761D01*
X113056142Y-81184761D02*
X113056142Y-80875238D01*
X113222809Y-80422857D02*
X113222809Y-80708571D01*
X113222809Y-80565714D02*
X112722809Y-80565714D01*
X112722809Y-80565714D02*
X112794238Y-80613333D01*
X112794238Y-80613333D02*
X112841857Y-80660952D01*
X112841857Y-80660952D02*
X112865666Y-80708571D01*
X113222809Y-73509238D02*
X112984714Y-73675904D01*
X113222809Y-73794952D02*
X112722809Y-73794952D01*
X112722809Y-73794952D02*
X112722809Y-73604476D01*
X112722809Y-73604476D02*
X112746619Y-73556857D01*
X112746619Y-73556857D02*
X112770428Y-73533047D01*
X112770428Y-73533047D02*
X112818047Y-73509238D01*
X112818047Y-73509238D02*
X112889476Y-73509238D01*
X112889476Y-73509238D02*
X112937095Y-73533047D01*
X112937095Y-73533047D02*
X112960904Y-73556857D01*
X112960904Y-73556857D02*
X112984714Y-73604476D01*
X112984714Y-73604476D02*
X112984714Y-73794952D01*
X112722809Y-73342571D02*
X113222809Y-73009238D01*
X112722809Y-73009238D02*
X113222809Y-73342571D01*
X113222809Y-72818762D02*
X112722809Y-72818762D01*
X112722809Y-72818762D02*
X112722809Y-72699714D01*
X112722809Y-72699714D02*
X112746619Y-72628286D01*
X112746619Y-72628286D02*
X112794238Y-72580667D01*
X112794238Y-72580667D02*
X112841857Y-72556857D01*
X112841857Y-72556857D02*
X112937095Y-72533048D01*
X112937095Y-72533048D02*
X113008523Y-72533048D01*
X113008523Y-72533048D02*
X113103761Y-72556857D01*
X113103761Y-72556857D02*
X113151380Y-72580667D01*
X113151380Y-72580667D02*
X113199000Y-72628286D01*
X113199000Y-72628286D02*
X113222809Y-72699714D01*
X113222809Y-72699714D02*
X113222809Y-72818762D01*
X112889476Y-70786666D02*
X113222809Y-70786666D01*
X112699000Y-70905714D02*
X113056142Y-71024761D01*
X113056142Y-71024761D02*
X113056142Y-70715238D01*
X112722809Y-70286667D02*
X112722809Y-70524762D01*
X112722809Y-70524762D02*
X112960904Y-70548571D01*
X112960904Y-70548571D02*
X112937095Y-70524762D01*
X112937095Y-70524762D02*
X112913285Y-70477143D01*
X112913285Y-70477143D02*
X112913285Y-70358095D01*
X112913285Y-70358095D02*
X112937095Y-70310476D01*
X112937095Y-70310476D02*
X112960904Y-70286667D01*
X112960904Y-70286667D02*
X113008523Y-70262857D01*
X113008523Y-70262857D02*
X113127571Y-70262857D01*
X113127571Y-70262857D02*
X113175190Y-70286667D01*
X113175190Y-70286667D02*
X113199000Y-70310476D01*
X113199000Y-70310476D02*
X113222809Y-70358095D01*
X113222809Y-70358095D02*
X113222809Y-70477143D01*
X113222809Y-70477143D02*
X113199000Y-70524762D01*
X113199000Y-70524762D02*
X113175190Y-70548571D01*
X112889476Y-68246666D02*
X113222809Y-68246666D01*
X112699000Y-68365714D02*
X113056142Y-68484761D01*
X113056142Y-68484761D02*
X113056142Y-68175238D01*
X112722809Y-67770476D02*
X112722809Y-67865714D01*
X112722809Y-67865714D02*
X112746619Y-67913333D01*
X112746619Y-67913333D02*
X112770428Y-67937143D01*
X112770428Y-67937143D02*
X112841857Y-67984762D01*
X112841857Y-67984762D02*
X112937095Y-68008571D01*
X112937095Y-68008571D02*
X113127571Y-68008571D01*
X113127571Y-68008571D02*
X113175190Y-67984762D01*
X113175190Y-67984762D02*
X113199000Y-67960952D01*
X113199000Y-67960952D02*
X113222809Y-67913333D01*
X113222809Y-67913333D02*
X113222809Y-67818095D01*
X113222809Y-67818095D02*
X113199000Y-67770476D01*
X113199000Y-67770476D02*
X113175190Y-67746667D01*
X113175190Y-67746667D02*
X113127571Y-67722857D01*
X113127571Y-67722857D02*
X113008523Y-67722857D01*
X113008523Y-67722857D02*
X112960904Y-67746667D01*
X112960904Y-67746667D02*
X112937095Y-67770476D01*
X112937095Y-67770476D02*
X112913285Y-67818095D01*
X112913285Y-67818095D02*
X112913285Y-67913333D01*
X112913285Y-67913333D02*
X112937095Y-67960952D01*
X112937095Y-67960952D02*
X112960904Y-67984762D01*
X112960904Y-67984762D02*
X113008523Y-68008571D01*
X112960904Y-65920952D02*
X112960904Y-65754285D01*
X113222809Y-65682857D02*
X113222809Y-65920952D01*
X113222809Y-65920952D02*
X112722809Y-65920952D01*
X112722809Y-65920952D02*
X112722809Y-65682857D01*
X113222809Y-65468571D02*
X112722809Y-65468571D01*
X112722809Y-65468571D02*
X113222809Y-65182857D01*
X113222809Y-65182857D02*
X112722809Y-65182857D01*
X112746619Y-63246047D02*
X112722809Y-63293666D01*
X112722809Y-63293666D02*
X112722809Y-63365095D01*
X112722809Y-63365095D02*
X112746619Y-63436523D01*
X112746619Y-63436523D02*
X112794238Y-63484142D01*
X112794238Y-63484142D02*
X112841857Y-63507952D01*
X112841857Y-63507952D02*
X112937095Y-63531761D01*
X112937095Y-63531761D02*
X113008523Y-63531761D01*
X113008523Y-63531761D02*
X113103761Y-63507952D01*
X113103761Y-63507952D02*
X113151380Y-63484142D01*
X113151380Y-63484142D02*
X113199000Y-63436523D01*
X113199000Y-63436523D02*
X113222809Y-63365095D01*
X113222809Y-63365095D02*
X113222809Y-63317476D01*
X113222809Y-63317476D02*
X113199000Y-63246047D01*
X113199000Y-63246047D02*
X113175190Y-63222238D01*
X113175190Y-63222238D02*
X113008523Y-63222238D01*
X113008523Y-63222238D02*
X113008523Y-63317476D01*
X113222809Y-63007952D02*
X112722809Y-63007952D01*
X112722809Y-63007952D02*
X113222809Y-62722238D01*
X113222809Y-62722238D02*
X112722809Y-62722238D01*
X113222809Y-62484142D02*
X112722809Y-62484142D01*
X112722809Y-62484142D02*
X112722809Y-62365094D01*
X112722809Y-62365094D02*
X112746619Y-62293666D01*
X112746619Y-62293666D02*
X112794238Y-62246047D01*
X112794238Y-62246047D02*
X112841857Y-62222237D01*
X112841857Y-62222237D02*
X112937095Y-62198428D01*
X112937095Y-62198428D02*
X113008523Y-62198428D01*
X113008523Y-62198428D02*
X113103761Y-62222237D01*
X113103761Y-62222237D02*
X113151380Y-62246047D01*
X113151380Y-62246047D02*
X113199000Y-62293666D01*
X113199000Y-62293666D02*
X113222809Y-62365094D01*
X113222809Y-62365094D02*
X113222809Y-62484142D01*
D11*
X82919809Y-113045904D02*
X82919809Y-112712571D01*
X83443619Y-112569714D02*
X83443619Y-113045904D01*
X83443619Y-113045904D02*
X82443619Y-113045904D01*
X82443619Y-113045904D02*
X82443619Y-112569714D01*
X83443619Y-112141142D02*
X82443619Y-112141142D01*
X82443619Y-112141142D02*
X83443619Y-111569714D01*
X83443619Y-111569714D02*
X82443619Y-111569714D01*
X106033809Y-113601571D02*
X106081428Y-113458714D01*
X106081428Y-113458714D02*
X106129047Y-113411095D01*
X106129047Y-113411095D02*
X106224285Y-113363476D01*
X106224285Y-113363476D02*
X106367142Y-113363476D01*
X106367142Y-113363476D02*
X106462380Y-113411095D01*
X106462380Y-113411095D02*
X106510000Y-113458714D01*
X106510000Y-113458714D02*
X106557619Y-113553952D01*
X106557619Y-113553952D02*
X106557619Y-113934904D01*
X106557619Y-113934904D02*
X105557619Y-113934904D01*
X105557619Y-113934904D02*
X105557619Y-113601571D01*
X105557619Y-113601571D02*
X105605238Y-113506333D01*
X105605238Y-113506333D02*
X105652857Y-113458714D01*
X105652857Y-113458714D02*
X105748095Y-113411095D01*
X105748095Y-113411095D02*
X105843333Y-113411095D01*
X105843333Y-113411095D02*
X105938571Y-113458714D01*
X105938571Y-113458714D02*
X105986190Y-113506333D01*
X105986190Y-113506333D02*
X106033809Y-113601571D01*
X106033809Y-113601571D02*
X106033809Y-113934904D01*
X105557619Y-112744428D02*
X105557619Y-112553952D01*
X105557619Y-112553952D02*
X105605238Y-112458714D01*
X105605238Y-112458714D02*
X105700476Y-112363476D01*
X105700476Y-112363476D02*
X105890952Y-112315857D01*
X105890952Y-112315857D02*
X106224285Y-112315857D01*
X106224285Y-112315857D02*
X106414761Y-112363476D01*
X106414761Y-112363476D02*
X106510000Y-112458714D01*
X106510000Y-112458714D02*
X106557619Y-112553952D01*
X106557619Y-112553952D02*
X106557619Y-112744428D01*
X106557619Y-112744428D02*
X106510000Y-112839666D01*
X106510000Y-112839666D02*
X106414761Y-112934904D01*
X106414761Y-112934904D02*
X106224285Y-112982523D01*
X106224285Y-112982523D02*
X105890952Y-112982523D01*
X105890952Y-112982523D02*
X105700476Y-112934904D01*
X105700476Y-112934904D02*
X105605238Y-112839666D01*
X105605238Y-112839666D02*
X105557619Y-112744428D01*
X105557619Y-111696809D02*
X105557619Y-111506333D01*
X105557619Y-111506333D02*
X105605238Y-111411095D01*
X105605238Y-111411095D02*
X105700476Y-111315857D01*
X105700476Y-111315857D02*
X105890952Y-111268238D01*
X105890952Y-111268238D02*
X106224285Y-111268238D01*
X106224285Y-111268238D02*
X106414761Y-111315857D01*
X106414761Y-111315857D02*
X106510000Y-111411095D01*
X106510000Y-111411095D02*
X106557619Y-111506333D01*
X106557619Y-111506333D02*
X106557619Y-111696809D01*
X106557619Y-111696809D02*
X106510000Y-111792047D01*
X106510000Y-111792047D02*
X106414761Y-111887285D01*
X106414761Y-111887285D02*
X106224285Y-111934904D01*
X106224285Y-111934904D02*
X105890952Y-111934904D01*
X105890952Y-111934904D02*
X105700476Y-111887285D01*
X105700476Y-111887285D02*
X105605238Y-111792047D01*
X105605238Y-111792047D02*
X105557619Y-111696809D01*
X105557619Y-110982523D02*
X105557619Y-110411095D01*
X106557619Y-110696809D02*
X105557619Y-110696809D01*
%TO.C,SW2*%
X104882000Y-110690000D02*
X104882000Y-113690000D01*
X102382000Y-110690000D02*
X102382000Y-113690000D01*
X104703000Y-114585000D02*
G75*
G03*
X104703000Y-114585000I-100000J0D01*
G01*
%TO.C,SW1*%
X86721000Y-110817000D02*
X86721000Y-113817000D01*
X84221000Y-110817000D02*
X84221000Y-113817000D01*
X86542000Y-114712000D02*
G75*
G03*
X86542000Y-114712000I-100000J0D01*
G01*
D12*
%TO.C,D3*%
X95465000Y-102945000D02*
X93765000Y-102945000D01*
X95465000Y-102945000D02*
X95465000Y-105605000D01*
X93765000Y-102945000D02*
X93765000Y-105605000D01*
%TO.C,U2*%
X83077000Y-101230000D02*
X83077000Y-95220000D01*
X89897000Y-98980000D02*
X89897000Y-95220000D01*
X83077000Y-95220000D02*
X84337000Y-95220000D01*
X89897000Y-95220000D02*
X88637000Y-95220000D01*
%TO.C,C11*%
X98192000Y-87328836D02*
X98192000Y-87113164D01*
X98912000Y-87328836D02*
X98912000Y-87113164D01*
%TO.C,R6*%
X97029000Y-89563641D02*
X97029000Y-89256359D01*
X97789000Y-89563641D02*
X97789000Y-89256359D01*
%TO.C,C1*%
X83714000Y-59261836D02*
X83714000Y-59046164D01*
X84434000Y-59261836D02*
X84434000Y-59046164D01*
%TO.C,C6*%
X85798252Y-103478000D02*
X85275748Y-103478000D01*
X85798252Y-102008000D02*
X85275748Y-102008000D01*
%TO.C,U3*%
X102650000Y-100631000D02*
X102650000Y-99906000D01*
X103375000Y-95411000D02*
X102650000Y-95411000D01*
X103375000Y-100631000D02*
X102650000Y-100631000D01*
X107145000Y-95411000D02*
X107870000Y-95411000D01*
X107145000Y-100631000D02*
X107870000Y-100631000D01*
X107870000Y-95411000D02*
X107870000Y-96136000D01*
X107870000Y-100631000D02*
X107870000Y-99906000D01*
%TO.C,C10*%
X92302000Y-103177748D02*
X92302000Y-103700252D01*
X90832000Y-103177748D02*
X90832000Y-103700252D01*
%TO.C,D1*%
X94342000Y-97268500D02*
X95812000Y-97268500D01*
X95812000Y-97268500D02*
X95812000Y-94983500D01*
X94342000Y-94983500D02*
X94342000Y-97268500D01*
D13*
%TO.C,J1*%
X90460000Y-113631600D02*
X90460000Y-115031600D01*
X90460000Y-117431600D02*
X90460000Y-117581600D01*
X90460000Y-117581600D02*
X90760000Y-117581600D01*
X90760000Y-117581600D02*
X90760000Y-118031600D01*
X92810000Y-111456600D02*
X92810000Y-111881600D01*
X92810000Y-111881600D02*
X91810000Y-111881600D01*
X93535000Y-111456600D02*
X92810000Y-111456600D01*
X96410000Y-111881600D02*
X97410000Y-111881600D01*
X98460000Y-117581600D02*
X98760000Y-117581600D01*
X98460000Y-118031600D02*
X98460000Y-117581600D01*
X98760000Y-115031600D02*
X98760000Y-113631600D01*
X98760000Y-117581600D02*
X98760000Y-117431600D01*
D12*
%TO.C,R3*%
X92635359Y-94489000D02*
X92942641Y-94489000D01*
X92635359Y-95249000D02*
X92942641Y-95249000D01*
%TO.C,R15*%
X106044000Y-92812359D02*
X106044000Y-93119641D01*
X105284000Y-92812359D02*
X105284000Y-93119641D01*
%TO.C,G\u002A\u002A\u002A*%
G36*
X105533554Y-85268992D02*
G01*
X105604593Y-85281020D01*
X105674253Y-85300765D01*
X105741830Y-85328252D01*
X105754438Y-85334382D01*
X105819859Y-85371579D01*
X105879776Y-85414924D01*
X105933948Y-85464104D01*
X105982132Y-85518806D01*
X106024087Y-85578715D01*
X106059570Y-85643519D01*
X106088339Y-85712902D01*
X106110152Y-85786553D01*
X106113063Y-85799083D01*
X106116250Y-85814324D01*
X106118629Y-85828669D01*
X106120314Y-85843740D01*
X106121417Y-85861156D01*
X106122053Y-85882536D01*
X106122334Y-85909501D01*
X106122380Y-85932416D01*
X106122280Y-85964217D01*
X106121903Y-85989338D01*
X106121133Y-86009433D01*
X106119852Y-86026154D01*
X106117945Y-86041153D01*
X106115296Y-86056084D01*
X106112837Y-86067833D01*
X106092893Y-86140636D01*
X106065715Y-86209934D01*
X106031608Y-86275216D01*
X105990878Y-86335971D01*
X105943831Y-86391688D01*
X105890771Y-86441855D01*
X105887565Y-86444543D01*
X105828292Y-86488887D01*
X105765544Y-86525966D01*
X105698772Y-86556042D01*
X105627429Y-86579379D01*
X105586569Y-86589324D01*
X105569935Y-86592668D01*
X105554281Y-86595124D01*
X105537826Y-86596820D01*
X105518791Y-86597887D01*
X105495396Y-86598454D01*
X105465860Y-86598649D01*
X105458000Y-86598655D01*
X105426799Y-86598527D01*
X105402137Y-86598057D01*
X105382222Y-86597115D01*
X105365263Y-86595570D01*
X105349468Y-86593292D01*
X105333046Y-86590150D01*
X105328834Y-86589258D01*
X105253805Y-86569148D01*
X105183275Y-86542053D01*
X105117364Y-86508055D01*
X105056193Y-86467236D01*
X104999883Y-86419678D01*
X104948555Y-86365466D01*
X104902329Y-86304680D01*
X104893716Y-86291756D01*
X104859612Y-86232105D01*
X104831808Y-86168005D01*
X104810615Y-86100746D01*
X104796346Y-86031619D01*
X104789314Y-85961918D01*
X104789829Y-85892933D01*
X104791774Y-85869916D01*
X104803708Y-85794716D01*
X104823404Y-85722544D01*
X104850865Y-85653396D01*
X104886093Y-85587267D01*
X104929090Y-85524155D01*
X104945587Y-85503250D01*
X104983773Y-85461408D01*
X105028315Y-85421001D01*
X105077238Y-85383701D01*
X105117818Y-85357452D01*
X105182336Y-85323714D01*
X105249701Y-85297540D01*
X105319210Y-85278955D01*
X105390158Y-85267985D01*
X105461841Y-85264656D01*
X105533554Y-85268992D01*
G37*
G36*
X105488385Y-87645390D02*
G01*
X105512142Y-87645655D01*
X105530977Y-87646299D01*
X105546595Y-87647464D01*
X105560701Y-87649291D01*
X105575002Y-87651921D01*
X105591201Y-87655497D01*
X105597256Y-87656908D01*
X105669442Y-87677265D01*
X105735921Y-87703263D01*
X105797495Y-87735343D01*
X105854969Y-87773946D01*
X105909145Y-87819510D01*
X105928851Y-87838558D01*
X105965292Y-87877254D01*
X105995939Y-87914985D01*
X106022583Y-87954242D01*
X106047015Y-87997515D01*
X106056198Y-88015750D01*
X106073279Y-88052147D01*
X106086691Y-88084623D01*
X106097476Y-88116129D01*
X106106676Y-88149617D01*
X106112806Y-88176166D01*
X106116115Y-88192424D01*
X106118576Y-88207616D01*
X106120311Y-88223440D01*
X106121444Y-88241594D01*
X106122098Y-88263777D01*
X106122396Y-88291687D01*
X106122451Y-88309500D01*
X106122394Y-88340941D01*
X106122039Y-88365768D01*
X106121261Y-88385698D01*
X106119941Y-88402449D01*
X106117955Y-88417737D01*
X106115182Y-88433281D01*
X106112854Y-88444547D01*
X106093035Y-88518007D01*
X106065988Y-88587554D01*
X106031985Y-88652836D01*
X105991300Y-88713496D01*
X105944207Y-88769181D01*
X105890977Y-88819536D01*
X105831884Y-88864206D01*
X105767202Y-88902837D01*
X105755050Y-88909090D01*
X105688162Y-88938136D01*
X105619062Y-88959412D01*
X105548439Y-88972959D01*
X105476983Y-88978819D01*
X105405382Y-88977035D01*
X105334325Y-88967649D01*
X105264501Y-88950701D01*
X105196600Y-88926234D01*
X105131311Y-88894290D01*
X105089250Y-88868645D01*
X105030663Y-88824997D01*
X104977348Y-88775398D01*
X104929794Y-88720532D01*
X104888487Y-88661084D01*
X104853915Y-88597738D01*
X104826567Y-88531178D01*
X104810572Y-88477508D01*
X104799455Y-88424299D01*
X104792119Y-88369858D01*
X104788760Y-88316568D01*
X104789574Y-88266810D01*
X104791458Y-88245289D01*
X104804054Y-88169436D01*
X104824059Y-88097357D01*
X104851438Y-88029121D01*
X104886158Y-87964798D01*
X104928186Y-87904458D01*
X104977489Y-87848171D01*
X104984842Y-87840746D01*
X105004859Y-87821508D01*
X105026272Y-87802081D01*
X105047011Y-87784269D01*
X105065007Y-87769879D01*
X105071656Y-87765003D01*
X105130336Y-87728424D01*
X105194463Y-87697201D01*
X105262634Y-87671940D01*
X105327190Y-87654602D01*
X105342715Y-87651416D01*
X105357553Y-87649048D01*
X105373363Y-87647379D01*
X105391804Y-87646293D01*
X105414536Y-87645673D01*
X105443217Y-87645402D01*
X105458000Y-87645363D01*
X105488385Y-87645390D01*
G37*
G36*
X108297351Y-83768752D02*
G01*
X108296736Y-83771941D01*
X108292601Y-83778039D01*
X108284420Y-83787684D01*
X108271664Y-83801516D01*
X108253807Y-83820175D01*
X108240659Y-83833714D01*
X108151152Y-83931157D01*
X108065309Y-84036007D01*
X107983179Y-84148164D01*
X107904810Y-84267525D01*
X107830251Y-84393991D01*
X107759549Y-84527461D01*
X107692752Y-84667833D01*
X107629910Y-84815007D01*
X107571069Y-84968882D01*
X107516280Y-85129357D01*
X107465589Y-85296332D01*
X107419045Y-85469705D01*
X107380919Y-85630333D01*
X107373298Y-85662894D01*
X107364093Y-85699805D01*
X107354206Y-85737579D01*
X107344544Y-85772725D01*
X107339334Y-85790750D01*
X107292216Y-85963345D01*
X107252665Y-86137495D01*
X107220520Y-86314027D01*
X107195624Y-86493770D01*
X107184317Y-86601166D01*
X107182206Y-86629239D01*
X107180425Y-86663842D01*
X107178980Y-86703638D01*
X107177876Y-86747290D01*
X107177119Y-86793460D01*
X107176716Y-86840811D01*
X107176671Y-86888005D01*
X107176991Y-86933706D01*
X107177681Y-86976577D01*
X107178748Y-87015279D01*
X107180196Y-87048476D01*
X107182033Y-87074831D01*
X107182254Y-87077208D01*
X107184617Y-87105306D01*
X107185631Y-87128831D01*
X107185299Y-87151431D01*
X107183620Y-87176756D01*
X107182254Y-87191791D01*
X107180351Y-87217666D01*
X107178851Y-87250527D01*
X107177747Y-87289036D01*
X107177035Y-87331856D01*
X107176707Y-87377649D01*
X107176756Y-87425078D01*
X107177177Y-87472805D01*
X107177964Y-87519494D01*
X107179109Y-87563805D01*
X107180607Y-87604403D01*
X107182451Y-87639949D01*
X107184518Y-87667833D01*
X107205207Y-87850961D01*
X107234184Y-88033286D01*
X107271453Y-88214829D01*
X107317017Y-88395609D01*
X107339448Y-88474083D01*
X107351518Y-88515010D01*
X107361678Y-88549943D01*
X107370461Y-88580851D01*
X107378400Y-88609708D01*
X107386029Y-88638486D01*
X107393880Y-88669155D01*
X107402485Y-88703688D01*
X107412080Y-88742833D01*
X107457287Y-88916263D01*
X107506831Y-89083701D01*
X107560641Y-89244997D01*
X107618648Y-89400004D01*
X107680781Y-89548572D01*
X107746971Y-89690552D01*
X107817148Y-89825796D01*
X107891241Y-89954155D01*
X107969181Y-90075479D01*
X108050899Y-90189620D01*
X108136323Y-90296429D01*
X108149237Y-90311560D01*
X108163992Y-90328260D01*
X108182906Y-90349007D01*
X108204255Y-90371947D01*
X108226315Y-90395227D01*
X108245108Y-90414685D01*
X108265367Y-90435580D01*
X108280229Y-90451307D01*
X108290240Y-90462540D01*
X108295948Y-90469950D01*
X108297898Y-90474211D01*
X108296639Y-90475995D01*
X108295108Y-90476169D01*
X108286098Y-90475250D01*
X108270056Y-90472642D01*
X108248060Y-90468576D01*
X108221189Y-90463280D01*
X108190519Y-90456985D01*
X108157128Y-90449921D01*
X108122095Y-90442317D01*
X108086498Y-90434403D01*
X108051413Y-90426408D01*
X108017919Y-90418564D01*
X107987094Y-90411098D01*
X107971199Y-90407118D01*
X107835208Y-90370090D01*
X107706924Y-90330046D01*
X107586274Y-90286949D01*
X107473182Y-90240763D01*
X107367574Y-90191450D01*
X107269375Y-90138974D01*
X107178511Y-90083297D01*
X107094906Y-90024384D01*
X107018487Y-89962196D01*
X106959807Y-89907416D01*
X106921225Y-89867748D01*
X106888091Y-89830754D01*
X106858887Y-89794537D01*
X106832095Y-89757197D01*
X106806196Y-89716835D01*
X106802286Y-89710389D01*
X106789561Y-89690323D01*
X106777242Y-89672786D01*
X106766566Y-89659455D01*
X106759598Y-89652597D01*
X106737788Y-89640618D01*
X106712608Y-89634174D01*
X106687613Y-89634167D01*
X106687159Y-89634235D01*
X106678915Y-89635637D01*
X106671577Y-89637448D01*
X106663923Y-89640298D01*
X106654726Y-89644817D01*
X106642761Y-89651634D01*
X106626803Y-89661379D01*
X106605628Y-89674681D01*
X106593417Y-89682409D01*
X106500086Y-89739662D01*
X106400261Y-89797421D01*
X106295664Y-89854787D01*
X106188014Y-89910857D01*
X106079032Y-89964731D01*
X105970438Y-90015506D01*
X105887167Y-90052357D01*
X105719943Y-90120872D01*
X105554882Y-90181347D01*
X105391987Y-90233783D01*
X105231259Y-90278178D01*
X105072703Y-90314533D01*
X104916319Y-90342846D01*
X104762111Y-90363116D01*
X104687167Y-90370127D01*
X104652614Y-90372342D01*
X104612391Y-90373948D01*
X104568036Y-90374958D01*
X104521085Y-90375388D01*
X104473077Y-90375252D01*
X104425548Y-90374563D01*
X104380035Y-90373335D01*
X104338076Y-90371584D01*
X104301206Y-90369323D01*
X104270964Y-90366566D01*
X104268342Y-90366261D01*
X104187735Y-90355644D01*
X104113672Y-90343662D01*
X104044423Y-90329930D01*
X103978256Y-90314064D01*
X103913441Y-90295679D01*
X103848246Y-90274390D01*
X103836404Y-90270243D01*
X103803082Y-90258335D01*
X103775423Y-90248089D01*
X103751169Y-90238577D01*
X103728063Y-90228869D01*
X103703847Y-90218037D01*
X103676263Y-90205153D01*
X103664214Y-90199423D01*
X103562080Y-90146097D01*
X103463119Y-90085133D01*
X103367454Y-90016649D01*
X103275212Y-89940762D01*
X103186517Y-89857590D01*
X103101492Y-89767252D01*
X103020264Y-89669864D01*
X102942957Y-89565546D01*
X102869695Y-89454414D01*
X102861257Y-89440750D01*
X102793606Y-89323867D01*
X102729822Y-89200150D01*
X102669891Y-89069546D01*
X102613800Y-88932008D01*
X102561536Y-88787484D01*
X102513084Y-88635925D01*
X102468432Y-88477281D01*
X102437541Y-88351968D01*
X104251481Y-88351968D01*
X104251804Y-88386939D01*
X104252652Y-88422546D01*
X104253982Y-88456886D01*
X104255753Y-88488055D01*
X104257924Y-88514148D01*
X104259680Y-88528505D01*
X104278063Y-88627026D01*
X104303338Y-88721059D01*
X104335667Y-88811037D01*
X104375214Y-88897391D01*
X104422141Y-88980552D01*
X104443698Y-89014042D01*
X104501893Y-89093916D01*
X104565688Y-89167707D01*
X104634814Y-89235247D01*
X104708999Y-89296368D01*
X104787972Y-89350899D01*
X104871463Y-89398673D01*
X104959201Y-89439521D01*
X105050915Y-89473273D01*
X105146335Y-89499761D01*
X105245190Y-89518817D01*
X105255917Y-89520403D01*
X105281417Y-89523217D01*
X105313011Y-89525385D01*
X105348798Y-89526894D01*
X105386878Y-89527727D01*
X105425351Y-89527872D01*
X105462314Y-89527313D01*
X105495869Y-89526036D01*
X105524114Y-89524027D01*
X105537167Y-89522540D01*
X105632935Y-89505980D01*
X105724845Y-89483145D01*
X105812094Y-89454263D01*
X105882029Y-89425110D01*
X105969869Y-89380197D01*
X106052643Y-89328817D01*
X106130107Y-89271303D01*
X106202011Y-89207985D01*
X106268112Y-89139196D01*
X106328161Y-89065267D01*
X106381912Y-88986532D01*
X106429118Y-88903321D01*
X106469534Y-88815967D01*
X106502912Y-88724801D01*
X106529006Y-88630156D01*
X106547570Y-88532363D01*
X106548173Y-88528250D01*
X106551063Y-88502176D01*
X106553282Y-88469741D01*
X106554814Y-88432888D01*
X106555644Y-88393562D01*
X106555757Y-88353710D01*
X106555140Y-88315275D01*
X106553776Y-88280203D01*
X106551653Y-88250438D01*
X106550366Y-88238666D01*
X106533887Y-88141287D01*
X106509426Y-88046118D01*
X106477126Y-87953507D01*
X106437127Y-87863800D01*
X106389571Y-87777344D01*
X106334599Y-87694486D01*
X106321666Y-87676964D01*
X106299637Y-87649448D01*
X106272639Y-87618544D01*
X106242316Y-87585931D01*
X106210315Y-87553291D01*
X106178281Y-87522303D01*
X106147859Y-87494648D01*
X106121721Y-87472811D01*
X106040983Y-87414276D01*
X105957031Y-87363423D01*
X105869780Y-87320214D01*
X105779144Y-87284612D01*
X105685037Y-87256578D01*
X105587374Y-87236077D01*
X105572584Y-87233676D01*
X105536323Y-87229246D01*
X105493939Y-87226116D01*
X105447539Y-87224288D01*
X105399231Y-87223761D01*
X105351123Y-87224535D01*
X105305323Y-87226610D01*
X105263937Y-87229985D01*
X105235084Y-87233676D01*
X105136684Y-87253069D01*
X105042077Y-87279879D01*
X104951287Y-87314095D01*
X104864338Y-87355702D01*
X104781256Y-87404690D01*
X104702064Y-87461046D01*
X104626786Y-87524758D01*
X104588828Y-87561160D01*
X104521571Y-87634135D01*
X104461488Y-87711317D01*
X104408652Y-87792547D01*
X104363140Y-87877667D01*
X104325025Y-87966517D01*
X104294384Y-88058940D01*
X104271291Y-88154776D01*
X104255821Y-88253865D01*
X104254068Y-88269916D01*
X104252572Y-88291553D01*
X104251723Y-88319538D01*
X104251481Y-88351968D01*
X102437541Y-88351968D01*
X102427566Y-88311502D01*
X102390474Y-88138538D01*
X102357140Y-87958340D01*
X102327552Y-87770858D01*
X102301697Y-87576041D01*
X102279562Y-87373841D01*
X102266345Y-87228755D01*
X102263551Y-87195031D01*
X102261455Y-87168117D01*
X102260026Y-87146524D01*
X102259228Y-87128762D01*
X102259140Y-87122000D01*
X104095713Y-87122000D01*
X104099276Y-87124332D01*
X104109478Y-87130234D01*
X104125620Y-87139319D01*
X104147008Y-87151202D01*
X104172942Y-87165498D01*
X104202726Y-87181821D01*
X104235664Y-87199787D01*
X104271057Y-87219009D01*
X104277927Y-87222731D01*
X104314917Y-87242759D01*
X104350592Y-87262067D01*
X104384100Y-87280194D01*
X104414587Y-87296679D01*
X104441199Y-87311060D01*
X104463083Y-87322876D01*
X104479385Y-87331666D01*
X104489251Y-87336967D01*
X104489527Y-87337115D01*
X104518971Y-87352849D01*
X104564527Y-87317275D01*
X104596942Y-87292317D01*
X104625167Y-87271450D01*
X104651251Y-87253236D01*
X104677243Y-87236241D01*
X104701750Y-87221103D01*
X104728193Y-87205625D01*
X104757748Y-87189157D01*
X104788327Y-87172797D01*
X104817840Y-87157643D01*
X104844198Y-87144793D01*
X104863209Y-87136227D01*
X104876832Y-87130157D01*
X104886822Y-87125135D01*
X104891264Y-87122135D01*
X104891334Y-87121937D01*
X104887781Y-87119344D01*
X104878230Y-87114313D01*
X104864344Y-87107688D01*
X104854875Y-87103411D01*
X104785236Y-87069718D01*
X104714913Y-87030341D01*
X104646616Y-86986931D01*
X104583049Y-86941139D01*
X104563577Y-86925790D01*
X104549358Y-86914468D01*
X104536765Y-86904727D01*
X104527788Y-86898091D01*
X104525549Y-86896583D01*
X104523132Y-86895851D01*
X104519286Y-86896201D01*
X104513447Y-86897915D01*
X104505055Y-86901271D01*
X104493546Y-86906550D01*
X104478357Y-86914033D01*
X104458927Y-86924000D01*
X104434693Y-86936730D01*
X104405093Y-86952504D01*
X104369563Y-86971601D01*
X104327543Y-86994304D01*
X104306508Y-87005693D01*
X104267945Y-87026619D01*
X104231661Y-87046378D01*
X104198303Y-87064612D01*
X104168518Y-87080964D01*
X104142954Y-87095078D01*
X104122258Y-87106595D01*
X104107076Y-87115160D01*
X104098057Y-87120415D01*
X104095713Y-87122000D01*
X102259140Y-87122000D01*
X102259028Y-87113341D01*
X102259393Y-87098770D01*
X102260287Y-87083561D01*
X102261677Y-87066221D01*
X102262448Y-87057416D01*
X102264179Y-87037796D01*
X102266338Y-87013219D01*
X102268630Y-86987030D01*
X102270487Y-86965750D01*
X102290601Y-86760368D01*
X102314542Y-86562325D01*
X102342327Y-86371546D01*
X102373974Y-86187957D01*
X102409502Y-86011485D01*
X102448338Y-85844591D01*
X104251428Y-85844591D01*
X104251798Y-85879320D01*
X104252687Y-85914763D01*
X104254050Y-85949023D01*
X104255845Y-85980203D01*
X104258026Y-86006405D01*
X104259847Y-86021366D01*
X104278160Y-86118579D01*
X104303749Y-86213017D01*
X104336378Y-86304019D01*
X104375810Y-86390922D01*
X104421807Y-86473067D01*
X104422114Y-86473563D01*
X104477362Y-86555002D01*
X104523132Y-86611637D01*
X104538621Y-86630803D01*
X104605553Y-86700724D01*
X104677820Y-86764525D01*
X104755083Y-86821964D01*
X104837003Y-86872799D01*
X104923244Y-86916790D01*
X105013465Y-86953695D01*
X105107329Y-86983272D01*
X105152848Y-86994629D01*
X105189171Y-87002496D01*
X105222487Y-87008609D01*
X105254733Y-87013161D01*
X105287846Y-87016345D01*
X105323761Y-87018353D01*
X105364416Y-87019378D01*
X105399231Y-87019592D01*
X105403834Y-87019620D01*
X105443835Y-87019426D01*
X105477001Y-87018796D01*
X105504822Y-87017660D01*
X105528787Y-87015948D01*
X105550386Y-87013589D01*
X105560084Y-87012246D01*
X105657989Y-86993761D01*
X105752875Y-86967713D01*
X105844399Y-86934276D01*
X105932216Y-86893626D01*
X106015984Y-86845936D01*
X106095358Y-86791383D01*
X106169994Y-86730140D01*
X106231443Y-86670892D01*
X106297782Y-86596170D01*
X106356773Y-86517523D01*
X106408384Y-86435015D01*
X106452585Y-86348707D01*
X106489343Y-86258665D01*
X106518628Y-86164952D01*
X106540408Y-86067631D01*
X106546073Y-86033898D01*
X106550215Y-85999864D01*
X106553259Y-85959934D01*
X106555190Y-85916168D01*
X106555994Y-85870625D01*
X106555657Y-85825366D01*
X106554165Y-85782451D01*
X106551504Y-85743940D01*
X106548245Y-85715750D01*
X106529708Y-85616750D01*
X106503641Y-85521120D01*
X106470210Y-85429123D01*
X106429581Y-85341020D01*
X106381919Y-85257075D01*
X106327390Y-85177551D01*
X106266160Y-85102711D01*
X106198394Y-85032817D01*
X106124259Y-84968133D01*
X106043920Y-84908921D01*
X106036325Y-84903825D01*
X105967279Y-84861829D01*
X105892828Y-84823815D01*
X105815053Y-84790653D01*
X105736038Y-84763216D01*
X105657863Y-84742374D01*
X105642816Y-84739137D01*
X105605432Y-84731748D01*
X105572449Y-84726076D01*
X105541700Y-84721912D01*
X105511018Y-84719048D01*
X105478236Y-84717276D01*
X105441186Y-84716388D01*
X105403834Y-84716171D01*
X105352029Y-84716779D01*
X105306130Y-84718789D01*
X105263787Y-84722458D01*
X105222652Y-84728040D01*
X105180377Y-84735792D01*
X105138926Y-84744947D01*
X105046088Y-84770997D01*
X104956305Y-84804622D01*
X104869987Y-84845496D01*
X104787539Y-84893294D01*
X104709370Y-84947688D01*
X104635887Y-85008353D01*
X104567497Y-85074963D01*
X104504607Y-85147192D01*
X104447625Y-85224715D01*
X104396958Y-85307204D01*
X104368460Y-85361583D01*
X104329325Y-85450015D01*
X104298019Y-85540133D01*
X104274304Y-85632766D01*
X104257944Y-85728743D01*
X104253872Y-85763666D01*
X104252421Y-85784867D01*
X104251621Y-85812474D01*
X104251428Y-85844591D01*
X102448338Y-85844591D01*
X102448928Y-85842056D01*
X102492269Y-85679594D01*
X102539545Y-85524028D01*
X102590772Y-85375283D01*
X102645970Y-85233284D01*
X102705155Y-85097958D01*
X102741777Y-85021568D01*
X102806983Y-84897244D01*
X102875638Y-84780403D01*
X102947865Y-84670883D01*
X103023785Y-84568525D01*
X103103524Y-84473171D01*
X103187203Y-84384660D01*
X103274945Y-84302832D01*
X103334286Y-84253095D01*
X103427328Y-84183138D01*
X103523249Y-84120462D01*
X103622370Y-84064943D01*
X103725009Y-84016457D01*
X103831487Y-83974883D01*
X103942124Y-83940097D01*
X104057239Y-83911975D01*
X104177152Y-83890395D01*
X104302182Y-83875233D01*
X104318865Y-83873724D01*
X104371801Y-83870250D01*
X104431099Y-83868350D01*
X104494947Y-83867972D01*
X104561535Y-83869063D01*
X104629050Y-83871572D01*
X104695683Y-83875446D01*
X104759620Y-83880635D01*
X104819052Y-83887085D01*
X104828834Y-83888337D01*
X104965893Y-83909176D01*
X105103168Y-83935822D01*
X105241414Y-83968484D01*
X105381390Y-84007366D01*
X105403834Y-84014504D01*
X105523851Y-84052674D01*
X105669555Y-84104614D01*
X105776750Y-84146176D01*
X105868642Y-84184237D01*
X105963313Y-84225879D01*
X106059425Y-84270419D01*
X106155641Y-84317176D01*
X106250622Y-84365466D01*
X106343030Y-84414607D01*
X106431528Y-84463918D01*
X106514777Y-84512716D01*
X106591440Y-84560319D01*
X106600833Y-84566371D01*
X106618468Y-84577644D01*
X106634878Y-84587881D01*
X106648031Y-84595830D01*
X106654999Y-84599781D01*
X106679901Y-84608437D01*
X106706642Y-84610186D01*
X106732917Y-84605215D01*
X106756420Y-84593707D01*
X106759598Y-84591402D01*
X106767846Y-84583074D01*
X106778812Y-84569087D01*
X106791256Y-84551118D01*
X106802286Y-84533610D01*
X106847346Y-84465921D01*
X106899867Y-84399706D01*
X106958995Y-84335871D01*
X107023876Y-84275322D01*
X107093656Y-84218965D01*
X107110084Y-84206854D01*
X107196700Y-84148390D01*
X107290950Y-84092951D01*
X107392676Y-84040607D01*
X107501721Y-83991425D01*
X107617928Y-83945471D01*
X107741140Y-83902814D01*
X107871200Y-83863521D01*
X107972341Y-83836503D01*
X108000964Y-83829433D01*
X108032888Y-83821844D01*
X108067036Y-83813968D01*
X108102327Y-83806033D01*
X108137684Y-83798269D01*
X108172026Y-83790906D01*
X108204276Y-83784173D01*
X108233353Y-83778300D01*
X108258179Y-83773517D01*
X108277674Y-83770054D01*
X108290760Y-83768140D01*
X108294974Y-83767830D01*
X108297351Y-83768752D01*
G37*
%TO.C,D2*%
X95332000Y-101366000D02*
X96632000Y-101366000D01*
X96632000Y-98246000D02*
X94632000Y-98246000D01*
%TO.C,C4*%
X89429000Y-103894836D02*
X89429000Y-103679164D01*
X90149000Y-103894836D02*
X90149000Y-103679164D01*
%TO.C,Q1*%
X86281500Y-88163000D02*
X84606500Y-88163000D01*
X86281500Y-88163000D02*
X86931500Y-88163000D01*
X86281500Y-91283000D02*
X85631500Y-91283000D01*
X86281500Y-91283000D02*
X86931500Y-91283000D01*
%TO.C,R9*%
X102236000Y-103736641D02*
X102236000Y-103429359D01*
X102996000Y-103736641D02*
X102996000Y-103429359D01*
%TO.C,C7*%
X92655164Y-96160000D02*
X92870836Y-96160000D01*
X92655164Y-96880000D02*
X92870836Y-96880000D01*
%TO.C,R1*%
X105815641Y-60197000D02*
X105508359Y-60197000D01*
X105815641Y-59437000D02*
X105508359Y-59437000D01*
%TO.C,R14*%
X104774000Y-92812359D02*
X104774000Y-93119641D01*
X104014000Y-92812359D02*
X104014000Y-93119641D01*
%TO.C,R8*%
X106127000Y-103738641D02*
X106127000Y-103431359D01*
X106887000Y-103738641D02*
X106887000Y-103431359D01*
%TO.C,R17*%
X97253359Y-96394000D02*
X97560641Y-96394000D01*
X97253359Y-97154000D02*
X97560641Y-97154000D01*
%TO.C,R10*%
X104347000Y-103429359D02*
X104347000Y-103736641D01*
X103587000Y-103429359D02*
X103587000Y-103736641D01*
%TO.C,U1*%
X85567000Y-50642000D02*
X103822000Y-50642000D01*
X85572000Y-81532000D02*
X85572000Y-81892000D01*
X85572000Y-81892000D02*
X87232000Y-81892000D01*
X85582000Y-57722000D02*
X85192000Y-57722000D01*
X85582000Y-57722000D02*
X85567000Y-50642000D01*
X103812000Y-81632000D02*
X103812000Y-81892000D01*
X103812000Y-81892000D02*
X102152000Y-81892000D01*
X103822000Y-57062000D02*
X103822000Y-50642000D01*
%TO.C,C9*%
X103425164Y-105382000D02*
X103640836Y-105382000D01*
X103425164Y-106102000D02*
X103640836Y-106102000D01*
%TO.C,C5*%
X90832000Y-100073052D02*
X90832000Y-99550548D01*
X92302000Y-100073052D02*
X92302000Y-99550548D01*
%TO.C,Q2*%
X93774500Y-91349000D02*
X95449500Y-91349000D01*
X93774500Y-91349000D02*
X93124500Y-91349000D01*
X93774500Y-88229000D02*
X94424500Y-88229000D01*
X93774500Y-88229000D02*
X93124500Y-88229000D01*
%TO.C,C13*%
X98804000Y-95911580D02*
X98804000Y-95630420D01*
X99824000Y-95911580D02*
X99824000Y-95630420D01*
%TO.C,R13*%
X108157000Y-103431359D02*
X108157000Y-103738641D01*
X107397000Y-103431359D02*
X107397000Y-103738641D01*
%TO.C,R12*%
X90425000Y-89940641D02*
X90425000Y-89633359D01*
X91185000Y-89940641D02*
X91185000Y-89633359D01*
%TO.C,J3*%
X109668000Y-64262000D02*
X109668000Y-112582000D01*
X109668000Y-64262000D02*
X112328000Y-64262000D01*
X109668000Y-112582000D02*
X112328000Y-112582000D01*
X110998000Y-61662000D02*
X112328000Y-61662000D01*
X112328000Y-61662000D02*
X112328000Y-62992000D01*
X112328000Y-64262000D02*
X112328000Y-112582000D01*
%TO.C,R11*%
X88901000Y-89938641D02*
X88901000Y-89631359D01*
X89661000Y-89938641D02*
X89661000Y-89631359D01*
%TO.C,C12*%
X97049000Y-87308036D02*
X97049000Y-87092364D01*
X97769000Y-87308036D02*
X97769000Y-87092364D01*
%TO.C,C2*%
X81180000Y-59758252D02*
X81180000Y-59235748D01*
X82650000Y-59758252D02*
X82650000Y-59235748D01*
%TO.C,R16*%
X97251359Y-94489000D02*
X97558641Y-94489000D01*
X97251359Y-95249000D02*
X97558641Y-95249000D01*
%TO.C,C15*%
X105643000Y-103496164D02*
X105643000Y-103711836D01*
X104923000Y-103496164D02*
X104923000Y-103711836D01*
%TO.C,J4*%
X76648000Y-64262000D02*
X76648000Y-112582000D01*
X76648000Y-64262000D02*
X79308000Y-64262000D01*
X76648000Y-112582000D02*
X79308000Y-112582000D01*
X77978000Y-61662000D02*
X79308000Y-61662000D01*
X79308000Y-61662000D02*
X79308000Y-62992000D01*
X79308000Y-64262000D02*
X79308000Y-112582000D01*
%TO.C,R5*%
X98172000Y-89563641D02*
X98172000Y-89256359D01*
X98932000Y-89563641D02*
X98932000Y-89256359D01*
%TO.C,C14*%
X100859000Y-95329836D02*
X100859000Y-95114164D01*
X101579000Y-95329836D02*
X101579000Y-95114164D01*
%TO.C,R2*%
X92808359Y-83440000D02*
X93115641Y-83440000D01*
X92808359Y-84200000D02*
X93115641Y-84200000D01*
%TO.C,C8*%
X88879000Y-103679164D02*
X88879000Y-103894836D01*
X88159000Y-103679164D02*
X88159000Y-103894836D01*
%TO.C,C3*%
X105799836Y-58780000D02*
X105584164Y-58780000D01*
X105799836Y-58060000D02*
X105584164Y-58060000D01*
%TD*%
M02*
