%TF.GenerationSoftware,KiCad,Pcbnew,7.0.2*%
%TF.CreationDate,2023-06-11T17:42:06-04:00*%
%TF.ProjectId,SoftProject,536f6674-5072-46f6-9a65-63742e6b6963,rev?*%
%TF.SameCoordinates,Original*%
%TF.FileFunction,Copper,L2,Inr*%
%TF.FilePolarity,Positive*%
%FSLAX46Y46*%
G04 Gerber Fmt 4.6, Leading zero omitted, Abs format (unit mm)*
G04 Created by KiCad (PCBNEW 7.0.2) date 2023-06-11 17:42:06*
%MOMM*%
%LPD*%
G01*
G04 APERTURE LIST*
%TA.AperFunction,ComponentPad*%
%ADD10O,1.150000X1.800000*%
%TD*%
%TA.AperFunction,ComponentPad*%
%ADD11O,1.450000X2.000000*%
%TD*%
%TA.AperFunction,ComponentPad*%
%ADD12R,1.700000X1.700000*%
%TD*%
%TA.AperFunction,ComponentPad*%
%ADD13O,1.700000X1.700000*%
%TD*%
%TA.AperFunction,ViaPad*%
%ADD14C,0.800000*%
%TD*%
G04 APERTURE END LIST*
D10*
%TO.N,unconnected-(J1-Shield-Pad6)*%
%TO.C,J1*%
X90735000Y-116231600D03*
D11*
X90885000Y-112431600D03*
X98335000Y-112431600D03*
D10*
X98485000Y-116231600D03*
%TD*%
D12*
%TO.N,GND*%
%TO.C,J3*%
X110998000Y-62992000D03*
D13*
%TO.N,/CHIP_PU*%
X110998000Y-65532000D03*
%TO.N,/GPIO46*%
X110998000Y-68072000D03*
%TO.N,/GPIO45*%
X110998000Y-70612000D03*
%TO.N,/RXD*%
X110998000Y-73152000D03*
%TO.N,/TXD*%
X110998000Y-75692000D03*
%TO.N,/GPIO42*%
X110998000Y-78232000D03*
%TO.N,/GPIO41*%
X110998000Y-80772000D03*
%TO.N,/GPIO40*%
X110998000Y-83312000D03*
%TO.N,/GPIO39*%
X110998000Y-85852000D03*
%TO.N,/GPIO38*%
X110998000Y-88392000D03*
%TO.N,/GPIO37*%
X110998000Y-90932000D03*
%TO.N,/GPIO36*%
X110998000Y-93472000D03*
%TO.N,/GPIO35*%
X110998000Y-96012000D03*
%TO.N,/GPIO34*%
X110998000Y-98552000D03*
%TO.N,/GPIO33*%
X110998000Y-101092000D03*
%TO.N,/GPIO26*%
X110998000Y-103632000D03*
%TO.N,/GPIO21*%
X110998000Y-106172000D03*
%TO.N,GND*%
X110998000Y-108712000D03*
X110998000Y-111252000D03*
%TD*%
D12*
%TO.N,+3.3V*%
%TO.C,J4*%
X77978000Y-62992000D03*
D13*
%TO.N,/GPIO0*%
X77978000Y-65532000D03*
%TO.N,/GPIO1*%
X77978000Y-68072000D03*
%TO.N,/GPIO2*%
X77978000Y-70612000D03*
%TO.N,/GPIO3*%
X77978000Y-73152000D03*
%TO.N,/GPIO4*%
X77978000Y-75692000D03*
%TO.N,/GPIO5*%
X77978000Y-78232000D03*
%TO.N,/GPIO6*%
X77978000Y-80772000D03*
%TO.N,/GPIO7*%
X77978000Y-83312000D03*
%TO.N,/GPIO8*%
X77978000Y-85852000D03*
%TO.N,/GPIO9*%
X77978000Y-88392000D03*
%TO.N,/GPIO10*%
X77978000Y-90932000D03*
%TO.N,/GPIO11*%
X77978000Y-93472000D03*
%TO.N,/GPIO12*%
X77978000Y-96012000D03*
%TO.N,/GPIO13*%
X77978000Y-98552000D03*
%TO.N,/GPIO14*%
X77978000Y-101092000D03*
%TO.N,/GPIO15*%
X77978000Y-103632000D03*
%TO.N,/GPIO16*%
X77978000Y-106172000D03*
%TO.N,/GPIO17*%
X77978000Y-108712000D03*
%TO.N,+5V*%
X77978000Y-111252000D03*
%TD*%
D14*
%TO.N,GND*%
X101600000Y-58420000D03*
X96266000Y-65278000D03*
X98044000Y-110617000D03*
X104521000Y-98679000D03*
X94488000Y-63500000D03*
X92456000Y-69342000D03*
X88544400Y-102463600D03*
X91059000Y-97663000D03*
X85471000Y-115189000D03*
X92075000Y-97663000D03*
X97155000Y-109728000D03*
X97155000Y-110617000D03*
X105283000Y-105283000D03*
X101943701Y-94779299D03*
X90678000Y-67310000D03*
X104521000Y-97282000D03*
X93980000Y-97663000D03*
X90678000Y-65278000D03*
X89814400Y-102463600D03*
X102235000Y-105791000D03*
X80264000Y-58420000D03*
X98044000Y-109728000D03*
X106045000Y-97282000D03*
X82677000Y-100838000D03*
X106045000Y-98679000D03*
X99314000Y-94138500D03*
X96266000Y-67310000D03*
X92456000Y-63500000D03*
X91567000Y-105664000D03*
X97409000Y-85852000D03*
X94488000Y-69342000D03*
X84455000Y-104140000D03*
X98552000Y-85852000D03*
X94996000Y-97663000D03*
X101442000Y-80264000D03*
X103632000Y-115062000D03*
X107848400Y-105308400D03*
X93853000Y-99060000D03*
X82677000Y-99695000D03*
%TO.N,/D-*%
X100488750Y-99091750D03*
X97536000Y-92202000D03*
X99262232Y-98292550D03*
%TO.N,/D+*%
X100330000Y-98021000D03*
X99314000Y-91821000D03*
%TO.N,VBUS*%
X97028000Y-106934000D03*
X95057500Y-107188000D03*
X99949000Y-100599464D03*
X98184378Y-98819378D03*
%TO.N,/RTS*%
X103490640Y-93187866D03*
X105984500Y-94488000D03*
%TO.N,/IO0_Auto*%
X94742000Y-92202000D03*
X96774000Y-95788500D03*
%TO.N,/DTR*%
X91440000Y-88114500D03*
X91680497Y-89911589D03*
%TO.N,+3.3V*%
X86106000Y-104140000D03*
X91440000Y-96520000D03*
X106527600Y-105308400D03*
X98736206Y-97442667D03*
X86995000Y-104140000D03*
X87236970Y-92177196D03*
X85598000Y-92202000D03*
X101219000Y-97321500D03*
X91440000Y-94869000D03*
X86487000Y-98552000D03*
X91567000Y-83820000D03*
X107188000Y-59690000D03*
X80264000Y-60452000D03*
%TO.N,/GPIO0*%
X96266000Y-97663000D03*
X89916000Y-105283000D03*
%TO.N,/GPIO21*%
X107048506Y-93471113D03*
X107585497Y-101854000D03*
%TO.N,/GPIO26*%
X108045500Y-93541893D03*
X108585000Y-101854000D03*
%TO.N,/TXD*%
X102108000Y-84328000D03*
X100838000Y-67310000D03*
%TO.N,/RXD*%
X99822000Y-67310000D03*
X100838000Y-84328000D03*
%TO.N,/CHIP_PU*%
X98314497Y-94138500D03*
X101092000Y-104942500D03*
X101600000Y-59817000D03*
%TD*%
%TA.AperFunction,Conductor*%
%TO.N,GND*%
G36*
X111248000Y-110816498D02*
G01*
X111140315Y-110767320D01*
X111033763Y-110752000D01*
X110962237Y-110752000D01*
X110855685Y-110767320D01*
X110747999Y-110816498D01*
X110747999Y-109147501D01*
X110855685Y-109196680D01*
X110962237Y-109212000D01*
X111033763Y-109212000D01*
X111140315Y-109196680D01*
X111248000Y-109147501D01*
X111248000Y-110816498D01*
G37*
%TD.AperFunction*%
%TA.AperFunction,Conductor*%
G36*
X113480539Y-57088685D02*
G01*
X113526294Y-57141489D01*
X113537500Y-57193000D01*
X113537500Y-115820519D01*
X113537305Y-115827472D01*
X113531012Y-115939524D01*
X113520801Y-116108330D01*
X113519275Y-116121613D01*
X113496723Y-116254343D01*
X113469995Y-116400195D01*
X113467182Y-116412163D01*
X113428983Y-116544752D01*
X113428214Y-116547314D01*
X113385580Y-116684132D01*
X113381756Y-116694695D01*
X113328317Y-116823707D01*
X113326832Y-116827145D01*
X113268712Y-116956282D01*
X113264164Y-116965372D01*
X113196207Y-117088331D01*
X113193796Y-117092500D01*
X113120958Y-117212988D01*
X113115971Y-117220592D01*
X113034423Y-117335525D01*
X113030904Y-117340244D01*
X112944326Y-117450752D01*
X112939175Y-117456906D01*
X112845139Y-117562133D01*
X112840360Y-117567187D01*
X112741187Y-117666360D01*
X112736133Y-117671139D01*
X112630906Y-117765175D01*
X112624752Y-117770326D01*
X112514244Y-117856904D01*
X112509525Y-117860423D01*
X112394592Y-117941971D01*
X112386988Y-117946958D01*
X112266500Y-118019796D01*
X112262331Y-118022207D01*
X112139372Y-118090164D01*
X112130282Y-118094712D01*
X112001145Y-118152832D01*
X111997707Y-118154317D01*
X111868695Y-118207756D01*
X111858132Y-118211580D01*
X111721314Y-118254214D01*
X111718752Y-118254983D01*
X111586167Y-118293180D01*
X111574191Y-118295995D01*
X111428344Y-118322723D01*
X111295608Y-118345276D01*
X111282335Y-118346800D01*
X111113525Y-118357012D01*
X111001472Y-118363305D01*
X110994520Y-118363500D01*
X77981481Y-118363500D01*
X77974528Y-118363305D01*
X77862475Y-118357012D01*
X77693668Y-118346801D01*
X77680385Y-118345275D01*
X77547656Y-118322723D01*
X77420694Y-118299456D01*
X77401800Y-118295994D01*
X77389837Y-118293182D01*
X77372400Y-118288159D01*
X77257246Y-118254983D01*
X77254684Y-118254214D01*
X77117866Y-118211580D01*
X77107303Y-118207756D01*
X76978291Y-118154317D01*
X76974873Y-118152841D01*
X76845713Y-118094710D01*
X76836626Y-118090164D01*
X76713667Y-118022207D01*
X76709498Y-118019796D01*
X76589010Y-117946958D01*
X76581406Y-117941971D01*
X76466473Y-117860423D01*
X76461754Y-117856904D01*
X76351246Y-117770326D01*
X76345092Y-117765175D01*
X76239865Y-117671139D01*
X76234811Y-117666360D01*
X76135638Y-117567187D01*
X76130859Y-117562133D01*
X76036823Y-117456906D01*
X76031672Y-117450752D01*
X75970841Y-117373107D01*
X75945078Y-117340223D01*
X75941575Y-117335525D01*
X75860027Y-117220592D01*
X75855040Y-117212988D01*
X75782202Y-117092500D01*
X75779791Y-117088331D01*
X75761272Y-117054824D01*
X75711832Y-116965369D01*
X75707298Y-116956306D01*
X75649130Y-116827063D01*
X75647693Y-116823736D01*
X75594237Y-116694682D01*
X75590423Y-116684146D01*
X75547773Y-116547279D01*
X75547015Y-116544752D01*
X75542307Y-116528409D01*
X75508814Y-116412153D01*
X75506006Y-116400205D01*
X75479288Y-116254416D01*
X75456721Y-116121599D01*
X75455199Y-116108345D01*
X75444992Y-115939603D01*
X75438695Y-115827472D01*
X75438598Y-115824000D01*
X76622340Y-115824000D01*
X76642936Y-116059407D01*
X76694064Y-116250220D01*
X76704097Y-116287663D01*
X76803965Y-116501829D01*
X76939505Y-116695401D01*
X77106599Y-116862495D01*
X77300171Y-116998035D01*
X77514337Y-117097903D01*
X77742592Y-117159063D01*
X77919034Y-117174500D01*
X77921742Y-117174500D01*
X78034258Y-117174500D01*
X78036966Y-117174500D01*
X78213408Y-117159063D01*
X78441663Y-117097903D01*
X78655829Y-116998035D01*
X78849401Y-116862495D01*
X79016495Y-116695401D01*
X79077812Y-116607832D01*
X89659500Y-116607832D01*
X89659779Y-116610762D01*
X89659781Y-116610787D01*
X89674131Y-116761063D01*
X89731998Y-116958139D01*
X89826117Y-117140706D01*
X89953082Y-117302154D01*
X90108312Y-117436662D01*
X90286187Y-117539358D01*
X90286189Y-117539359D01*
X90366593Y-117567187D01*
X90480287Y-117606537D01*
X90514426Y-117611445D01*
X90683593Y-117635768D01*
X90888756Y-117625995D01*
X91088362Y-117577571D01*
X91275196Y-117492247D01*
X91442506Y-117373106D01*
X91584245Y-117224454D01*
X91695291Y-117051664D01*
X91771629Y-116860982D01*
X91810500Y-116659298D01*
X91810500Y-116607832D01*
X97409500Y-116607832D01*
X97409779Y-116610762D01*
X97409781Y-116610787D01*
X97424131Y-116761063D01*
X97481998Y-116958139D01*
X97576117Y-117140706D01*
X97703082Y-117302154D01*
X97858312Y-117436662D01*
X98036187Y-117539358D01*
X98036189Y-117539359D01*
X98116593Y-117567187D01*
X98230287Y-117606537D01*
X98264426Y-117611445D01*
X98433593Y-117635768D01*
X98638756Y-117625995D01*
X98838362Y-117577571D01*
X99025196Y-117492247D01*
X99192506Y-117373106D01*
X99334245Y-117224454D01*
X99445291Y-117051664D01*
X99521629Y-116860982D01*
X99560500Y-116659298D01*
X99560500Y-115855368D01*
X99557504Y-115824000D01*
X109642340Y-115824000D01*
X109662936Y-116059407D01*
X109714064Y-116250220D01*
X109724097Y-116287663D01*
X109823965Y-116501829D01*
X109959505Y-116695401D01*
X110126599Y-116862495D01*
X110320171Y-116998035D01*
X110534337Y-117097903D01*
X110762592Y-117159063D01*
X110939034Y-117174500D01*
X110941742Y-117174500D01*
X111054258Y-117174500D01*
X111056966Y-117174500D01*
X111233408Y-117159063D01*
X111461663Y-117097903D01*
X111675829Y-116998035D01*
X111869401Y-116862495D01*
X112036495Y-116695401D01*
X112172035Y-116501830D01*
X112271903Y-116287663D01*
X112333063Y-116059408D01*
X112353659Y-115824000D01*
X112333063Y-115588592D01*
X112271903Y-115360337D01*
X112172035Y-115146171D01*
X112036495Y-114952599D01*
X111869401Y-114785505D01*
X111675829Y-114649965D01*
X111461663Y-114550097D01*
X111233407Y-114488936D01*
X111059667Y-114473736D01*
X111059659Y-114473735D01*
X111056966Y-114473500D01*
X110939034Y-114473500D01*
X110936341Y-114473735D01*
X110936332Y-114473736D01*
X110762592Y-114488936D01*
X110534336Y-114550097D01*
X110320170Y-114649965D01*
X110126598Y-114785505D01*
X109959508Y-114952595D01*
X109959505Y-114952598D01*
X109959505Y-114952599D01*
X109863232Y-115090092D01*
X109823964Y-115146172D01*
X109724097Y-115360337D01*
X109662936Y-115588592D01*
X109642340Y-115824000D01*
X99557504Y-115824000D01*
X99557172Y-115820519D01*
X99545868Y-115702136D01*
X99545868Y-115702134D01*
X99488001Y-115505059D01*
X99393884Y-115322496D01*
X99266916Y-115161044D01*
X99111689Y-115026539D01*
X99111687Y-115026537D01*
X98933812Y-114923841D01*
X98739712Y-114856662D01*
X98536408Y-114827432D01*
X98536407Y-114827432D01*
X98433825Y-114832318D01*
X98331243Y-114837205D01*
X98131638Y-114885629D01*
X97944800Y-114970954D01*
X97777496Y-115090092D01*
X97635754Y-115238747D01*
X97524709Y-115411534D01*
X97448370Y-115602220D01*
X97409500Y-115803901D01*
X97409500Y-115803902D01*
X97409500Y-116607832D01*
X91810500Y-116607832D01*
X91810500Y-115855368D01*
X91807172Y-115820519D01*
X91795868Y-115702136D01*
X91795868Y-115702134D01*
X91738001Y-115505059D01*
X91643884Y-115322496D01*
X91516916Y-115161044D01*
X91361689Y-115026539D01*
X91361687Y-115026537D01*
X91183812Y-114923841D01*
X90989712Y-114856662D01*
X90786408Y-114827432D01*
X90786407Y-114827432D01*
X90683825Y-114832318D01*
X90581243Y-114837205D01*
X90381638Y-114885629D01*
X90194800Y-114970954D01*
X90027496Y-115090092D01*
X89885754Y-115238747D01*
X89774709Y-115411534D01*
X89698370Y-115602220D01*
X89659500Y-115803901D01*
X89659500Y-115803902D01*
X89659500Y-116607832D01*
X79077812Y-116607832D01*
X79152035Y-116501830D01*
X79251903Y-116287663D01*
X79313063Y-116059408D01*
X79333659Y-115824000D01*
X79313063Y-115588592D01*
X79251903Y-115360337D01*
X79152035Y-115146171D01*
X79016495Y-114952599D01*
X78849401Y-114785505D01*
X78655829Y-114649965D01*
X78441663Y-114550097D01*
X78441662Y-114550097D01*
X78213407Y-114488936D01*
X78039667Y-114473736D01*
X78039659Y-114473735D01*
X78036966Y-114473500D01*
X77919034Y-114473500D01*
X77916341Y-114473735D01*
X77916332Y-114473736D01*
X77742592Y-114488936D01*
X77514336Y-114550097D01*
X77300170Y-114649965D01*
X77106598Y-114785505D01*
X76939508Y-114952595D01*
X76939505Y-114952598D01*
X76939505Y-114952599D01*
X76843232Y-115090092D01*
X76803964Y-115146172D01*
X76704097Y-115360337D01*
X76642936Y-115588592D01*
X76622340Y-115824000D01*
X75438598Y-115824000D01*
X75438500Y-115820521D01*
X75438500Y-112761632D01*
X89659500Y-112761632D01*
X89659747Y-112764382D01*
X89659748Y-112764393D01*
X89674321Y-112926309D01*
X89733006Y-113138948D01*
X89828719Y-113337699D01*
X89958378Y-113516159D01*
X89958381Y-113516163D01*
X90117825Y-113668607D01*
X90301927Y-113790131D01*
X90369540Y-113819030D01*
X90504767Y-113876830D01*
X90577835Y-113893507D01*
X90719832Y-113925917D01*
X90921258Y-113934963D01*
X90940202Y-113935814D01*
X90940202Y-113935813D01*
X90940204Y-113935814D01*
X91158802Y-113906203D01*
X91191729Y-113895503D01*
X91261569Y-113893507D01*
X91321403Y-113929586D01*
X91330364Y-113940545D01*
X91345846Y-113961854D01*
X91349919Y-113967461D01*
X91356984Y-113978340D01*
X91377467Y-114013816D01*
X91404867Y-114044247D01*
X91404877Y-114044257D01*
X91413041Y-114054339D01*
X91437112Y-114087471D01*
X91467544Y-114114872D01*
X91476720Y-114124047D01*
X91504130Y-114154489D01*
X91537258Y-114178557D01*
X91547347Y-114186727D01*
X91577781Y-114214131D01*
X91577783Y-114214132D01*
X91577784Y-114214133D01*
X91613266Y-114234619D01*
X91624136Y-114241678D01*
X91657270Y-114265751D01*
X91694683Y-114282408D01*
X91706239Y-114288296D01*
X91741716Y-114308779D01*
X91780666Y-114321434D01*
X91792778Y-114326083D01*
X91830197Y-114342744D01*
X91870267Y-114351260D01*
X91882782Y-114354614D01*
X91921744Y-114367274D01*
X91962485Y-114371555D01*
X91975294Y-114373585D01*
X92015354Y-114382100D01*
X92204643Y-114382100D01*
X92204646Y-114382100D01*
X92244726Y-114373580D01*
X92257503Y-114371556D01*
X92298256Y-114367274D01*
X92337220Y-114354612D01*
X92349741Y-114351258D01*
X92375860Y-114345707D01*
X92389799Y-114342745D01*
X92389799Y-114342744D01*
X92389803Y-114342744D01*
X92427234Y-114326077D01*
X92439324Y-114321436D01*
X92478284Y-114308779D01*
X92513757Y-114288298D01*
X92525307Y-114282411D01*
X92562730Y-114265751D01*
X92595872Y-114241671D01*
X92606734Y-114234618D01*
X92642216Y-114214133D01*
X92672654Y-114186725D01*
X92682740Y-114178558D01*
X92682741Y-114178557D01*
X92715871Y-114154488D01*
X92743284Y-114124041D01*
X92752441Y-114114884D01*
X92782888Y-114087471D01*
X92806958Y-114054339D01*
X92815125Y-114044254D01*
X92842533Y-114013816D01*
X92863018Y-113978334D01*
X92870071Y-113967472D01*
X92894151Y-113934330D01*
X92910811Y-113896907D01*
X92916700Y-113885353D01*
X92937179Y-113849884D01*
X92949834Y-113810932D01*
X92949835Y-113810931D01*
X92949836Y-113810924D01*
X92954477Y-113798834D01*
X92971144Y-113761403D01*
X92979658Y-113721341D01*
X92983016Y-113708809D01*
X92995674Y-113669856D01*
X92999956Y-113629103D01*
X93001980Y-113616326D01*
X93010500Y-113576246D01*
X93010500Y-113535288D01*
X93011179Y-113522331D01*
X93011828Y-113516159D01*
X93015460Y-113481600D01*
X93015460Y-113481599D01*
X96204539Y-113481599D01*
X96208820Y-113522331D01*
X96209499Y-113535288D01*
X96209499Y-113576244D01*
X96218014Y-113616305D01*
X96220043Y-113629119D01*
X96224325Y-113669855D01*
X96236982Y-113708809D01*
X96240342Y-113721346D01*
X96248856Y-113761405D01*
X96265512Y-113798813D01*
X96270164Y-113810931D01*
X96282821Y-113849884D01*
X96303300Y-113885355D01*
X96309187Y-113896908D01*
X96313326Y-113906203D01*
X96325850Y-113934332D01*
X96349918Y-113967460D01*
X96356984Y-113978340D01*
X96377467Y-114013816D01*
X96404867Y-114044247D01*
X96404877Y-114044257D01*
X96413041Y-114054339D01*
X96437112Y-114087471D01*
X96467544Y-114114872D01*
X96476720Y-114124047D01*
X96504130Y-114154489D01*
X96537258Y-114178557D01*
X96547347Y-114186727D01*
X96577781Y-114214131D01*
X96577783Y-114214132D01*
X96577784Y-114214133D01*
X96613266Y-114234619D01*
X96624136Y-114241678D01*
X96657270Y-114265751D01*
X96694683Y-114282408D01*
X96706239Y-114288296D01*
X96741716Y-114308779D01*
X96780666Y-114321434D01*
X96792778Y-114326083D01*
X96830197Y-114342744D01*
X96870267Y-114351260D01*
X96882782Y-114354614D01*
X96921744Y-114367274D01*
X96962485Y-114371555D01*
X96975294Y-114373585D01*
X97015354Y-114382100D01*
X97204643Y-114382100D01*
X97204646Y-114382100D01*
X97244726Y-114373580D01*
X97257503Y-114371556D01*
X97298256Y-114367274D01*
X97337220Y-114354612D01*
X97349741Y-114351258D01*
X97375860Y-114345707D01*
X97389799Y-114342745D01*
X97389799Y-114342744D01*
X97389803Y-114342744D01*
X97427234Y-114326077D01*
X97439324Y-114321436D01*
X97478284Y-114308779D01*
X97513757Y-114288298D01*
X97525307Y-114282411D01*
X97562730Y-114265751D01*
X97595872Y-114241671D01*
X97606734Y-114234618D01*
X97642216Y-114214133D01*
X97672654Y-114186725D01*
X97682740Y-114178558D01*
X97682741Y-114178557D01*
X97715871Y-114154488D01*
X97743284Y-114124041D01*
X97752441Y-114114884D01*
X97782888Y-114087471D01*
X97806958Y-114054339D01*
X97815125Y-114044254D01*
X97842533Y-114013816D01*
X97863018Y-113978334D01*
X97870068Y-113967476D01*
X97890498Y-113939357D01*
X97945825Y-113896695D01*
X98015438Y-113890716D01*
X98018405Y-113891355D01*
X98071547Y-113903483D01*
X98169832Y-113925917D01*
X98371258Y-113934963D01*
X98390202Y-113935814D01*
X98390202Y-113935813D01*
X98390204Y-113935814D01*
X98608802Y-113906203D01*
X98818599Y-113838036D01*
X99012853Y-113733503D01*
X99185320Y-113595965D01*
X99330457Y-113429842D01*
X99443600Y-113240474D01*
X99521111Y-113033946D01*
X99536457Y-112949382D01*
X99560500Y-112816898D01*
X99560500Y-112104344D01*
X99560500Y-112101568D01*
X99545679Y-111936894D01*
X99543729Y-111929830D01*
X99515972Y-111829253D01*
X99486993Y-111724250D01*
X99391281Y-111525502D01*
X99363603Y-111487407D01*
X99261621Y-111347040D01*
X99261619Y-111347037D01*
X99102175Y-111194593D01*
X99102172Y-111194591D01*
X99102171Y-111194590D01*
X98918071Y-111073068D01*
X98715232Y-110986369D01*
X98500168Y-110937283D01*
X98279797Y-110927385D01*
X98061196Y-110956997D01*
X97851402Y-111025163D01*
X97762381Y-111073068D01*
X97657147Y-111129697D01*
X97657145Y-111129698D01*
X97657146Y-111129698D01*
X97484679Y-111267235D01*
X97339542Y-111433358D01*
X97226399Y-111622726D01*
X97148888Y-111829253D01*
X97109500Y-112046301D01*
X97109500Y-112460675D01*
X97089815Y-112527714D01*
X97037011Y-112573469D01*
X97011276Y-112581966D01*
X96975292Y-112589613D01*
X96962483Y-112591642D01*
X96921744Y-112595925D01*
X96882794Y-112608581D01*
X96870258Y-112611940D01*
X96830198Y-112620454D01*
X96792780Y-112637114D01*
X96780668Y-112641763D01*
X96741715Y-112654420D01*
X96706241Y-112674901D01*
X96694681Y-112680791D01*
X96657270Y-112697448D01*
X96624137Y-112721519D01*
X96613260Y-112728583D01*
X96577782Y-112749067D01*
X96547347Y-112776471D01*
X96537264Y-112784636D01*
X96504128Y-112808711D01*
X96476722Y-112839148D01*
X96467548Y-112848322D01*
X96437111Y-112875728D01*
X96413036Y-112908864D01*
X96404871Y-112918947D01*
X96377467Y-112949382D01*
X96356983Y-112984860D01*
X96349919Y-112995737D01*
X96325848Y-113028870D01*
X96309191Y-113066281D01*
X96303301Y-113077841D01*
X96282820Y-113113315D01*
X96270163Y-113152268D01*
X96265514Y-113164380D01*
X96248854Y-113201798D01*
X96240340Y-113241858D01*
X96236981Y-113254394D01*
X96224325Y-113293344D01*
X96220042Y-113334083D01*
X96218013Y-113346893D01*
X96209499Y-113386951D01*
X96209499Y-113427911D01*
X96208820Y-113440868D01*
X96204539Y-113481599D01*
X93015460Y-113481599D01*
X93011179Y-113440866D01*
X93010500Y-113427906D01*
X93010500Y-113386953D01*
X93001986Y-113346900D01*
X92999955Y-113334085D01*
X92995674Y-113293344D01*
X92983014Y-113254382D01*
X92979660Y-113241867D01*
X92971144Y-113201797D01*
X92954483Y-113164378D01*
X92949831Y-113152258D01*
X92945507Y-113138950D01*
X92937179Y-113113316D01*
X92916696Y-113077839D01*
X92910805Y-113066277D01*
X92894151Y-113028870D01*
X92870078Y-112995736D01*
X92863015Y-112984860D01*
X92842531Y-112949381D01*
X92815127Y-112918947D01*
X92806957Y-112908858D01*
X92782889Y-112875730D01*
X92782887Y-112875728D01*
X92752442Y-112848315D01*
X92743274Y-112839146D01*
X92715871Y-112808712D01*
X92682739Y-112784641D01*
X92672662Y-112776481D01*
X92642216Y-112749067D01*
X92642215Y-112749066D01*
X92606740Y-112728584D01*
X92595860Y-112721518D01*
X92562732Y-112697450D01*
X92562728Y-112697448D01*
X92525308Y-112680787D01*
X92513755Y-112674900D01*
X92478284Y-112654421D01*
X92439331Y-112641764D01*
X92427213Y-112637112D01*
X92389805Y-112620456D01*
X92368011Y-112615824D01*
X92349739Y-112611940D01*
X92337209Y-112608582D01*
X92298255Y-112595925D01*
X92257519Y-112591643D01*
X92244708Y-112589614D01*
X92208719Y-112581965D01*
X92147238Y-112548774D01*
X92113461Y-112487611D01*
X92110500Y-112460675D01*
X92110500Y-112104344D01*
X92110500Y-112101568D01*
X92095679Y-111936894D01*
X92093729Y-111929830D01*
X92065972Y-111829253D01*
X92036993Y-111724250D01*
X91941281Y-111525502D01*
X91913603Y-111487407D01*
X91811621Y-111347040D01*
X91811619Y-111347037D01*
X91652175Y-111194593D01*
X91652172Y-111194591D01*
X91652171Y-111194590D01*
X91468071Y-111073068D01*
X91265232Y-110986369D01*
X91050168Y-110937283D01*
X90829797Y-110927385D01*
X90611196Y-110956997D01*
X90401402Y-111025163D01*
X90312381Y-111073068D01*
X90207147Y-111129697D01*
X90207145Y-111129698D01*
X90207146Y-111129698D01*
X90034679Y-111267235D01*
X89889542Y-111433358D01*
X89776399Y-111622726D01*
X89698888Y-111829253D01*
X89659500Y-112046301D01*
X89659500Y-112046303D01*
X89659500Y-112761632D01*
X75438500Y-112761632D01*
X75438500Y-111252000D01*
X76622340Y-111252000D01*
X76642936Y-111487407D01*
X76653144Y-111525502D01*
X76704097Y-111715663D01*
X76803965Y-111929830D01*
X76939505Y-112123401D01*
X77106599Y-112290495D01*
X77300170Y-112426035D01*
X77514337Y-112525903D01*
X77742592Y-112587063D01*
X77978000Y-112607659D01*
X78213408Y-112587063D01*
X78441663Y-112525903D01*
X78655830Y-112426035D01*
X78849401Y-112290495D01*
X79016495Y-112123401D01*
X79152035Y-111929830D01*
X79251903Y-111715663D01*
X79313063Y-111487408D01*
X79333659Y-111252000D01*
X79313063Y-111016592D01*
X79251903Y-110788337D01*
X79152035Y-110574171D01*
X79016495Y-110380599D01*
X78849401Y-110213505D01*
X78663839Y-110083573D01*
X78620217Y-110028998D01*
X78613024Y-109959499D01*
X78644546Y-109897145D01*
X78663837Y-109880428D01*
X78849401Y-109750495D01*
X79016495Y-109583401D01*
X79152035Y-109389830D01*
X79251903Y-109175663D01*
X79313063Y-108947408D01*
X79333659Y-108712000D01*
X79313063Y-108476592D01*
X79251903Y-108248337D01*
X79152035Y-108034171D01*
X79016495Y-107840599D01*
X78849401Y-107673505D01*
X78663839Y-107543573D01*
X78620216Y-107488998D01*
X78613022Y-107419500D01*
X78644545Y-107357145D01*
X78663837Y-107340428D01*
X78849401Y-107210495D01*
X78871896Y-107188000D01*
X94152040Y-107188000D01*
X94171826Y-107376257D01*
X94230320Y-107556284D01*
X94324966Y-107720216D01*
X94451629Y-107860889D01*
X94604769Y-107972151D01*
X94777697Y-108049144D01*
X94962852Y-108088500D01*
X94962854Y-108088500D01*
X95152148Y-108088500D01*
X95275584Y-108062262D01*
X95337303Y-108049144D01*
X95510230Y-107972151D01*
X95663371Y-107860888D01*
X95790033Y-107720216D01*
X95884679Y-107556284D01*
X95943174Y-107376256D01*
X95951042Y-107301393D01*
X95977625Y-107236781D01*
X96034922Y-107196796D01*
X96104741Y-107194136D01*
X96164915Y-107229645D01*
X96192293Y-107276039D01*
X96200820Y-107302284D01*
X96295466Y-107466216D01*
X96422129Y-107606889D01*
X96575269Y-107718151D01*
X96748197Y-107795144D01*
X96933352Y-107834500D01*
X96933354Y-107834500D01*
X97122648Y-107834500D01*
X97246084Y-107808262D01*
X97307803Y-107795144D01*
X97480730Y-107718151D01*
X97633871Y-107606888D01*
X97760533Y-107466216D01*
X97855179Y-107302284D01*
X97913674Y-107122256D01*
X97933460Y-106934000D01*
X97913674Y-106745744D01*
X97855179Y-106565716D01*
X97855179Y-106565715D01*
X97760533Y-106401783D01*
X97633870Y-106261110D01*
X97480730Y-106149848D01*
X97307802Y-106072855D01*
X97122648Y-106033500D01*
X97122646Y-106033500D01*
X96933354Y-106033500D01*
X96933352Y-106033500D01*
X96748197Y-106072855D01*
X96575269Y-106149848D01*
X96422129Y-106261110D01*
X96295466Y-106401783D01*
X96200820Y-106565715D01*
X96142326Y-106745742D01*
X96134458Y-106820604D01*
X96107873Y-106885219D01*
X96050575Y-106925203D01*
X95980756Y-106927863D01*
X95920583Y-106892353D01*
X95893207Y-106845962D01*
X95884679Y-106819716D01*
X95884677Y-106819712D01*
X95790033Y-106655783D01*
X95663370Y-106515110D01*
X95510230Y-106403848D01*
X95337302Y-106326855D01*
X95152148Y-106287500D01*
X95152146Y-106287500D01*
X94962854Y-106287500D01*
X94962852Y-106287500D01*
X94777697Y-106326855D01*
X94604769Y-106403848D01*
X94451629Y-106515110D01*
X94324966Y-106655783D01*
X94230320Y-106819715D01*
X94171826Y-106999742D01*
X94152040Y-107188000D01*
X78871896Y-107188000D01*
X79016495Y-107043401D01*
X79152035Y-106849830D01*
X79251903Y-106635663D01*
X79313063Y-106407408D01*
X79333659Y-106172000D01*
X79313063Y-105936592D01*
X79251903Y-105708337D01*
X79152035Y-105494171D01*
X79016495Y-105300599D01*
X78998896Y-105283000D01*
X89010540Y-105283000D01*
X89030326Y-105471257D01*
X89088820Y-105651284D01*
X89183466Y-105815216D01*
X89310129Y-105955889D01*
X89463269Y-106067151D01*
X89636197Y-106144144D01*
X89821352Y-106183500D01*
X89821354Y-106183500D01*
X90010648Y-106183500D01*
X90134084Y-106157262D01*
X90195803Y-106144144D01*
X90368730Y-106067151D01*
X90415047Y-106033500D01*
X90521870Y-105955889D01*
X90648533Y-105815216D01*
X90743179Y-105651284D01*
X90754842Y-105615388D01*
X90801674Y-105471256D01*
X90821460Y-105283000D01*
X90801674Y-105094744D01*
X90752206Y-104942500D01*
X100186540Y-104942500D01*
X100206326Y-105130757D01*
X100264820Y-105310784D01*
X100359466Y-105474716D01*
X100486129Y-105615389D01*
X100639269Y-105726651D01*
X100812197Y-105803644D01*
X100997352Y-105843000D01*
X100997354Y-105843000D01*
X101186648Y-105843000D01*
X101310084Y-105816762D01*
X101371803Y-105803644D01*
X101544730Y-105726651D01*
X101697871Y-105615388D01*
X101824533Y-105474716D01*
X101919179Y-105310784D01*
X101919954Y-105308399D01*
X105622140Y-105308399D01*
X105641926Y-105496657D01*
X105700420Y-105676684D01*
X105795066Y-105840616D01*
X105921729Y-105981289D01*
X106074869Y-106092551D01*
X106247797Y-106169544D01*
X106432952Y-106208900D01*
X106432954Y-106208900D01*
X106622248Y-106208900D01*
X106795848Y-106172000D01*
X109642340Y-106172000D01*
X109662936Y-106407407D01*
X109691795Y-106515110D01*
X109724097Y-106635663D01*
X109823965Y-106849830D01*
X109959505Y-107043401D01*
X110126599Y-107210495D01*
X110312596Y-107340732D01*
X110356219Y-107395307D01*
X110363412Y-107464806D01*
X110331890Y-107527160D01*
X110312595Y-107543880D01*
X110126919Y-107673892D01*
X109959890Y-107840921D01*
X109824400Y-108034421D01*
X109724569Y-108248507D01*
X109667364Y-108461999D01*
X109667364Y-108462000D01*
X110564314Y-108462000D01*
X110538507Y-108502156D01*
X110498000Y-108640111D01*
X110498000Y-108783889D01*
X110538507Y-108921844D01*
X110564314Y-108962000D01*
X109667364Y-108962000D01*
X109724569Y-109175492D01*
X109824399Y-109389576D01*
X109959893Y-109583081D01*
X110126918Y-109750106D01*
X110313031Y-109880425D01*
X110356656Y-109935002D01*
X110363848Y-110004501D01*
X110332326Y-110066855D01*
X110313031Y-110083575D01*
X110126918Y-110213893D01*
X109959890Y-110380921D01*
X109824400Y-110574421D01*
X109724569Y-110788507D01*
X109667364Y-111001999D01*
X109667364Y-111002000D01*
X110564314Y-111002000D01*
X110538507Y-111042156D01*
X110498000Y-111180111D01*
X110498000Y-111323889D01*
X110538507Y-111461844D01*
X110564314Y-111502000D01*
X109667364Y-111502000D01*
X109724569Y-111715492D01*
X109824399Y-111929576D01*
X109959893Y-112123081D01*
X110126918Y-112290106D01*
X110320423Y-112425600D01*
X110534509Y-112525430D01*
X110747999Y-112582633D01*
X110747999Y-111687501D01*
X110855685Y-111736680D01*
X110962237Y-111752000D01*
X111033763Y-111752000D01*
X111140315Y-111736680D01*
X111248000Y-111687501D01*
X111248000Y-112582633D01*
X111461490Y-112525430D01*
X111675576Y-112425600D01*
X111869081Y-112290106D01*
X112036106Y-112123081D01*
X112171600Y-111929576D01*
X112271430Y-111715492D01*
X112328636Y-111502000D01*
X111431686Y-111502000D01*
X111457493Y-111461844D01*
X111498000Y-111323889D01*
X111498000Y-111180111D01*
X111457493Y-111042156D01*
X111431686Y-111002000D01*
X112328636Y-111002000D01*
X112328635Y-111001999D01*
X112271430Y-110788507D01*
X112171599Y-110574421D01*
X112036109Y-110380921D01*
X111869081Y-110213893D01*
X111682968Y-110083575D01*
X111639344Y-110028998D01*
X111632151Y-109959499D01*
X111663673Y-109897145D01*
X111682968Y-109880425D01*
X111869081Y-109750106D01*
X112036106Y-109583081D01*
X112171600Y-109389576D01*
X112271430Y-109175492D01*
X112328636Y-108962000D01*
X111431686Y-108962000D01*
X111457493Y-108921844D01*
X111498000Y-108783889D01*
X111498000Y-108640111D01*
X111457493Y-108502156D01*
X111431686Y-108462000D01*
X112328636Y-108462000D01*
X112328635Y-108461999D01*
X112271430Y-108248507D01*
X112171599Y-108034421D01*
X112036109Y-107840921D01*
X111869081Y-107673893D01*
X111683404Y-107543880D01*
X111639780Y-107489303D01*
X111632587Y-107419804D01*
X111664109Y-107357450D01*
X111683399Y-107340734D01*
X111869401Y-107210495D01*
X112036495Y-107043401D01*
X112172035Y-106849830D01*
X112271903Y-106635663D01*
X112333063Y-106407408D01*
X112353659Y-106172000D01*
X112333063Y-105936592D01*
X112271903Y-105708337D01*
X112172035Y-105494171D01*
X112036495Y-105300599D01*
X111869401Y-105133505D01*
X111683839Y-105003573D01*
X111640215Y-104948997D01*
X111633023Y-104879498D01*
X111664545Y-104817144D01*
X111683831Y-104800432D01*
X111869401Y-104670495D01*
X112036495Y-104503401D01*
X112172035Y-104309830D01*
X112271903Y-104095663D01*
X112333063Y-103867408D01*
X112353659Y-103632000D01*
X112333063Y-103396592D01*
X112271903Y-103168337D01*
X112172035Y-102954171D01*
X112036495Y-102760599D01*
X111869401Y-102593505D01*
X111683839Y-102463573D01*
X111640216Y-102408998D01*
X111633022Y-102339500D01*
X111664545Y-102277145D01*
X111683837Y-102260428D01*
X111869401Y-102130495D01*
X112036495Y-101963401D01*
X112172035Y-101769830D01*
X112271903Y-101555663D01*
X112333063Y-101327408D01*
X112353659Y-101092000D01*
X112333063Y-100856592D01*
X112271903Y-100628337D01*
X112172035Y-100414171D01*
X112036495Y-100220599D01*
X111869401Y-100053505D01*
X111683839Y-99923573D01*
X111640215Y-99868997D01*
X111633023Y-99799498D01*
X111664545Y-99737144D01*
X111683831Y-99720432D01*
X111869401Y-99590495D01*
X112036495Y-99423401D01*
X112172035Y-99229830D01*
X112271903Y-99015663D01*
X112333063Y-98787408D01*
X112353659Y-98552000D01*
X112333063Y-98316592D01*
X112271903Y-98088337D01*
X112172035Y-97874171D01*
X112036495Y-97680599D01*
X111869401Y-97513505D01*
X111683839Y-97383573D01*
X111640216Y-97328998D01*
X111633022Y-97259500D01*
X111664545Y-97197145D01*
X111683837Y-97180428D01*
X111869401Y-97050495D01*
X112036495Y-96883401D01*
X112172035Y-96689830D01*
X112271903Y-96475663D01*
X112333063Y-96247408D01*
X112353659Y-96012000D01*
X112333063Y-95776592D01*
X112271903Y-95548337D01*
X112172035Y-95334171D01*
X112036495Y-95140599D01*
X111869401Y-94973505D01*
X111683839Y-94843573D01*
X111640215Y-94788997D01*
X111633023Y-94719498D01*
X111664545Y-94657144D01*
X111683831Y-94640432D01*
X111869401Y-94510495D01*
X112036495Y-94343401D01*
X112172035Y-94149830D01*
X112271903Y-93935663D01*
X112333063Y-93707408D01*
X112353659Y-93472000D01*
X112333063Y-93236592D01*
X112271903Y-93008337D01*
X112172035Y-92794171D01*
X112036495Y-92600599D01*
X111869401Y-92433505D01*
X111683839Y-92303573D01*
X111640216Y-92248998D01*
X111633022Y-92179500D01*
X111664545Y-92117145D01*
X111683837Y-92100428D01*
X111869401Y-91970495D01*
X112036495Y-91803401D01*
X112172035Y-91609830D01*
X112271903Y-91395663D01*
X112333063Y-91167408D01*
X112353659Y-90932000D01*
X112333063Y-90696592D01*
X112271903Y-90468337D01*
X112172035Y-90254171D01*
X112036495Y-90060599D01*
X111869401Y-89893505D01*
X111683839Y-89763573D01*
X111640215Y-89708997D01*
X111633023Y-89639498D01*
X111664545Y-89577144D01*
X111683831Y-89560432D01*
X111869401Y-89430495D01*
X112036495Y-89263401D01*
X112172035Y-89069830D01*
X112271903Y-88855663D01*
X112333063Y-88627408D01*
X112353659Y-88392000D01*
X112333063Y-88156592D01*
X112271903Y-87928337D01*
X112172035Y-87714171D01*
X112036495Y-87520599D01*
X111869401Y-87353505D01*
X111683839Y-87223573D01*
X111640216Y-87168998D01*
X111633022Y-87099500D01*
X111664545Y-87037145D01*
X111683837Y-87020428D01*
X111869401Y-86890495D01*
X112036495Y-86723401D01*
X112172035Y-86529830D01*
X112271903Y-86315663D01*
X112333063Y-86087408D01*
X112353659Y-85852000D01*
X112333063Y-85616592D01*
X112271903Y-85388337D01*
X112172035Y-85174171D01*
X112036495Y-84980599D01*
X111869401Y-84813505D01*
X111683839Y-84683573D01*
X111640215Y-84628997D01*
X111633023Y-84559498D01*
X111664545Y-84497144D01*
X111683831Y-84480432D01*
X111869401Y-84350495D01*
X112036495Y-84183401D01*
X112172035Y-83989830D01*
X112271903Y-83775663D01*
X112333063Y-83547408D01*
X112353659Y-83312000D01*
X112333063Y-83076592D01*
X112271903Y-82848337D01*
X112172035Y-82634171D01*
X112036495Y-82440599D01*
X111869401Y-82273505D01*
X111683839Y-82143573D01*
X111640216Y-82088998D01*
X111633022Y-82019500D01*
X111664545Y-81957145D01*
X111683837Y-81940428D01*
X111869401Y-81810495D01*
X112036495Y-81643401D01*
X112172035Y-81449830D01*
X112271903Y-81235663D01*
X112333063Y-81007408D01*
X112353659Y-80772000D01*
X112333063Y-80536592D01*
X112271903Y-80308337D01*
X112172035Y-80094171D01*
X112036495Y-79900599D01*
X111869401Y-79733505D01*
X111683839Y-79603573D01*
X111640215Y-79548997D01*
X111633023Y-79479498D01*
X111664545Y-79417144D01*
X111683831Y-79400432D01*
X111869401Y-79270495D01*
X112036495Y-79103401D01*
X112172035Y-78909830D01*
X112271903Y-78695663D01*
X112333063Y-78467408D01*
X112353659Y-78232000D01*
X112333063Y-77996592D01*
X112271903Y-77768337D01*
X112172035Y-77554171D01*
X112036495Y-77360599D01*
X111869401Y-77193505D01*
X111683839Y-77063573D01*
X111640216Y-77008998D01*
X111633022Y-76939500D01*
X111664545Y-76877145D01*
X111683837Y-76860428D01*
X111869401Y-76730495D01*
X112036495Y-76563401D01*
X112172035Y-76369830D01*
X112271903Y-76155663D01*
X112333063Y-75927408D01*
X112353659Y-75692000D01*
X112333063Y-75456592D01*
X112271903Y-75228337D01*
X112172035Y-75014171D01*
X112036495Y-74820599D01*
X111869401Y-74653505D01*
X111683839Y-74523573D01*
X111640215Y-74468997D01*
X111633023Y-74399498D01*
X111664545Y-74337144D01*
X111683831Y-74320432D01*
X111869401Y-74190495D01*
X112036495Y-74023401D01*
X112172035Y-73829830D01*
X112271903Y-73615663D01*
X112333063Y-73387408D01*
X112353659Y-73152000D01*
X112333063Y-72916592D01*
X112271903Y-72688337D01*
X112172035Y-72474171D01*
X112036495Y-72280599D01*
X111869401Y-72113505D01*
X111683839Y-71983573D01*
X111640216Y-71928998D01*
X111633022Y-71859500D01*
X111664545Y-71797145D01*
X111683837Y-71780428D01*
X111869401Y-71650495D01*
X112036495Y-71483401D01*
X112172035Y-71289830D01*
X112271903Y-71075663D01*
X112333063Y-70847408D01*
X112353659Y-70612000D01*
X112333063Y-70376592D01*
X112271903Y-70148337D01*
X112172035Y-69934171D01*
X112036495Y-69740599D01*
X111869401Y-69573505D01*
X111683839Y-69443573D01*
X111640216Y-69388998D01*
X111633022Y-69319500D01*
X111664545Y-69257145D01*
X111683837Y-69240428D01*
X111869401Y-69110495D01*
X112036495Y-68943401D01*
X112172035Y-68749830D01*
X112271903Y-68535663D01*
X112333063Y-68307408D01*
X112353659Y-68072000D01*
X112333063Y-67836592D01*
X112271903Y-67608337D01*
X112172035Y-67394171D01*
X112036495Y-67200599D01*
X111869401Y-67033505D01*
X111683839Y-66903573D01*
X111640216Y-66848998D01*
X111633022Y-66779500D01*
X111664545Y-66717145D01*
X111683837Y-66700428D01*
X111869401Y-66570495D01*
X112036495Y-66403401D01*
X112172035Y-66209830D01*
X112271903Y-65995663D01*
X112333063Y-65767408D01*
X112353659Y-65532000D01*
X112333063Y-65296592D01*
X112271903Y-65068337D01*
X112172035Y-64854171D01*
X112036495Y-64660599D01*
X111914180Y-64538284D01*
X111880696Y-64476962D01*
X111885680Y-64407270D01*
X111927552Y-64351337D01*
X111958528Y-64334422D01*
X112090089Y-64285352D01*
X112205188Y-64199188D01*
X112291352Y-64084089D01*
X112341599Y-63949371D01*
X112347645Y-63893132D01*
X112348000Y-63886518D01*
X112348000Y-63242000D01*
X111431686Y-63242000D01*
X111457493Y-63201844D01*
X111498000Y-63063889D01*
X111498000Y-62920111D01*
X111457493Y-62782156D01*
X111431686Y-62742000D01*
X112348000Y-62742000D01*
X112348000Y-62097481D01*
X112347645Y-62090867D01*
X112341599Y-62034628D01*
X112291352Y-61899910D01*
X112205188Y-61784811D01*
X112090089Y-61698647D01*
X111955371Y-61648400D01*
X111899132Y-61642354D01*
X111892518Y-61642000D01*
X111248000Y-61642000D01*
X111248000Y-62556498D01*
X111140315Y-62507320D01*
X111033763Y-62492000D01*
X110962237Y-62492000D01*
X110855685Y-62507320D01*
X110748000Y-62556498D01*
X110748000Y-61642000D01*
X110103482Y-61642000D01*
X110096867Y-61642354D01*
X110040628Y-61648400D01*
X109905910Y-61698647D01*
X109790811Y-61784811D01*
X109704647Y-61899910D01*
X109654400Y-62034628D01*
X109648354Y-62090867D01*
X109648000Y-62097481D01*
X109647999Y-62741999D01*
X109648000Y-62742000D01*
X110564314Y-62742000D01*
X110538507Y-62782156D01*
X110498000Y-62920111D01*
X110498000Y-63063889D01*
X110538507Y-63201844D01*
X110564314Y-63242000D01*
X109648000Y-63242000D01*
X109648000Y-63886518D01*
X109648354Y-63893132D01*
X109654400Y-63949371D01*
X109704647Y-64084089D01*
X109790811Y-64199188D01*
X109905911Y-64285352D01*
X110037471Y-64334422D01*
X110093404Y-64376294D01*
X110117821Y-64441758D01*
X110102969Y-64510031D01*
X110081819Y-64538285D01*
X109959503Y-64660601D01*
X109823965Y-64854170D01*
X109724097Y-65068336D01*
X109662936Y-65296592D01*
X109642340Y-65531999D01*
X109662936Y-65767407D01*
X109707709Y-65934502D01*
X109724097Y-65995663D01*
X109823965Y-66209830D01*
X109959505Y-66403401D01*
X110126599Y-66570495D01*
X110312160Y-66700426D01*
X110355783Y-66755002D01*
X110362976Y-66824501D01*
X110331454Y-66886855D01*
X110312159Y-66903575D01*
X110126595Y-67033508D01*
X109959505Y-67200598D01*
X109823965Y-67394170D01*
X109724097Y-67608336D01*
X109662936Y-67836592D01*
X109642340Y-68071999D01*
X109662936Y-68307407D01*
X109707709Y-68474502D01*
X109724097Y-68535663D01*
X109823965Y-68749830D01*
X109959505Y-68943401D01*
X110126599Y-69110495D01*
X110312160Y-69240426D01*
X110355783Y-69295002D01*
X110362976Y-69364501D01*
X110331454Y-69426855D01*
X110312159Y-69443575D01*
X110126595Y-69573508D01*
X109959505Y-69740598D01*
X109823965Y-69934170D01*
X109724097Y-70148336D01*
X109662936Y-70376592D01*
X109642340Y-70612000D01*
X109662936Y-70847407D01*
X109707709Y-71014501D01*
X109724097Y-71075663D01*
X109823965Y-71289830D01*
X109959505Y-71483401D01*
X110126599Y-71650495D01*
X110312160Y-71780426D01*
X110355783Y-71835002D01*
X110362976Y-71904501D01*
X110331454Y-71966855D01*
X110312159Y-71983575D01*
X110126595Y-72113508D01*
X109959505Y-72280598D01*
X109823965Y-72474170D01*
X109724097Y-72688336D01*
X109662936Y-72916592D01*
X109642340Y-73152000D01*
X109662936Y-73387407D01*
X109707709Y-73554502D01*
X109724097Y-73615663D01*
X109823965Y-73829830D01*
X109959505Y-74023401D01*
X110126599Y-74190495D01*
X110312160Y-74320426D01*
X110355783Y-74375002D01*
X110362976Y-74444501D01*
X110331454Y-74506855D01*
X110312159Y-74523575D01*
X110126595Y-74653508D01*
X109959505Y-74820598D01*
X109823965Y-75014170D01*
X109724097Y-75228336D01*
X109662936Y-75456592D01*
X109642340Y-75691999D01*
X109662936Y-75927407D01*
X109707709Y-76094502D01*
X109724097Y-76155663D01*
X109823965Y-76369830D01*
X109959505Y-76563401D01*
X110126599Y-76730495D01*
X110312160Y-76860426D01*
X110355783Y-76915002D01*
X110362976Y-76984501D01*
X110331454Y-77046855D01*
X110312159Y-77063575D01*
X110126595Y-77193508D01*
X109959505Y-77360598D01*
X109823965Y-77554170D01*
X109724097Y-77768336D01*
X109662936Y-77996592D01*
X109642340Y-78232000D01*
X109662936Y-78467407D01*
X109707709Y-78634502D01*
X109724097Y-78695663D01*
X109823965Y-78909830D01*
X109959505Y-79103401D01*
X110126599Y-79270495D01*
X110312160Y-79400426D01*
X110355783Y-79455002D01*
X110362976Y-79524501D01*
X110331454Y-79586855D01*
X110312159Y-79603575D01*
X110126595Y-79733508D01*
X109959505Y-79900598D01*
X109823965Y-80094170D01*
X109724097Y-80308336D01*
X109662936Y-80536592D01*
X109642340Y-80772000D01*
X109662936Y-81007407D01*
X109707709Y-81174502D01*
X109724097Y-81235663D01*
X109823965Y-81449830D01*
X109959505Y-81643401D01*
X110126599Y-81810495D01*
X110312160Y-81940426D01*
X110355783Y-81995002D01*
X110362976Y-82064501D01*
X110331454Y-82126855D01*
X110312159Y-82143575D01*
X110126595Y-82273508D01*
X109959505Y-82440598D01*
X109823965Y-82634170D01*
X109724097Y-82848336D01*
X109662936Y-83076592D01*
X109642340Y-83312000D01*
X109662936Y-83547407D01*
X109685534Y-83631742D01*
X109724097Y-83775663D01*
X109823965Y-83989830D01*
X109959505Y-84183401D01*
X110126599Y-84350495D01*
X110312160Y-84480426D01*
X110355783Y-84535002D01*
X110362976Y-84604501D01*
X110331454Y-84666855D01*
X110312160Y-84683574D01*
X110259425Y-84720500D01*
X110126595Y-84813508D01*
X109959505Y-84980598D01*
X109823965Y-85174170D01*
X109724097Y-85388336D01*
X109662936Y-85616592D01*
X109642340Y-85851999D01*
X109662936Y-86087407D01*
X109707709Y-86254502D01*
X109724097Y-86315663D01*
X109823965Y-86529830D01*
X109959505Y-86723401D01*
X110126599Y-86890495D01*
X110312160Y-87020426D01*
X110355783Y-87075002D01*
X110362976Y-87144501D01*
X110331454Y-87206855D01*
X110312160Y-87223574D01*
X110159670Y-87330349D01*
X110126595Y-87353508D01*
X109959505Y-87520598D01*
X109823965Y-87714170D01*
X109724097Y-87928336D01*
X109662936Y-88156592D01*
X109642340Y-88391999D01*
X109662936Y-88627407D01*
X109705803Y-88787387D01*
X109724097Y-88855663D01*
X109823965Y-89069830D01*
X109959505Y-89263401D01*
X110126599Y-89430495D01*
X110312160Y-89560426D01*
X110355783Y-89615002D01*
X110362976Y-89684501D01*
X110331454Y-89746855D01*
X110312159Y-89763575D01*
X110126595Y-89893508D01*
X109959505Y-90060598D01*
X109823965Y-90254170D01*
X109724097Y-90468336D01*
X109662936Y-90696592D01*
X109642340Y-90932000D01*
X109662936Y-91167407D01*
X109707709Y-91334502D01*
X109724097Y-91395663D01*
X109823965Y-91609830D01*
X109959505Y-91803401D01*
X110126599Y-91970495D01*
X110312160Y-92100426D01*
X110355783Y-92155002D01*
X110362976Y-92224501D01*
X110331454Y-92286855D01*
X110312160Y-92303574D01*
X110185538Y-92392236D01*
X110126595Y-92433508D01*
X109959505Y-92600598D01*
X109823965Y-92794170D01*
X109724097Y-93008336D01*
X109662936Y-93236592D01*
X109642340Y-93472000D01*
X109662936Y-93707407D01*
X109679766Y-93770216D01*
X109724097Y-93935663D01*
X109823965Y-94149830D01*
X109959505Y-94343401D01*
X110126599Y-94510495D01*
X110312160Y-94640426D01*
X110355783Y-94695002D01*
X110362976Y-94764501D01*
X110331454Y-94826855D01*
X110312159Y-94843575D01*
X110126595Y-94973508D01*
X109959505Y-95140598D01*
X109823965Y-95334170D01*
X109724097Y-95548336D01*
X109662936Y-95776592D01*
X109642340Y-96012000D01*
X109662936Y-96247407D01*
X109685534Y-96331742D01*
X109724097Y-96475663D01*
X109823965Y-96689830D01*
X109959505Y-96883401D01*
X110126599Y-97050495D01*
X110312160Y-97180426D01*
X110355783Y-97235002D01*
X110362976Y-97304501D01*
X110331454Y-97366855D01*
X110312158Y-97383575D01*
X110259425Y-97420500D01*
X110126595Y-97513508D01*
X109959505Y-97680598D01*
X109823965Y-97874170D01*
X109724097Y-98088336D01*
X109662936Y-98316592D01*
X109642340Y-98551999D01*
X109662936Y-98787407D01*
X109707709Y-98954501D01*
X109724097Y-99015663D01*
X109823965Y-99229830D01*
X109959505Y-99423401D01*
X110126599Y-99590495D01*
X110312160Y-99720426D01*
X110355783Y-99775002D01*
X110362976Y-99844501D01*
X110331454Y-99906855D01*
X110312159Y-99923575D01*
X110126595Y-100053508D01*
X109959505Y-100220598D01*
X109823965Y-100414170D01*
X109724097Y-100628336D01*
X109662936Y-100856592D01*
X109642340Y-101091999D01*
X109662936Y-101327407D01*
X109677997Y-101383615D01*
X109724097Y-101555663D01*
X109823965Y-101769830D01*
X109959505Y-101963401D01*
X110126599Y-102130495D01*
X110312160Y-102260426D01*
X110355783Y-102315002D01*
X110362976Y-102384501D01*
X110331454Y-102446855D01*
X110312159Y-102463575D01*
X110126595Y-102593508D01*
X109959505Y-102760598D01*
X109823965Y-102954170D01*
X109724097Y-103168336D01*
X109662936Y-103396592D01*
X109642340Y-103632000D01*
X109662936Y-103867407D01*
X109685534Y-103951742D01*
X109724097Y-104095663D01*
X109823965Y-104309830D01*
X109959505Y-104503401D01*
X110126599Y-104670495D01*
X110312160Y-104800426D01*
X110355783Y-104855002D01*
X110362976Y-104924501D01*
X110331454Y-104986855D01*
X110312160Y-105003574D01*
X110145684Y-105120142D01*
X110126595Y-105133508D01*
X109959505Y-105300598D01*
X109823965Y-105494170D01*
X109724097Y-105708336D01*
X109662936Y-105936592D01*
X109642340Y-106172000D01*
X106795848Y-106172000D01*
X106807403Y-106169544D01*
X106980330Y-106092551D01*
X107133471Y-105981288D01*
X107260133Y-105840616D01*
X107354779Y-105676684D01*
X107413274Y-105496656D01*
X107433060Y-105308400D01*
X107413274Y-105120144D01*
X107374608Y-105001144D01*
X107354779Y-104940115D01*
X107260133Y-104776183D01*
X107133470Y-104635510D01*
X106980330Y-104524248D01*
X106807402Y-104447255D01*
X106622248Y-104407900D01*
X106622246Y-104407900D01*
X106432954Y-104407900D01*
X106432952Y-104407900D01*
X106247797Y-104447255D01*
X106074869Y-104524248D01*
X105921729Y-104635510D01*
X105795066Y-104776183D01*
X105700420Y-104940115D01*
X105641926Y-105120142D01*
X105622140Y-105308399D01*
X101919954Y-105308399D01*
X101977674Y-105130756D01*
X101997460Y-104942500D01*
X101977674Y-104754244D01*
X101939095Y-104635510D01*
X101919179Y-104574215D01*
X101824533Y-104410283D01*
X101697870Y-104269610D01*
X101544730Y-104158348D01*
X101371802Y-104081355D01*
X101186648Y-104042000D01*
X101186646Y-104042000D01*
X100997354Y-104042000D01*
X100997352Y-104042000D01*
X100812197Y-104081355D01*
X100639269Y-104158348D01*
X100486129Y-104269610D01*
X100359466Y-104410283D01*
X100264820Y-104574215D01*
X100206326Y-104754242D01*
X100186540Y-104942500D01*
X90752206Y-104942500D01*
X90747435Y-104927815D01*
X90743179Y-104914715D01*
X90648533Y-104750783D01*
X90521870Y-104610110D01*
X90368730Y-104498848D01*
X90195802Y-104421855D01*
X90010648Y-104382500D01*
X90010646Y-104382500D01*
X89821354Y-104382500D01*
X89821352Y-104382500D01*
X89636197Y-104421855D01*
X89463269Y-104498848D01*
X89310129Y-104610110D01*
X89183466Y-104750783D01*
X89088820Y-104914715D01*
X89030326Y-105094742D01*
X89010540Y-105283000D01*
X78998896Y-105283000D01*
X78849401Y-105133505D01*
X78663839Y-105003573D01*
X78620216Y-104948998D01*
X78613022Y-104879500D01*
X78644545Y-104817145D01*
X78663837Y-104800428D01*
X78849401Y-104670495D01*
X79016495Y-104503401D01*
X79152035Y-104309830D01*
X79231229Y-104139999D01*
X85200540Y-104139999D01*
X85220326Y-104328257D01*
X85278820Y-104508284D01*
X85373466Y-104672216D01*
X85500129Y-104812889D01*
X85653269Y-104924151D01*
X85826197Y-105001144D01*
X86011352Y-105040500D01*
X86011354Y-105040500D01*
X86200648Y-105040500D01*
X86324084Y-105014262D01*
X86385803Y-105001144D01*
X86500063Y-104950271D01*
X86569314Y-104940986D01*
X86600936Y-104950271D01*
X86715197Y-105001144D01*
X86900352Y-105040500D01*
X86900354Y-105040500D01*
X87089648Y-105040500D01*
X87213083Y-105014262D01*
X87274803Y-105001144D01*
X87447730Y-104924151D01*
X87600871Y-104812888D01*
X87727533Y-104672216D01*
X87822179Y-104508284D01*
X87880674Y-104328256D01*
X87900460Y-104140000D01*
X87880674Y-103951744D01*
X87822179Y-103771716D01*
X87822179Y-103771715D01*
X87727533Y-103607783D01*
X87600870Y-103467110D01*
X87447730Y-103355848D01*
X87274802Y-103278855D01*
X87089648Y-103239500D01*
X87089646Y-103239500D01*
X86900354Y-103239500D01*
X86900352Y-103239500D01*
X86715198Y-103278854D01*
X86600935Y-103329728D01*
X86531685Y-103339012D01*
X86500065Y-103329728D01*
X86385801Y-103278854D01*
X86200648Y-103239500D01*
X86200646Y-103239500D01*
X86011354Y-103239500D01*
X86011352Y-103239500D01*
X85826197Y-103278855D01*
X85653269Y-103355848D01*
X85500129Y-103467110D01*
X85373466Y-103607783D01*
X85278820Y-103771715D01*
X85220326Y-103951742D01*
X85200540Y-104139999D01*
X79231229Y-104139999D01*
X79251903Y-104095663D01*
X79313063Y-103867408D01*
X79333659Y-103632000D01*
X79313063Y-103396592D01*
X79251903Y-103168337D01*
X79152035Y-102954171D01*
X79016495Y-102760599D01*
X78849401Y-102593505D01*
X78663839Y-102463573D01*
X78620216Y-102408998D01*
X78613022Y-102339500D01*
X78644545Y-102277145D01*
X78663837Y-102260428D01*
X78849401Y-102130495D01*
X79016495Y-101963401D01*
X79093099Y-101853999D01*
X106680037Y-101853999D01*
X106699823Y-102042257D01*
X106758317Y-102222284D01*
X106852963Y-102386216D01*
X106979626Y-102526889D01*
X107132766Y-102638151D01*
X107305694Y-102715144D01*
X107490849Y-102754500D01*
X107490851Y-102754500D01*
X107680145Y-102754500D01*
X107865297Y-102715145D01*
X107865298Y-102715144D01*
X107865300Y-102715144D01*
X108034814Y-102639670D01*
X108104060Y-102630385D01*
X108135683Y-102639671D01*
X108305197Y-102715144D01*
X108490352Y-102754500D01*
X108490354Y-102754500D01*
X108679648Y-102754500D01*
X108803084Y-102728262D01*
X108864803Y-102715144D01*
X109037730Y-102638151D01*
X109190871Y-102526888D01*
X109317533Y-102386216D01*
X109412179Y-102222284D01*
X109470674Y-102042256D01*
X109490460Y-101854000D01*
X109470674Y-101665744D01*
X109434906Y-101555662D01*
X109412179Y-101485715D01*
X109317533Y-101321783D01*
X109190870Y-101181110D01*
X109037730Y-101069848D01*
X108864802Y-100992855D01*
X108679648Y-100953500D01*
X108679646Y-100953500D01*
X108490354Y-100953500D01*
X108490352Y-100953500D01*
X108305197Y-100992855D01*
X108135684Y-101068328D01*
X108066434Y-101077613D01*
X108034812Y-101068328D01*
X107865299Y-100992855D01*
X107680145Y-100953500D01*
X107680143Y-100953500D01*
X107490851Y-100953500D01*
X107490849Y-100953500D01*
X107305694Y-100992855D01*
X107132766Y-101069848D01*
X106979626Y-101181110D01*
X106852963Y-101321783D01*
X106758317Y-101485715D01*
X106699823Y-101665742D01*
X106680037Y-101853999D01*
X79093099Y-101853999D01*
X79152035Y-101769830D01*
X79251903Y-101555663D01*
X79313063Y-101327408D01*
X79333659Y-101092000D01*
X79313063Y-100856592D01*
X79251903Y-100628337D01*
X79152035Y-100414171D01*
X79016495Y-100220599D01*
X78849401Y-100053505D01*
X78663839Y-99923573D01*
X78620217Y-99868998D01*
X78613024Y-99799499D01*
X78644546Y-99737145D01*
X78663837Y-99720428D01*
X78849401Y-99590495D01*
X79016495Y-99423401D01*
X79152035Y-99229830D01*
X79251903Y-99015663D01*
X79313063Y-98787408D01*
X79333659Y-98552000D01*
X79333659Y-98551999D01*
X85581540Y-98551999D01*
X85601326Y-98740257D01*
X85659820Y-98920284D01*
X85754466Y-99084216D01*
X85881129Y-99224889D01*
X86034269Y-99336151D01*
X86207197Y-99413144D01*
X86392352Y-99452500D01*
X86392354Y-99452500D01*
X86581648Y-99452500D01*
X86718547Y-99423401D01*
X86766803Y-99413144D01*
X86939730Y-99336151D01*
X87092871Y-99224888D01*
X87219533Y-99084216D01*
X87314179Y-98920284D01*
X87346966Y-98819378D01*
X97278918Y-98819378D01*
X97298704Y-99007635D01*
X97357198Y-99187662D01*
X97451844Y-99351594D01*
X97578507Y-99492267D01*
X97731647Y-99603529D01*
X97904575Y-99680522D01*
X98089730Y-99719878D01*
X98089732Y-99719878D01*
X98279026Y-99719878D01*
X98402461Y-99693640D01*
X98464181Y-99680522D01*
X98637108Y-99603529D01*
X98790249Y-99492266D01*
X98916911Y-99351594D01*
X98980796Y-99240940D01*
X99031361Y-99192727D01*
X99099968Y-99179503D01*
X99113961Y-99181651D01*
X99167586Y-99193050D01*
X99356878Y-99193050D01*
X99454051Y-99172395D01*
X99523716Y-99177711D01*
X99579450Y-99219847D01*
X99598159Y-99267899D01*
X99599049Y-99267611D01*
X99603075Y-99280004D01*
X99603076Y-99280006D01*
X99617046Y-99323001D01*
X99661570Y-99460034D01*
X99722085Y-99564849D01*
X99738558Y-99632750D01*
X99715705Y-99698776D01*
X99665134Y-99740128D01*
X99496269Y-99815312D01*
X99343129Y-99926574D01*
X99216466Y-100067247D01*
X99121820Y-100231179D01*
X99063326Y-100411206D01*
X99043540Y-100599463D01*
X99043540Y-100599464D01*
X99046575Y-100628337D01*
X99063326Y-100787721D01*
X99121820Y-100967748D01*
X99216466Y-101131680D01*
X99343129Y-101272353D01*
X99496269Y-101383615D01*
X99669197Y-101460608D01*
X99854352Y-101499964D01*
X99854354Y-101499964D01*
X100043648Y-101499964D01*
X100167084Y-101473726D01*
X100228803Y-101460608D01*
X100401730Y-101383615D01*
X100479094Y-101327407D01*
X100554870Y-101272353D01*
X100681533Y-101131680D01*
X100776179Y-100967748D01*
X100812296Y-100856592D01*
X100834674Y-100787720D01*
X100854460Y-100599464D01*
X100834674Y-100411208D01*
X100776179Y-100231180D01*
X100776179Y-100231179D01*
X100715664Y-100126364D01*
X100699191Y-100058464D01*
X100722044Y-99992437D01*
X100772613Y-99951086D01*
X100941480Y-99875901D01*
X100941480Y-99875900D01*
X100941482Y-99875900D01*
X101094620Y-99764639D01*
X101221283Y-99623966D01*
X101315929Y-99460034D01*
X101327832Y-99423401D01*
X101374424Y-99280006D01*
X101394210Y-99091750D01*
X101374424Y-98903494D01*
X101321385Y-98740257D01*
X101315929Y-98723465D01*
X101221283Y-98559533D01*
X101181433Y-98515276D01*
X101151202Y-98452284D01*
X101155651Y-98393984D01*
X101157177Y-98389287D01*
X101157179Y-98389284D01*
X101183693Y-98307679D01*
X101223131Y-98250006D01*
X101287490Y-98222808D01*
X101301624Y-98222000D01*
X101313648Y-98222000D01*
X101439656Y-98195216D01*
X101498803Y-98182644D01*
X101671730Y-98105651D01*
X101774088Y-98031284D01*
X101824870Y-97994389D01*
X101872756Y-97941207D01*
X101951533Y-97853716D01*
X102046179Y-97689784D01*
X102104674Y-97509756D01*
X102124460Y-97321500D01*
X102104674Y-97133244D01*
X102046179Y-96953216D01*
X102046179Y-96953215D01*
X101951533Y-96789283D01*
X101824870Y-96648610D01*
X101671730Y-96537348D01*
X101498802Y-96460355D01*
X101313648Y-96421000D01*
X101313646Y-96421000D01*
X101124354Y-96421000D01*
X101124352Y-96421000D01*
X100939197Y-96460355D01*
X100766269Y-96537348D01*
X100613129Y-96648610D01*
X100486466Y-96789283D01*
X100391820Y-96953215D01*
X100365307Y-97034818D01*
X100325870Y-97092493D01*
X100261511Y-97119692D01*
X100247376Y-97120500D01*
X100235352Y-97120500D01*
X100050197Y-97159855D01*
X99877269Y-97236848D01*
X99804112Y-97289999D01*
X99738305Y-97313478D01*
X99670252Y-97297652D01*
X99621558Y-97247545D01*
X99613300Y-97228006D01*
X99577262Y-97117093D01*
X99563385Y-97074382D01*
X99468739Y-96910450D01*
X99342076Y-96769777D01*
X99188936Y-96658515D01*
X99016008Y-96581522D01*
X98830854Y-96542167D01*
X98830852Y-96542167D01*
X98641560Y-96542167D01*
X98641558Y-96542167D01*
X98456403Y-96581522D01*
X98283475Y-96658515D01*
X98130335Y-96769777D01*
X98003672Y-96910450D01*
X97909026Y-97074382D01*
X97850532Y-97254409D01*
X97830746Y-97442667D01*
X97850532Y-97630924D01*
X97913054Y-97823346D01*
X97910967Y-97824023D01*
X97923375Y-97875182D01*
X97900519Y-97941207D01*
X97849952Y-97982553D01*
X97731647Y-98035226D01*
X97578507Y-98146488D01*
X97451844Y-98287161D01*
X97357198Y-98451093D01*
X97298704Y-98631120D01*
X97278918Y-98819378D01*
X87346966Y-98819378D01*
X87372674Y-98740256D01*
X87392460Y-98552000D01*
X87372674Y-98363744D01*
X87314179Y-98183716D01*
X87314179Y-98183715D01*
X87219533Y-98019783D01*
X87092870Y-97879110D01*
X86939730Y-97767848D01*
X86766802Y-97690855D01*
X86635748Y-97662999D01*
X95360540Y-97662999D01*
X95380326Y-97851257D01*
X95438820Y-98031284D01*
X95533466Y-98195216D01*
X95660129Y-98335889D01*
X95813269Y-98447151D01*
X95986197Y-98524144D01*
X96171352Y-98563500D01*
X96171354Y-98563500D01*
X96360648Y-98563500D01*
X96484084Y-98537262D01*
X96545803Y-98524144D01*
X96718730Y-98447151D01*
X96718729Y-98447150D01*
X96871870Y-98335889D01*
X96974417Y-98222000D01*
X96998533Y-98195216D01*
X97093179Y-98031284D01*
X97151674Y-97851256D01*
X97171460Y-97663000D01*
X97151674Y-97474744D01*
X97101882Y-97321500D01*
X97093179Y-97294715D01*
X96998533Y-97130783D01*
X96871870Y-96990110D01*
X96766174Y-96913318D01*
X96723508Y-96857988D01*
X96717529Y-96788375D01*
X96750135Y-96726580D01*
X96810973Y-96692223D01*
X96839059Y-96689000D01*
X96868648Y-96689000D01*
X97012068Y-96658515D01*
X97053803Y-96649644D01*
X97226730Y-96572651D01*
X97360223Y-96475663D01*
X97379870Y-96461389D01*
X97506533Y-96320716D01*
X97601179Y-96156784D01*
X97648222Y-96012000D01*
X97659674Y-95976756D01*
X97679460Y-95788500D01*
X97659674Y-95600244D01*
X97601179Y-95420216D01*
X97601179Y-95420215D01*
X97506533Y-95256283D01*
X97379870Y-95115610D01*
X97226730Y-95004348D01*
X97053802Y-94927355D01*
X96868648Y-94888000D01*
X96868646Y-94888000D01*
X96679354Y-94888000D01*
X96679352Y-94888000D01*
X96494197Y-94927355D01*
X96321269Y-95004348D01*
X96168129Y-95115610D01*
X96041466Y-95256283D01*
X95946820Y-95420215D01*
X95888326Y-95600242D01*
X95868540Y-95788499D01*
X95888326Y-95976757D01*
X95946820Y-96156784D01*
X96041466Y-96320716D01*
X96168129Y-96461389D01*
X96273826Y-96538182D01*
X96316492Y-96593512D01*
X96322471Y-96663125D01*
X96289865Y-96724920D01*
X96229027Y-96759277D01*
X96200941Y-96762500D01*
X96171352Y-96762500D01*
X95986197Y-96801855D01*
X95813269Y-96878848D01*
X95660129Y-96990110D01*
X95533466Y-97130783D01*
X95438820Y-97294715D01*
X95380326Y-97474742D01*
X95360540Y-97662999D01*
X86635748Y-97662999D01*
X86581648Y-97651500D01*
X86581646Y-97651500D01*
X86392354Y-97651500D01*
X86392352Y-97651500D01*
X86207197Y-97690855D01*
X86034269Y-97767848D01*
X85881129Y-97879110D01*
X85754466Y-98019783D01*
X85659820Y-98183715D01*
X85601326Y-98363742D01*
X85581540Y-98551999D01*
X79333659Y-98551999D01*
X79313063Y-98316592D01*
X79251903Y-98088337D01*
X79152035Y-97874171D01*
X79016495Y-97680599D01*
X78849401Y-97513505D01*
X78663839Y-97383573D01*
X78620216Y-97328998D01*
X78613022Y-97259500D01*
X78644545Y-97197145D01*
X78663837Y-97180428D01*
X78849401Y-97050495D01*
X79016495Y-96883401D01*
X79152035Y-96689830D01*
X79231228Y-96520000D01*
X90534540Y-96520000D01*
X90554326Y-96708257D01*
X90612820Y-96888284D01*
X90707466Y-97052216D01*
X90834129Y-97192889D01*
X90987269Y-97304151D01*
X91160197Y-97381144D01*
X91345352Y-97420500D01*
X91345354Y-97420500D01*
X91534648Y-97420500D01*
X91658083Y-97394262D01*
X91719803Y-97381144D01*
X91892730Y-97304151D01*
X92045871Y-97192888D01*
X92172533Y-97052216D01*
X92267179Y-96888284D01*
X92325674Y-96708256D01*
X92345460Y-96520000D01*
X92325674Y-96331744D01*
X92267179Y-96151716D01*
X92267179Y-96151715D01*
X92172533Y-95987783D01*
X92045873Y-95847114D01*
X92045872Y-95847113D01*
X92045871Y-95847112D01*
X91973892Y-95794816D01*
X91931228Y-95739489D01*
X91925249Y-95669876D01*
X91957854Y-95608080D01*
X91973885Y-95594188D01*
X92045871Y-95541888D01*
X92172533Y-95401216D01*
X92267179Y-95237284D01*
X92325674Y-95057256D01*
X92345460Y-94869000D01*
X92325674Y-94680744D01*
X92295332Y-94587363D01*
X92267179Y-94500715D01*
X92172533Y-94336783D01*
X92045870Y-94196110D01*
X91966576Y-94138500D01*
X97409037Y-94138500D01*
X97410228Y-94149830D01*
X97428823Y-94326757D01*
X97487317Y-94506784D01*
X97581963Y-94670716D01*
X97708626Y-94811389D01*
X97861766Y-94922651D01*
X98034694Y-94999644D01*
X98219849Y-95039000D01*
X98219851Y-95039000D01*
X98409145Y-95039000D01*
X98532581Y-95012762D01*
X98594300Y-94999644D01*
X98767227Y-94922651D01*
X98883788Y-94837965D01*
X98920367Y-94811389D01*
X99047030Y-94670716D01*
X99141676Y-94506784D01*
X99147779Y-94488000D01*
X105079040Y-94488000D01*
X105098826Y-94676257D01*
X105157320Y-94856284D01*
X105251966Y-95020216D01*
X105378629Y-95160889D01*
X105531769Y-95272151D01*
X105704697Y-95349144D01*
X105889852Y-95388500D01*
X105889854Y-95388500D01*
X106079148Y-95388500D01*
X106202584Y-95362262D01*
X106264303Y-95349144D01*
X106437230Y-95272151D01*
X106590371Y-95160888D01*
X106717033Y-95020216D01*
X106811679Y-94856284D01*
X106870174Y-94676256D01*
X106889960Y-94488000D01*
X106889959Y-94487999D01*
X106890522Y-94482651D01*
X106917107Y-94418037D01*
X106974404Y-94378052D01*
X107013843Y-94371613D01*
X107143154Y-94371613D01*
X107328306Y-94332258D01*
X107328307Y-94332257D01*
X107328309Y-94332257D01*
X107432185Y-94286007D01*
X107501432Y-94276722D01*
X107555505Y-94298970D01*
X107592769Y-94326044D01*
X107765697Y-94403037D01*
X107950852Y-94442393D01*
X107950854Y-94442393D01*
X108140148Y-94442393D01*
X108263583Y-94416155D01*
X108325303Y-94403037D01*
X108498230Y-94326044D01*
X108651371Y-94214781D01*
X108778033Y-94074109D01*
X108872679Y-93910177D01*
X108931174Y-93730149D01*
X108950960Y-93541893D01*
X108931174Y-93353637D01*
X108893144Y-93236592D01*
X108872679Y-93173608D01*
X108778033Y-93009676D01*
X108651370Y-92869003D01*
X108498230Y-92757741D01*
X108325302Y-92680748D01*
X108140148Y-92641393D01*
X108140146Y-92641393D01*
X107950854Y-92641393D01*
X107950852Y-92641393D01*
X107765698Y-92680747D01*
X107661820Y-92726997D01*
X107592570Y-92736281D01*
X107538499Y-92714035D01*
X107508539Y-92692268D01*
X107501236Y-92686962D01*
X107501235Y-92686961D01*
X107501233Y-92686960D01*
X107328308Y-92609968D01*
X107143154Y-92570613D01*
X107143152Y-92570613D01*
X106953860Y-92570613D01*
X106953858Y-92570613D01*
X106768703Y-92609968D01*
X106595775Y-92686961D01*
X106442635Y-92798223D01*
X106315972Y-92938896D01*
X106221326Y-93102828D01*
X106162832Y-93282855D01*
X106162831Y-93282857D01*
X106162832Y-93282857D01*
X106143625Y-93465610D01*
X106142484Y-93476462D01*
X106115899Y-93541076D01*
X106058602Y-93581061D01*
X106019163Y-93587500D01*
X105889852Y-93587500D01*
X105704697Y-93626855D01*
X105531769Y-93703848D01*
X105378629Y-93815110D01*
X105251966Y-93955783D01*
X105157320Y-94119715D01*
X105098826Y-94299742D01*
X105079040Y-94488000D01*
X99147779Y-94488000D01*
X99162598Y-94442393D01*
X99200171Y-94326756D01*
X99219957Y-94138500D01*
X99200171Y-93950244D01*
X99141676Y-93770216D01*
X99141676Y-93770215D01*
X99047030Y-93606283D01*
X98920367Y-93465610D01*
X98767227Y-93354348D01*
X98594299Y-93277355D01*
X98409145Y-93238000D01*
X98409143Y-93238000D01*
X98219851Y-93238000D01*
X98219849Y-93238000D01*
X98034694Y-93277355D01*
X97861766Y-93354348D01*
X97708626Y-93465610D01*
X97581963Y-93606283D01*
X97487317Y-93770215D01*
X97428823Y-93950242D01*
X97414676Y-94084848D01*
X97409037Y-94138500D01*
X91966576Y-94138500D01*
X91892730Y-94084848D01*
X91719802Y-94007855D01*
X91534648Y-93968500D01*
X91534646Y-93968500D01*
X91345354Y-93968500D01*
X91345352Y-93968500D01*
X91160197Y-94007855D01*
X90987269Y-94084848D01*
X90834129Y-94196110D01*
X90707466Y-94336783D01*
X90612820Y-94500715D01*
X90554326Y-94680742D01*
X90534540Y-94869000D01*
X90554326Y-95057257D01*
X90612820Y-95237284D01*
X90707466Y-95401216D01*
X90834127Y-95541887D01*
X90906105Y-95594182D01*
X90948770Y-95649512D01*
X90954749Y-95719126D01*
X90922143Y-95780921D01*
X90906105Y-95794818D01*
X90834127Y-95847112D01*
X90707466Y-95987783D01*
X90612820Y-96151715D01*
X90554326Y-96331742D01*
X90534540Y-96520000D01*
X79231228Y-96520000D01*
X79251903Y-96475663D01*
X79313063Y-96247408D01*
X79333659Y-96012000D01*
X79313063Y-95776592D01*
X79251903Y-95548337D01*
X79152035Y-95334171D01*
X79016495Y-95140599D01*
X78849401Y-94973505D01*
X78663839Y-94843573D01*
X78620216Y-94788998D01*
X78613022Y-94719500D01*
X78644545Y-94657145D01*
X78663837Y-94640428D01*
X78849401Y-94510495D01*
X79016495Y-94343401D01*
X79152035Y-94149830D01*
X79251903Y-93935663D01*
X79313063Y-93707408D01*
X79333659Y-93472000D01*
X79313063Y-93236592D01*
X79300007Y-93187865D01*
X102585180Y-93187865D01*
X102604966Y-93376123D01*
X102663460Y-93556150D01*
X102758106Y-93720082D01*
X102884769Y-93860755D01*
X103037909Y-93972017D01*
X103210837Y-94049010D01*
X103395992Y-94088366D01*
X103395994Y-94088366D01*
X103585288Y-94088366D01*
X103708723Y-94062128D01*
X103770443Y-94049010D01*
X103943370Y-93972017D01*
X104096511Y-93860754D01*
X104223173Y-93720082D01*
X104317819Y-93556150D01*
X104376314Y-93376122D01*
X104396100Y-93187866D01*
X104376314Y-92999610D01*
X104345972Y-92906229D01*
X104317819Y-92819581D01*
X104223173Y-92655649D01*
X104096510Y-92514976D01*
X103943370Y-92403714D01*
X103770442Y-92326721D01*
X103585288Y-92287366D01*
X103585286Y-92287366D01*
X103395994Y-92287366D01*
X103395992Y-92287366D01*
X103210837Y-92326721D01*
X103037909Y-92403714D01*
X102884769Y-92514976D01*
X102758106Y-92655649D01*
X102663460Y-92819581D01*
X102604966Y-92999608D01*
X102585180Y-93187865D01*
X79300007Y-93187865D01*
X79251903Y-93008337D01*
X79152035Y-92794171D01*
X79016495Y-92600599D01*
X78849401Y-92433505D01*
X78663839Y-92303573D01*
X78620215Y-92248997D01*
X78615352Y-92202000D01*
X84692540Y-92202000D01*
X84712326Y-92390257D01*
X84770820Y-92570284D01*
X84865466Y-92734216D01*
X84992129Y-92874889D01*
X85145269Y-92986151D01*
X85318197Y-93063144D01*
X85503352Y-93102500D01*
X85503354Y-93102500D01*
X85692648Y-93102500D01*
X85816083Y-93076262D01*
X85877803Y-93063144D01*
X86050730Y-92986151D01*
X86203871Y-92874888D01*
X86330533Y-92734216D01*
X86330534Y-92734213D01*
X86336501Y-92727587D01*
X86395987Y-92690938D01*
X86465844Y-92692268D01*
X86520801Y-92727586D01*
X86631102Y-92850087D01*
X86784239Y-92961347D01*
X86957167Y-93038340D01*
X87142322Y-93077696D01*
X87142324Y-93077696D01*
X87331618Y-93077696D01*
X87455054Y-93051458D01*
X87516773Y-93038340D01*
X87689700Y-92961347D01*
X87808701Y-92874888D01*
X87842840Y-92850085D01*
X87969503Y-92709412D01*
X88064149Y-92545480D01*
X88080912Y-92493888D01*
X88122644Y-92365452D01*
X88139823Y-92202000D01*
X93836540Y-92202000D01*
X93856326Y-92390257D01*
X93914820Y-92570284D01*
X94009466Y-92734216D01*
X94136129Y-92874889D01*
X94289269Y-92986151D01*
X94462197Y-93063144D01*
X94647352Y-93102500D01*
X94647354Y-93102500D01*
X94836648Y-93102500D01*
X94960083Y-93076262D01*
X95021803Y-93063144D01*
X95194730Y-92986151D01*
X95347871Y-92874888D01*
X95474533Y-92734216D01*
X95569179Y-92570284D01*
X95627674Y-92390256D01*
X95647460Y-92202000D01*
X96630540Y-92202000D01*
X96650326Y-92390257D01*
X96708820Y-92570284D01*
X96803466Y-92734216D01*
X96930129Y-92874889D01*
X97083269Y-92986151D01*
X97256197Y-93063144D01*
X97441352Y-93102500D01*
X97441354Y-93102500D01*
X97630648Y-93102500D01*
X97754084Y-93076262D01*
X97815803Y-93063144D01*
X97988730Y-92986151D01*
X98141871Y-92874888D01*
X98268533Y-92734216D01*
X98363179Y-92570284D01*
X98406521Y-92436889D01*
X98445957Y-92379216D01*
X98510315Y-92352017D01*
X98579161Y-92363931D01*
X98616600Y-92392235D01*
X98656809Y-92436892D01*
X98708132Y-92493891D01*
X98861269Y-92605151D01*
X99034197Y-92682144D01*
X99219352Y-92721500D01*
X99219354Y-92721500D01*
X99408648Y-92721500D01*
X99552430Y-92690938D01*
X99593803Y-92682144D01*
X99766730Y-92605151D01*
X99814722Y-92570283D01*
X99919870Y-92493889D01*
X99974238Y-92433508D01*
X100046533Y-92353216D01*
X100141179Y-92189284D01*
X100199674Y-92009256D01*
X100219460Y-91821000D01*
X100199674Y-91632744D01*
X100157942Y-91504306D01*
X100141179Y-91452715D01*
X100046533Y-91288783D01*
X99919870Y-91148110D01*
X99766730Y-91036848D01*
X99593802Y-90959855D01*
X99408648Y-90920500D01*
X99408646Y-90920500D01*
X99219354Y-90920500D01*
X99219352Y-90920500D01*
X99034197Y-90959855D01*
X98861269Y-91036848D01*
X98708129Y-91148110D01*
X98581466Y-91288783D01*
X98486820Y-91452715D01*
X98443479Y-91586108D01*
X98404042Y-91643784D01*
X98339683Y-91670982D01*
X98270837Y-91659067D01*
X98233398Y-91630762D01*
X98141870Y-91529110D01*
X97988730Y-91417848D01*
X97815802Y-91340855D01*
X97630648Y-91301500D01*
X97630646Y-91301500D01*
X97441354Y-91301500D01*
X97441352Y-91301500D01*
X97256197Y-91340855D01*
X97083269Y-91417848D01*
X96930129Y-91529110D01*
X96803466Y-91669783D01*
X96708820Y-91833715D01*
X96650326Y-92013742D01*
X96630540Y-92202000D01*
X95647460Y-92202000D01*
X95627674Y-92013744D01*
X95569179Y-91833716D01*
X95569179Y-91833715D01*
X95474533Y-91669783D01*
X95347870Y-91529110D01*
X95194730Y-91417848D01*
X95021802Y-91340855D01*
X94836648Y-91301500D01*
X94836646Y-91301500D01*
X94647354Y-91301500D01*
X94647352Y-91301500D01*
X94462197Y-91340855D01*
X94289269Y-91417848D01*
X94136129Y-91529110D01*
X94009466Y-91669783D01*
X93914820Y-91833715D01*
X93856326Y-92013742D01*
X93836540Y-92202000D01*
X88139823Y-92202000D01*
X88142430Y-92177196D01*
X88122644Y-91988940D01*
X88092302Y-91895559D01*
X88064149Y-91808911D01*
X87969503Y-91644979D01*
X87842840Y-91504306D01*
X87689700Y-91393044D01*
X87516772Y-91316051D01*
X87331618Y-91276696D01*
X87331616Y-91276696D01*
X87142324Y-91276696D01*
X87142322Y-91276696D01*
X86957167Y-91316051D01*
X86784239Y-91393044D01*
X86631102Y-91504305D01*
X86631099Y-91504307D01*
X86631099Y-91504308D01*
X86557446Y-91586108D01*
X86498468Y-91651609D01*
X86438981Y-91688257D01*
X86369124Y-91686926D01*
X86314168Y-91651609D01*
X86276547Y-91609827D01*
X86203871Y-91529112D01*
X86203869Y-91529111D01*
X86203867Y-91529108D01*
X86050730Y-91417848D01*
X85877802Y-91340855D01*
X85692648Y-91301500D01*
X85692646Y-91301500D01*
X85503354Y-91301500D01*
X85503352Y-91301500D01*
X85318197Y-91340855D01*
X85145269Y-91417848D01*
X84992129Y-91529110D01*
X84865466Y-91669783D01*
X84770820Y-91833715D01*
X84712326Y-92013742D01*
X84692540Y-92202000D01*
X78615352Y-92202000D01*
X78613023Y-92179498D01*
X78644545Y-92117144D01*
X78663831Y-92100432D01*
X78849401Y-91970495D01*
X79016495Y-91803401D01*
X79152035Y-91609830D01*
X79251903Y-91395663D01*
X79313063Y-91167408D01*
X79333659Y-90932000D01*
X79313063Y-90696592D01*
X79251903Y-90468337D01*
X79152035Y-90254171D01*
X79016495Y-90060599D01*
X78849401Y-89893505D01*
X78663839Y-89763573D01*
X78620215Y-89708997D01*
X78613023Y-89639498D01*
X78644545Y-89577144D01*
X78663831Y-89560432D01*
X78849401Y-89430495D01*
X79016495Y-89263401D01*
X79152035Y-89069830D01*
X79251903Y-88855663D01*
X79313063Y-88627408D01*
X79333659Y-88392000D01*
X79313063Y-88156592D01*
X79301785Y-88114500D01*
X90534540Y-88114500D01*
X90554326Y-88302757D01*
X90612820Y-88482784D01*
X90707466Y-88646716D01*
X90834129Y-88787389D01*
X90987265Y-88898649D01*
X91037461Y-88920997D01*
X91135430Y-88964616D01*
X91188666Y-89009867D01*
X91208987Y-89076716D01*
X91189942Y-89143940D01*
X91157879Y-89178214D01*
X91074624Y-89238701D01*
X90947963Y-89379372D01*
X90853317Y-89543304D01*
X90794823Y-89723331D01*
X90775037Y-89911589D01*
X90794823Y-90099846D01*
X90853317Y-90279873D01*
X90947963Y-90443805D01*
X91074626Y-90584478D01*
X91227766Y-90695740D01*
X91400694Y-90772733D01*
X91585849Y-90812089D01*
X91585851Y-90812089D01*
X91775145Y-90812089D01*
X91898580Y-90785851D01*
X91960300Y-90772733D01*
X92133227Y-90695740D01*
X92286368Y-90584477D01*
X92413030Y-90443805D01*
X92507676Y-90279873D01*
X92566171Y-90099845D01*
X92585957Y-89911589D01*
X92566171Y-89723333D01*
X92518671Y-89577144D01*
X92507676Y-89543304D01*
X92413030Y-89379372D01*
X92286367Y-89238699D01*
X92133227Y-89127437D01*
X91985067Y-89061471D01*
X91931830Y-89016221D01*
X91911509Y-88949372D01*
X91930554Y-88882148D01*
X91962616Y-88847875D01*
X92045871Y-88787388D01*
X92172533Y-88646716D01*
X92267179Y-88482784D01*
X92325674Y-88302756D01*
X92345460Y-88114500D01*
X92325674Y-87926244D01*
X92267179Y-87746216D01*
X92267179Y-87746215D01*
X92172533Y-87582283D01*
X92045870Y-87441610D01*
X91892730Y-87330348D01*
X91719802Y-87253355D01*
X91534648Y-87214000D01*
X91534646Y-87214000D01*
X91345354Y-87214000D01*
X91345352Y-87214000D01*
X91160197Y-87253355D01*
X90987269Y-87330348D01*
X90834129Y-87441610D01*
X90707466Y-87582283D01*
X90612820Y-87746215D01*
X90554326Y-87926242D01*
X90534540Y-88114500D01*
X79301785Y-88114500D01*
X79251903Y-87928337D01*
X79152035Y-87714171D01*
X79016495Y-87520599D01*
X78849401Y-87353505D01*
X78663839Y-87223573D01*
X78620215Y-87168997D01*
X78613023Y-87099498D01*
X78644545Y-87037144D01*
X78663831Y-87020432D01*
X78849401Y-86890495D01*
X79016495Y-86723401D01*
X79152035Y-86529830D01*
X79251903Y-86315663D01*
X79313063Y-86087408D01*
X79333659Y-85852000D01*
X79313063Y-85616592D01*
X79251903Y-85388337D01*
X79152035Y-85174171D01*
X79016495Y-84980599D01*
X78849401Y-84813505D01*
X78663839Y-84683573D01*
X78620215Y-84628997D01*
X78613023Y-84559498D01*
X78644545Y-84497144D01*
X78663831Y-84480432D01*
X78849401Y-84350495D01*
X79016495Y-84183401D01*
X79152035Y-83989830D01*
X79231228Y-83820000D01*
X90661540Y-83820000D01*
X90681326Y-84008257D01*
X90739820Y-84188284D01*
X90834466Y-84352216D01*
X90961129Y-84492889D01*
X91114269Y-84604151D01*
X91287197Y-84681144D01*
X91472352Y-84720500D01*
X91472354Y-84720500D01*
X91661648Y-84720500D01*
X91785084Y-84694262D01*
X91846803Y-84681144D01*
X92019730Y-84604151D01*
X92172871Y-84492888D01*
X92299533Y-84352216D01*
X92313515Y-84327999D01*
X99932540Y-84327999D01*
X99952326Y-84516257D01*
X100010820Y-84696284D01*
X100105466Y-84860216D01*
X100232129Y-85000889D01*
X100385269Y-85112151D01*
X100558197Y-85189144D01*
X100743352Y-85228500D01*
X100743354Y-85228500D01*
X100932648Y-85228500D01*
X101056083Y-85202262D01*
X101117803Y-85189144D01*
X101290730Y-85112151D01*
X101290730Y-85112150D01*
X101400115Y-85032679D01*
X101465921Y-85009199D01*
X101533975Y-85025024D01*
X101545885Y-85032679D01*
X101655269Y-85112151D01*
X101828197Y-85189144D01*
X102013352Y-85228500D01*
X102013354Y-85228500D01*
X102202648Y-85228500D01*
X102326084Y-85202262D01*
X102387803Y-85189144D01*
X102560730Y-85112151D01*
X102713870Y-85000889D01*
X102840533Y-84860216D01*
X102935179Y-84696284D01*
X102972312Y-84582000D01*
X102993674Y-84516256D01*
X103013460Y-84328000D01*
X102993674Y-84139744D01*
X102935179Y-83959716D01*
X102935179Y-83959715D01*
X102840533Y-83795783D01*
X102713870Y-83655110D01*
X102560730Y-83543848D01*
X102387802Y-83466855D01*
X102202648Y-83427500D01*
X102202646Y-83427500D01*
X102013354Y-83427500D01*
X102013352Y-83427500D01*
X101828197Y-83466855D01*
X101655269Y-83543848D01*
X101545885Y-83623321D01*
X101480079Y-83646801D01*
X101412025Y-83630976D01*
X101400115Y-83623321D01*
X101290730Y-83543848D01*
X101117802Y-83466855D01*
X100932648Y-83427500D01*
X100932646Y-83427500D01*
X100743354Y-83427500D01*
X100743352Y-83427500D01*
X100558197Y-83466855D01*
X100385269Y-83543848D01*
X100232129Y-83655110D01*
X100105466Y-83795783D01*
X100010820Y-83959715D01*
X99952326Y-84139742D01*
X99932540Y-84327999D01*
X92313515Y-84327999D01*
X92394179Y-84188284D01*
X92452674Y-84008256D01*
X92472460Y-83820000D01*
X92452674Y-83631744D01*
X92422332Y-83538363D01*
X92394179Y-83451715D01*
X92299533Y-83287783D01*
X92172870Y-83147110D01*
X92019730Y-83035848D01*
X91846802Y-82958855D01*
X91661648Y-82919500D01*
X91661646Y-82919500D01*
X91472354Y-82919500D01*
X91472352Y-82919500D01*
X91287197Y-82958855D01*
X91114269Y-83035848D01*
X90961129Y-83147110D01*
X90834466Y-83287783D01*
X90739820Y-83451715D01*
X90681326Y-83631742D01*
X90661540Y-83820000D01*
X79231228Y-83820000D01*
X79251903Y-83775663D01*
X79313063Y-83547408D01*
X79333659Y-83312000D01*
X79313063Y-83076592D01*
X79251903Y-82848337D01*
X79152035Y-82634171D01*
X79016495Y-82440599D01*
X78849401Y-82273505D01*
X78663839Y-82143573D01*
X78620215Y-82088997D01*
X78613023Y-82019498D01*
X78644545Y-81957144D01*
X78663831Y-81940432D01*
X78849401Y-81810495D01*
X79016495Y-81643401D01*
X79152035Y-81449830D01*
X79251903Y-81235663D01*
X79313063Y-81007408D01*
X79333659Y-80772000D01*
X79313063Y-80536592D01*
X79251903Y-80308337D01*
X79152035Y-80094171D01*
X79016495Y-79900599D01*
X78849401Y-79733505D01*
X78663839Y-79603573D01*
X78620215Y-79548997D01*
X78613023Y-79479498D01*
X78644545Y-79417144D01*
X78663831Y-79400432D01*
X78849401Y-79270495D01*
X79016495Y-79103401D01*
X79152035Y-78909830D01*
X79251903Y-78695663D01*
X79313063Y-78467408D01*
X79333659Y-78232000D01*
X79313063Y-77996592D01*
X79251903Y-77768337D01*
X79152035Y-77554171D01*
X79016495Y-77360599D01*
X78849401Y-77193505D01*
X78663839Y-77063573D01*
X78620215Y-77008997D01*
X78613023Y-76939498D01*
X78644545Y-76877144D01*
X78663831Y-76860432D01*
X78849401Y-76730495D01*
X79016495Y-76563401D01*
X79152035Y-76369830D01*
X79251903Y-76155663D01*
X79313063Y-75927408D01*
X79333659Y-75692000D01*
X79313063Y-75456592D01*
X79251903Y-75228337D01*
X79152035Y-75014171D01*
X79016495Y-74820599D01*
X78849401Y-74653505D01*
X78663839Y-74523573D01*
X78620215Y-74468997D01*
X78613023Y-74399498D01*
X78644545Y-74337144D01*
X78663831Y-74320432D01*
X78849401Y-74190495D01*
X79016495Y-74023401D01*
X79152035Y-73829830D01*
X79251903Y-73615663D01*
X79313063Y-73387408D01*
X79333659Y-73152000D01*
X79313063Y-72916592D01*
X79251903Y-72688337D01*
X79152035Y-72474171D01*
X79016495Y-72280599D01*
X78849401Y-72113505D01*
X78663839Y-71983573D01*
X78620216Y-71928998D01*
X78613022Y-71859500D01*
X78644545Y-71797145D01*
X78663837Y-71780428D01*
X78849401Y-71650495D01*
X79016495Y-71483401D01*
X79152035Y-71289830D01*
X79251903Y-71075663D01*
X79313063Y-70847408D01*
X79333659Y-70612000D01*
X79313063Y-70376592D01*
X79251903Y-70148337D01*
X79152035Y-69934171D01*
X79016495Y-69740599D01*
X78849401Y-69573505D01*
X78663839Y-69443573D01*
X78620216Y-69388998D01*
X78613022Y-69319500D01*
X78644545Y-69257145D01*
X78663837Y-69240428D01*
X78849401Y-69110495D01*
X79016495Y-68943401D01*
X79152035Y-68749830D01*
X79251903Y-68535663D01*
X79313063Y-68307408D01*
X79333659Y-68072000D01*
X79313063Y-67836592D01*
X79251903Y-67608337D01*
X79152035Y-67394171D01*
X79093098Y-67310000D01*
X98916540Y-67310000D01*
X98936326Y-67498257D01*
X98994820Y-67678284D01*
X99089466Y-67842216D01*
X99216129Y-67982889D01*
X99369269Y-68094151D01*
X99542197Y-68171144D01*
X99727352Y-68210500D01*
X99727354Y-68210500D01*
X99916648Y-68210500D01*
X100040083Y-68184262D01*
X100101803Y-68171144D01*
X100213755Y-68121298D01*
X100279564Y-68091999D01*
X100348814Y-68082714D01*
X100380436Y-68091999D01*
X100558197Y-68171144D01*
X100743352Y-68210500D01*
X100743354Y-68210500D01*
X100932648Y-68210500D01*
X101056083Y-68184262D01*
X101117803Y-68171144D01*
X101290730Y-68094151D01*
X101443871Y-67982888D01*
X101570533Y-67842216D01*
X101665179Y-67678284D01*
X101723674Y-67498256D01*
X101743460Y-67310000D01*
X101723674Y-67121744D01*
X101665179Y-66941716D01*
X101665179Y-66941715D01*
X101570533Y-66777783D01*
X101443870Y-66637110D01*
X101290730Y-66525848D01*
X101117802Y-66448855D01*
X100932648Y-66409500D01*
X100932646Y-66409500D01*
X100743354Y-66409500D01*
X100743352Y-66409500D01*
X100558201Y-66448854D01*
X100380436Y-66528001D01*
X100311186Y-66537285D01*
X100279564Y-66528001D01*
X100184205Y-66485544D01*
X100101803Y-66448856D01*
X100101802Y-66448855D01*
X100101798Y-66448854D01*
X99916648Y-66409500D01*
X99916646Y-66409500D01*
X99727354Y-66409500D01*
X99727352Y-66409500D01*
X99542197Y-66448855D01*
X99369269Y-66525848D01*
X99216129Y-66637110D01*
X99089466Y-66777783D01*
X98994820Y-66941715D01*
X98936326Y-67121742D01*
X98916540Y-67310000D01*
X79093098Y-67310000D01*
X79016495Y-67200599D01*
X78849401Y-67033505D01*
X78663839Y-66903573D01*
X78620216Y-66848998D01*
X78613022Y-66779500D01*
X78644545Y-66717145D01*
X78663837Y-66700428D01*
X78849401Y-66570495D01*
X79016495Y-66403401D01*
X79152035Y-66209830D01*
X79251903Y-65995663D01*
X79313063Y-65767408D01*
X79333659Y-65532000D01*
X79313063Y-65296592D01*
X79251903Y-65068337D01*
X79152035Y-64854171D01*
X79016495Y-64660599D01*
X78894569Y-64538672D01*
X78861084Y-64477350D01*
X78866068Y-64407658D01*
X78907940Y-64351725D01*
X78938915Y-64334810D01*
X79070331Y-64285796D01*
X79185546Y-64199546D01*
X79271796Y-64084331D01*
X79322091Y-63949483D01*
X79328500Y-63889873D01*
X79328499Y-62094128D01*
X79322091Y-62034517D01*
X79271796Y-61899669D01*
X79185546Y-61784454D01*
X79070331Y-61698204D01*
X78935483Y-61647909D01*
X78883816Y-61642354D01*
X78879166Y-61641854D01*
X78879165Y-61641853D01*
X78875873Y-61641500D01*
X78872550Y-61641500D01*
X77083439Y-61641500D01*
X77083420Y-61641500D01*
X77080128Y-61641501D01*
X77076848Y-61641853D01*
X77076840Y-61641854D01*
X77020515Y-61647909D01*
X76885669Y-61698204D01*
X76770454Y-61784454D01*
X76684204Y-61899668D01*
X76633910Y-62034515D01*
X76633909Y-62034517D01*
X76627500Y-62094127D01*
X76627500Y-62097448D01*
X76627500Y-62097449D01*
X76627500Y-63886560D01*
X76627500Y-63886578D01*
X76627501Y-63889872D01*
X76633909Y-63949483D01*
X76684204Y-64084331D01*
X76770454Y-64199546D01*
X76885669Y-64285796D01*
X76997907Y-64327658D01*
X77017082Y-64334810D01*
X77073016Y-64376681D01*
X77097433Y-64442146D01*
X77082581Y-64510419D01*
X77061431Y-64538673D01*
X76939503Y-64660601D01*
X76803965Y-64854170D01*
X76704097Y-65068336D01*
X76642936Y-65296592D01*
X76622340Y-65532000D01*
X76642936Y-65767407D01*
X76687709Y-65934501D01*
X76704097Y-65995663D01*
X76803965Y-66209830D01*
X76939505Y-66403401D01*
X77106599Y-66570495D01*
X77292160Y-66700426D01*
X77335783Y-66755002D01*
X77342976Y-66824501D01*
X77311454Y-66886855D01*
X77292159Y-66903575D01*
X77106595Y-67033508D01*
X76939505Y-67200598D01*
X76803965Y-67394170D01*
X76704097Y-67608336D01*
X76642936Y-67836592D01*
X76622340Y-68071999D01*
X76642936Y-68307407D01*
X76687709Y-68474502D01*
X76704097Y-68535663D01*
X76803965Y-68749830D01*
X76939505Y-68943401D01*
X77106599Y-69110495D01*
X77292160Y-69240426D01*
X77335783Y-69295002D01*
X77342976Y-69364501D01*
X77311454Y-69426855D01*
X77292159Y-69443575D01*
X77106595Y-69573508D01*
X76939505Y-69740598D01*
X76803965Y-69934170D01*
X76704097Y-70148336D01*
X76642936Y-70376592D01*
X76622340Y-70612000D01*
X76642936Y-70847407D01*
X76687709Y-71014501D01*
X76704097Y-71075663D01*
X76803965Y-71289830D01*
X76939505Y-71483401D01*
X77106599Y-71650495D01*
X77292160Y-71780426D01*
X77335783Y-71835002D01*
X77342976Y-71904501D01*
X77311454Y-71966855D01*
X77292159Y-71983575D01*
X77106595Y-72113508D01*
X76939505Y-72280598D01*
X76803965Y-72474170D01*
X76704097Y-72688336D01*
X76642936Y-72916592D01*
X76622340Y-73152000D01*
X76642936Y-73387407D01*
X76687709Y-73554502D01*
X76704097Y-73615663D01*
X76803965Y-73829830D01*
X76939505Y-74023401D01*
X77106599Y-74190495D01*
X77292160Y-74320426D01*
X77335783Y-74375002D01*
X77342976Y-74444501D01*
X77311454Y-74506855D01*
X77292159Y-74523575D01*
X77106595Y-74653508D01*
X76939505Y-74820598D01*
X76803965Y-75014170D01*
X76704097Y-75228336D01*
X76642936Y-75456592D01*
X76622340Y-75691999D01*
X76642936Y-75927407D01*
X76687709Y-76094501D01*
X76704097Y-76155663D01*
X76803965Y-76369830D01*
X76939505Y-76563401D01*
X77106599Y-76730495D01*
X77292160Y-76860426D01*
X77335783Y-76915002D01*
X77342976Y-76984501D01*
X77311454Y-77046855D01*
X77292159Y-77063575D01*
X77106595Y-77193508D01*
X76939505Y-77360598D01*
X76803965Y-77554170D01*
X76704097Y-77768336D01*
X76642936Y-77996592D01*
X76622340Y-78231999D01*
X76642936Y-78467407D01*
X76687709Y-78634502D01*
X76704097Y-78695663D01*
X76803965Y-78909830D01*
X76939505Y-79103401D01*
X77106599Y-79270495D01*
X77292160Y-79400426D01*
X77335783Y-79455002D01*
X77342976Y-79524501D01*
X77311454Y-79586855D01*
X77292159Y-79603575D01*
X77106595Y-79733508D01*
X76939505Y-79900598D01*
X76803965Y-80094170D01*
X76704097Y-80308336D01*
X76642936Y-80536592D01*
X76622340Y-80771999D01*
X76642936Y-81007407D01*
X76687709Y-81174502D01*
X76704097Y-81235663D01*
X76803965Y-81449830D01*
X76939505Y-81643401D01*
X77106599Y-81810495D01*
X77292160Y-81940426D01*
X77335783Y-81995002D01*
X77342976Y-82064501D01*
X77311454Y-82126855D01*
X77292159Y-82143575D01*
X77106595Y-82273508D01*
X76939505Y-82440598D01*
X76803965Y-82634170D01*
X76704097Y-82848336D01*
X76642936Y-83076592D01*
X76622340Y-83312000D01*
X76642936Y-83547407D01*
X76665534Y-83631742D01*
X76704097Y-83775663D01*
X76803965Y-83989830D01*
X76939505Y-84183401D01*
X77106599Y-84350495D01*
X77292160Y-84480426D01*
X77335783Y-84535002D01*
X77342976Y-84604501D01*
X77311454Y-84666855D01*
X77292160Y-84683574D01*
X77239425Y-84720500D01*
X77106595Y-84813508D01*
X76939505Y-84980598D01*
X76803965Y-85174170D01*
X76704097Y-85388336D01*
X76642936Y-85616592D01*
X76622340Y-85852000D01*
X76642936Y-86087407D01*
X76687709Y-86254501D01*
X76704097Y-86315663D01*
X76803965Y-86529830D01*
X76939505Y-86723401D01*
X77106599Y-86890495D01*
X77292160Y-87020426D01*
X77335783Y-87075002D01*
X77342976Y-87144501D01*
X77311454Y-87206855D01*
X77292160Y-87223574D01*
X77139670Y-87330349D01*
X77106595Y-87353508D01*
X76939505Y-87520598D01*
X76803965Y-87714170D01*
X76704097Y-87928336D01*
X76642936Y-88156592D01*
X76622340Y-88391999D01*
X76642936Y-88627407D01*
X76685803Y-88787387D01*
X76704097Y-88855663D01*
X76803965Y-89069830D01*
X76939505Y-89263401D01*
X77106599Y-89430495D01*
X77292160Y-89560426D01*
X77335783Y-89615002D01*
X77342976Y-89684501D01*
X77311454Y-89746855D01*
X77292159Y-89763575D01*
X77106595Y-89893508D01*
X76939505Y-90060598D01*
X76803965Y-90254170D01*
X76704097Y-90468336D01*
X76642936Y-90696592D01*
X76622340Y-90931999D01*
X76642936Y-91167407D01*
X76687709Y-91334501D01*
X76704097Y-91395663D01*
X76803965Y-91609830D01*
X76939505Y-91803401D01*
X77106599Y-91970495D01*
X77292160Y-92100426D01*
X77335783Y-92155002D01*
X77342976Y-92224501D01*
X77311454Y-92286855D01*
X77292160Y-92303574D01*
X77165538Y-92392236D01*
X77106595Y-92433508D01*
X76939505Y-92600598D01*
X76803965Y-92794170D01*
X76704097Y-93008336D01*
X76642936Y-93236592D01*
X76622340Y-93472000D01*
X76642936Y-93707407D01*
X76659766Y-93770216D01*
X76704097Y-93935663D01*
X76803965Y-94149830D01*
X76939505Y-94343401D01*
X77106599Y-94510495D01*
X77292160Y-94640426D01*
X77335783Y-94695002D01*
X77342976Y-94764501D01*
X77311454Y-94826855D01*
X77292159Y-94843575D01*
X77106595Y-94973508D01*
X76939505Y-95140598D01*
X76803965Y-95334170D01*
X76704097Y-95548336D01*
X76642936Y-95776592D01*
X76622340Y-96012000D01*
X76642936Y-96247407D01*
X76665534Y-96331742D01*
X76704097Y-96475663D01*
X76803965Y-96689830D01*
X76939505Y-96883401D01*
X77106599Y-97050495D01*
X77292160Y-97180426D01*
X77335783Y-97235002D01*
X77342976Y-97304501D01*
X77311454Y-97366855D01*
X77292158Y-97383575D01*
X77239425Y-97420500D01*
X77106595Y-97513508D01*
X76939505Y-97680598D01*
X76803965Y-97874170D01*
X76704097Y-98088336D01*
X76642936Y-98316592D01*
X76622340Y-98552000D01*
X76642936Y-98787407D01*
X76687709Y-98954502D01*
X76704097Y-99015663D01*
X76803965Y-99229830D01*
X76939505Y-99423401D01*
X77106599Y-99590495D01*
X77292160Y-99720426D01*
X77335783Y-99775002D01*
X77342976Y-99844501D01*
X77311454Y-99906855D01*
X77292159Y-99923575D01*
X77106595Y-100053508D01*
X76939505Y-100220598D01*
X76803965Y-100414170D01*
X76704097Y-100628336D01*
X76642936Y-100856592D01*
X76622340Y-101091999D01*
X76642936Y-101327407D01*
X76657997Y-101383615D01*
X76704097Y-101555663D01*
X76803965Y-101769830D01*
X76939505Y-101963401D01*
X77106599Y-102130495D01*
X77292160Y-102260426D01*
X77335783Y-102315002D01*
X77342976Y-102384501D01*
X77311454Y-102446855D01*
X77292159Y-102463575D01*
X77106595Y-102593508D01*
X76939505Y-102760598D01*
X76803965Y-102954170D01*
X76704097Y-103168336D01*
X76642936Y-103396592D01*
X76622340Y-103631999D01*
X76642936Y-103867407D01*
X76665534Y-103951742D01*
X76704097Y-104095663D01*
X76803965Y-104309830D01*
X76939505Y-104503401D01*
X77106599Y-104670495D01*
X77292160Y-104800426D01*
X77335783Y-104855002D01*
X77342976Y-104924501D01*
X77311454Y-104986855D01*
X77292160Y-105003574D01*
X77125684Y-105120142D01*
X77106595Y-105133508D01*
X76939505Y-105300598D01*
X76803965Y-105494170D01*
X76704097Y-105708336D01*
X76642936Y-105936592D01*
X76622340Y-106172000D01*
X76642936Y-106407407D01*
X76671795Y-106515110D01*
X76704097Y-106635663D01*
X76803965Y-106849830D01*
X76939505Y-107043401D01*
X77106599Y-107210495D01*
X77292160Y-107340426D01*
X77335783Y-107395002D01*
X77342976Y-107464501D01*
X77311454Y-107526855D01*
X77292159Y-107543575D01*
X77106595Y-107673508D01*
X76939505Y-107840598D01*
X76803965Y-108034170D01*
X76704097Y-108248336D01*
X76642936Y-108476592D01*
X76622340Y-108711999D01*
X76642936Y-108947407D01*
X76668496Y-109042798D01*
X76704097Y-109175663D01*
X76803965Y-109389830D01*
X76939505Y-109583401D01*
X77106599Y-109750495D01*
X77292160Y-109880426D01*
X77335783Y-109935002D01*
X77342976Y-110004501D01*
X77311454Y-110066855D01*
X77292159Y-110083575D01*
X77106595Y-110213508D01*
X76939505Y-110380598D01*
X76803965Y-110574170D01*
X76704097Y-110788336D01*
X76642936Y-111016592D01*
X76622340Y-111252000D01*
X75438500Y-111252000D01*
X75438500Y-60451999D01*
X79358540Y-60451999D01*
X79378326Y-60640257D01*
X79436820Y-60820284D01*
X79531466Y-60984216D01*
X79658129Y-61124889D01*
X79811269Y-61236151D01*
X79984197Y-61313144D01*
X80169352Y-61352500D01*
X80169354Y-61352500D01*
X80358648Y-61352500D01*
X80482084Y-61326262D01*
X80543803Y-61313144D01*
X80716730Y-61236151D01*
X80869871Y-61124888D01*
X80996533Y-60984216D01*
X81091179Y-60820284D01*
X81149674Y-60640256D01*
X81169460Y-60452000D01*
X81149674Y-60263744D01*
X81091179Y-60083716D01*
X81091179Y-60083715D01*
X80996533Y-59919783D01*
X80903986Y-59817000D01*
X100694540Y-59817000D01*
X100714326Y-60005257D01*
X100772820Y-60185284D01*
X100867466Y-60349216D01*
X100994129Y-60489889D01*
X101147269Y-60601151D01*
X101320197Y-60678144D01*
X101505352Y-60717500D01*
X101505354Y-60717500D01*
X101694648Y-60717500D01*
X101818083Y-60691262D01*
X101879803Y-60678144D01*
X102052730Y-60601151D01*
X102205871Y-60489888D01*
X102332533Y-60349216D01*
X102427179Y-60185284D01*
X102485674Y-60005256D01*
X102505460Y-59817000D01*
X102492112Y-59690000D01*
X106282540Y-59690000D01*
X106302326Y-59878257D01*
X106360820Y-60058284D01*
X106455466Y-60222216D01*
X106582129Y-60362889D01*
X106735269Y-60474151D01*
X106908197Y-60551144D01*
X107093352Y-60590500D01*
X107093354Y-60590500D01*
X107282648Y-60590500D01*
X107406083Y-60564262D01*
X107467803Y-60551144D01*
X107640730Y-60474151D01*
X107793871Y-60362888D01*
X107920533Y-60222216D01*
X108015179Y-60058284D01*
X108073674Y-59878256D01*
X108093460Y-59690000D01*
X108073674Y-59501744D01*
X108015179Y-59321716D01*
X108015179Y-59321715D01*
X107920533Y-59157783D01*
X107793870Y-59017110D01*
X107640730Y-58905848D01*
X107467802Y-58828855D01*
X107282648Y-58789500D01*
X107282646Y-58789500D01*
X107093354Y-58789500D01*
X107093352Y-58789500D01*
X106908197Y-58828855D01*
X106735269Y-58905848D01*
X106582129Y-59017110D01*
X106455466Y-59157783D01*
X106360820Y-59321715D01*
X106302326Y-59501742D01*
X106282540Y-59690000D01*
X102492112Y-59690000D01*
X102485674Y-59628744D01*
X102427179Y-59448716D01*
X102427179Y-59448715D01*
X102332533Y-59284783D01*
X102205870Y-59144110D01*
X102052730Y-59032848D01*
X101879802Y-58955855D01*
X101694648Y-58916500D01*
X101694646Y-58916500D01*
X101505354Y-58916500D01*
X101505352Y-58916500D01*
X101320197Y-58955855D01*
X101147269Y-59032848D01*
X100994129Y-59144110D01*
X100867466Y-59284783D01*
X100772820Y-59448715D01*
X100714326Y-59628742D01*
X100694540Y-59817000D01*
X80903986Y-59817000D01*
X80869870Y-59779110D01*
X80716730Y-59667848D01*
X80543802Y-59590855D01*
X80358648Y-59551500D01*
X80358646Y-59551500D01*
X80169354Y-59551500D01*
X80169352Y-59551500D01*
X79984197Y-59590855D01*
X79811269Y-59667848D01*
X79658129Y-59779110D01*
X79531466Y-59919783D01*
X79436820Y-60083715D01*
X79378326Y-60263742D01*
X79358540Y-60451999D01*
X75438500Y-60451999D01*
X75438500Y-57193000D01*
X75458185Y-57125961D01*
X75510989Y-57080206D01*
X75562500Y-57069000D01*
X113413500Y-57069000D01*
X113480539Y-57088685D01*
G37*
%TD.AperFunction*%
%TD*%
M02*
