%TF.GenerationSoftware,KiCad,Pcbnew,7.0.2*%
%TF.CreationDate,2023-06-11T17:42:06-04:00*%
%TF.ProjectId,SoftProject,536f6674-5072-46f6-9a65-63742e6b6963,rev?*%
%TF.SameCoordinates,Original*%
%TF.FileFunction,Copper,L1,Top*%
%TF.FilePolarity,Positive*%
%FSLAX46Y46*%
G04 Gerber Fmt 4.6, Leading zero omitted, Abs format (unit mm)*
G04 Created by KiCad (PCBNEW 7.0.2) date 2023-06-11 17:42:06*
%MOMM*%
%LPD*%
G01*
G04 APERTURE LIST*
G04 Aperture macros list*
%AMRoundRect*
0 Rectangle with rounded corners*
0 $1 Rounding radius*
0 $2 $3 $4 $5 $6 $7 $8 $9 X,Y pos of 4 corners*
0 Add a 4 corners polygon primitive as box body*
4,1,4,$2,$3,$4,$5,$6,$7,$8,$9,$2,$3,0*
0 Add four circle primitives for the rounded corners*
1,1,$1+$1,$2,$3*
1,1,$1+$1,$4,$5*
1,1,$1+$1,$6,$7*
1,1,$1+$1,$8,$9*
0 Add four rect primitives between the rounded corners*
20,1,$1+$1,$2,$3,$4,$5,0*
20,1,$1+$1,$4,$5,$6,$7,0*
20,1,$1+$1,$6,$7,$8,$9,0*
20,1,$1+$1,$8,$9,$2,$3,0*%
G04 Aperture macros list end*
%TA.AperFunction,SMDPad,CuDef*%
%ADD10R,1.700000X0.800000*%
%TD*%
%TA.AperFunction,SMDPad,CuDef*%
%ADD11RoundRect,0.112500X-0.112500X0.187500X-0.112500X-0.187500X0.112500X-0.187500X0.112500X0.187500X0*%
%TD*%
%TA.AperFunction,SMDPad,CuDef*%
%ADD12R,1.500000X2.000000*%
%TD*%
%TA.AperFunction,SMDPad,CuDef*%
%ADD13R,3.800000X2.000000*%
%TD*%
%TA.AperFunction,SMDPad,CuDef*%
%ADD14RoundRect,0.140000X0.170000X-0.140000X0.170000X0.140000X-0.170000X0.140000X-0.170000X-0.140000X0*%
%TD*%
%TA.AperFunction,SMDPad,CuDef*%
%ADD15RoundRect,0.135000X0.185000X-0.135000X0.185000X0.135000X-0.185000X0.135000X-0.185000X-0.135000X0*%
%TD*%
%TA.AperFunction,SMDPad,CuDef*%
%ADD16RoundRect,0.250000X0.250000X0.475000X-0.250000X0.475000X-0.250000X-0.475000X0.250000X-0.475000X0*%
%TD*%
%TA.AperFunction,SMDPad,CuDef*%
%ADD17RoundRect,0.062500X-0.337500X-0.062500X0.337500X-0.062500X0.337500X0.062500X-0.337500X0.062500X0*%
%TD*%
%TA.AperFunction,SMDPad,CuDef*%
%ADD18RoundRect,0.062500X-0.062500X-0.337500X0.062500X-0.337500X0.062500X0.337500X-0.062500X0.337500X0*%
%TD*%
%TA.AperFunction,SMDPad,CuDef*%
%ADD19R,3.350000X3.350000*%
%TD*%
%TA.AperFunction,SMDPad,CuDef*%
%ADD20RoundRect,0.250000X-0.475000X0.250000X-0.475000X-0.250000X0.475000X-0.250000X0.475000X0.250000X0*%
%TD*%
%TA.AperFunction,SMDPad,CuDef*%
%ADD21RoundRect,0.218750X0.256250X-0.218750X0.256250X0.218750X-0.256250X0.218750X-0.256250X-0.218750X0*%
%TD*%
%TA.AperFunction,SMDPad,CuDef*%
%ADD22R,0.450000X1.300000*%
%TD*%
%TA.AperFunction,ComponentPad*%
%ADD23O,1.150000X1.800000*%
%TD*%
%TA.AperFunction,ComponentPad*%
%ADD24O,1.450000X2.000000*%
%TD*%
%TA.AperFunction,SMDPad,CuDef*%
%ADD25RoundRect,0.135000X-0.135000X-0.185000X0.135000X-0.185000X0.135000X0.185000X-0.135000X0.185000X0*%
%TD*%
%TA.AperFunction,SMDPad,CuDef*%
%ADD26RoundRect,0.135000X-0.185000X0.135000X-0.185000X-0.135000X0.185000X-0.135000X0.185000X0.135000X0*%
%TD*%
%TA.AperFunction,SMDPad,CuDef*%
%ADD27R,0.700000X1.000000*%
%TD*%
%TA.AperFunction,SMDPad,CuDef*%
%ADD28R,0.700000X0.600000*%
%TD*%
%TA.AperFunction,SMDPad,CuDef*%
%ADD29RoundRect,0.150000X-0.587500X-0.150000X0.587500X-0.150000X0.587500X0.150000X-0.587500X0.150000X0*%
%TD*%
%TA.AperFunction,SMDPad,CuDef*%
%ADD30RoundRect,0.140000X-0.140000X-0.170000X0.140000X-0.170000X0.140000X0.170000X-0.140000X0.170000X0*%
%TD*%
%TA.AperFunction,SMDPad,CuDef*%
%ADD31RoundRect,0.135000X0.135000X0.185000X-0.135000X0.185000X-0.135000X-0.185000X0.135000X-0.185000X0*%
%TD*%
%TA.AperFunction,SMDPad,CuDef*%
%ADD32R,1.500000X0.900000*%
%TD*%
%TA.AperFunction,SMDPad,CuDef*%
%ADD33R,0.900000X1.500000*%
%TD*%
%TA.AperFunction,SMDPad,CuDef*%
%ADD34R,4.100000X4.100000*%
%TD*%
%TA.AperFunction,SMDPad,CuDef*%
%ADD35RoundRect,0.250000X0.475000X-0.250000X0.475000X0.250000X-0.475000X0.250000X-0.475000X-0.250000X0*%
%TD*%
%TA.AperFunction,SMDPad,CuDef*%
%ADD36RoundRect,0.150000X0.587500X0.150000X-0.587500X0.150000X-0.587500X-0.150000X0.587500X-0.150000X0*%
%TD*%
%TA.AperFunction,SMDPad,CuDef*%
%ADD37RoundRect,0.225000X0.250000X-0.225000X0.250000X0.225000X-0.250000X0.225000X-0.250000X-0.225000X0*%
%TD*%
%TA.AperFunction,ComponentPad*%
%ADD38R,1.700000X1.700000*%
%TD*%
%TA.AperFunction,ComponentPad*%
%ADD39O,1.700000X1.700000*%
%TD*%
%TA.AperFunction,SMDPad,CuDef*%
%ADD40RoundRect,0.140000X-0.170000X0.140000X-0.170000X-0.140000X0.170000X-0.140000X0.170000X0.140000X0*%
%TD*%
%TA.AperFunction,SMDPad,CuDef*%
%ADD41RoundRect,0.140000X0.140000X0.170000X-0.140000X0.170000X-0.140000X-0.170000X0.140000X-0.170000X0*%
%TD*%
%TA.AperFunction,ViaPad*%
%ADD42C,0.800000*%
%TD*%
%TA.AperFunction,Conductor*%
%ADD43C,0.250000*%
%TD*%
%TA.AperFunction,Conductor*%
%ADD44C,0.500000*%
%TD*%
%TA.AperFunction,Conductor*%
%ADD45C,0.200000*%
%TD*%
G04 APERTURE END LIST*
D10*
%TO.P,SW2,1,1*%
%TO.N,GND*%
X103632000Y-113890000D03*
%TO.P,SW2,2,2*%
%TO.N,/CHIP_PU*%
X103632000Y-110490000D03*
%TD*%
%TO.P,SW1,1,1*%
%TO.N,GND*%
X85471000Y-114017000D03*
%TO.P,SW1,2,2*%
%TO.N,/GPIO0*%
X85471000Y-110617000D03*
%TD*%
D11*
%TO.P,D3,1,K*%
%TO.N,+5V*%
X94615000Y-103505000D03*
%TO.P,D3,2,A*%
%TO.N,VBUS*%
X94615000Y-105605000D03*
%TD*%
D12*
%TO.P,U2,1,ADJ*%
%TO.N,GND*%
X84187000Y-100280000D03*
%TO.P,U2,2,VO*%
%TO.N,+3.3V*%
X86487000Y-100280000D03*
D13*
X86487000Y-93980000D03*
D12*
%TO.P,U2,3,VI*%
%TO.N,+5V*%
X88787000Y-100280000D03*
%TD*%
D14*
%TO.P,C11,1*%
%TO.N,/DP*%
X98552000Y-87701000D03*
%TO.P,C11,2*%
%TO.N,GND*%
X98552000Y-86741000D03*
%TD*%
D15*
%TO.P,R6,1*%
%TO.N,/D-*%
X97409000Y-89920000D03*
%TO.P,R6,2*%
%TO.N,/DN*%
X97409000Y-88900000D03*
%TD*%
D14*
%TO.P,C1,1*%
%TO.N,+3.3V*%
X84074000Y-59634000D03*
%TO.P,C1,2*%
%TO.N,GND*%
X84074000Y-58674000D03*
%TD*%
D16*
%TO.P,C6,1*%
%TO.N,+3.3V*%
X86487000Y-102743000D03*
%TO.P,C6,2*%
%TO.N,GND*%
X84587000Y-102743000D03*
%TD*%
D17*
%TO.P,U3,1,~{DCD}*%
%TO.N,unconnected-(U3-~{DCD}-Pad1)*%
X102810000Y-96521000D03*
%TO.P,U3,2,~{RI}/CLK*%
%TO.N,unconnected-(U3-~{RI}{slash}CLK-Pad2)*%
X102810000Y-97021000D03*
%TO.P,U3,3,GND*%
%TO.N,GND*%
X102810000Y-97521000D03*
%TO.P,U3,4,D+*%
%TO.N,/D+*%
X102810000Y-98021000D03*
%TO.P,U3,5,D-*%
%TO.N,/D-*%
X102810000Y-98521000D03*
%TO.P,U3,6,VDD*%
%TO.N,+3.3V*%
X102810000Y-99021000D03*
%TO.P,U3,7,VREGIN*%
X102810000Y-99521000D03*
D18*
%TO.P,U3,8,VBUS*%
%TO.N,Net-(U3-VBUS)*%
X103760000Y-100471000D03*
%TO.P,U3,9,~{RST}*%
%TO.N,Net-(U3-~{RST})*%
X104260000Y-100471000D03*
%TO.P,U3,10,NC*%
%TO.N,unconnected-(U3-NC-Pad10)*%
X104760000Y-100471000D03*
%TO.P,U3,11,~{SUSPEND}*%
%TO.N,Net-(U3-~{SUSPEND})*%
X105260000Y-100471000D03*
%TO.P,U3,12,SUSPEND*%
%TO.N,unconnected-(U3-SUSPEND-Pad12)*%
X105760000Y-100471000D03*
%TO.P,U3,13,CHREN*%
%TO.N,unconnected-(U3-CHREN-Pad13)*%
X106260000Y-100471000D03*
%TO.P,U3,14,CHR1*%
%TO.N,unconnected-(U3-CHR1-Pad14)*%
X106760000Y-100471000D03*
D17*
%TO.P,U3,15,CHR0*%
%TO.N,unconnected-(U3-CHR0-Pad15)*%
X107710000Y-99521000D03*
%TO.P,U3,16,~{WAKEUP}/GPIO.3*%
%TO.N,unconnected-(U3-~{WAKEUP}{slash}GPIO.3-Pad16)*%
X107710000Y-99021000D03*
%TO.P,U3,17,RS485/GPIO.2*%
%TO.N,unconnected-(U3-RS485{slash}GPIO.2-Pad17)*%
X107710000Y-98521000D03*
%TO.P,U3,18,~{RXT}/GPIO.1*%
%TO.N,unconnected-(U3-~{RXT}{slash}GPIO.1-Pad18)*%
X107710000Y-98021000D03*
%TO.P,U3,19,~{TXT}/GPIO.0*%
%TO.N,unconnected-(U3-~{TXT}{slash}GPIO.0-Pad19)*%
X107710000Y-97521000D03*
%TO.P,U3,20,GPIO.6*%
%TO.N,unconnected-(U3-GPIO.6-Pad20)*%
X107710000Y-97021000D03*
%TO.P,U3,21,GPIO.5*%
%TO.N,unconnected-(U3-GPIO.5-Pad21)*%
X107710000Y-96521000D03*
D18*
%TO.P,U3,22,GPIO.4*%
%TO.N,unconnected-(U3-GPIO.4-Pad22)*%
X106760000Y-95571000D03*
%TO.P,U3,23,~{CTS}*%
%TO.N,unconnected-(U3-~{CTS}-Pad23)*%
X106260000Y-95571000D03*
%TO.P,U3,24,~{RTS}*%
%TO.N,/RTS*%
X105760000Y-95571000D03*
%TO.P,U3,25,RXD*%
%TO.N,/RXD_CP*%
X105260000Y-95571000D03*
%TO.P,U3,26,TXD*%
%TO.N,/TXD_CP*%
X104760000Y-95571000D03*
%TO.P,U3,27,~{DSR}*%
%TO.N,unconnected-(U3-~{DSR}-Pad27)*%
X104260000Y-95571000D03*
%TO.P,U3,28,~{DTR}*%
%TO.N,/DTR*%
X103760000Y-95571000D03*
D19*
%TO.P,U3,29,GND*%
%TO.N,GND*%
X105260000Y-98021000D03*
%TD*%
D20*
%TO.P,C10,1*%
%TO.N,+5V*%
X91567000Y-102489000D03*
%TO.P,C10,2*%
%TO.N,GND*%
X91567000Y-104389000D03*
%TD*%
D21*
%TO.P,D1,1,K*%
%TO.N,GND*%
X95077000Y-96571000D03*
%TO.P,D1,2,A*%
%TO.N,Net-(D1-A)*%
X95077000Y-94996000D03*
%TD*%
D22*
%TO.P,J1,1,VBUS*%
%TO.N,VBUS*%
X93310000Y-112381600D03*
%TO.P,J1,2,D-*%
%TO.N,/D-*%
X93960000Y-112381600D03*
%TO.P,J1,3,D+*%
%TO.N,/D+*%
X94610000Y-112381600D03*
%TO.P,J1,4,ID*%
%TO.N,unconnected-(J1-ID-Pad4)*%
X95260000Y-112381600D03*
%TO.P,J1,5,GND*%
%TO.N,GND*%
X95910000Y-112381600D03*
D23*
%TO.P,J1,6,Shield*%
%TO.N,unconnected-(J1-Shield-Pad6)*%
X90735000Y-116231600D03*
D24*
X90885000Y-112431600D03*
X98335000Y-112431600D03*
D23*
X98485000Y-116231600D03*
%TD*%
D25*
%TO.P,R3,1*%
%TO.N,+3.3V*%
X92279000Y-94869000D03*
%TO.P,R3,2*%
%TO.N,Net-(D1-A)*%
X93299000Y-94869000D03*
%TD*%
D26*
%TO.P,R15,1*%
%TO.N,/TXD*%
X105664000Y-92456000D03*
%TO.P,R15,2*%
%TO.N,/RXD_CP*%
X105664000Y-93476000D03*
%TD*%
D27*
%TO.P,D2,1,A*%
%TO.N,GND*%
X94982000Y-99056000D03*
D28*
%TO.P,D2,2,K*%
%TO.N,/D-*%
X94982000Y-100756000D03*
%TO.P,D2,3,K*%
%TO.N,/D+*%
X96982000Y-100756000D03*
%TO.P,D2,4,K*%
%TO.N,VBUS*%
X96982000Y-98856000D03*
%TD*%
D14*
%TO.P,C4,1*%
%TO.N,+5V*%
X89789000Y-104267000D03*
%TO.P,C4,2*%
%TO.N,GND*%
X89789000Y-103307000D03*
%TD*%
D29*
%TO.P,Q1,1,E*%
%TO.N,/RTS*%
X85344000Y-88773000D03*
%TO.P,Q1,2,B*%
%TO.N,Net-(Q1-B)*%
X85344000Y-90673000D03*
%TO.P,Q1,3,C*%
%TO.N,/EN_Auto*%
X87219000Y-89723000D03*
%TD*%
D15*
%TO.P,R9,1*%
%TO.N,VBUS*%
X102616000Y-104093000D03*
%TO.P,R9,2*%
%TO.N,Net-(U3-VBUS)*%
X102616000Y-103073000D03*
%TD*%
D30*
%TO.P,C7,1*%
%TO.N,+3.3V*%
X92283000Y-96520000D03*
%TO.P,C7,2*%
%TO.N,GND*%
X93243000Y-96520000D03*
%TD*%
D31*
%TO.P,R1,1*%
%TO.N,+3.3V*%
X106172000Y-59817000D03*
%TO.P,R1,2*%
%TO.N,/CHIP_PU*%
X105152000Y-59817000D03*
%TD*%
D26*
%TO.P,R14,1*%
%TO.N,/RXD*%
X104394000Y-92456000D03*
%TO.P,R14,2*%
%TO.N,/TXD_CP*%
X104394000Y-93476000D03*
%TD*%
D15*
%TO.P,R8,1*%
%TO.N,+3.3V*%
X106507000Y-104095000D03*
%TO.P,R8,2*%
%TO.N,Net-(U3-~{RST})*%
X106507000Y-103075000D03*
%TD*%
D25*
%TO.P,R17,1*%
%TO.N,/IO0_Auto*%
X96897000Y-96774000D03*
%TO.P,R17,2*%
%TO.N,/GPIO0*%
X97917000Y-96774000D03*
%TD*%
D26*
%TO.P,R10,1*%
%TO.N,Net-(U3-VBUS)*%
X103967000Y-103073000D03*
%TO.P,R10,2*%
%TO.N,GND*%
X103967000Y-104093000D03*
%TD*%
D32*
%TO.P,U1,1,GND*%
%TO.N,GND*%
X86067000Y-58317000D03*
%TO.P,U1,2,3V3*%
%TO.N,+3.3V*%
X86067000Y-59817000D03*
%TO.P,U1,3,IO00*%
%TO.N,/GPIO0*%
X86067000Y-61317000D03*
%TO.P,U1,4,IO01*%
%TO.N,/GPIO1*%
X86067000Y-62817000D03*
%TO.P,U1,5,IO02*%
%TO.N,/GPIO2*%
X86067000Y-64317000D03*
%TO.P,U1,6,IO03*%
%TO.N,/GPIO3*%
X86067000Y-65817000D03*
%TO.P,U1,7,IO04*%
%TO.N,/GPIO4*%
X86067000Y-67317000D03*
%TO.P,U1,8,IO05*%
%TO.N,/GPIO5*%
X86067000Y-68817000D03*
%TO.P,U1,9,IO06*%
%TO.N,/GPIO6*%
X86067000Y-70317000D03*
%TO.P,U1,10,IO07*%
%TO.N,/GPIO7*%
X86067000Y-71817000D03*
%TO.P,U1,11,IO08*%
%TO.N,/GPIO8*%
X86067000Y-73317000D03*
%TO.P,U1,12,IO09*%
%TO.N,/GPIO9*%
X86067000Y-74817000D03*
%TO.P,U1,13,IO10*%
%TO.N,/GPIO10*%
X86067000Y-76317000D03*
%TO.P,U1,14,IO11*%
%TO.N,/GPIO11*%
X86067000Y-77817000D03*
%TO.P,U1,15,IO12*%
%TO.N,/GPIO12*%
X86067000Y-79317000D03*
%TO.P,U1,16,IO13*%
%TO.N,/GPIO13*%
X86067000Y-80817000D03*
D33*
%TO.P,U1,17,IO14*%
%TO.N,/GPIO14*%
X87942000Y-81567000D03*
%TO.P,U1,18,IO15*%
%TO.N,/GPIO15*%
X89442000Y-81567000D03*
%TO.P,U1,19,IO16*%
%TO.N,/GPIO16*%
X90942000Y-81567000D03*
%TO.P,U1,20,IO17*%
%TO.N,/GPIO17*%
X92442000Y-81567000D03*
%TO.P,U1,21,IO18*%
%TO.N,/GPIO18*%
X93942000Y-81567000D03*
%TO.P,U1,22,USB_D-*%
%TO.N,/DN*%
X95442000Y-81567000D03*
%TO.P,U1,23,USB_D+*%
%TO.N,/DP*%
X96942000Y-81567000D03*
%TO.P,U1,24,IO21*%
%TO.N,/GPIO21*%
X98442000Y-81567000D03*
%TO.P,U1,25,IO26*%
%TO.N,/GPIO26*%
X99942000Y-81567000D03*
%TO.P,U1,26,GND*%
%TO.N,GND*%
X101442000Y-81567000D03*
D32*
%TO.P,U1,27,IO33*%
%TO.N,/GPIO33*%
X103317000Y-80917000D03*
%TO.P,U1,28,IO34*%
%TO.N,/GPIO34*%
X103317000Y-79417000D03*
%TO.P,U1,29,IO35*%
%TO.N,/GPIO35*%
X103317000Y-77917000D03*
%TO.P,U1,30,IO36*%
%TO.N,/GPIO36*%
X103317000Y-76417000D03*
%TO.P,U1,31,IO37*%
%TO.N,/GPIO37*%
X103317000Y-74917000D03*
%TO.P,U1,32,IO38*%
%TO.N,/GPIO38*%
X103317000Y-73417000D03*
%TO.P,U1,33,IO39*%
%TO.N,/GPIO39*%
X103317000Y-71917000D03*
%TO.P,U1,34,IO40*%
%TO.N,/GPIO40*%
X103317000Y-70417000D03*
%TO.P,U1,35,IO41*%
%TO.N,/GPIO41*%
X103317000Y-68917000D03*
%TO.P,U1,36,IO42*%
%TO.N,/GPIO42*%
X103317000Y-67417000D03*
%TO.P,U1,37,TXD0*%
%TO.N,/TXD*%
X103317000Y-65917000D03*
%TO.P,U1,38,RXD0*%
%TO.N,/RXD*%
X103317000Y-64417000D03*
%TO.P,U1,39,IO45*%
%TO.N,/GPIO45*%
X103317000Y-62917000D03*
%TO.P,U1,40,IO46*%
%TO.N,/GPIO46*%
X103317000Y-61317000D03*
%TO.P,U1,41,EN*%
%TO.N,/CHIP_PU*%
X103317000Y-59817000D03*
%TO.P,U1,42,GND*%
%TO.N,GND*%
X103317000Y-58417000D03*
D34*
%TO.P,U1,43,GND*%
X93502000Y-66357000D03*
%TD*%
D30*
%TO.P,C9,1*%
%TO.N,GND*%
X103053000Y-105742000D03*
%TO.P,C9,2*%
%TO.N,/CHIP_PU*%
X104013000Y-105742000D03*
%TD*%
D35*
%TO.P,C5,1*%
%TO.N,+5V*%
X91567000Y-100761800D03*
%TO.P,C5,2*%
%TO.N,GND*%
X91567000Y-98861800D03*
%TD*%
D36*
%TO.P,Q2,1,E*%
%TO.N,/IO0_Auto*%
X94712000Y-90739000D03*
%TO.P,Q2,2,B*%
%TO.N,Net-(Q2-B)*%
X94712000Y-88839000D03*
%TO.P,Q2,3,C*%
%TO.N,/DTR*%
X92837000Y-89789000D03*
%TD*%
D37*
%TO.P,C13,1*%
%TO.N,+3.3V*%
X99314000Y-96546000D03*
%TO.P,C13,2*%
%TO.N,GND*%
X99314000Y-94996000D03*
%TD*%
D26*
%TO.P,R13,1*%
%TO.N,Net-(U3-~{SUSPEND})*%
X107777000Y-103075000D03*
%TO.P,R13,2*%
%TO.N,GND*%
X107777000Y-104095000D03*
%TD*%
D15*
%TO.P,R12,1*%
%TO.N,/RTS*%
X90805000Y-90297000D03*
%TO.P,R12,2*%
%TO.N,Net-(Q2-B)*%
X90805000Y-89277000D03*
%TD*%
D38*
%TO.P,J3,1,Pin_1*%
%TO.N,GND*%
X110998000Y-62992000D03*
D39*
%TO.P,J3,2,Pin_2*%
%TO.N,/CHIP_PU*%
X110998000Y-65532000D03*
%TO.P,J3,3,Pin_3*%
%TO.N,/GPIO46*%
X110998000Y-68072000D03*
%TO.P,J3,4,Pin_4*%
%TO.N,/GPIO45*%
X110998000Y-70612000D03*
%TO.P,J3,5,Pin_5*%
%TO.N,/RXD*%
X110998000Y-73152000D03*
%TO.P,J3,6,Pin_6*%
%TO.N,/TXD*%
X110998000Y-75692000D03*
%TO.P,J3,7,Pin_7*%
%TO.N,/GPIO42*%
X110998000Y-78232000D03*
%TO.P,J3,8,Pin_8*%
%TO.N,/GPIO41*%
X110998000Y-80772000D03*
%TO.P,J3,9,Pin_9*%
%TO.N,/GPIO40*%
X110998000Y-83312000D03*
%TO.P,J3,10,Pin_10*%
%TO.N,/GPIO39*%
X110998000Y-85852000D03*
%TO.P,J3,11,Pin_11*%
%TO.N,/GPIO38*%
X110998000Y-88392000D03*
%TO.P,J3,12,Pin_12*%
%TO.N,/GPIO37*%
X110998000Y-90932000D03*
%TO.P,J3,13,Pin_13*%
%TO.N,/GPIO36*%
X110998000Y-93472000D03*
%TO.P,J3,14,Pin_14*%
%TO.N,/GPIO35*%
X110998000Y-96012000D03*
%TO.P,J3,15,Pin_15*%
%TO.N,/GPIO34*%
X110998000Y-98552000D03*
%TO.P,J3,16,Pin_16*%
%TO.N,/GPIO33*%
X110998000Y-101092000D03*
%TO.P,J3,17,Pin_17*%
%TO.N,/GPIO26*%
X110998000Y-103632000D03*
%TO.P,J3,18,Pin_18*%
%TO.N,/GPIO21*%
X110998000Y-106172000D03*
%TO.P,J3,19,Pin_19*%
%TO.N,GND*%
X110998000Y-108712000D03*
%TO.P,J3,20,Pin_20*%
X110998000Y-111252000D03*
%TD*%
D15*
%TO.P,R11,1*%
%TO.N,/DTR*%
X89281000Y-90295000D03*
%TO.P,R11,2*%
%TO.N,Net-(Q1-B)*%
X89281000Y-89275000D03*
%TD*%
D14*
%TO.P,C12,1*%
%TO.N,/DN*%
X97409000Y-87680200D03*
%TO.P,C12,2*%
%TO.N,GND*%
X97409000Y-86720200D03*
%TD*%
D35*
%TO.P,C2,1*%
%TO.N,+3.3V*%
X81915000Y-60447000D03*
%TO.P,C2,2*%
%TO.N,GND*%
X81915000Y-58547000D03*
%TD*%
D25*
%TO.P,R16,1*%
%TO.N,/EN_Auto*%
X96895000Y-94869000D03*
%TO.P,R16,2*%
%TO.N,/CHIP_PU*%
X97915000Y-94869000D03*
%TD*%
D40*
%TO.P,C15,1*%
%TO.N,Net-(U3-VBUS)*%
X105283000Y-103124000D03*
%TO.P,C15,2*%
%TO.N,GND*%
X105283000Y-104084000D03*
%TD*%
D38*
%TO.P,J4,1,Pin_1*%
%TO.N,+3.3V*%
X77978000Y-62992000D03*
D39*
%TO.P,J4,2,Pin_2*%
%TO.N,/GPIO0*%
X77978000Y-65532000D03*
%TO.P,J4,3,Pin_3*%
%TO.N,/GPIO1*%
X77978000Y-68072000D03*
%TO.P,J4,4,Pin_4*%
%TO.N,/GPIO2*%
X77978000Y-70612000D03*
%TO.P,J4,5,Pin_5*%
%TO.N,/GPIO3*%
X77978000Y-73152000D03*
%TO.P,J4,6,Pin_6*%
%TO.N,/GPIO4*%
X77978000Y-75692000D03*
%TO.P,J4,7,Pin_7*%
%TO.N,/GPIO5*%
X77978000Y-78232000D03*
%TO.P,J4,8,Pin_8*%
%TO.N,/GPIO6*%
X77978000Y-80772000D03*
%TO.P,J4,9,Pin_9*%
%TO.N,/GPIO7*%
X77978000Y-83312000D03*
%TO.P,J4,10,Pin_10*%
%TO.N,/GPIO8*%
X77978000Y-85852000D03*
%TO.P,J4,11,Pin_11*%
%TO.N,/GPIO9*%
X77978000Y-88392000D03*
%TO.P,J4,12,Pin_12*%
%TO.N,/GPIO10*%
X77978000Y-90932000D03*
%TO.P,J4,13,Pin_13*%
%TO.N,/GPIO11*%
X77978000Y-93472000D03*
%TO.P,J4,14,Pin_14*%
%TO.N,/GPIO12*%
X77978000Y-96012000D03*
%TO.P,J4,15,Pin_15*%
%TO.N,/GPIO13*%
X77978000Y-98552000D03*
%TO.P,J4,16,Pin_16*%
%TO.N,/GPIO14*%
X77978000Y-101092000D03*
%TO.P,J4,17,Pin_17*%
%TO.N,/GPIO15*%
X77978000Y-103632000D03*
%TO.P,J4,18,Pin_18*%
%TO.N,/GPIO16*%
X77978000Y-106172000D03*
%TO.P,J4,19,Pin_19*%
%TO.N,/GPIO17*%
X77978000Y-108712000D03*
%TO.P,J4,20,Pin_20*%
%TO.N,+5V*%
X77978000Y-111252000D03*
%TD*%
D15*
%TO.P,R5,1*%
%TO.N,/D+*%
X98552000Y-89920000D03*
%TO.P,R5,2*%
%TO.N,/DP*%
X98552000Y-88900000D03*
%TD*%
D14*
%TO.P,C14,1*%
%TO.N,+3.3V*%
X101219000Y-95702000D03*
%TO.P,C14,2*%
%TO.N,GND*%
X101219000Y-94742000D03*
%TD*%
D25*
%TO.P,R2,1*%
%TO.N,+3.3V*%
X92452000Y-83820000D03*
%TO.P,R2,2*%
%TO.N,/GPIO18*%
X93472000Y-83820000D03*
%TD*%
D40*
%TO.P,C8,1*%
%TO.N,GND*%
X88519000Y-103307000D03*
%TO.P,C8,2*%
%TO.N,/GPIO0*%
X88519000Y-104267000D03*
%TD*%
D41*
%TO.P,C3,1*%
%TO.N,/CHIP_PU*%
X106172000Y-58420000D03*
%TO.P,C3,2*%
%TO.N,GND*%
X105212000Y-58420000D03*
%TD*%
D42*
%TO.N,GND*%
X101600000Y-58420000D03*
X96266000Y-65278000D03*
X98044000Y-110617000D03*
X104521000Y-98679000D03*
X94488000Y-63500000D03*
X92456000Y-69342000D03*
X88544400Y-102463600D03*
X91059000Y-97663000D03*
X85471000Y-115189000D03*
X92075000Y-97663000D03*
X97155000Y-109728000D03*
X97155000Y-110617000D03*
X105283000Y-105283000D03*
X101943701Y-94779299D03*
X90678000Y-67310000D03*
X104521000Y-97282000D03*
X93980000Y-97663000D03*
X90678000Y-65278000D03*
X89814400Y-102463600D03*
X102235000Y-105791000D03*
X80264000Y-58420000D03*
X98044000Y-109728000D03*
X106045000Y-97282000D03*
X82677000Y-100838000D03*
X106045000Y-98679000D03*
X99314000Y-94138500D03*
X96266000Y-67310000D03*
X92456000Y-63500000D03*
X91567000Y-105664000D03*
X97409000Y-85852000D03*
X94488000Y-69342000D03*
X84455000Y-104140000D03*
X98552000Y-85852000D03*
X94996000Y-97663000D03*
X101442000Y-80264000D03*
X103632000Y-115062000D03*
X107848400Y-105308400D03*
X93853000Y-99060000D03*
X82677000Y-99695000D03*
%TO.N,/D-*%
X100488750Y-99091750D03*
X97536000Y-92202000D03*
X99262232Y-98292550D03*
%TO.N,/D+*%
X100330000Y-98021000D03*
X99314000Y-91821000D03*
%TO.N,VBUS*%
X97028000Y-106934000D03*
X95057500Y-107188000D03*
X99949000Y-100599464D03*
X98184378Y-98819378D03*
%TO.N,/RTS*%
X103490640Y-93187866D03*
X105984500Y-94488000D03*
%TO.N,/IO0_Auto*%
X94742000Y-92202000D03*
X96774000Y-95788500D03*
%TO.N,/DTR*%
X91440000Y-88114500D03*
X91680497Y-89911589D03*
%TO.N,+3.3V*%
X86106000Y-104140000D03*
X91440000Y-96520000D03*
X106527600Y-105308400D03*
X98736206Y-97442667D03*
X86995000Y-104140000D03*
X87236970Y-92177196D03*
X85598000Y-92202000D03*
X101219000Y-97321500D03*
X91440000Y-94869000D03*
X86487000Y-98552000D03*
X91567000Y-83820000D03*
X107188000Y-59690000D03*
X80264000Y-60452000D03*
%TO.N,/GPIO0*%
X96266000Y-97663000D03*
X89916000Y-105283000D03*
%TO.N,/GPIO21*%
X107048506Y-93471113D03*
X107585497Y-101854000D03*
%TO.N,/GPIO26*%
X108045500Y-93541893D03*
X108585000Y-101854000D03*
%TO.N,/TXD*%
X102108000Y-84328000D03*
X100838000Y-67310000D03*
%TO.N,/RXD*%
X99822000Y-67310000D03*
X100838000Y-84328000D03*
%TO.N,/CHIP_PU*%
X98314497Y-94138500D03*
X101092000Y-104942500D03*
X101600000Y-59817000D03*
%TD*%
D43*
%TO.N,/CHIP_PU*%
X103632000Y-106123000D02*
X103632000Y-110490000D01*
X104013000Y-105742000D02*
X103632000Y-106123000D01*
D44*
%TO.N,GND*%
X103632000Y-113890000D02*
X103632000Y-115062000D01*
D43*
%TO.N,/GPIO0*%
X77681299Y-110077000D02*
X84931000Y-110077000D01*
X76803000Y-109198701D02*
X77681299Y-110077000D01*
X84931000Y-110077000D02*
X85471000Y-110617000D01*
X76803000Y-66707000D02*
X76803000Y-109198701D01*
X77978000Y-65532000D02*
X76803000Y-66707000D01*
X85471000Y-107315000D02*
X85471000Y-110617000D01*
X88519000Y-104267000D02*
X85471000Y-107315000D01*
D44*
%TO.N,GND*%
X85471000Y-114017000D02*
X85471000Y-115189000D01*
X93980000Y-97663000D02*
X93243000Y-96926000D01*
X97155000Y-109728000D02*
X98044000Y-110617000D01*
X93243000Y-96926000D02*
X93243000Y-96520000D01*
X97155000Y-109728000D02*
X98044000Y-109728000D01*
X85710000Y-58674000D02*
X86067000Y-58317000D01*
D43*
X97409000Y-86720200D02*
X97409000Y-85852000D01*
D44*
X103053000Y-105742000D02*
X102284000Y-105742000D01*
D43*
X95910000Y-111481000D02*
X96012000Y-111379000D01*
D44*
X94982000Y-99056000D02*
X93857000Y-99056000D01*
D43*
X105209000Y-58417000D02*
X105212000Y-58420000D01*
D44*
X89789000Y-102489000D02*
X89814400Y-102463600D01*
X104728000Y-104093000D02*
X105283000Y-104648000D01*
X95077000Y-96571000D02*
X95077000Y-97582000D01*
X107777000Y-105237000D02*
X107777000Y-104095000D01*
X101219000Y-94742000D02*
X101906402Y-94742000D01*
X88519000Y-102489000D02*
X88544400Y-102463600D01*
X97155000Y-110617000D02*
X98044000Y-109728000D01*
X88519000Y-103307000D02*
X88519000Y-102489000D01*
X95077000Y-97582000D02*
X94996000Y-97663000D01*
X81915000Y-58547000D02*
X83947000Y-58547000D01*
X98044000Y-110617000D02*
X98044000Y-109728000D01*
X99314000Y-94996000D02*
X99314000Y-94138500D01*
X97155000Y-110617000D02*
X96774000Y-110617000D01*
X81788000Y-58420000D02*
X81915000Y-58547000D01*
X98044000Y-110617000D02*
X97155000Y-110617000D01*
X97155000Y-110617000D02*
X97155000Y-109728000D01*
X105283000Y-104084000D02*
X105283000Y-104648000D01*
X91567000Y-104389000D02*
X91567000Y-105664000D01*
X103314000Y-58420000D02*
X103317000Y-58417000D01*
X89789000Y-103307000D02*
X89789000Y-102489000D01*
X101600000Y-58420000D02*
X103314000Y-58420000D01*
X96774000Y-110617000D02*
X96012000Y-111379000D01*
X80264000Y-58420000D02*
X81788000Y-58420000D01*
D43*
X95910000Y-112381600D02*
X95910000Y-111481000D01*
D44*
X93857000Y-99056000D02*
X93853000Y-99060000D01*
X101906402Y-94742000D02*
X101943701Y-94779299D01*
X107848400Y-105308400D02*
X107777000Y-105237000D01*
X101442000Y-80264000D02*
X101442000Y-81567000D01*
X105283000Y-104648000D02*
X105283000Y-105283000D01*
X83947000Y-58547000D02*
X84074000Y-58674000D01*
X84074000Y-58674000D02*
X85710000Y-58674000D01*
D43*
X98552000Y-86741000D02*
X98552000Y-85852000D01*
X103317000Y-58417000D02*
X105209000Y-58417000D01*
D44*
X102284000Y-105742000D02*
X102235000Y-105791000D01*
X103967000Y-104093000D02*
X104728000Y-104093000D01*
D45*
%TO.N,/D-*%
X97536000Y-91186000D02*
X97536000Y-92202000D01*
X97837000Y-100156000D02*
X95582000Y-100156000D01*
X95757000Y-102056001D02*
X95757000Y-109773231D01*
X95582000Y-100156000D02*
X94982000Y-100756000D01*
X95757000Y-109773231D02*
X94085000Y-111445231D01*
X99262232Y-98730768D02*
X97837000Y-100156000D01*
X97409000Y-89920000D02*
X97536000Y-90047000D01*
X99262232Y-98292550D02*
X99262232Y-98730768D01*
X97536000Y-90047000D02*
X97536000Y-91186000D01*
X94982000Y-100756000D02*
X94982000Y-101281001D01*
X100488750Y-99091750D02*
X101059500Y-98521000D01*
X101059500Y-98521000D02*
X102810000Y-98521000D01*
X94085000Y-112256600D02*
X93960000Y-112381600D01*
X94085000Y-111445231D02*
X94085000Y-112256600D01*
X94982000Y-101281001D02*
X95757000Y-102056001D01*
%TO.N,/D+*%
X94610000Y-111556600D02*
X94610000Y-112381600D01*
X96207000Y-109959600D02*
X94610000Y-111556600D01*
X97593685Y-100965000D02*
X100330000Y-98228685D01*
X96982000Y-101281001D02*
X96207000Y-102056001D01*
X98552000Y-91059000D02*
X99314000Y-91821000D01*
X100330000Y-98228685D02*
X100330000Y-98021000D01*
X96982000Y-100756000D02*
X97191000Y-100965000D01*
X96982000Y-100756000D02*
X96982000Y-101281001D01*
X100330000Y-98021000D02*
X102810000Y-98021000D01*
X97191000Y-100965000D02*
X97593685Y-100965000D01*
X98552000Y-89920000D02*
X98552000Y-91059000D01*
X96207000Y-102056001D02*
X96207000Y-109959600D01*
D44*
%TO.N,VBUS*%
X94615000Y-105605000D02*
X94615000Y-107442000D01*
X98184378Y-98819378D02*
X98147756Y-98856000D01*
X94615000Y-107442000D02*
X94615000Y-109601000D01*
X94615000Y-109601000D02*
X93726000Y-110490000D01*
X95057500Y-107188000D02*
X94869000Y-107188000D01*
X99949000Y-100599464D02*
X98298000Y-102250464D01*
X98298000Y-102250464D02*
X98298000Y-105664000D01*
X99869000Y-104093000D02*
X98298000Y-105664000D01*
D43*
X93310000Y-112381600D02*
X93310000Y-110906000D01*
D44*
X98147756Y-98856000D02*
X96982000Y-98856000D01*
X94869000Y-107188000D02*
X94615000Y-107442000D01*
X102616000Y-104093000D02*
X99869000Y-104093000D01*
X98298000Y-105664000D02*
X97028000Y-106934000D01*
D43*
X93310000Y-110906000D02*
X93726000Y-110490000D01*
%TO.N,/RTS*%
X95250000Y-93187866D02*
X93695866Y-93187866D01*
X95774500Y-92663366D02*
X95250000Y-93187866D01*
X95774500Y-88492249D02*
X95774500Y-92663366D01*
X105760000Y-95571000D02*
X105760000Y-94712500D01*
X93695866Y-93187866D02*
X90805000Y-90297000D01*
X95473866Y-92964000D02*
X95250000Y-93187866D01*
X86727500Y-87389500D02*
X94671751Y-87389500D01*
X103266774Y-92964000D02*
X95473866Y-92964000D01*
X94671751Y-87389500D02*
X95774500Y-88492249D01*
X85344000Y-88773000D02*
X86727500Y-87389500D01*
X105760000Y-94712500D02*
X105984500Y-94488000D01*
X103490640Y-93187866D02*
X103266774Y-92964000D01*
%TO.N,Net-(Q1-B)*%
X85344000Y-90673000D02*
X87883000Y-90673000D01*
X87883000Y-90673000D02*
X89281000Y-89275000D01*
%TO.N,/EN_Auto*%
X87219000Y-89723000D02*
X86894000Y-90048000D01*
X89647604Y-91298000D02*
X92437470Y-94087866D01*
X84281500Y-90326249D02*
X84281500Y-91019751D01*
X84559749Y-91298000D02*
X89647604Y-91298000D01*
X96113866Y-94087866D02*
X96895000Y-94869000D01*
X84559749Y-90048000D02*
X84281500Y-90326249D01*
X86894000Y-90048000D02*
X84559749Y-90048000D01*
X84281500Y-91019751D02*
X84559749Y-91298000D01*
X92437470Y-94087866D02*
X96113866Y-94087866D01*
%TO.N,/IO0_Auto*%
X94712000Y-92172000D02*
X94742000Y-92202000D01*
X94712000Y-90739000D02*
X94712000Y-92172000D01*
X96774000Y-96651000D02*
X96897000Y-96774000D01*
X96774000Y-95788500D02*
X96774000Y-96651000D01*
%TO.N,Net-(Q2-B)*%
X94712000Y-88839000D02*
X91243000Y-88839000D01*
X91243000Y-88839000D02*
X90805000Y-89277000D01*
%TO.N,/DTR*%
X95436396Y-93637866D02*
X92623866Y-93637866D01*
X90996962Y-88114500D02*
X91440000Y-88114500D01*
X91803086Y-89789000D02*
X92837000Y-89789000D01*
X89663000Y-90677000D02*
X89281000Y-90295000D01*
X95660262Y-93414000D02*
X95436396Y-93637866D01*
X89926000Y-89185462D02*
X90996962Y-88114500D01*
X92623866Y-93637866D02*
X89663000Y-90677000D01*
X103760000Y-95571000D02*
X101603000Y-93414000D01*
X89663000Y-90677000D02*
X89926000Y-90414000D01*
X89926000Y-90414000D02*
X89926000Y-89185462D01*
X91680497Y-89911589D02*
X91803086Y-89789000D01*
X101603000Y-93414000D02*
X95660262Y-93414000D01*
D44*
%TO.N,+3.3V*%
X98736206Y-97442667D02*
X99314000Y-96864873D01*
X106507000Y-105287800D02*
X106507000Y-104095000D01*
X92452000Y-83820000D02*
X91567000Y-83820000D01*
X80269000Y-60447000D02*
X80264000Y-60452000D01*
X99314000Y-96864873D02*
X99314000Y-96546000D01*
X107061000Y-59817000D02*
X107188000Y-59690000D01*
X92279000Y-94869000D02*
X91440000Y-94869000D01*
X81915000Y-60447000D02*
X80269000Y-60447000D01*
X81915000Y-60447000D02*
X83261000Y-60447000D01*
X85884000Y-59634000D02*
X86067000Y-59817000D01*
X106172000Y-59817000D02*
X107061000Y-59817000D01*
X92283000Y-96520000D02*
X91440000Y-96520000D01*
X101219000Y-95702000D02*
X101219000Y-97321500D01*
X84074000Y-59634000D02*
X85884000Y-59634000D01*
X83261000Y-60447000D02*
X84074000Y-59634000D01*
X106527600Y-105308400D02*
X106507000Y-105287800D01*
D43*
%TO.N,/GPIO0*%
X82193000Y-61317000D02*
X77978000Y-65532000D01*
X89916000Y-105283000D02*
X89535000Y-105283000D01*
X97917000Y-96774000D02*
X97028000Y-97663000D01*
X89535000Y-105283000D02*
X88519000Y-104267000D01*
X97028000Y-97663000D02*
X96266000Y-97663000D01*
X86067000Y-61317000D02*
X82193000Y-61317000D01*
%TO.N,/GPIO1*%
X81329396Y-62817000D02*
X79153000Y-64993396D01*
X79153000Y-66897000D02*
X77978000Y-68072000D01*
X86067000Y-62817000D02*
X81329396Y-62817000D01*
X79153000Y-64993396D02*
X79153000Y-66897000D01*
%TO.N,/GPIO2*%
X79603000Y-65179792D02*
X79603000Y-68987000D01*
X86067000Y-64317000D02*
X80465792Y-64317000D01*
X80465792Y-64317000D02*
X79603000Y-65179792D01*
X79603000Y-68987000D02*
X77978000Y-70612000D01*
%TO.N,/GPIO3*%
X86067000Y-65817000D02*
X81122000Y-65817000D01*
X81122000Y-65817000D02*
X80053000Y-66886000D01*
X80053000Y-66886000D02*
X80053000Y-71077000D01*
X80053000Y-71077000D02*
X77978000Y-73152000D01*
%TO.N,/GPIO4*%
X86067000Y-67317000D02*
X83051000Y-67317000D01*
X83051000Y-67317000D02*
X80503000Y-69865000D01*
X80503000Y-71263396D02*
X79153000Y-72613396D01*
X80503000Y-69865000D02*
X80503000Y-71263396D01*
X79153000Y-72613396D02*
X79153000Y-74517000D01*
X79153000Y-74517000D02*
X77978000Y-75692000D01*
%TO.N,/GPIO5*%
X86067000Y-68817000D02*
X82694000Y-68817000D01*
X80953000Y-71449792D02*
X79603000Y-72799792D01*
X82694000Y-68817000D02*
X80953000Y-70558000D01*
X79603000Y-74703396D02*
X79153000Y-75153396D01*
X80953000Y-70558000D02*
X80953000Y-71449792D01*
X79153000Y-75153396D02*
X79153000Y-77057000D01*
X79153000Y-77057000D02*
X77978000Y-78232000D01*
X79603000Y-72799792D02*
X79603000Y-74703396D01*
%TO.N,/GPIO6*%
X80053000Y-72986188D02*
X80053000Y-74889792D01*
X86067000Y-70317000D02*
X82722188Y-70317000D01*
X82722188Y-70317000D02*
X80053000Y-72986188D01*
X80053000Y-74889792D02*
X79603000Y-75339792D01*
X79603000Y-79147000D02*
X77978000Y-80772000D01*
X79603000Y-75339792D02*
X79603000Y-79147000D01*
%TO.N,/GPIO7*%
X80503000Y-73172584D02*
X80503000Y-75076188D01*
X81858584Y-71817000D02*
X80503000Y-73172584D01*
X80053000Y-75526188D02*
X80053000Y-81237000D01*
X86067000Y-71817000D02*
X81858584Y-71817000D01*
X80503000Y-75076188D02*
X80053000Y-75526188D01*
X80053000Y-81237000D02*
X77978000Y-83312000D01*
%TO.N,/GPIO8*%
X80953000Y-75262584D02*
X80503000Y-75712584D01*
X79153000Y-84677000D02*
X77978000Y-85852000D01*
X80503000Y-75712584D02*
X80503000Y-81423396D01*
X79153000Y-82773396D02*
X79153000Y-84677000D01*
X82131000Y-73317000D02*
X80953000Y-74495000D01*
X80953000Y-74495000D02*
X80953000Y-75262584D01*
X86067000Y-73317000D02*
X82131000Y-73317000D01*
X80503000Y-81423396D02*
X79153000Y-82773396D01*
%TO.N,/GPIO9*%
X80953000Y-81609792D02*
X79603000Y-82959792D01*
X82157792Y-74817000D02*
X80953000Y-76021792D01*
X80953000Y-76021792D02*
X80953000Y-81609792D01*
X79603000Y-82959792D02*
X79603000Y-86767000D01*
X79603000Y-86767000D02*
X77978000Y-88392000D01*
X86067000Y-74817000D02*
X82157792Y-74817000D01*
%TO.N,/GPIO10*%
X80053000Y-88857000D02*
X77978000Y-90932000D01*
X80053000Y-83146188D02*
X80053000Y-88857000D01*
X82814000Y-76317000D02*
X81403000Y-77728000D01*
X86067000Y-76317000D02*
X82814000Y-76317000D01*
X81403000Y-81796188D02*
X80053000Y-83146188D01*
X81403000Y-77728000D02*
X81403000Y-81796188D01*
%TO.N,/GPIO11*%
X79127048Y-90419348D02*
X79153000Y-90445299D01*
X80503000Y-89043396D02*
X79127048Y-90419348D01*
X81853000Y-81982584D02*
X80503000Y-83332584D01*
X79153000Y-90445299D02*
X79153000Y-92297000D01*
X83473000Y-77817000D02*
X81853000Y-79437000D01*
X86067000Y-77817000D02*
X83473000Y-77817000D01*
X80503000Y-83332584D02*
X80503000Y-89043396D01*
X81853000Y-79437000D02*
X81853000Y-81982584D01*
X79153000Y-92297000D02*
X77978000Y-93472000D01*
%TO.N,/GPIO12*%
X79603000Y-90579792D02*
X79603000Y-94387000D01*
X83941500Y-79317000D02*
X82303000Y-80955500D01*
X86067000Y-79317000D02*
X83941500Y-79317000D01*
X80953000Y-89229792D02*
X79603000Y-90579792D01*
X82303000Y-82168980D02*
X80953000Y-83518980D01*
X79603000Y-94387000D02*
X77978000Y-96012000D01*
X82303000Y-80955500D02*
X82303000Y-82168980D01*
X80953000Y-83518980D02*
X80953000Y-89229792D01*
%TO.N,/GPIO13*%
X80053000Y-94573396D02*
X79153000Y-95473396D01*
X86067000Y-80817000D02*
X84410000Y-80817000D01*
X79153000Y-95473396D02*
X79153000Y-97377000D01*
X81403000Y-83824000D02*
X81403000Y-89416188D01*
X80053000Y-90766188D02*
X80053000Y-94573396D01*
X79153000Y-97377000D02*
X77978000Y-98552000D01*
X81403000Y-89416188D02*
X80053000Y-90766188D01*
X84410000Y-80817000D02*
X81403000Y-83824000D01*
%TO.N,/GPIO14*%
X80503000Y-90952584D02*
X80503000Y-94759792D01*
X80503000Y-94759792D02*
X79603000Y-95659792D01*
X79153000Y-98013396D02*
X79153000Y-99917000D01*
X81853000Y-89602584D02*
X80503000Y-90952584D01*
X79603000Y-97563396D02*
X79153000Y-98013396D01*
X79603000Y-95659792D02*
X79603000Y-97563396D01*
X81853000Y-84010396D02*
X81853000Y-89602584D01*
X79153000Y-99917000D02*
X77978000Y-101092000D01*
X87942000Y-81567000D02*
X87917000Y-81592000D01*
X84271396Y-81592000D02*
X81853000Y-84010396D01*
X87917000Y-81592000D02*
X84271396Y-81592000D01*
%TO.N,/GPIO15*%
X82303000Y-89788980D02*
X80953000Y-91138980D01*
X80053000Y-97749792D02*
X79603000Y-98199792D01*
X88717000Y-82642000D02*
X83857792Y-82642000D01*
X80953000Y-91138980D02*
X80953000Y-94946188D01*
X79603000Y-98199792D02*
X79603000Y-102007000D01*
X79603000Y-102007000D02*
X77978000Y-103632000D01*
X80053000Y-95846188D02*
X80053000Y-97749792D01*
X89442000Y-81917000D02*
X88717000Y-82642000D01*
X82303000Y-84196792D02*
X82303000Y-89788980D01*
X80953000Y-94946188D02*
X80053000Y-95846188D01*
X89442000Y-81567000D02*
X89442000Y-81917000D01*
X83857792Y-82642000D02*
X82303000Y-84196792D01*
%TO.N,/GPIO16*%
X81403000Y-95132584D02*
X80503000Y-96032584D01*
X82753000Y-89975376D02*
X81403000Y-91325376D01*
X80503000Y-96032584D02*
X80503000Y-97936188D01*
X82753000Y-84383188D02*
X82753000Y-89975376D01*
X89767000Y-83092000D02*
X84044188Y-83092000D01*
X81403000Y-91325376D02*
X81403000Y-95132584D01*
X80053000Y-104097000D02*
X77978000Y-106172000D01*
X90942000Y-81567000D02*
X90942000Y-81917000D01*
X90942000Y-81917000D02*
X89767000Y-83092000D01*
X80053000Y-98386188D02*
X80053000Y-104097000D01*
X80503000Y-97936188D02*
X80053000Y-98386188D01*
X84044188Y-83092000D02*
X82753000Y-84383188D01*
%TO.N,/GPIO17*%
X80503000Y-98572584D02*
X80503000Y-106187000D01*
X84230584Y-83542000D02*
X83203000Y-84569584D01*
X81853000Y-95318980D02*
X80953000Y-96218980D01*
X80953000Y-98122584D02*
X80503000Y-98572584D01*
X80953000Y-96218980D02*
X80953000Y-98122584D01*
X80503000Y-106187000D02*
X77978000Y-108712000D01*
X90817000Y-83542000D02*
X84230584Y-83542000D01*
X92442000Y-81567000D02*
X92442000Y-81917000D01*
X83203000Y-84569584D02*
X83203000Y-90161772D01*
X92442000Y-81917000D02*
X90817000Y-83542000D01*
X83203000Y-90161772D02*
X81853000Y-91511772D01*
X81853000Y-91511772D02*
X81853000Y-95318980D01*
%TO.N,/GPIO18*%
X93472000Y-82037000D02*
X93942000Y-81567000D01*
X93472000Y-83820000D02*
X93472000Y-82037000D01*
%TO.N,/GPIO21*%
X108966000Y-103293462D02*
X108966000Y-104140000D01*
X106223000Y-84278796D02*
X106223000Y-88071772D01*
X106223000Y-88071772D02*
X107048506Y-88897278D01*
X107585497Y-101854000D02*
X107585497Y-101912959D01*
X99617000Y-83092000D02*
X105036204Y-83092000D01*
X105036204Y-83092000D02*
X106223000Y-84278796D01*
X108966000Y-104140000D02*
X110998000Y-106172000D01*
X98442000Y-81567000D02*
X98442000Y-81917000D01*
X107585497Y-101912959D02*
X108966000Y-103293462D01*
X107048506Y-88897278D02*
X107048506Y-93471113D01*
X98442000Y-81917000D02*
X99617000Y-83092000D01*
%TO.N,/GPIO26*%
X108585000Y-101854000D02*
X110363000Y-103632000D01*
X107573000Y-90688980D02*
X107819510Y-90935490D01*
X107819510Y-93315903D02*
X108045500Y-93541893D01*
X107573000Y-88785376D02*
X107573000Y-90688980D01*
X106673000Y-87885376D02*
X107573000Y-88785376D01*
X110363000Y-103632000D02*
X110998000Y-103632000D01*
X99942000Y-81917000D02*
X100667000Y-82642000D01*
X107819510Y-90935490D02*
X107819510Y-93315903D01*
X100667000Y-82642000D02*
X105222600Y-82642000D01*
X106673000Y-84092400D02*
X106673000Y-87885376D01*
X105222600Y-82642000D02*
X106673000Y-84092400D01*
X99942000Y-81567000D02*
X99942000Y-81917000D01*
%TO.N,/GPIO33*%
X107123000Y-83891772D02*
X107123000Y-87698980D01*
X109848952Y-98039348D02*
X109823000Y-98065299D01*
X108023000Y-90502584D02*
X108378000Y-90857584D01*
X108770000Y-96960396D02*
X109848952Y-98039348D01*
X109823000Y-98065299D02*
X109823000Y-99917000D01*
X103317000Y-80917000D02*
X105394208Y-80917000D01*
X109823000Y-99917000D02*
X110998000Y-101092000D01*
X108378000Y-90857584D02*
X108378000Y-92761188D01*
X106223000Y-82991772D02*
X107123000Y-83891772D01*
X106223000Y-81745792D02*
X106223000Y-82991772D01*
X108770000Y-93153188D02*
X108770000Y-96960396D01*
X105394208Y-80917000D02*
X106223000Y-81745792D01*
X107123000Y-87698980D02*
X108023000Y-88598980D01*
X108023000Y-88598980D02*
X108023000Y-90502584D01*
X108378000Y-92761188D02*
X108770000Y-93153188D01*
%TO.N,/GPIO34*%
X108473000Y-90316188D02*
X108828000Y-90671188D01*
X104530604Y-79417000D02*
X106673000Y-81559396D01*
X108473000Y-88412584D02*
X108473000Y-90316188D01*
X107573000Y-87512584D02*
X108473000Y-88412584D01*
X108828000Y-90671188D02*
X108828000Y-92574792D01*
X106673000Y-82805376D02*
X107573000Y-83705376D01*
X108828000Y-92574792D02*
X109220000Y-92966792D01*
X109220000Y-96774000D02*
X110998000Y-98552000D01*
X107573000Y-83705376D02*
X107573000Y-87512584D01*
X109220000Y-92966792D02*
X109220000Y-96774000D01*
X106673000Y-81559396D02*
X106673000Y-82805376D01*
X103317000Y-79417000D02*
X104530604Y-79417000D01*
%TO.N,/GPIO35*%
X107123000Y-82618980D02*
X108023000Y-83518980D01*
X109278000Y-92388396D02*
X109728000Y-92838396D01*
X109278000Y-90484792D02*
X109278000Y-92388396D01*
X108023000Y-83518980D02*
X108023000Y-87326188D01*
X103667000Y-77917000D02*
X107123000Y-81373000D01*
X109728000Y-92838396D02*
X109728000Y-94742000D01*
X109728000Y-94742000D02*
X110998000Y-96012000D01*
X108923000Y-88226188D02*
X108923000Y-90129792D01*
X103317000Y-77917000D02*
X103667000Y-77917000D01*
X108923000Y-90129792D02*
X109278000Y-90484792D01*
X108023000Y-87326188D02*
X108923000Y-88226188D01*
X107123000Y-81373000D02*
X107123000Y-82618980D01*
%TO.N,/GPIO36*%
X108473000Y-87139792D02*
X109373000Y-88039792D01*
X108473000Y-83332584D02*
X108473000Y-87139792D01*
X109373000Y-88039792D02*
X109373000Y-89943396D01*
X104669000Y-76417000D02*
X107573000Y-79321000D01*
X109728000Y-90298396D02*
X109728000Y-92202000D01*
X109728000Y-92202000D02*
X110998000Y-93472000D01*
X107573000Y-82432584D02*
X108473000Y-83332584D01*
X103317000Y-76417000D02*
X104669000Y-76417000D01*
X107573000Y-79321000D02*
X107573000Y-82432584D01*
X109373000Y-89943396D02*
X109728000Y-90298396D01*
%TO.N,/GPIO37*%
X109823000Y-89757000D02*
X110998000Y-90932000D01*
X108923000Y-83146188D02*
X108923000Y-86953396D01*
X108923000Y-86953396D02*
X109823000Y-87853396D01*
X108023000Y-82246188D02*
X108923000Y-83146188D01*
X107123000Y-77538980D02*
X108023000Y-78438980D01*
X103317000Y-74917000D02*
X104889000Y-74917000D01*
X104889000Y-74917000D02*
X107123000Y-77151000D01*
X107123000Y-77151000D02*
X107123000Y-77538980D01*
X109823000Y-87853396D02*
X109823000Y-89757000D01*
X108023000Y-78438980D02*
X108023000Y-82246188D01*
%TO.N,/GPIO38*%
X105631000Y-73417000D02*
X107573000Y-75359000D01*
X109373000Y-82959792D02*
X109373000Y-86767000D01*
X107573000Y-77352584D02*
X108473000Y-78252584D01*
X107573000Y-75359000D02*
X107573000Y-77352584D01*
X109373000Y-86767000D02*
X110998000Y-88392000D01*
X103317000Y-73417000D02*
X105631000Y-73417000D01*
X108473000Y-78252584D02*
X108473000Y-82059792D01*
X108473000Y-82059792D02*
X109373000Y-82959792D01*
%TO.N,/GPIO39*%
X108023000Y-73358980D02*
X108023000Y-77166188D01*
X108023000Y-77166188D02*
X108923000Y-78066188D01*
X109823000Y-82773396D02*
X109823000Y-84677000D01*
X108923000Y-78066188D02*
X108923000Y-81873396D01*
X109823000Y-84677000D02*
X110998000Y-85852000D01*
X103317000Y-71917000D02*
X106581020Y-71917000D01*
X106581020Y-71917000D02*
X108023000Y-73358980D01*
X108923000Y-81873396D02*
X109823000Y-82773396D01*
%TO.N,/GPIO40*%
X103317000Y-70417000D02*
X105723000Y-70417000D01*
X107028000Y-71727584D02*
X108473000Y-73172584D01*
X109373000Y-77879792D02*
X109373000Y-81687000D01*
X108473000Y-73172584D02*
X108473000Y-76979792D01*
X109373000Y-81687000D02*
X110998000Y-83312000D01*
X107028000Y-71722000D02*
X107028000Y-71727584D01*
X108473000Y-76979792D02*
X109373000Y-77879792D01*
X105723000Y-70417000D02*
X107028000Y-71722000D01*
%TO.N,/GPIO41*%
X108378000Y-71294000D02*
X108378000Y-72441188D01*
X108378000Y-72441188D02*
X108923000Y-72986188D01*
X106001000Y-68917000D02*
X108378000Y-71294000D01*
X103317000Y-68917000D02*
X106001000Y-68917000D01*
X108923000Y-72986188D02*
X108923000Y-76793396D01*
X109823000Y-77693396D02*
X109823000Y-79597000D01*
X108923000Y-76793396D02*
X109823000Y-77693396D01*
X109823000Y-79597000D02*
X110998000Y-80772000D01*
%TO.N,/GPIO42*%
X109373000Y-72799792D02*
X109373000Y-76607000D01*
X107928000Y-69451188D02*
X108828000Y-70351188D01*
X108828000Y-70351188D02*
X108828000Y-72254792D01*
X103317000Y-67417000D02*
X106787000Y-67417000D01*
X108828000Y-72254792D02*
X109373000Y-72799792D01*
X109373000Y-76607000D02*
X110998000Y-78232000D01*
X106787000Y-67417000D02*
X107928000Y-68558000D01*
X107928000Y-68558000D02*
X107928000Y-69451188D01*
%TO.N,/TXD*%
X109823000Y-72665299D02*
X109823000Y-74517000D01*
X100838000Y-67310000D02*
X102231000Y-65917000D01*
X107319000Y-65917000D02*
X108378000Y-66976000D01*
X109278000Y-72068396D02*
X109848952Y-72639348D01*
X108378000Y-66976000D02*
X108378000Y-69264792D01*
X105664000Y-87884000D02*
X102108000Y-84328000D01*
X103317000Y-65917000D02*
X107319000Y-65917000D01*
X102231000Y-65917000D02*
X103317000Y-65917000D01*
X105664000Y-92456000D02*
X105664000Y-87884000D01*
X108378000Y-69264792D02*
X109278000Y-70164792D01*
X109278000Y-70164792D02*
X109278000Y-72068396D01*
X109848952Y-72639348D02*
X109823000Y-72665299D01*
X109823000Y-74517000D02*
X110998000Y-75692000D01*
%TO.N,/RXD*%
X102317000Y-64417000D02*
X103317000Y-64417000D01*
X99822000Y-66912000D02*
X102317000Y-64417000D01*
X104394000Y-92456000D02*
X104394000Y-87884000D01*
X109728000Y-71882000D02*
X110998000Y-73152000D01*
X108828000Y-65271188D02*
X108828000Y-69078396D01*
X104394000Y-87884000D02*
X100838000Y-84328000D01*
X108828000Y-69078396D02*
X109728000Y-69978396D01*
X109728000Y-69978396D02*
X109728000Y-71882000D01*
X103317000Y-64417000D02*
X107973812Y-64417000D01*
X107973812Y-64417000D02*
X108828000Y-65271188D01*
X99822000Y-67310000D02*
X99822000Y-66912000D01*
%TO.N,/GPIO45*%
X107110208Y-62917000D02*
X109278000Y-65084792D01*
X103317000Y-62917000D02*
X107110208Y-62917000D01*
X109278000Y-65084792D02*
X109278000Y-68892000D01*
X109278000Y-68892000D02*
X110998000Y-70612000D01*
%TO.N,/GPIO46*%
X106551604Y-61722000D02*
X109728000Y-64898396D01*
X103317000Y-61317000D02*
X103722000Y-61722000D01*
X103722000Y-61722000D02*
X106551604Y-61722000D01*
X109728000Y-66802000D02*
X110998000Y-68072000D01*
X109728000Y-64898396D02*
X109728000Y-66802000D01*
%TO.N,/CHIP_PU*%
X105427609Y-59172000D02*
X104392000Y-59172000D01*
X104013000Y-105742000D02*
X104013000Y-105734391D01*
X105014000Y-61214000D02*
X106680000Y-61214000D01*
X101600000Y-59817000D02*
X103317000Y-59817000D01*
X103747000Y-59817000D02*
X103317000Y-59817000D01*
X103221109Y-104942500D02*
X101092000Y-104942500D01*
X104392000Y-59172000D02*
X103747000Y-59817000D01*
X106172000Y-58427609D02*
X105427609Y-59172000D01*
X106680000Y-61214000D02*
X110998000Y-65532000D01*
X103317000Y-59817000D02*
X103617000Y-59817000D01*
X106172000Y-58420000D02*
X106172000Y-58427609D01*
X97915000Y-94869000D02*
X97915000Y-94537997D01*
X105152000Y-59817000D02*
X103317000Y-59817000D01*
X104013000Y-105734391D02*
X103221109Y-104942500D01*
X97915000Y-94537997D02*
X98314497Y-94138500D01*
X103617000Y-59817000D02*
X105014000Y-61214000D01*
D44*
%TO.N,+5V*%
X93091000Y-103505000D02*
X92583000Y-103505000D01*
X93091000Y-103505000D02*
X93091000Y-105342082D01*
X89974051Y-104267000D02*
X89789000Y-104267000D01*
X94615000Y-103505000D02*
X93091000Y-103505000D01*
X78243000Y-111517000D02*
X77978000Y-111252000D01*
X91567000Y-102489000D02*
X91567000Y-102674051D01*
X86916082Y-111517000D02*
X78243000Y-111517000D01*
X93091000Y-105342082D02*
X86916082Y-111517000D01*
X92583000Y-103505000D02*
X91567000Y-102489000D01*
X91567000Y-102674051D02*
X89974051Y-104267000D01*
D43*
%TO.N,Net-(U3-VBUS)*%
X103760000Y-102363000D02*
X103760000Y-101596000D01*
X102616000Y-102740000D02*
X103760000Y-101596000D01*
X105283000Y-103119000D02*
X103760000Y-101596000D01*
X103967000Y-103073000D02*
X103967000Y-102570000D01*
X105283000Y-103124000D02*
X105283000Y-103119000D01*
X103760000Y-101596000D02*
X103760000Y-100471000D01*
X102616000Y-103073000D02*
X102616000Y-102740000D01*
X103967000Y-102570000D02*
X103760000Y-102363000D01*
%TO.N,Net-(U3-~{RST})*%
X106507000Y-103075000D02*
X106415992Y-103075000D01*
X106415992Y-103075000D02*
X104260000Y-100919008D01*
X104260000Y-100919008D02*
X104260000Y-100471000D01*
%TO.N,Net-(U3-~{SUSPEND})*%
X107182000Y-102480000D02*
X106820992Y-102480000D01*
X105260000Y-100919008D02*
X105260000Y-100471000D01*
X106820992Y-102480000D02*
X105260000Y-100919008D01*
X107777000Y-103075000D02*
X107182000Y-102480000D01*
%TO.N,/RXD_CP*%
X105260000Y-93880000D02*
X105260000Y-95571000D01*
X105664000Y-93476000D02*
X105260000Y-93880000D01*
%TO.N,/TXD_CP*%
X104394000Y-93476000D02*
X104760000Y-93842000D01*
X104760000Y-93842000D02*
X104760000Y-95571000D01*
%TO.N,Net-(D1-A)*%
X93299000Y-94869000D02*
X94950000Y-94869000D01*
X94950000Y-94869000D02*
X95077000Y-94996000D01*
D45*
%TO.N,/DP*%
X98552000Y-87701000D02*
X99252000Y-87001000D01*
X99252000Y-84647000D02*
X96942000Y-82337000D01*
X96942000Y-82337000D02*
X96942000Y-81567000D01*
X98552000Y-88900000D02*
X98552000Y-87701000D01*
X99252000Y-87001000D02*
X99252000Y-84647000D01*
%TO.N,/DN*%
X97409000Y-88900000D02*
X97409000Y-87680200D01*
X97409000Y-87680200D02*
X95442000Y-85713200D01*
X95442000Y-85713200D02*
X95442000Y-81567000D01*
%TD*%
%TA.AperFunction,Conductor*%
%TO.N,GND*%
G36*
X97733039Y-61487685D02*
G01*
X97778794Y-61540489D01*
X97790000Y-61592000D01*
X97790000Y-71250000D01*
X97770315Y-71317039D01*
X97717511Y-71362794D01*
X97666000Y-71374000D01*
X89278000Y-71374000D01*
X89210961Y-71354315D01*
X89165206Y-71301511D01*
X89154000Y-71250000D01*
X89154000Y-61592000D01*
X89173685Y-61524961D01*
X89226489Y-61479206D01*
X89278000Y-61468000D01*
X97666000Y-61468000D01*
X97733039Y-61487685D01*
G37*
%TD.AperFunction*%
%TD*%
%TA.AperFunction,Conductor*%
%TO.N,+3.3V*%
G36*
X88442164Y-91943185D02*
G01*
X88474325Y-91973100D01*
X89002200Y-92676933D01*
X89026676Y-92742375D01*
X89027000Y-92751333D01*
X89027000Y-95202060D01*
X89007315Y-95269099D01*
X88994753Y-95285471D01*
X87757001Y-96646998D01*
X87757000Y-96647001D01*
X87757000Y-98420753D01*
X87737315Y-98487792D01*
X87720681Y-98508434D01*
X87437061Y-98792054D01*
X87437042Y-98792073D01*
X87435877Y-98793239D01*
X87434786Y-98794452D01*
X87434759Y-98794482D01*
X87400817Y-98832268D01*
X87400787Y-98832302D01*
X87399712Y-98833500D01*
X87398686Y-98834772D01*
X87398670Y-98834792D01*
X87384121Y-98852846D01*
X87384097Y-98852877D01*
X87383078Y-98854142D01*
X87382129Y-98855457D01*
X87382113Y-98855479D01*
X87351431Y-98898028D01*
X87291662Y-99028901D01*
X87290828Y-99031742D01*
X87271977Y-99095942D01*
X87271976Y-99095946D01*
X87271527Y-99099068D01*
X87271524Y-99099084D01*
X87254917Y-99214596D01*
X87251500Y-99238362D01*
X87251500Y-101421638D01*
X87254397Y-101475678D01*
X87254574Y-101477327D01*
X87254576Y-101477348D01*
X87257050Y-101500356D01*
X87257231Y-101502036D01*
X87257496Y-101503675D01*
X87257497Y-101503678D01*
X87265886Y-101555451D01*
X87316166Y-101690253D01*
X87316167Y-101690255D01*
X87316168Y-101690257D01*
X87349653Y-101751580D01*
X87435877Y-101866761D01*
X87585245Y-102016129D01*
X87596451Y-102026995D01*
X87596476Y-102027018D01*
X87596525Y-102027066D01*
X87602187Y-102032387D01*
X87613620Y-102042803D01*
X87633917Y-102056122D01*
X87679168Y-102109358D01*
X87688453Y-102178608D01*
X87683820Y-102198113D01*
X87658726Y-102275342D01*
X87638940Y-102463600D01*
X87658726Y-102651857D01*
X87717219Y-102831881D01*
X87732124Y-102857696D01*
X87748597Y-102925596D01*
X87743813Y-102954292D01*
X87711357Y-103066003D01*
X87708691Y-103099875D01*
X87708690Y-103099890D01*
X87708500Y-103102310D01*
X87708500Y-103511690D01*
X87708690Y-103514110D01*
X87708691Y-103514124D01*
X87711357Y-103547996D01*
X87752076Y-103688148D01*
X87757000Y-103722743D01*
X87757000Y-103851257D01*
X87752076Y-103885852D01*
X87711355Y-104026009D01*
X87710500Y-104036880D01*
X87685615Y-104102168D01*
X87683711Y-104104610D01*
X87286230Y-104601462D01*
X87228980Y-104641514D01*
X87189402Y-104648000D01*
X85922208Y-104648000D01*
X85855169Y-104628315D01*
X85815879Y-104587798D01*
X85725762Y-104437604D01*
X85708150Y-104369990D01*
X85710114Y-104351500D01*
X85710335Y-104350296D01*
X85715815Y-104206522D01*
X85710186Y-104152959D01*
X85710186Y-104127042D01*
X85714222Y-104088637D01*
X85716141Y-104070373D01*
X85721528Y-104045028D01*
X85739133Y-103990844D01*
X85749675Y-103967169D01*
X85765161Y-103940349D01*
X85815662Y-103818430D01*
X85832275Y-103756430D01*
X85849500Y-103625596D01*
X85849500Y-101631456D01*
X85849178Y-101613414D01*
X85849176Y-101613294D01*
X85848854Y-101604342D01*
X85847896Y-101586536D01*
X85829511Y-101502036D01*
X85817307Y-101445942D01*
X85792889Y-101380480D01*
X85757167Y-101315062D01*
X85742000Y-101255635D01*
X85742000Y-99221768D01*
X85742020Y-99219049D01*
X85742101Y-99217076D01*
X85742039Y-99214596D01*
X85742000Y-99211497D01*
X85742000Y-99160964D01*
X85740857Y-99159572D01*
X85734734Y-99141338D01*
X85724109Y-99099084D01*
X85703995Y-99019088D01*
X85677487Y-98954442D01*
X85677486Y-98954441D01*
X85674642Y-98947505D01*
X85669475Y-98940829D01*
X85604509Y-98830441D01*
X85566745Y-98783236D01*
X85498172Y-98697519D01*
X85471664Y-98632873D01*
X85471000Y-98620057D01*
X85471000Y-96647000D01*
X84110319Y-95286319D01*
X84076834Y-95224996D01*
X84074000Y-95198638D01*
X84074000Y-92751333D01*
X84093685Y-92684294D01*
X84098800Y-92676933D01*
X84626675Y-91973100D01*
X84682646Y-91931279D01*
X84725875Y-91923500D01*
X88375125Y-91923500D01*
X88442164Y-91943185D01*
G37*
%TD.AperFunction*%
%TD*%
%TA.AperFunction,Conductor*%
%TO.N,GND*%
G36*
X84843441Y-98698685D02*
G01*
X84873230Y-98725538D01*
X85209780Y-99146225D01*
X85236288Y-99210871D01*
X85236759Y-99229710D01*
X85236500Y-99232127D01*
X85236500Y-99235451D01*
X85236500Y-99235452D01*
X85236500Y-101324560D01*
X85236500Y-101324578D01*
X85236501Y-101327872D01*
X85242909Y-101387483D01*
X85293204Y-101522331D01*
X85319266Y-101557146D01*
X85343684Y-101622608D01*
X85344000Y-101631456D01*
X85344000Y-103625596D01*
X85327387Y-103687596D01*
X85278820Y-103771715D01*
X85220326Y-103951742D01*
X85200540Y-104140000D01*
X85213083Y-104259354D01*
X85200513Y-104328084D01*
X85188962Y-104346713D01*
X85000200Y-104598399D01*
X84944229Y-104640221D01*
X84901000Y-104648000D01*
X83998362Y-104648000D01*
X83931323Y-104628315D01*
X83910681Y-104611681D01*
X83475319Y-104176318D01*
X83441834Y-104114995D01*
X83439000Y-104088637D01*
X83439000Y-101981000D01*
X83438999Y-101980999D01*
X82114688Y-101379040D01*
X82061803Y-101333379D01*
X82042000Y-101266375D01*
X82042000Y-99372078D01*
X82061685Y-99305039D01*
X82086617Y-99276819D01*
X82136258Y-99235452D01*
X82428063Y-98992280D01*
X82769511Y-98707741D01*
X82833614Y-98679945D01*
X82848894Y-98679000D01*
X84776402Y-98679000D01*
X84843441Y-98698685D01*
G37*
%TD.AperFunction*%
%TD*%
%TA.AperFunction,Conductor*%
%TO.N,GND*%
G36*
X90811845Y-97174685D02*
G01*
X90828160Y-97188552D01*
X90987269Y-97304151D01*
X91160197Y-97381144D01*
X91345352Y-97420500D01*
X91345354Y-97420500D01*
X91534648Y-97420500D01*
X91719800Y-97381145D01*
X91719801Y-97381144D01*
X91719803Y-97381144D01*
X91878294Y-97310578D01*
X91947539Y-97301293D01*
X91963316Y-97304780D01*
X92042007Y-97327643D01*
X92078310Y-97330500D01*
X92080755Y-97330500D01*
X92485245Y-97330500D01*
X92487690Y-97330500D01*
X92523993Y-97327643D01*
X92534659Y-97324544D01*
X92604527Y-97324741D01*
X92656938Y-97355938D01*
X92927681Y-97626681D01*
X92961166Y-97688004D01*
X92964000Y-97714362D01*
X92964000Y-99243792D01*
X92944315Y-99310831D01*
X92903797Y-99350121D01*
X92657615Y-99497830D01*
X92590002Y-99515442D01*
X92542307Y-99504295D01*
X92497130Y-99483663D01*
X92431780Y-99464474D01*
X92431778Y-99464473D01*
X92430087Y-99463977D01*
X92430083Y-99463976D01*
X92426957Y-99463526D01*
X92426944Y-99463524D01*
X92287667Y-99443500D01*
X90760898Y-99443500D01*
X90693859Y-99423815D01*
X90657724Y-99388283D01*
X90190826Y-98687936D01*
X90170018Y-98621237D01*
X90170000Y-98619153D01*
X90170000Y-97714362D01*
X90189685Y-97647323D01*
X90206319Y-97626681D01*
X90641681Y-97191319D01*
X90703004Y-97157834D01*
X90729362Y-97155000D01*
X90744806Y-97155000D01*
X90811845Y-97174685D01*
G37*
%TD.AperFunction*%
%TD*%
%TA.AperFunction,Conductor*%
%TO.N,+5V*%
G36*
X89662676Y-98825685D02*
G01*
X89698811Y-98861217D01*
X89916000Y-99187000D01*
X90424000Y-99949000D01*
X92287667Y-99949000D01*
X92354706Y-99968685D01*
X92362067Y-99973800D01*
X92787400Y-100292800D01*
X92829221Y-100348771D01*
X92837000Y-100392000D01*
X92837000Y-102945638D01*
X92817315Y-103012677D01*
X92800681Y-103033319D01*
X92492319Y-103341681D01*
X92430996Y-103375166D01*
X92404638Y-103378000D01*
X90842544Y-103378000D01*
X90775505Y-103358315D01*
X90773812Y-103357208D01*
X90714237Y-103317492D01*
X90654716Y-103277810D01*
X90609856Y-103224244D01*
X90599500Y-103174636D01*
X90599500Y-103104755D01*
X90599500Y-103102310D01*
X90596643Y-103066007D01*
X90581192Y-103012824D01*
X90581391Y-102942957D01*
X90592877Y-102916237D01*
X90641579Y-102831884D01*
X90700074Y-102651856D01*
X90719860Y-102463600D01*
X90700074Y-102275344D01*
X90641579Y-102095316D01*
X90641579Y-102095315D01*
X90546933Y-101931383D01*
X90420270Y-101790710D01*
X90267130Y-101679448D01*
X90094202Y-101602455D01*
X89909048Y-101563100D01*
X89909046Y-101563100D01*
X89719754Y-101563100D01*
X89719752Y-101563100D01*
X89534597Y-101602455D01*
X89361673Y-101679446D01*
X89355012Y-101684286D01*
X89328816Y-101703318D01*
X89263011Y-101726798D01*
X89255932Y-101727000D01*
X89102868Y-101727000D01*
X89035829Y-101707315D01*
X89029998Y-101703329D01*
X88997130Y-101679449D01*
X88997126Y-101679446D01*
X88824202Y-101602455D01*
X88639048Y-101563100D01*
X88639046Y-101563100D01*
X88449754Y-101563100D01*
X88449752Y-101563100D01*
X88264599Y-101602454D01*
X88080803Y-101684286D01*
X88011553Y-101693570D01*
X87948277Y-101663942D01*
X87942687Y-101658687D01*
X87793319Y-101509319D01*
X87759834Y-101447996D01*
X87757000Y-101421638D01*
X87757000Y-99238362D01*
X87776685Y-99171323D01*
X87793319Y-99150681D01*
X88101681Y-98842319D01*
X88163004Y-98808834D01*
X88189362Y-98806000D01*
X89595637Y-98806000D01*
X89662676Y-98825685D01*
G37*
%TD.AperFunction*%
%TD*%
M02*
